#N canvas 643 98 528 450 12;
#X obj 26 34 bng 17 250 50 0 empty empty empty 0 -9 0 10 #fcfcfc #000000 #000000;
#X obj 26 56 i \$0;
#X floatatom 26 80 5 0 0 0 - - - 0;
#X obj 77 48 n_cnvinfo;
#X obj 77 17 bng 18 250 50 0 empty empty empty 0 -9 0 12 #fcfcfc #000000 #000000;
#X obj 77 71 route dollarzero;
#X floatatom 77 96 5 0 0 0 - - - 0;
#N canvas 455 216 450 300 another 0;
#X obj 26 34 bng 17 250 50 0 empty empty empty 0 -9 0 10 #fcfcfc #000000 #000000;
#X obj 26 56 i \$0;
#X floatatom 26 80 5 0 0 0 - - - 0;
#X obj 77 48 n_cnvinfo;
#X obj 77 17 bng 18 250 50 0 empty empty empty 0 -9 0 12 #fcfcfc #000000 #000000;
#X obj 77 71 route dollarzero;
#X floatatom 77 96 5 0 0 0 - - - 0;
#X msg 134 17 canvas 1;
#X connect 0 0 1 0;
#X connect 1 0 2 0;
#X connect 3 0 5 0;
#X connect 4 0 3 0;
#X connect 5 0 6 0;
#X connect 7 0 3 0;
#X restore 188 140 pd another;
#X obj 183 195 canvasdollarzero-child;
#X obj 182 239 canvasdollarzero-child;
#X msg 134 17 canvas 1;
#N canvas 192 289 450 300 another 0;
#X obj 161 142 canvasdollarzero-child;
#X obj 160 186 canvasdollarzero-child;
#X restore 229 281 pd another with childs;
#X connect 0 0 1 0;
#X connect 1 0 2 0;
#X connect 3 0 5 0;
#X connect 4 0 3 0;
#X connect 5 0 6 0;
#X connect 10 0 3 0;
