#N canvas 787 367 455 321 12;
#X obj 26 34 bng 17 250 50 0 empty empty empty 0 -9 0 10 #fcfcfc #000000 #000000;
#X obj 26 56 i \$0;
#X floatatom 26 80 5 0 0 0 - - - 0;
#X obj 77 48 n_cnvinfo;
#X obj 77 17 bng 18 250 50 0 empty empty empty 0 -9 0 12 #fcfcfc #000000 #000000;
#X obj 77 71 route dollarzero;
#X floatatom 77 96 5 0 0 0 - - - 0;
#X msg 134 17 canvas 1;
#X connect 0 0 1 0;
#X connect 1 0 2 0;
#X connect 3 0 5 0;
#X connect 4 0 3 0;
#X connect 5 0 6 0;
#X connect 7 0 3 0;
