#N canvas 316 141 1024 537 12;
#X obj 71 37 nbx 2 14 1 32 0 1 empty empty steps 0 -8 0 10 #fcfcfc
#000000 #000000 32 256;
#X obj 206 35 nbx 2 14 0 32 0 1 empty empty hits 0 -8 0 10 #fcfcfc
#000000 #000000 27 256;
#X obj 365 353 n_canvas 8 8 empty empty empty 10 10 11 16579836 65793
65793 33;
#X obj 330 33 nbx 2 14 0 32 0 1 empty empty acc 0 -8 0 10 #fcfcfc #000000
#000000 4 256;
#X obj 299 221 pdpython euklid EuklidClass;
#X floatatom 14 113 5 0 0 0 - - - 0;
#X obj 71 117 bng 15 250 50 0 empty empty empty 17 7 0 10 #fcfcfc #000000
#000000;
#X msg 71 54 set_step \$1 \, make;
#X obj 365 256 route disp;
#X obj 357 92 nbx 3 14 4 512 0 1 empty empty w 0 -8 0 10 #fcfcfc #000000
#000000 200 256;
#X obj 396 92 nbx 3 14 4 512 0 1 empty empty h 0 -8 0 10 #fcfcfc #000000
#000000 10 256;
#X obj 396 111 t b f;
#X msg 355 157 set_size \$1 \$2;
#X obj 357 135 pack;
#X obj 495 97 nbx 2 14 0 30 0 1 empty empty frame 0 -8 0 10 #fcfcfc
#000000 #000000 22 256;
#X obj 534 97 nbx 2 14 0 30 0 1 empty empty no 0 -8 0 10 #fcfcfc #000000
#000000 0 256;
#X obj 534 116 t b f;
#X obj 575 97 nbx 2 14 0 30 0 1 empty empty hit 0 -8 0 10 #fcfcfc #000000
#000000 11 256;
#X obj 575 116 t b f;
#X obj 616 97 nbx 2 14 0 30 0 1 empty empty acc 0 -8 0 10 #fcfcfc #000000
#000000 13 256;
#X obj 616 116 t b f;
#X msg 206 53 set_hit \$1 \, make;
#X msg 330 51 set_acc \$1 \, make;
#X obj 634 268 i_transport 2;
#X obj 20 327 i_clk 5;
#X obj 20 375 i_output 1;
#X obj 346 481 a_pdss;
#A saved 25 3 1 0 3 5 0 5 2 0 6 90 1 0 46 56 10 53 0 0 141 1 0 21 1
;
#X obj 634 489 s \$0-time96;
#X obj 558 429 * 0.01;
#X obj 662 413 vradio 14 1 0 3 \$0-pdss-s-20 \$0-pdss-r-20 empty 0
-8 0 10 #ffffff #000000 #000000 0;
#X obj 474 404 nbx 2 15 1 96 0 0 \$0-pdss-s-0 \$0-pdss-r-0 d -10 8
0 10 #c7c6ff #000000 #000000 0 256;
#X obj 560 408 nbx 2 15 0 100 0 0 \$0-pdss-s-3 \$0-pdss-r-3 f -10 8
0 10 #e3c6ff #000000 #000000 0 256;
#X text 651 412 >;
#X text 651 425 <;
#X text 651 439 ?;
#X obj 495 142 pack f f f f f;
#X msg 495 166 set_color \$1 \$2 \$3 \$4 \$5;
#X obj 658 97 nbx 2 14 0 30 0 1 empty empty play 0 -8 0 10 #fcfcfc
#000000 #000000 17 256;
#X obj 658 116 t b f;
#X msg 75 190 make;
#X obj 448 495 s \$0-pos;
#X obj 14 91 r \$0-pos;
#X obj 448 466 a_position 6 16 0 0 0 32 10;
#X connect 0 0 7 0;
#X connect 0 0 42 2;
#X connect 1 0 21 0;
#X connect 3 0 22 0;
#X connect 4 0 8 0;
#X connect 5 0 4 0;
#X connect 6 0 4 0;
#X connect 7 0 4 0;
#X connect 8 0 2 0;
#X connect 8 1 24 0;
#X connect 9 0 13 0;
#X connect 10 0 11 0;
#X connect 11 0 13 0;
#X connect 11 1 13 1;
#X connect 12 0 4 0;
#X connect 13 0 12 0;
#X connect 14 0 35 0;
#X connect 15 0 16 0;
#X connect 16 0 35 0;
#X connect 16 1 35 1;
#X connect 17 0 18 0;
#X connect 18 0 35 0;
#X connect 18 1 35 2;
#X connect 19 0 20 0;
#X connect 20 0 35 0;
#X connect 20 1 35 3;
#X connect 21 0 4 0;
#X connect 22 0 4 0;
#X connect 23 0 42 0;
#X connect 24 0 25 0;
#X connect 28 0 42 4;
#X connect 29 0 42 5;
#X connect 30 0 42 1;
#X connect 31 0 28 0;
#X connect 35 0 36 0;
#X connect 36 0 4 0;
#X connect 37 0 38 0;
#X connect 38 0 35 0;
#X connect 38 1 35 4;
#X connect 39 0 4 0;
#X connect 41 0 5 0;
#X connect 42 0 40 0;
#X connect 42 2 27 0;
