#N canvas 326 78 785 633 10;
#X obj 28 130 inlet pos96;
#X obj 203 230 inlet time96;
#X obj 600 200 vradio 10 1 0 3 \$0-pdss-s-7 \$0-pdss-r-7 empty 0 -8
0 10 #ffffff #000000 #000000 0;
#X obj 397 200 nbx 2 12 1 96 0 0 \$0-pdss-s-0 \$0-pdss-r-0 d -10 6
0 10 #c7c6ff #000000 #000000 0 256;
#X text 590 199 >;
#X text 590 206 <;
#X text 590 215 ?;
#N canvas 20 20 1070 424 __pdss__ 0;
#X text 20 20 [Created by pdss.py];
#X obj 20 44 a_pdss_driver i_seqeu \$0 \$1 8 \$2;
#X obj 20 68 table \$0-pdss-array-0;
#X obj 370 20 a_pdss_par i_seqeu \$0 \$1 0 nbx d 1 96;
#X obj 370 44 a_pdss_par i_seqeu \$0 \$1 1 nbx f 0 100;
#X obj 370 68 a_pdss_par i_seqeu \$0 \$1 2 nbx s 1 32;
#X obj 370 92 a_pdss_par i_seqeu \$0 \$1 3 nbx hit 0 32;
#X obj 370 116 a_pdss_par i_seqeu \$0 \$1 4 nbx acc 0 32;
#X obj 370 140 a_pdss_par i_seqeu \$0 \$1 5 nbx empty 0 32;
#X obj 370 164 a_pdss_par i_seqeu \$0 \$1 6 nbx empty 0 32;
#X obj 370 188 a_pdss_par i_seqeu \$0 \$1 7 vrd empty 0 3;
#X obj 720 20 a_pdss_array i_seqeu \$0 \$1 0 \$0-pdss-array-0;
#X restore 20 20 pd __pdss__;
#X obj 436 200 nbx 2 12 0 100 0 0 \$0-pdss-s-1 \$0-pdss-r-1 f -10 6
0 10 #c7c6ff #000000 #000000 0 256;
#X obj 415 569 outlet;
#X obj 346 295 s \$0-d;
#X obj 389 295 s \$0-f;
#X obj 389 274 * 0.01;
#X obj 51 151 r \$0-d;
#X obj 105 219 r \$0-f;
#X obj 626 295 s \$0-dir;
#X obj 151 220 r \$0-dir;
#X obj 29 283 s \$0-step-cur;
#X obj 476 200 nbx 2 12 1 32 0 0 \$0-pdss-s-2 \$0-pdss-r-2 s -10 6
0 10 #fcfcfc #000000 #000000 0 256;
#X obj 530 200 nbx 2 12 0 32 0 0 \$0-pdss-s-3 \$0-pdss-r-3 hit -24
6 0 10 #fcfcfc #000000 #000000 0 256;
#X obj 300 218 n_canvas 8 8 empty \\\$0-todisp empty 10 10 11 16579836
65793 65793 33;
#X obj 530 218 nbx 2 12 0 32 0 0 \$0-pdss-s-4 \$0-pdss-r-4 acc -24
6 0 10 #fcfcfc #000000 #000000 0 256;
#X obj 351 523 pdpython euklid EuklidClass;
#X msg 163 430 set_step \$1 \, make;
#X obj 351 546 route disp;
#X msg 285 428 set_hit \$1 \, make;
#X msg 402 428 set_acc \$1 \, make;
#X obj 32 508 loadbang;
#X obj 560 200 nbx 2 12 0 32 0 0 \$0-pdss-s-5 \$0-pdss-r-5 empty -30
6 0 10 #fcfcfc #000000 #000000 0 256;
#X msg 518 404 set_hit_rotate \$1 \, make;
#X obj 560 218 nbx 2 12 0 32 0 0 \$0-pdss-s-6 \$0-pdss-r-6 empty -30
6 0 10 #fcfcfc #000000 #000000 0 256;
#X msg 521 450 set_acc_rotate \$1 \, make;
#X obj 432 295 s \$0-step;
#X obj 73 175 r \$0-step;
#X obj 163 410 r \$0-step;
#X obj 328 570 s \$0-todisp;
#X obj 493 295 s \$0-acc;
#X obj 402 408 r \$0-acc;
#X obj 493 273 s \$0-hit;
#X obj 285 408 r \$0-hit;
#X obj 70 430 r \$0-step-cur;
#X obj 548 273 s \$0-acc-rot;
#X obj 521 427 r \$0-acc-rot;
#X obj 548 295 s \$0-hit-rot;
#X obj 516 380 r \$0-hit-rot;
#X msg 31 533 set_color 22 0 1 14 13 \, set_size 200 12 \, make;
#X obj 30 256 a_position 6 16 0 0 0 32 10;
#X connect 0 0 46 0;
#X connect 1 0 46 7;
#X connect 2 0 15 0;
#X connect 3 0 10 0;
#X connect 8 0 12 0;
#X connect 12 0 11 0;
#X connect 13 0 46 1;
#X connect 14 0 46 4;
#X connect 16 0 46 5;
#X connect 18 0 32 0;
#X connect 19 0 38 0;
#X connect 21 0 36 0;
#X connect 22 0 24 0;
#X connect 23 0 22 0;
#X connect 24 0 35 0;
#X connect 24 1 9 0;
#X connect 25 0 22 0;
#X connect 26 0 22 0;
#X connect 27 0 45 0;
#X connect 28 0 43 0;
#X connect 29 0 22 0;
#X connect 30 0 41 0;
#X connect 31 0 22 0;
#X connect 33 0 46 2;
#X connect 34 0 23 0;
#X connect 37 0 26 0;
#X connect 39 0 25 0;
#X connect 40 0 22 0;
#X connect 42 0 31 0;
#X connect 44 0 29 0;
#X connect 45 0 22 0;
#X connect 46 0 17 0;
#X coords 0 -1 1 1 310 30 1 300 200;
