#N canvas 642 53 467 684 10;
#N canvas 493 111 489 335 size 0;
#X obj 64 98 n_array;
#N canvas 0 50 450 250 (subpatch) 0;
#X array a_size 184 float 2;
#X coords 0 1 184 -1 200 140 1 0 0;
#X restore 231 53 graph;
#X msg 64 76 size a_size;
#X text 56 34 get size array.;
#X obj 59 241 n_array;
#X text 65 158 resize array.;
#X msg 59 219 resize a_size \$1;
#X obj 64 120 print size;
#X obj 59 263 print resize;
#X floatatom 59 199 5 0 0 0 - - -;
#X text 65 48 size <array>;
#X text 44 172 resize <array> <size>;
#X connect 0 0 7 0;
#X connect 2 0 0 0;
#X connect 4 0 8 0;
#X connect 6 0 4 0;
#X connect 9 0 6 0;
#X restore 140 85 pd size;
#N canvas 210 111 1073 330 dump/set 0;
#X obj 40 95 n_array;
#N canvas 0 50 450 250 (subpatch) 0;
#X array a_list 10 float 2;
#X coords 0 1 10 -1 200 140 1 0 0;
#X restore 362 100 graph;
#X text 69 20 dump array to list.;
#X msg 40 77 dump a_list;
#X msg 325 34 \; a_list resize 10 \; a_list 0 0.1 0.2 0.3 0.4 0.5 0.6
0.7 0.8 0.9 1;
#X msg 391 261 \; a_list resize 4 \; a_list 0 0.5 -0.5 1 -1;
#X obj 40 167 n_array;
#X msg 40 149 dump a_list 0 -1;
#X obj 170 95 n_array;
#X obj 170 167 n_array;
#X msg 170 77 dump a_list 0 3;
#X text 52 34 dump <array> <start> <len>;
#X obj 325 14 loadbang;
#X msg 170 149 dump a_list -2 0;
#X obj 718 95 n_array;
#X obj 718 113 print size;
#X obj 718 167 n_array;
#X obj 718 185 print size;
#X text 769 20 set array from list;
#X msg 718 77 set a_list 0.1 -0.1;
#X text 768 34 set <array> <list>;
#X msg 718 149 set a_list 0.3 0.2 0.1 0 -0.1 -0.2 -0.3;
#X obj 40 113 print list;
#X obj 40 185 print list;
#X obj 170 113 print list;
#X obj 170 185 print list;
#X connect 0 0 22 0;
#X connect 3 0 0 0;
#X connect 6 0 23 0;
#X connect 7 0 6 0;
#X connect 8 0 24 0;
#X connect 9 0 25 0;
#X connect 10 0 8 0;
#X connect 12 0 4 0;
#X connect 13 0 9 0;
#X connect 14 0 15 0;
#X connect 16 0 17 0;
#X connect 19 0 14 0;
#X connect 21 0 16 0;
#X restore 140 106 pd dump/set;
#X obj 140 12 tgl 15 0 empty empty for_posting_start_end_length_operations
17 7 0 10 -262144 -1 -1 0 1;
#X msg 140 29 debug \$1;
#X obj 140 47 n_array;
#N canvas 303 45 667 665 analysis 0;
#X obj 90 74 n_array;
#N canvas 0 50 450 250 (subpatch) 0;
#X array a_analysis 10 float 2;
#X coords 0 1 10 -1 200 140 1 0 0;
#X restore 362 100 graph;
#X obj 325 14 loadbang;
#X text 52 34 minmax <array> <start> <len>;
#X obj 90 110 print -n;
#X msg 90 92 min at \$1 = \$2 \, max at \$3 = \$4;
#X obj 90 151 n_array;
#X obj 90 187 print -n;
#X msg 90 169 min at \$1 = \$2 \, max at \$3 = \$4;
#X obj 30 275 n_array;
#X obj 177 275 n_array;
#X text 56 229 sum <array> <start> <len>;
#X msg 30 257 sum a_analysis;
#X msg 90 56 minmax a_analysis;
#X msg 90 133 minmax a_analysis 0 3;
#X msg 325 34 \; a_analysis resize 10 \; a_analysis 0 0.1 0.2 0.3 0.4
0.5 0.6 0.7 0.8 0.9 1;
#X msg 391 261 \; a_analysis resize 4 \; a_analysis 0 0.5 -0.5 1 -1
;
#X msg 177 257 sum a_analysis 0 4;
#X obj 30 293 print sum;
#X obj 177 294 print sum;
#X obj 30 377 n_array;
#X obj 177 377 n_array;
#X text 53 320 mean arithmetric elements of array;
#X text 68 215 sum elements of array;
#X text 26 20 find minimal and maximal value of array;
#X text 57 334 mean_arith <array> <start> <len>;
#X msg 30 359 mean_arith a_analysis;
#X msg 177 359 mean_arith a_analysis 0 4;
#X obj 30 477 n_array;
#X obj 177 477 n_array;
#X text 53 420 mean geometrical elements of array;
#X text 57 434 mean_geo <array> <start> <len>;
#X msg 30 459 mean_geo a_analysis;
#X msg 177 459 mean_geo a_analysis 0 3;
#X obj 30 577 n_array;
#X obj 177 577 n_array;
#X text 53 520 mean harmonical elements of array;
#X text 57 534 mean_harm <array> <start> <len>;
#X msg 30 559 mean_harm a_analysis;
#X msg 177 559 mean_harm a_analysis 0 3;
#X obj 30 395 print mean_arith;
#X obj 177 396 print mean_arith;
#X obj 30 495 print mean_geo;
#X obj 177 496 print mean_geo;
#X obj 30 595 print mean_harm;
#X obj 177 596 print mean_harm;
#X obj 350 577 n_array;
#X obj 497 577 n_array;
#X text 406 520 centroid elements of array;
#X text 399 534 centroid <array> <start> <len>;
#X msg 350 559 centroid a_analysis;
#X msg 497 559 centroid a_analysis 0 3;
#X obj 350 595 print centroid;
#X obj 497 596 print centroid;
#X connect 0 0 5 0;
#X connect 2 0 15 0;
#X connect 5 0 4 0;
#X connect 6 0 8 0;
#X connect 8 0 7 0;
#X connect 9 0 18 0;
#X connect 10 0 19 0;
#X connect 12 0 9 0;
#X connect 13 0 0 0;
#X connect 14 0 6 0;
#X connect 17 0 10 0;
#X connect 20 0 40 0;
#X connect 21 0 41 0;
#X connect 26 0 20 0;
#X connect 27 0 21 0;
#X connect 28 0 42 0;
#X connect 29 0 43 0;
#X connect 32 0 28 0;
#X connect 33 0 29 0;
#X connect 34 0 44 0;
#X connect 35 0 45 0;
#X connect 38 0 34 0;
#X connect 39 0 35 0;
#X connect 46 0 52 0;
#X connect 47 0 53 0;
#X connect 50 0 46 0;
#X connect 51 0 47 0;
#X restore 140 126 pd analysis;
#N canvas 548 61 759 643 find 0;
#X obj 90 74 n_array;
#N canvas 0 50 450 250 (subpatch) 0;
#X array a_find 32768 float 2;
#X coords 0 1 32768 -1 200 140 1 0 0;
#X restore 376 100 graph;
#X obj 339 14 loadbang;
#X obj 90 110 print -n;
#X obj 90 151 n_array;
#X obj 90 187 print -n;
#X text 83 20 find value with tolerance;
#X text 52 34 find <array> <start> <len> <value> <tol>;
#X msg 397 254 \; a_find resize 4 \; a_find 0 0.5 -0.5 1 -1;
#X msg 339 34 \; a_find resize 10 \; a_find 0 0.1 0.2 0.3 0.4 0.5 0.6
0.7 0.8 0.9 1;
#X msg 90 133 find a_find 0 0 0.09 0.01;
#X msg 90 56 find a_find 0 0 0;
#X msg 90 92 find at \$1 = \$2;
#X msg 90 169 find at \$1 = \$2;
#X obj 90 241 n_array;
#X obj 90 277 print -n;
#X msg 90 259 find at \$1 = \$2;
#X msg 90 223 find a_find 0 0 0.39 0.02;
#X obj 90 384 n_array;
#X obj 90 420 print -n;
#X obj 90 461 n_array;
#X obj 90 497 print -n;
#X msg 90 402 find at \$1 = \$2;
#X msg 90 479 find at \$1 = \$2;
#X obj 90 551 n_array;
#X obj 90 587 print -n;
#X msg 90 569 find at \$1 = \$2;
#X text 105 330 find cross value;
#X text 45 344 find_cross <array> <start> <len> <value>;
#X msg 90 366 find_cross a_find 0 0 0;
#X msg 90 533 find_cross a_find 0 0 0.39;
#X msg 90 443 find_cross a_find 0 0 0.19;
#X obj 438 386 n_array;
#X obj 438 422 print -n;
#X text 405 330 find periods with minimal length.;
#X text 316 345 find_periods <array> <start> <len> <value> <minimal_length>
;
#X obj 590 113 bng 15 250 50 0 empty empty empty 17 7 0 10 -262144
-1 -1;
#X obj 590 133 openpanel;
#X obj 590 181 soundfiler;
#X text 609 108 load audio file;
#X msg 590 158 read -resize \$1 a_find;
#X msg 438 368 find_periods a_find 0 0 0 0;
#X msg 438 404 [\$1] = \$2 start = \$3 length = \$4;
#X obj 438 540 n_array;
#X obj 438 576 print -n;
#X msg 438 558 [\$1] = \$2 start = \$3 length = \$4;
#X msg 438 522 find_periods a_find 0 0 0 300;
#X connect 0 0 12 0;
#X connect 2 0 9 0;
#X connect 4 0 13 0;
#X connect 10 0 4 0;
#X connect 11 0 0 0;
#X connect 12 0 3 0;
#X connect 13 0 5 0;
#X connect 14 0 16 0;
#X connect 16 0 15 0;
#X connect 17 0 14 0;
#X connect 18 0 22 0;
#X connect 20 0 23 0;
#X connect 22 0 19 0;
#X connect 23 0 21 0;
#X connect 24 0 26 0;
#X connect 26 0 25 0;
#X connect 29 0 18 0;
#X connect 30 0 24 0;
#X connect 31 0 20 0;
#X connect 32 0 42 0;
#X connect 36 0 37 0;
#X connect 37 0 40 0;
#X connect 40 0 38 0;
#X connect 41 0 32 0;
#X connect 42 0 33 0;
#X connect 43 0 45 0;
#X connect 45 0 44 0;
#X connect 46 0 43 0;
#X restore 140 146 pd find;
#N canvas 441 204 669 519 dc/normilize 0;
#X obj 90 74 n_array;
#N canvas 0 50 450 250 (subpatch) 0;
#X array a_dn 10 float 2;
#X coords 0 1 10 -1 200 140 1 0 0;
#X restore 376 100 graph;
#X obj 339 14 loadbang;
#X obj 90 133 n_array;
#X obj 90 199 n_array;
#X text 103 20 remove offset;
#X text 66 34 dc <array> <start> <len>;
#X msg 339 34 \; a_dn resize 10 \; a_dn 0 -0.1 -0.2 -0.3 -0.4 0.5 0.6
0.7 0.8 0.9 1;
#X obj 90 92 print offset;
#X obj 90 151 print offset;
#X obj 90 218 print offset;
#X msg 90 56 dc a_dn 0 0 0;
#X msg 90 115 dc a_dn 0 5;
#X msg 90 181 dc a_dn 5 0;
#X obj 90 324 n_array;
#X obj 90 383 n_array;
#X obj 90 449 n_array;
#X text 103 270 normilize;
#X text 45 284 norm <array> <start> <len> <value>;
#X msg 90 306 norm a_dn 0 0 1;
#X msg 90 365 norm a_dn 0 5 0.5;
#X msg 90 431 norm a_dn 0 0 2;
#X obj 90 342 print mult;
#X obj 90 401 print mult;
#X obj 90 468 print mult;
#X connect 0 0 8 0;
#X connect 2 0 7 0;
#X connect 3 0 9 0;
#X connect 4 0 10 0;
#X connect 11 0 0 0;
#X connect 12 0 3 0;
#X connect 13 0 4 0;
#X connect 14 0 22 0;
#X connect 15 0 23 0;
#X connect 16 0 24 0;
#X connect 19 0 14 0;
#X connect 20 0 15 0;
#X connect 21 0 16 0;
#X restore 140 166 pd dc/normilize;
#N canvas 228 185 669 519 constant/random 0;
#X obj 90 74 n_array;
#N canvas 0 50 450 250 (subpatch) 0;
#X array a_cr 10 float 2;
#X coords 0 1 10 -1 200 140 1 0 0;
#X restore 376 100 graph;
#X obj 339 14 loadbang;
#X obj 90 133 n_array;
#X obj 90 199 n_array;
#X obj 90 324 n_array;
#X obj 90 383 n_array;
#X obj 90 449 n_array;
#X text 103 20 set constant;
#X text 40 34 constant <array> <start> <len> <value>;
#X text 45 284 random <array> <start> <len> <range>;
#X text 99 270 randomize array;
#X msg 339 34 \; a_cr resize 10 \; a_cr 0 -0.1 -0.2 -0.3 -0.4 0.5 0.6
0.7 0.8 0.9 1;
#X msg 90 56 constant a_cr 0 0 0;
#X msg 90 115 constant a_cr 0 5 0.5;
#X msg 90 181 constant a_cr 5 0 0.75;
#X msg 90 306 random a_cr 0 0 1;
#X obj 90 92 print constant;
#X obj 90 151 print constant;
#X obj 90 218 print constant;
#X obj 90 342 print range;
#X obj 90 401 print range;
#X obj 90 468 print range;
#X msg 90 365 random a_cr 0 5 0.5;
#X msg 90 431 random a_cr 5 0 2;
#X connect 0 0 17 0;
#X connect 2 0 12 0;
#X connect 3 0 18 0;
#X connect 4 0 19 0;
#X connect 5 0 20 0;
#X connect 6 0 21 0;
#X connect 7 0 22 0;
#X connect 13 0 0 0;
#X connect 14 0 3 0;
#X connect 15 0 4 0;
#X connect 16 0 5 0;
#X connect 23 0 6 0;
#X connect 24 0 7 0;
#X restore 140 186 pd constant/random;
#N canvas 228 185 669 519 towt/formwt 0;
#X obj 112 74 n_array;
#N canvas 0 50 450 250 (subpatch) 0;
#X array a_wt 10 float 2;
#X coords 0 1 10 -1 200 140 1 0 0;
#X restore 376 100 graph;
#X obj 339 14 loadbang;
#X obj 112 133 n_array;
#X obj 112 199 n_array;
#X text 131 20 to wt;
#X text 72 34 towt <array> <start> <end>;
#X msg 339 34 \; a_wt resize 10 \; a_wt 0 -0.1 -0.2 -0.3 -0.4 0.5 0.6
0.7 0.8 0.9 1;
#X msg 112 56 towt a_wt 1 1;
#X msg 112 115 towt a_wt 0 2;
#X msg 112 181 towt a_wt 2 0;
#X obj 112 314 n_array;
#X obj 112 373 n_array;
#X obj 112 439 n_array;
#X text 131 260 from wt;
#X text 72 274 fromwt <array> <start> <end>;
#X msg 112 296 fromwt a_wt 1 1;
#X msg 112 355 fromwt a_wt 0 2;
#X msg 112 421 fromwt a_wt 2 0;
#X obj 112 92 print -n;
#X obj 112 151 print -n;
#X obj 112 218 print -n;
#X obj 112 332 print -n;
#X obj 112 391 print -n;
#X obj 112 458 print -n;
#X connect 0 0 19 0;
#X connect 2 0 7 0;
#X connect 3 0 20 0;
#X connect 4 0 21 0;
#X connect 8 0 0 0;
#X connect 9 0 3 0;
#X connect 10 0 4 0;
#X connect 11 0 22 0;
#X connect 12 0 23 0;
#X connect 13 0 24 0;
#X connect 16 0 11 0;
#X connect 17 0 12 0;
#X connect 18 0 13 0;
#X restore 140 206 pd towt/formwt;
#N canvas 228 185 712 389 blur 0;
#X obj 112 74 n_array;
#N canvas 0 50 450 250 (subpatch) 0;
#X array a_blur 10 float 2;
#X coords 0 1 10 -1 200 140 1 0 0;
#X restore 376 100 graph;
#X obj 339 14 loadbang;
#X obj 112 133 n_array;
#X obj 112 199 n_array;
#X obj 112 92 print -n;
#X obj 112 151 print -n;
#X obj 112 218 print -n;
#X text 23 18 blur between start and end elements with factor;
#X msg 339 34 \; a_blur resize 10 \; a_blur 0 -0.1 -0.2 -0.3 -0.4 0.5
0.6 0.7 0.8 0.9 1;
#X msg 112 56 blur a_blur 0 0 1;
#X msg 112 115 blur a_blur 0 0 0.1;
#X msg 112 181 blur a_blur 2 6 0.333;
#X text 72 34 blur <array> <start> <end>;
#X connect 0 0 5 0;
#X connect 2 0 9 0;
#X connect 3 0 6 0;
#X connect 4 0 7 0;
#X connect 10 0 0 0;
#X connect 11 0 3 0;
#X connect 12 0 4 0;
#X restore 140 226 pd blur;
#N canvas 179 267 712 389 unique 0;
#X obj 112 74 n_array;
#N canvas 0 50 450 250 (subpatch) 0;
#X array a_unique 10 float 2;
#X coords 0 1 10 -1 200 140 1 0 0;
#X restore 376 100 graph;
#X obj 339 14 loadbang;
#X obj 112 133 n_array;
#X obj 112 199 n_array;
#X obj 112 92 print -n;
#X obj 112 151 print -n;
#X obj 112 218 print -n;
#X text 92 18 remove not unique elements;
#X text 88 34 unique <array> <start> <end>;
#X msg 112 56 unique a_unique 0 0;
#X msg 112 115 unique a_unique 0 5;
#X msg 112 181 unique a_unique 5 0;
#X msg 339 34 \; a_unique resize 10 \; a_unique 0 -0.1 -0.2 -0.2 -0.4
0.5 0.7 0.7 0.8 0.9 1;
#X connect 0 0 5 0;
#X connect 2 0 13 0;
#X connect 3 0 6 0;
#X connect 4 0 7 0;
#X connect 10 0 0 0;
#X connect 11 0 3 0;
#X connect 12 0 4 0;
#X restore 140 246 pd unique;
#N canvas 179 267 715 422 window 0;
#X obj 19 104 n_array;
#N canvas 0 50 450 250 (subpatch) 0;
#X array a_window 100 float 2;
#X coords 0 1 100 -1 200 140 1 0 0;
#X restore 488 133 graph;
#X obj 525 35 loadbang;
#X obj 19 122 print -n;
#X msg 525 54 \; a_window resize 100 \;;
#X text 121 18 window function;
#X text 59 34 window <array> <start> <end> <type> <coef>;
#X msg 19 86 window a_window 0 0 bartlett 1;
#X obj 19 164 n_array;
#X obj 19 182 print -n;
#X obj 19 224 n_array;
#X obj 19 242 print -n;
#X obj 19 304 n_array;
#X obj 19 322 print -n;
#X msg 19 146 window a_window 0 0 blackman 1;
#X msg 19 206 window a_window 0 0 connes 1;
#X msg 19 286 window a_window 0 0 gaussian \$1;
#X floatatom 19 268 5 0 0 0 - - -;
#X obj 19 364 n_array;
#X obj 19 382 print -n;
#X msg 19 346 window a_window 0 0 hanning 1;
#X obj 249 104 n_array;
#X obj 249 122 print -n;
#X obj 249 164 n_array;
#X obj 249 182 print -n;
#X obj 249 224 n_array;
#X obj 249 242 print -n;
#X msg 249 86 window a_window 0 0 hamming 1;
#X msg 249 146 window a_window 0 0 lanczos 1;
#X msg 249 206 window a_window 0 0 sin 1;
#X obj 249 304 n_array;
#X obj 249 322 print -n;
#X obj 249 364 n_array;
#X obj 249 382 print -n;
#X msg 249 286 window a_window 0 0 welch 1;
#X msg 249 346 window a_window 0 0 none;
#X connect 0 0 3 0;
#X connect 2 0 4 0;
#X connect 7 0 0 0;
#X connect 8 0 9 0;
#X connect 10 0 11 0;
#X connect 12 0 13 0;
#X connect 14 0 8 0;
#X connect 15 0 10 0;
#X connect 16 0 12 0;
#X connect 17 0 16 0;
#X connect 18 0 19 0;
#X connect 20 0 18 0;
#X connect 21 0 22 0;
#X connect 23 0 24 0;
#X connect 25 0 26 0;
#X connect 27 0 21 0;
#X connect 28 0 23 0;
#X connect 29 0 25 0;
#X connect 30 0 31 0;
#X connect 32 0 33 0;
#X connect 34 0 30 0;
#X connect 35 0 32 0;
#X restore 140 266 pd window;
#N canvas 189 45 715 500 sinesum 0;
#N canvas 0 50 450 250 (subpatch) 0;
#X array a_ss 259 float 2;
#X coords 0 1 259 -1 200 140 1 0 0;
#X restore 488 133 graph;
#X obj 31 126 n_array;
#X obj 31 147 print;
#X obj 31 226 n_array;
#X obj 31 247 print;
#X obj 31 336 n_array;
#X obj 31 357 print;
#X obj 31 436 n_array;
#X obj 31 457 print;
#X msg 31 106 sinesum a_ss 64 0.2 0.2 0.2 0.2;
#X msg 99 127 \; a_ss sinesum 64 0.2 0.2 0.2 0.2;
#X msg 31 204 sinesum a_ss 64 0.2 -0.2 0.2 -0.2;
#X msg 99 227 \; a_ss sinesum 64 0.2 -0.2 0.2 -0.2;
#X msg 31 316 sinesum a_ss 256 1;
#X msg 99 337 \; a_ss sinesum 256 1;
#X msg 31 416 sinesum a_ss 128 1 0 0.5 0 0.333;
#X msg 99 437 \; a_ss sinesum 128 1 0 0.5 0 0.333;
#X text 119 18 sinesum;
#X text 59 34 sinesum <array> <size> <list>;
#X connect 1 0 2 0;
#X connect 3 0 4 0;
#X connect 5 0 6 0;
#X connect 7 0 8 0;
#X connect 9 0 1 0;
#X connect 11 0 3 0;
#X connect 13 0 5 0;
#X connect 15 0 7 0;
#X restore 140 286 pd sinesum;
#N canvas 189 45 860 468 interpolation 0;
#N canvas 0 50 450 250 (subpatch) 0;
#X array a_int_src 40 float 3;
#A 0 0.814287 0.814287 0.814287 0.814287 0.814287 0.814287 0.814287
0.814287 0.814287 0.814287 0.814287 0.814287 0.842857 0.842857 0.842857
0.842857 0.842857 0.842857 0.842857 0.842857 -0.414285 -0.414285 -0.414285
-0.414285 -0.414285 -0.414285 -0.414285 -0.414285 -0.414285 -0.414285
-0.414285 -0.414285 -0.414285 -0.414285 -0.414285 -0.414285 -0.414285
-0.414285 -0.414285 -0.399999;
#X coords 0 1 40 -1 200 140 1 0 0;
#X restore 455 79 graph;
#N canvas 0 50 450 250 (subpatch) 0;
#X array a_int_dst 300 float 2;
#X coords 0 1 300 -1 200 140 1 0 0;
#X restore 455 249 graph;
#X text 233 17 interpolation array;
#X text 18 40 interpolation <array_src> <array_dst> <start_src> <len_src>
<start_dst> <len_dst> <type>, f 88;
#X msg 110 107 interpolation a_int_src a_int_dst 0 0 0 0 1p;
#X obj 110 125 n_array;
#X obj 110 143 print;
#X floatatom 670 135 5 0 0 0 - - -;
#X msg 670 155 \; a_int_src resize \$1;
#X floatatom 670 285 5 0 0 0 - - -;
#X msg 670 305 \; a_int_dst resize \$1;
#X obj 110 195 n_array;
#X obj 110 213 print;
#X obj 110 255 n_array;
#X obj 110 273 print;
#X msg 110 177 interpolation a_int_src a_int_dst 0 0 0 0 2p;
#X msg 110 237 interpolation a_int_src a_int_dst 0 0 0 0 4p;
#X text 185 82 no interpolation;
#X text 185 152 lin interpolation;
#X text 185 212 4-point interpolation;
#X connect 4 0 5 0;
#X connect 5 0 6 0;
#X connect 7 0 8 0;
#X connect 9 0 10 0;
#X connect 11 0 12 0;
#X connect 13 0 14 0;
#X connect 15 0 11 0;
#X connect 16 0 13 0;
#X restore 140 306 pd interpolation;
#N canvas 90 78 1276 472 sort 0;
#N canvas 0 50 450 250 (subpatch) 0;
#X array a_s0 40 float 2;
#X coords 0 1 40 -1 200 140 1 0 0;
#X restore 366 189 graph;
#X obj 110 125 n_array;
#X obj 110 143 print;
#X text 233 17 sort array;
#X text 18 40 sort <array_first> <start> <len> <type> <array_second>
<array_second> ... <array_last>, f 88;
#X msg 110 107 sort a_s0 0 0 0;
#X obj 416 106 n_array;
#X msg 416 87 random a_s0 0 0 1;
#X text 50 82 sort 1 array at start to end \, bigger first;
#X obj 110 215 n_array;
#X obj 110 233 print;
#X msg 110 197 sort a_s0 0 0 1;
#X text 50 172 sort 1 array at start to end \, smaller first;
#X obj 110 325 n_array;
#X obj 110 343 print;
#X text 50 282 sort 1 array at 0 to 20 \, bigger first;
#X msg 110 307 sort a_s0 0 -20 0;
#X obj 110 415 n_array;
#X obj 110 433 print;
#X text 50 372 sort 1 array at 20 to end \, smaller first;
#X msg 110 397 sort a_s0 20 0 1;
#N canvas 0 50 450 250 (subpatch) 0;
#X array a_s1 40 float 2;
#X coords 0 1 40 -1 200 140 1 0 0;
#X restore 576 189 graph;
#X obj 626 106 n_array;
#N canvas 0 50 450 250 (subpatch) 0;
#X array a_s2 40 float 2;
#X coords 0 1 40 -1 200 140 1 0 0;
#X restore 796 189 graph;
#X obj 846 106 n_array;
#N canvas 0 50 450 250 (subpatch) 0;
#X array a_s3 40 float 2;
#X coords 0 1 40 -1 200 140 1 0 0;
#X restore 1006 189 graph;
#X obj 1056 106 n_array;
#X msg 626 87 random a_s1 0 0 1;
#X msg 846 87 random a_s2 0 0 1;
#X msg 1056 87 random a_s3 0 0 1;
#X obj 370 362 n_array;
#X obj 370 380 print;
#X msg 370 344 sort a_s0 0 0 0 a_s1 a_s2 a_s3;
#X obj 580 362 n_array;
#X obj 580 380 print;
#X obj 800 362 n_array;
#X obj 800 380 print;
#X obj 1010 362 n_array;
#X obj 1010 380 print;
#X msg 580 344 sort a_s1 0 0 0 a_s0 a_s2 a_s3;
#X msg 800 344 sort a_s2 0 0 0 a_s0 a_s1 a_s3;
#X msg 1010 344 sort a_s3 0 0 0 a_s0 a_s1 a_s2;
#X text 593 13 maximum = 16 arrays;
#X text 614 434 sort 4 array at start to end \, bigger first;
#X connect 1 0 2 0;
#X connect 5 0 1 0;
#X connect 7 0 6 0;
#X connect 9 0 10 0;
#X connect 11 0 9 0;
#X connect 13 0 14 0;
#X connect 16 0 13 0;
#X connect 17 0 18 0;
#X connect 20 0 17 0;
#X connect 27 0 22 0;
#X connect 28 0 24 0;
#X connect 29 0 26 0;
#X connect 30 0 31 0;
#X connect 32 0 30 0;
#X connect 33 0 34 0;
#X connect 35 0 36 0;
#X connect 37 0 38 0;
#X connect 39 0 33 0;
#X connect 40 0 35 0;
#X connect 41 0 37 0;
#X restore 140 326 pd sort;
#N canvas 228 185 712 389 count 0;
#X obj 112 74 n_array;
#N canvas 0 50 450 250 (subpatch) 0;
#X array a_count 100 float 2;
#X coords 0 1 100 -1 200 140 1 0 0;
#X restore 376 100 graph;
#X obj 339 14 loadbang;
#X obj 112 133 n_array;
#X obj 112 199 n_array;
#X msg 339 34 \; a_count resize 100;
#X text 70 14 count - create sequence at initial value;
#X text 72 34 count <array> <start> <end> <init> <inc>;
#X obj 112 92 print end;
#X obj 112 151 print end;
#X obj 112 218 print end;
#X msg 112 56 count a_count 0 0 -1 0.01;
#X msg 112 115 count a_count 0 -50 0.1 -0.005;
#X msg 112 181 count a_count 50 0 -0.3 0.04;
#X connect 0 0 8 0;
#X connect 2 0 5 0;
#X connect 3 0 9 0;
#X connect 4 0 10 0;
#X connect 11 0 0 0;
#X connect 12 0 3 0;
#X connect 13 0 4 0;
#X restore 140 346 pd count;
#N canvas 220 109 799 621 todisp 0;
#X obj 131 347 n_array;
#N canvas 0 50 450 250 (subpatch) 0;
#X array a_sample 385024 float 2;
#X coords 0 1 385024 -1 200 100 1 0 0;
#X restore 380 108 graph;
#X obj 131 365 print end;
#X obj 590 113 bng 15 250 50 0 empty empty empty 17 7 0 10 -262144
-1 -1;
#X obj 590 133 openpanel;
#X obj 590 181 soundfiler;
#X msg 590 158 read -resize \$1 a_sample;
#X text 196 27 todisp - create array with minimal and maximal value
from source array for displaing.;
#N canvas 0 50 450 250 (subpatch) 0;
#X array a_dmin 100 float 0;
#X coords 0 1 99 -1 200 100 1 0 0;
#X restore 379 348 graph;
#N canvas 0 50 450 250 (subpatch) 0;
#X array a_dmax 100 float 0;
#X coords 0 1 99 -1 200 100 1 0 0;
#X restore 379 229 graph;
#X text 153 64 todisp <array> <array_max> <array_min> <start> <len>
<start_disp> <len_disp>, f 82;
#X msg 131 329 todisp a_sample a_dmax a_dmin 0 0 0 0;
#X floatatom 644 385 5 0 0 0 - - -;
#X obj 644 342 loadbang;
#X msg 644 363 100;
#X text 609 108 load audio file;
#X obj 124 516 n_array;
#X obj 124 534 print end;
#X msg 124 498 todisp a_sample a_dmax2 a_dmin2 0 0 0 0;
#X msg 644 405 \; a_dmax resize \$1 \; a_dmin resize \$1 \; a_dmax2
resize \$1 \; a_dmin2 resize \$1;
#N canvas 0 50 450 250 (subpatch) 0;
#X array a_dmin2 100 float 0;
#X coords 0 1 99 -1 200 100 1 0 0;
#X restore 379 479 graph;
#N canvas 0 50 450 250 (subpatch) 0;
#X array a_dmax2 100 float 0;
#X coords 0 1 99 -1 200 100 1 0 0;
#X restore 379 479 graph;
#X connect 0 0 2 0;
#X connect 3 0 4 0;
#X connect 4 0 6 0;
#X connect 6 0 5 0;
#X connect 11 0 0 0;
#X connect 12 0 19 0;
#X connect 13 0 14 0;
#X connect 14 0 12 0;
#X connect 16 0 17 0;
#X connect 18 0 16 0;
#X restore 140 366 pd todisp;
#N canvas 396 167 799 621 mix 0;
#X obj 45 172 n_array;
#N canvas 0 50 450 250 (subpatch) 0;
#X array a_mix1 100 float 0;
#X coords 0 1 99 -1 200 100 1 0 0;
#X restore 377 226 graph;
#N canvas 0 50 450 250 (subpatch) 0;
#X array a_mix0 100 float 0;
#X coords 0 1 99 -1 200 100 1 0 0;
#X restore 377 112 graph;
#N canvas 0 50 450 250 (subpatch) 0;
#X array a_mix_f 100 float 0;
#X coords 0 1 99 0 200 100 1 0 0;
#X restore 377 340 graph;
#N canvas 0 50 450 250 (subpatch) 0;
#X array a_mix_dst 100 float 0;
#X coords 0 1 99 -1 200 100 1 0 0;
#X restore 377 457 graph;
#X text 196 27 mix between two arrays with crossfade by third array
;
#X text 82 45 mix <array0> <array1> <array_mix> <array_dst> <start0>
<len> <start1> <start_mix> <start_dst>, f 93;
#X obj 45 190 print -n;
#X msg 45 154 mix a_mix0 a_mix1 a_mix_f a_mix_dst 0 100 0 0 0;
#X obj 620 277 n_array;
#X msg 620 259 random a_mix1 0 0 1;
#X obj 620 158 n_array;
#X msg 620 140 random a_mix0 0 0 1;
#X text 579 333 1;
#X text 579 433 0;
#X obj 620 396 n_array;
#X msg 620 378 count a_mix_f 0 0 0 0.01;
#X obj 45 262 n_array;
#X obj 45 280 print -n;
#X msg 45 244 mix a_mix0 a_mix1 a_mix_f a_mix_dst 0 70 10 20 30;
#X obj 45 342 n_array;
#X obj 45 360 print -n;
#X msg 45 324 mix a_mix0 a_mix1 a_mix_f a_mix_dst 10 40 10 0 0;
#X text 211 67 mix between two arrays with crossfade by value;
#X text 124 85 mix_s <array0> <array1> <array_dst> <start0> <len> <start1>
<start_dst> <value>, f 81;
#X obj 45 422 n_array;
#X obj 45 440 print -n;
#X msg 45 404 mix_s a_mix0 a_mix1 a_mix_dst 0 0 0 0 0.5;
#X obj 45 502 n_array;
#X obj 45 520 print -n;
#X msg 45 484 mix_s a_mix0 a_mix1 a_mix_dst 0 -50 0 0 0.2;
#X connect 0 0 7 0;
#X connect 8 0 0 0;
#X connect 10 0 9 0;
#X connect 12 0 11 0;
#X connect 16 0 15 0;
#X connect 17 0 18 0;
#X connect 19 0 17 0;
#X connect 20 0 21 0;
#X connect 22 0 20 0;
#X connect 25 0 26 0;
#X connect 27 0 25 0;
#X connect 28 0 29 0;
#X connect 30 0 28 0;
#X restore 140 386 pd mix;
#N canvas 218 153 910 349 reverse/shft 0;
#X obj 45 132 n_array;
#N canvas 0 50 450 250 (subpatch) 0;
#X array a_rs 100 float 0;
#X coords 0 1 99 -1 200 100 1 0 0;
#X restore 249 146 graph;
#X obj 45 150 print -n;
#X text 124 32 reverse array.;
#X text 86 49 reverse <array> <start> <len>;
#X msg 45 114 reverse a_rs 0 0;
#X obj 45 202 n_array;
#X obj 45 220 print -n;
#X obj 45 272 n_array;
#X obj 45 290 print -n;
#X msg 45 184 reverse a_rs 0 50;
#X msg 45 254 reverse a_rs 50 -10;
#X obj 505 132 n_array;
#X obj 505 150 print -n;
#X obj 505 202 n_array;
#X obj 505 220 print -n;
#X obj 505 272 n_array;
#X obj 505 290 print -n;
#X text 484 32 shift array.;
#X text 427 49 shift <array> <start> <len> <shift>;
#X msg 505 114 shift a_rs 0 0 0;
#X msg 505 184 shift a_rs 0 0 1;
#X msg 505 254 shift a_rs 0 0 -1;
#X text 628 184 to left;
#X text 626 254 to right;
#X text 624 114 no shift;
#X obj 715 202 n_array;
#X obj 715 220 print -n;
#X obj 715 272 n_array;
#X obj 715 290 print -n;
#X msg 715 184 shift a_rs 0 0 10;
#X msg 715 254 shift a_rs 0 0 -10;
#X obj 715 126 n_array;
#X obj 715 144 print -n;
#X msg 715 108 shift a_rs 10 10 2;
#X connect 0 0 2 0;
#X connect 5 0 0 0;
#X connect 6 0 7 0;
#X connect 8 0 9 0;
#X connect 10 0 6 0;
#X connect 11 0 8 0;
#X connect 12 0 13 0;
#X connect 14 0 15 0;
#X connect 16 0 17 0;
#X connect 20 0 12 0;
#X connect 21 0 14 0;
#X connect 22 0 16 0;
#X connect 26 0 27 0;
#X connect 28 0 29 0;
#X connect 30 0 26 0;
#X connect 31 0 28 0;
#X connect 32 0 33 0;
#X connect 34 0 32 0;
#X restore 140 406 pd reverse/shft;
#N canvas 143 315 910 349 delete/concat 0;
#X obj 73 120 n_array;
#N canvas 0 50 450 250 (subpatch) 0;
#X array a_dc0 100 float 0;
#X coords 0 1 99 -1 200 100 1 0 0;
#X restore 307 78 graph;
#X obj 73 138 print -n;
#X obj 73 190 n_array;
#X obj 73 208 print -n;
#X obj 73 260 n_array;
#X obj 73 278 print -n;
#X text 96 32 delete elements from array.;
#X text 93 49 delete <array> <start> <len>;
#X text 631 30 concat two arrays;
#X text 560 47 concat <array_src> <array_dst> <start> <len>;
#N canvas 0 50 450 250 (subpatch) 0;
#X array a_dc1 848 float 0;
#X coords 0 1 847 -1 200 100 1 0 0;
#X restore 307 198 graph;
#X msg 73 102 delete a_dc0 0 0;
#X msg 73 172 delete a_dc0 0 50;
#X msg 73 242 delete a_dc0 50 -10;
#X obj 383 48 n_array;
#X obj 603 120 n_array;
#X obj 603 138 print -n;
#X msg 603 102 concat a_dc0 a_dc1 0 0;
#X obj 603 200 n_array;
#X obj 603 218 print -n;
#X msg 603 182 concat a_dc1 a_dc0 10 33;
#X msg 383 19 resize a_dc0 100 \, resize a_dc1 100, f 17;
#X obj 603 270 n_array;
#X obj 603 288 print -n;
#X msg 603 252 concat a_dc0 a_dc1 10 -22;
#X connect 0 0 2 0;
#X connect 3 0 4 0;
#X connect 5 0 6 0;
#X connect 12 0 0 0;
#X connect 13 0 3 0;
#X connect 14 0 5 0;
#X connect 16 0 17 0;
#X connect 18 0 16 0;
#X connect 19 0 20 0;
#X connect 21 0 19 0;
#X connect 22 0 15 0;
#X connect 23 0 24 0;
#X connect 25 0 23 0;
#X restore 140 426 pd delete/concat;
#N canvas 143 315 910 349 copy/insert 0;
#X obj 73 120 n_array;
#N canvas 0 50 450 250 (subpatch) 0;
#X array a_ci0 100 float 0;
#X coords 0 1 99 -1 200 100 1 0 0;
#X restore 307 78 graph;
#X obj 73 138 print -n;
#X obj 73 190 n_array;
#X obj 73 208 print -n;
#X obj 73 260 n_array;
#X obj 73 278 print -n;
#N canvas 0 50 450 250 (subpatch) 0;
#X array a_ci1 25 float 0;
#X coords 0 1 24 -1 200 100 1 0 0;
#X restore 307 198 graph;
#X obj 383 48 n_array;
#X obj 603 120 n_array;
#X obj 603 138 print -n;
#X obj 603 200 n_array;
#X obj 603 218 print -n;
#X obj 603 270 n_array;
#X obj 603 288 print -n;
#X text 121 32 copy elements.;
#X text 640 30 insert elements.;
#X text 46 49 copy <array_src> <array_dst> <start> <len>;
#X msg 383 19 resize a_ci0 100 \, resize a_ci1 100, f 17;
#X msg 73 102 copy a_ci0 a_ci1 0 0;
#X msg 73 172 copy a_ci0 a_ci1 10 30;
#X msg 73 242 copy a_ci0 a_ci1 -50 25;
#X text 542 47 concat <array_src> <array_dst> <start> <len> <start_dst>
;
#X msg 603 102 insert a_ci0 a_ci1 0 0 0;
#X msg 603 182 insert a_ci0 a_ci1 0 20 30;
#X msg 603 252 insert a_ci0 a_ci1 5 30 100;
#X connect 0 0 2 0;
#X connect 3 0 4 0;
#X connect 5 0 6 0;
#X connect 9 0 10 0;
#X connect 11 0 12 0;
#X connect 13 0 14 0;
#X connect 18 0 8 0;
#X connect 19 0 0 0;
#X connect 20 0 3 0;
#X connect 21 0 5 0;
#X connect 23 0 9 0;
#X connect 24 0 11 0;
#X connect 25 0 13 0;
#X restore 140 446 pd copy/insert;
#N canvas 219 264 985 356 abs/floor/ceil 0;
#X obj 103 175 n_array;
#X obj 103 193 print;
#N canvas 0 50 450 250 (subpatch) 0;
#X array a_afc 100 float 2;
#X coords 0 2 100 -2 200 140 1 0 0;
#X restore 309 120 graph;
#X obj 702 75 n_array;
#X obj 702 93 print;
#X obj 702 145 n_array;
#X obj 702 163 print;
#X obj 702 215 n_array;
#X obj 702 233 print;
#X obj 702 297 n_array;
#X obj 702 315 print;
#X obj 854 75 n_array;
#X obj 854 93 print;
#X obj 856 145 n_array;
#X obj 856 163 print;
#X obj 856 215 n_array;
#X obj 856 233 print;
#X obj 856 297 n_array;
#X obj 856 315 print;
#X text 299 184 0;
#X obj 196 176 n_array;
#X obj 196 194 print;
#X text 299 119 2;
#X text 293 246 -2;
#X text 299 150 1;
#X text 293 214 -1;
#X msg 103 157 floor a_afc;
#X msg 196 158 ceil a_afc;
#X msg 702 57 floor a_afc 0 10;
#X msg 702 127 floor a_afc 0 50;
#X msg 702 197 floor a_afc 0 -10;
#X msg 702 279 floor a_afc -10 0;
#X msg 854 57 ceil a_afc 10 -10;
#X msg 856 127 ceil a_afc -10 100;
#X msg 856 197 ceil a_afc 0 -44;
#X msg 856 279 ceil a_afc -50 -20;
#X obj 23 175 n_array;
#X obj 23 193 print;
#X obj 572 75 n_array;
#X obj 572 93 print;
#X obj 572 145 n_array;
#X obj 572 163 print;
#X obj 572 215 n_array;
#X obj 572 233 print;
#X obj 572 297 n_array;
#X obj 572 315 print;
#X msg 572 57 abs a_afc 0 10;
#X msg 572 127 abs a_afc 0 50;
#X msg 572 197 abs a_afc 0 -10;
#X msg 572 279 abs a_afc -10 0;
#X msg 23 157 abs a_afc;
#X connect 0 0 1 0;
#X connect 3 0 4 0;
#X connect 5 0 6 0;
#X connect 7 0 8 0;
#X connect 9 0 10 0;
#X connect 11 0 12 0;
#X connect 13 0 14 0;
#X connect 15 0 16 0;
#X connect 17 0 18 0;
#X connect 20 0 21 0;
#X connect 26 0 0 0;
#X connect 27 0 20 0;
#X connect 28 0 3 0;
#X connect 29 0 5 0;
#X connect 30 0 7 0;
#X connect 31 0 9 0;
#X connect 32 0 11 0;
#X connect 33 0 13 0;
#X connect 34 0 15 0;
#X connect 35 0 17 0;
#X connect 36 0 37 0;
#X connect 38 0 39 0;
#X connect 40 0 41 0;
#X connect 42 0 43 0;
#X connect 44 0 45 0;
#X connect 46 0 38 0;
#X connect 47 0 40 0;
#X connect 48 0 42 0;
#X connect 49 0 44 0;
#X connect 50 0 36 0;
#X restore 140 465 pd abs/floor/ceil;
#N canvas 219 264 782 370 wrap 0;
#X obj 103 175 n_array;
#X obj 103 193 print;
#N canvas 0 50 450 250 (subpatch) 0;
#X array a_wr 100 float 2;
#X coords 0 2 100 -2 200 140 1 0 0;
#X restore 249 120 graph;
#X obj 642 75 n_array;
#X obj 642 93 print;
#X obj 642 145 n_array;
#X obj 642 163 print;
#X obj 642 215 n_array;
#X obj 642 233 print;
#X obj 642 297 n_array;
#X obj 642 315 print;
#X text 239 184 0;
#X text 239 119 2;
#X text 233 246 -2;
#X text 239 150 1;
#X text 233 214 -1;
#X obj 23 175 n_array;
#X obj 23 193 print;
#X obj 512 75 n_array;
#X obj 512 93 print;
#X obj 512 145 n_array;
#X obj 512 163 print;
#X obj 512 215 n_array;
#X obj 512 233 print;
#X obj 512 297 n_array;
#X obj 512 315 print;
#X msg 23 157 wrap1 a_wr;
#X msg 103 157 wrap2 a_wr;
#X msg 512 57 wrap1 a_wr 0 10;
#X msg 512 127 wrap1 a_wr 0 50;
#X msg 512 197 wrap1 a_wr 0 -10;
#X msg 512 279 wrap1 a_wr -10 0;
#X msg 642 57 wrap2 a_wr 0 10;
#X msg 642 127 wrap2 a_wr 0 50;
#X msg 642 197 wrap2 a_wr 0 -10;
#X msg 642 279 wrap2 a_wr -10 0;
#X connect 0 0 1 0;
#X connect 3 0 4 0;
#X connect 5 0 6 0;
#X connect 7 0 8 0;
#X connect 9 0 10 0;
#X connect 16 0 17 0;
#X connect 18 0 19 0;
#X connect 20 0 21 0;
#X connect 22 0 23 0;
#X connect 24 0 25 0;
#X connect 26 0 16 0;
#X connect 27 0 0 0;
#X connect 28 0 18 0;
#X connect 29 0 20 0;
#X connect 30 0 22 0;
#X connect 31 0 24 0;
#X connect 32 0 3 0;
#X connect 33 0 5 0;
#X connect 34 0 7 0;
#X connect 35 0 9 0;
#X restore 140 505 pd wrap;
#N canvas 43 122 1299 483 clip 0;
#X obj 78 49 n_array;
#X obj 78 67 print;
#N canvas 0 50 450 250 (subpatch) 0;
#X array a_clip 100 float 2;
#X coords 0 1 100 -1 200 140 1 0 0;
#X restore 686 19 graph;
#N canvas 0 50 450 250 (subpatch) 0;
#X array a_cmin 100 float 2;
#X coords 0 1 100 -1 200 140 1 0 0;
#X restore 888 19 graph;
#N canvas 0 50 450 250 (subpatch) 0;
#X array a_cmax 100 float 2;
#X coords 0 1 100 -1 200 140 1 0 0;
#X restore 1090 19 graph;
#X text 22 12 clipmin <array> <array_min> <start> <len> <start_min>
;
#X msg 78 31 clipmin a_clip a_cmin 0 0 0;
#X obj 78 110 n_array;
#X obj 78 128 print;
#X msg 78 92 clipmin a_clip a_cmin 0 50 50;
#X obj 711 196 n_array;
#X msg 711 177 count a_clip 0 0 -1 0.02;
#X obj 901 196 n_array;
#X obj 711 246 n_array;
#X obj 901 246 n_array;
#X msg 711 227 constant a_clip 0 0 0;
#X msg 901 177 count a_cmin 0 0 -1 0.02;
#X msg 901 227 constant a_cmin 0 0 0;
#X obj 477 49 n_array;
#X obj 477 67 print;
#X obj 477 110 n_array;
#X obj 477 128 print;
#X text 433 12 clipmin_s <array> <start> <len> <min>;
#X msg 477 92 clipmin_s a_clip 0 50 0.25;
#X msg 477 31 clipmin_s a_clip 0 0 0.1;
#X obj 78 209 n_array;
#X obj 78 227 print;
#X obj 78 270 n_array;
#X obj 78 288 print;
#X obj 477 209 n_array;
#X obj 477 227 print;
#X obj 477 270 n_array;
#X obj 477 288 print;
#X text 21 172 clipmax <array> <array_max> <start> <len> <start_max>
;
#X text 433 172 clipmax_s <array> <start> <len> <max>;
#X msg 477 191 clipmax_s a_clip 0 0 0.1;
#X msg 477 252 clipmax_s a_clip 0 50 0.25;
#X msg 78 191 clipmax a_clip a_cmax 0 0 0;
#X msg 78 252 clipmax a_clip a_cmax 0 50 50;
#X obj 78 379 n_array;
#X obj 78 397 print;
#X obj 78 440 n_array;
#X obj 78 458 print;
#X obj 477 379 n_array;
#X obj 477 397 print;
#X obj 477 440 n_array;
#X obj 477 458 print;
#X text 433 342 clipminmax_s <array> <start> <len> <min> <max>;
#X text 1 342 clipminmax <array> <array_max> <start> <len> <start_min>
<start_max>, f 68;
#X msg 78 361 clipminmax a_clip a_cmin a_cmax 0 0 0 0;
#X msg 78 422 clipminmax a_clip a_cmin a_cmax 0 50 0 0;
#X msg 477 361 clipminmax_s a_clip 0 0 0.1 0.75;
#X msg 477 422 clipminmax_s a_clip 0 50 -0.25 0.25;
#X connect 0 0 1 0;
#X connect 6 0 0 0;
#X connect 7 0 8 0;
#X connect 9 0 7 0;
#X connect 11 0 10 0;
#X connect 15 0 13 0;
#X connect 16 0 12 0;
#X connect 17 0 14 0;
#X connect 18 0 19 0;
#X connect 20 0 21 0;
#X connect 23 0 20 0;
#X connect 24 0 18 0;
#X connect 25 0 26 0;
#X connect 27 0 28 0;
#X connect 29 0 30 0;
#X connect 31 0 32 0;
#X connect 35 0 29 0;
#X connect 36 0 31 0;
#X connect 37 0 25 0;
#X connect 38 0 27 0;
#X connect 39 0 40 0;
#X connect 41 0 42 0;
#X connect 43 0 44 0;
#X connect 45 0 46 0;
#X connect 49 0 39 0;
#X connect 50 0 41 0;
#X connect 51 0 43 0;
#X connect 52 0 45 0;
#X restore 140 485 pd clip;
#N canvas 2 45 1364 721 arithmetric 0;
#X obj 10 44 n_array;
#X obj 10 65 print;
#N canvas 0 50 450 250 (subpatch) 0;
#X array a_ar0 100 float 2;
#X coords 0 1 100 -1 200 140 1 0 0;
#X restore 1099 116 graph;
#N canvas 0 50 450 250 (subpatch) 0;
#X array a_ar1 100 float 2;
#X coords 0 1 100 -1 200 140 1 0 0;
#X restore 1305 116 graph;
#X floatatom 1157 48 5 0 0 0 - - -;
#X obj 11 335 n_array;
#X obj 11 356 print;
#X obj 11 405 n_array;
#X obj 11 426 print;
#X msg 10 315 add_s a_ar0 0 0 0;
#X msg 10 385 add_s a_ar0 0 0 -0.5;
#X msg 9 24 add a_ar0 a_ar1;
#X obj 10 124 n_array;
#X obj 10 145 print;
#X obj 10 194 n_array;
#X obj 10 215 print;
#X obj 10 264 n_array;
#X obj 10 285 print;
#X msg 9 104 add a_ar0 a_ar1 0 50;
#X msg 9 174 add a_ar0 a_ar1 50 0;
#X msg 9 244 add a_ar0 a_ar1 50 0 50;
#X obj 11 475 n_array;
#X obj 11 496 print;
#X msg 10 455 add_s a_ar0 0 50 0.1;
#X obj 11 545 n_array;
#X obj 11 566 print;
#X msg 10 525 add_s a_ar0 50 0 0.1;
#X obj 11 615 n_array;
#X obj 11 636 print;
#X msg 11 595 add_s a_ar0 -50 -20 0.1;
#X obj 166 44 n_array;
#X obj 166 65 print;
#X obj 167 335 n_array;
#X obj 167 356 print;
#X obj 167 405 n_array;
#X obj 167 426 print;
#X obj 166 124 n_array;
#X obj 166 145 print;
#X obj 166 194 n_array;
#X obj 166 215 print;
#X obj 166 264 n_array;
#X obj 166 285 print;
#X obj 167 475 n_array;
#X obj 167 496 print;
#X obj 167 545 n_array;
#X obj 167 566 print;
#X obj 167 615 n_array;
#X obj 167 636 print;
#X msg 165 24 sub a_ar0 a_ar1;
#X msg 165 104 sub a_ar0 a_ar1 0 50;
#X msg 165 174 sub a_ar0 a_ar1 50 0;
#X msg 165 244 sub a_ar0 a_ar1 50 0 50;
#X msg 166 315 sub_s a_ar0 0 0 0;
#X msg 166 385 sub_s a_ar0 0 0 -0.5;
#X msg 166 455 sub_s a_ar0 0 50 0.1;
#X msg 166 525 sub_s a_ar0 50 0 0.1;
#X msg 167 595 sub_s a_ar0 -50 -20 0.1;
#X obj 327 44 n_array;
#X obj 327 65 print;
#X obj 328 335 n_array;
#X obj 328 356 print;
#X obj 328 405 n_array;
#X obj 328 426 print;
#X obj 327 124 n_array;
#X obj 327 145 print;
#X obj 327 194 n_array;
#X obj 327 215 print;
#X obj 327 264 n_array;
#X obj 327 285 print;
#X obj 328 475 n_array;
#X obj 328 496 print;
#X obj 328 545 n_array;
#X obj 328 566 print;
#X obj 328 615 n_array;
#X obj 328 636 print;
#X msg 326 24 mult a_ar0 a_ar1;
#X msg 326 104 mult a_ar0 a_ar1 0 50;
#X msg 326 174 mult a_ar0 a_ar1 50 0;
#X msg 326 244 mult a_ar0 a_ar1 50 0 50;
#X msg 327 315 mult_s a_ar0 0 0 0;
#X msg 327 385 mult_s a_ar0 0 0 -0.5;
#X msg 327 455 mult_s a_ar0 0 50 0.1;
#X msg 327 525 mult_s a_ar0 50 0 0.1;
#X msg 328 595 mult_s a_ar0 -50 -20 0.1;
#X obj 490 44 n_array;
#X obj 490 65 print;
#X obj 491 335 n_array;
#X obj 491 356 print;
#X obj 491 405 n_array;
#X obj 491 426 print;
#X obj 490 124 n_array;
#X obj 490 145 print;
#X obj 490 194 n_array;
#X obj 490 215 print;
#X obj 490 264 n_array;
#X obj 490 285 print;
#X obj 491 475 n_array;
#X obj 491 496 print;
#X obj 491 545 n_array;
#X obj 491 566 print;
#X obj 491 615 n_array;
#X obj 491 636 print;
#X msg 489 24 div a_ar0 a_ar1;
#X msg 489 104 div a_ar0 a_ar1 0 50;
#X msg 489 174 div a_ar0 a_ar1 50 0;
#X msg 489 244 div a_ar0 a_ar1 50 0 50;
#X msg 490 315 div_s a_ar0 0 0 0;
#X msg 490 385 div_s a_ar0 0 0 -0.5;
#X msg 490 455 div_s a_ar0 0 50 0.1;
#X msg 490 525 div_s a_ar0 50 0 0.1;
#X msg 491 595 div_s a_ar0 -50 -20 0.1;
#X obj 657 44 n_array;
#X obj 657 65 print;
#X obj 658 335 n_array;
#X obj 658 356 print;
#X obj 658 405 n_array;
#X obj 658 426 print;
#X obj 657 124 n_array;
#X obj 657 145 print;
#X obj 657 194 n_array;
#X obj 657 215 print;
#X obj 657 264 n_array;
#X obj 657 285 print;
#X obj 658 475 n_array;
#X obj 658 496 print;
#X obj 658 545 n_array;
#X obj 658 566 print;
#X obj 658 615 n_array;
#X obj 658 636 print;
#X msg 656 24 mod a_ar0 a_ar1;
#X msg 656 104 mod a_ar0 a_ar1 0 50;
#X msg 656 174 mod a_ar0 a_ar1 50 0;
#X msg 656 244 mod a_ar0 a_ar1 50 0 50;
#X msg 657 315 mod_s a_ar0 0 0 0;
#X msg 657 385 mod_s a_ar0 0 0 1;
#X msg 657 455 mod_s a_ar0 0 50 2;
#X msg 657 525 mod_s a_ar0 50 0 3;
#X msg 658 595 mod_s a_ar0 -50 -20 4;
#X obj 817 44 n_array;
#X obj 817 65 print;
#X obj 818 335 n_array;
#X obj 818 356 print;
#X obj 818 405 n_array;
#X obj 818 426 print;
#X obj 817 124 n_array;
#X obj 817 145 print;
#X obj 817 194 n_array;
#X obj 817 215 print;
#X obj 817 264 n_array;
#X obj 817 285 print;
#X obj 818 475 n_array;
#X obj 818 496 print;
#X obj 818 545 n_array;
#X obj 818 566 print;
#X obj 818 615 n_array;
#X obj 818 636 print;
#X msg 816 24 pow a_ar0 a_ar1;
#X msg 816 104 pow a_ar0 a_ar1 0 50;
#X msg 816 174 pow a_ar0 a_ar1 50 0;
#X msg 816 244 pow a_ar0 a_ar1 50 0 50;
#X msg 817 315 pow_s a_ar0 0 0 0;
#X msg 817 385 pow_s a_ar0 0 0 1;
#X msg 817 455 pow_s a_ar0 0 50 2;
#X msg 817 525 pow_s a_ar0 50 0 3;
#X msg 818 595 pow_s a_ar0 -50 -20 4;
#X obj 998 335 n_array;
#X obj 998 356 print;
#X obj 998 405 n_array;
#X obj 998 426 print;
#X obj 998 475 n_array;
#X obj 998 496 print;
#X obj 998 545 n_array;
#X obj 998 566 print;
#X obj 998 615 n_array;
#X obj 998 636 print;
#X msg 997 315 sqrt a_ar0 0 0;
#X msg 997 385 sqrt a_ar0 0 0;
#X msg 997 455 sqrt a_ar0 0 50;
#X msg 997 525 sqrt a_ar0 50 0;
#X msg 998 595 sqrt a_ar0 -50 -20;
#X obj 1122 335 n_array;
#X obj 1122 356 print;
#X obj 1122 405 n_array;
#X obj 1122 426 print;
#X obj 1122 475 n_array;
#X obj 1122 496 print;
#X obj 1122 545 n_array;
#X obj 1122 566 print;
#X obj 1122 615 n_array;
#X obj 1122 636 print;
#X obj 1243 335 n_array;
#X obj 1243 356 print;
#X obj 1243 405 n_array;
#X obj 1243 426 print;
#X obj 1243 475 n_array;
#X obj 1243 496 print;
#X obj 1243 545 n_array;
#X obj 1243 566 print;
#X obj 1243 615 n_array;
#X obj 1243 636 print;
#X obj 1368 335 n_array;
#X obj 1368 356 print;
#X obj 1368 405 n_array;
#X obj 1368 426 print;
#X obj 1368 475 n_array;
#X obj 1368 496 print;
#X obj 1368 545 n_array;
#X obj 1368 566 print;
#X obj 1368 615 n_array;
#X obj 1368 636 print;
#X msg 1121 315 log a_ar0 0 0;
#X msg 1121 385 log a_ar0 0 0;
#X msg 1121 455 log a_ar0 0 50;
#X msg 1121 525 log a_ar0 50 0;
#X msg 1122 595 log a_ar0 -50 -20;
#X msg 1242 315 log2 a_ar0 0 0;
#X msg 1242 385 log2 a_ar0 0 0;
#X msg 1242 455 log2 a_ar0 0 50;
#X msg 1242 525 log2 a_ar0 50 0;
#X msg 1243 595 log2 a_ar0 -50 -20;
#X msg 1367 315 log10 a_ar0 0 0;
#X msg 1367 385 log10 a_ar0 0 0;
#X msg 1367 455 log10 a_ar0 0 50;
#X msg 1367 525 log10 a_ar0 50 0;
#X msg 1368 595 log10 a_ar0 -50 -20;
#X obj 1498 335 n_array;
#X obj 1498 356 print;
#X obj 1498 405 n_array;
#X obj 1498 426 print;
#X obj 1498 475 n_array;
#X obj 1498 496 print;
#X obj 1498 545 n_array;
#X obj 1498 566 print;
#X obj 1498 615 n_array;
#X obj 1498 636 print;
#X msg 1497 315 exp a_ar0 0 0;
#X msg 1497 385 exp a_ar0 0 0;
#X msg 1497 455 exp a_ar0 0 50;
#X msg 1497 525 exp a_ar0 50 0;
#X msg 1498 595 exp a_ar0 -50 -20;
#X obj 1620 335 n_array;
#X obj 1620 356 print;
#X obj 1620 405 n_array;
#X obj 1620 426 print;
#X obj 1620 475 n_array;
#X obj 1620 496 print;
#X obj 1620 545 n_array;
#X obj 1620 566 print;
#X obj 1620 615 n_array;
#X obj 1620 636 print;
#X msg 1619 315 exp2 a_ar0 0 0;
#X msg 1619 385 exp2 a_ar0 0 0;
#X msg 1619 455 exp2 a_ar0 0 50;
#X msg 1619 525 exp2 a_ar0 50 0;
#X msg 1620 595 exp2 a_ar0 -50 -20;
#X msg 1157 65 resize a_ar0 \$1;
#X obj 1157 83 n_array;
#X obj 1157 12 loadbang;
#X msg 1157 30 100;
#X floatatom 1357 48 5 0 0 0 - - -;
#X obj 1357 83 n_array;
#X obj 1357 12 loadbang;
#X msg 1357 30 100;
#X msg 1357 65 resize a_ar1 \$1;
#X connect 0 0 1 0;
#X connect 4 0 255 0;
#X connect 5 0 6 0;
#X connect 7 0 8 0;
#X connect 9 0 5 0;
#X connect 10 0 7 0;
#X connect 11 0 0 0;
#X connect 12 0 13 0;
#X connect 14 0 15 0;
#X connect 16 0 17 0;
#X connect 18 0 12 0;
#X connect 19 0 14 0;
#X connect 20 0 16 0;
#X connect 21 0 22 0;
#X connect 23 0 21 0;
#X connect 24 0 25 0;
#X connect 26 0 24 0;
#X connect 27 0 28 0;
#X connect 29 0 27 0;
#X connect 30 0 31 0;
#X connect 32 0 33 0;
#X connect 34 0 35 0;
#X connect 36 0 37 0;
#X connect 38 0 39 0;
#X connect 40 0 41 0;
#X connect 42 0 43 0;
#X connect 44 0 45 0;
#X connect 46 0 47 0;
#X connect 48 0 30 0;
#X connect 49 0 36 0;
#X connect 50 0 38 0;
#X connect 51 0 40 0;
#X connect 52 0 32 0;
#X connect 53 0 34 0;
#X connect 54 0 42 0;
#X connect 55 0 44 0;
#X connect 56 0 46 0;
#X connect 57 0 58 0;
#X connect 59 0 60 0;
#X connect 61 0 62 0;
#X connect 63 0 64 0;
#X connect 65 0 66 0;
#X connect 67 0 68 0;
#X connect 69 0 70 0;
#X connect 71 0 72 0;
#X connect 73 0 74 0;
#X connect 75 0 57 0;
#X connect 76 0 63 0;
#X connect 77 0 65 0;
#X connect 78 0 67 0;
#X connect 79 0 59 0;
#X connect 80 0 61 0;
#X connect 81 0 69 0;
#X connect 82 0 71 0;
#X connect 83 0 73 0;
#X connect 84 0 85 0;
#X connect 86 0 87 0;
#X connect 88 0 89 0;
#X connect 90 0 91 0;
#X connect 92 0 93 0;
#X connect 94 0 95 0;
#X connect 96 0 97 0;
#X connect 98 0 99 0;
#X connect 100 0 101 0;
#X connect 102 0 84 0;
#X connect 103 0 90 0;
#X connect 104 0 92 0;
#X connect 105 0 94 0;
#X connect 106 0 86 0;
#X connect 107 0 88 0;
#X connect 108 0 96 0;
#X connect 109 0 98 0;
#X connect 110 0 100 0;
#X connect 111 0 112 0;
#X connect 113 0 114 0;
#X connect 115 0 116 0;
#X connect 117 0 118 0;
#X connect 119 0 120 0;
#X connect 121 0 122 0;
#X connect 123 0 124 0;
#X connect 125 0 126 0;
#X connect 127 0 128 0;
#X connect 129 0 111 0;
#X connect 130 0 117 0;
#X connect 131 0 119 0;
#X connect 132 0 121 0;
#X connect 133 0 113 0;
#X connect 134 0 115 0;
#X connect 135 0 123 0;
#X connect 136 0 125 0;
#X connect 137 0 127 0;
#X connect 138 0 139 0;
#X connect 140 0 141 0;
#X connect 142 0 143 0;
#X connect 144 0 145 0;
#X connect 146 0 147 0;
#X connect 148 0 149 0;
#X connect 150 0 151 0;
#X connect 152 0 153 0;
#X connect 154 0 155 0;
#X connect 156 0 138 0;
#X connect 157 0 144 0;
#X connect 158 0 146 0;
#X connect 159 0 148 0;
#X connect 160 0 140 0;
#X connect 161 0 142 0;
#X connect 162 0 150 0;
#X connect 163 0 152 0;
#X connect 164 0 154 0;
#X connect 165 0 166 0;
#X connect 167 0 168 0;
#X connect 169 0 170 0;
#X connect 171 0 172 0;
#X connect 173 0 174 0;
#X connect 175 0 165 0;
#X connect 176 0 167 0;
#X connect 177 0 169 0;
#X connect 178 0 171 0;
#X connect 179 0 173 0;
#X connect 180 0 181 0;
#X connect 182 0 183 0;
#X connect 184 0 185 0;
#X connect 186 0 187 0;
#X connect 188 0 189 0;
#X connect 190 0 191 0;
#X connect 192 0 193 0;
#X connect 194 0 195 0;
#X connect 196 0 197 0;
#X connect 198 0 199 0;
#X connect 200 0 201 0;
#X connect 202 0 203 0;
#X connect 204 0 205 0;
#X connect 206 0 207 0;
#X connect 208 0 209 0;
#X connect 210 0 180 0;
#X connect 211 0 182 0;
#X connect 212 0 184 0;
#X connect 213 0 186 0;
#X connect 214 0 188 0;
#X connect 215 0 190 0;
#X connect 216 0 192 0;
#X connect 217 0 194 0;
#X connect 218 0 196 0;
#X connect 219 0 198 0;
#X connect 220 0 200 0;
#X connect 221 0 202 0;
#X connect 222 0 204 0;
#X connect 223 0 206 0;
#X connect 224 0 208 0;
#X connect 225 0 226 0;
#X connect 227 0 228 0;
#X connect 229 0 230 0;
#X connect 231 0 232 0;
#X connect 233 0 234 0;
#X connect 235 0 225 0;
#X connect 236 0 227 0;
#X connect 237 0 229 0;
#X connect 238 0 231 0;
#X connect 239 0 233 0;
#X connect 240 0 241 0;
#X connect 242 0 243 0;
#X connect 244 0 245 0;
#X connect 246 0 247 0;
#X connect 248 0 249 0;
#X connect 250 0 240 0;
#X connect 251 0 242 0;
#X connect 252 0 244 0;
#X connect 253 0 246 0;
#X connect 254 0 248 0;
#X connect 255 0 256 0;
#X connect 257 0 258 0;
#X connect 258 0 4 0;
#X connect 259 0 263 0;
#X connect 261 0 262 0;
#X connect 262 0 259 0;
#X connect 263 0 260 0;
#X restore 140 526 pd arithmetric;
#N canvas 317 139 964 487 trigonometry 0;
#N canvas 0 50 450 250 (subpatch) 0;
#X array a_tr0 100 float 2;
#X coords 0 1 100 -1 200 140 1 0 0;
#X restore 500 125 graph;
#N canvas 0 50 450 250 (subpatch) 0;
#X array a_tr1 100 float 2;
#X coords 0 1 100 -1 200 140 1 0 0;
#X restore 706 125 graph;
#X obj 36 46 n_array;
#X obj 36 64 print;
#X msg 36 28 sin a_tr0 0 0;
#X obj 539 302 n_array;
#X msg 539 284 count a_tr0 0 0 -1 0.02;
#X obj 539 345 n_array;
#X msg 539 327 mult_s a_tr0 0 0 3.14;
#X obj 727 300 n_array;
#X obj 727 343 n_array;
#X obj 516 47 n_array;
#X obj 516 68 print;
#X msg 516 28 atan2 a_tr0 a_tr1 0 0;
#X msg 727 282 count a_tr1 0 0 -2 0.04;
#X msg 727 325 mult_s a_tr1 0 0 3.14;
#X obj 672 47 n_array;
#X obj 672 68 print;
#X msg 672 28 atan2_s a_tr0 0 0;
#X floatatom 540 407 5 0 0 0 - - -;
#X obj 540 442 n_array;
#X obj 540 371 loadbang;
#X msg 540 389 100;
#X floatatom 727 407 5 0 0 0 - - -;
#X obj 727 442 n_array;
#X obj 727 371 loadbang;
#X msg 727 389 100;
#X msg 540 424 resize a_tr0 \$1;
#X msg 727 424 resize a_tr1 \$1;
#X obj 36 116 n_array;
#X obj 36 134 print;
#X obj 36 186 n_array;
#X obj 36 204 print;
#X obj 36 256 n_array;
#X obj 36 274 print;
#X msg 36 98 sinh a_tr0 0 0;
#X msg 36 168 asin a_tr0 0 0;
#X msg 36 238 asinh a_tr0 0 0;
#X obj 176 46 n_array;
#X obj 176 64 print;
#X obj 176 116 n_array;
#X obj 176 134 print;
#X obj 176 186 n_array;
#X obj 176 204 print;
#X obj 176 256 n_array;
#X obj 176 274 print;
#X msg 176 28 cos a_tr0 0 0;
#X msg 176 98 cosh a_tr0 0 0;
#X msg 176 168 acos a_tr0 0 0;
#X msg 176 238 acosh a_tr0 0 0;
#X obj 336 46 n_array;
#X obj 336 64 print;
#X obj 336 116 n_array;
#X obj 336 134 print;
#X obj 336 186 n_array;
#X obj 336 204 print;
#X obj 336 256 n_array;
#X obj 336 274 print;
#X msg 336 28 tan a_tr0 0 0;
#X msg 336 98 tanh a_tr0 0 0;
#X msg 336 168 atan a_tr0 0 0;
#X msg 336 238 atanh a_tr0 0 0;
#X connect 2 0 3 0;
#X connect 4 0 2 0;
#X connect 6 0 5 0;
#X connect 8 0 7 0;
#X connect 11 0 12 0;
#X connect 13 0 11 0;
#X connect 14 0 9 0;
#X connect 15 0 10 0;
#X connect 16 0 17 0;
#X connect 18 0 16 0;
#X connect 19 0 27 0;
#X connect 21 0 22 0;
#X connect 22 0 19 0;
#X connect 23 0 28 0;
#X connect 25 0 26 0;
#X connect 26 0 23 0;
#X connect 27 0 20 0;
#X connect 28 0 24 0;
#X connect 29 0 30 0;
#X connect 31 0 32 0;
#X connect 33 0 34 0;
#X connect 35 0 29 0;
#X connect 36 0 31 0;
#X connect 37 0 33 0;
#X connect 38 0 39 0;
#X connect 40 0 41 0;
#X connect 42 0 43 0;
#X connect 44 0 45 0;
#X connect 46 0 38 0;
#X connect 47 0 40 0;
#X connect 48 0 42 0;
#X connect 49 0 44 0;
#X connect 50 0 51 0;
#X connect 52 0 53 0;
#X connect 54 0 55 0;
#X connect 56 0 57 0;
#X connect 58 0 50 0;
#X connect 59 0 52 0;
#X connect 60 0 54 0;
#X connect 61 0 56 0;
#X restore 140 546 pd trigonometry;
#N canvas 406 45 882 718 comparison 0;
#X obj 129 183 n_array;
#N canvas 0 50 450 250 (subpatch) 0;
#X array a_cmp0 100 float 2;
#X coords 0 1 100 -1 200 140 1 0 0;
#X restore 162 563 graph;
#N canvas 0 50 450 250 (subpatch) 0;
#X array a_cmp1 100 float 2;
#X coords 0 1 100 -1 200 140 1 0 0;
#X restore 364 563 graph;
#X msg 129 165 eq a_cmp0 a_cmp1 a_cmp_dst;
#N canvas 0 50 450 250 (subpatch) 0;
#X array a_cmp_dst 100 float 2;
#X coords 0 1 100 -1 200 140 1 0 0;
#X restore 566 563 graph;
#X text 18 37 eq <array0> <array1> <array_dst> <start0> <len> <start1>
<start_dst>, f 69;
#X obj 129 201 print -n;
#X obj 129 238 n_array;
#X obj 129 256 print -n;
#X msg 129 220 ne a_cmp0 a_cmp1 a_cmp_dst;
#X obj 129 293 n_array;
#X obj 129 311 print -n;
#X obj 129 348 n_array;
#X obj 129 366 print -n;
#X obj 129 404 n_array;
#X obj 129 422 print -n;
#X obj 129 460 n_array;
#X obj 129 478 print -n;
#X msg 129 275 gt a_cmp0 a_cmp1 a_cmp_dst;
#X msg 129 330 ge a_cmp0 a_cmp1 a_cmp_dst;
#X msg 129 386 lt a_cmp0 a_cmp1 a_cmp_dst;
#X msg 129 442 le a_cmp0 a_cmp1 a_cmp_dst;
#X text 18 57 ne <array0> <array1> <array_dst> <start0> <len> <start1>
<start_dst>, f 69;
#X text 18 77 gt <array0> <array1> <array_dst> <start0> <len> <start1>
<start_dst>, f 69;
#X text 18 97 ge <array0> <array1> <array_dst> <start0> <len> <start1>
<start_dst>, f 69;
#X text 18 117 lt <array0> <array1> <array_dst> <start0> <len> <start1>
<start_dst>, f 69;
#X text 18 137 le <array0> <array1> <array_dst> <start0> <len> <start1>
<start_dst>, f 69;
#X text 45 4 comparison two arrays and write result to destination
array. output 1 when no errors.;
#X text 485 4 comparison array with value. output 1 when no errors.
;
#X text 540 37 eq_s <array> <start> <len> <value>, f 35;
#X obj 539 183 n_array;
#X obj 539 201 print -n;
#X msg 539 165 eq_s a_cmp0 0 0 1;
#X obj 679 183 n_array;
#X obj 679 201 print -n;
#X msg 679 165 eq_s a_cmp0 0 0 0;
#X obj 539 238 n_array;
#X obj 539 256 print -n;
#X obj 679 238 n_array;
#X obj 679 256 print -n;
#X msg 539 220 ne_s a_cmp0 0 0 1;
#X msg 679 220 ne_s a_cmp0 0 0 0;
#X text 540 57 ne_s <array> <start> <len> <value>, f 35;
#X text 540 77 gt_s <array> <start> <len> <value>, f 35;
#X text 540 97 ge_s <array> <start> <len> <value>, f 35;
#X text 540 117 lt_s <array> <start> <len> <value>, f 35;
#X text 540 137 le_s <array> <start> <len> <value>, f 35;
#X obj 539 293 n_array;
#X obj 539 311 print -n;
#X obj 679 293 n_array;
#X obj 679 311 print -n;
#X obj 539 348 n_array;
#X obj 539 366 print -n;
#X obj 679 348 n_array;
#X obj 679 366 print -n;
#X obj 539 403 n_array;
#X obj 539 421 print -n;
#X obj 679 403 n_array;
#X obj 679 421 print -n;
#X obj 539 458 n_array;
#X obj 539 476 print -n;
#X obj 679 458 n_array;
#X obj 679 476 print -n;
#X msg 539 275 gt_s a_cmp0 0 0 1;
#X msg 679 275 gt_s a_cmp0 0 0 0;
#X msg 539 385 lt_s a_cmp0 0 0 1;
#X msg 679 385 lt_s a_cmp0 0 0 0;
#X msg 539 440 le_s a_cmp0 0 0 1;
#X msg 679 440 le_s a_cmp0 0 0 0;
#X msg 539 330 ge_s a_cmp0 0 0 1;
#X msg 679 330 ge_s a_cmp0 0 0 0;
#X connect 0 0 6 0;
#X connect 3 0 0 0;
#X connect 7 0 8 0;
#X connect 9 0 7 0;
#X connect 10 0 11 0;
#X connect 12 0 13 0;
#X connect 14 0 15 0;
#X connect 16 0 17 0;
#X connect 18 0 10 0;
#X connect 19 0 12 0;
#X connect 20 0 14 0;
#X connect 21 0 16 0;
#X connect 30 0 31 0;
#X connect 32 0 30 0;
#X connect 33 0 34 0;
#X connect 35 0 33 0;
#X connect 36 0 37 0;
#X connect 38 0 39 0;
#X connect 40 0 36 0;
#X connect 41 0 38 0;
#X connect 47 0 48 0;
#X connect 49 0 50 0;
#X connect 51 0 52 0;
#X connect 53 0 54 0;
#X connect 55 0 56 0;
#X connect 57 0 58 0;
#X connect 59 0 60 0;
#X connect 61 0 62 0;
#X connect 63 0 47 0;
#X connect 64 0 49 0;
#X connect 65 0 55 0;
#X connect 66 0 57 0;
#X connect 67 0 59 0;
#X connect 68 0 61 0;
#X connect 69 0 51 0;
#X connect 70 0 53 0;
#X restore 140 566 pd comparison;
#N canvas 0 45 1364 721 conversion 0;
#X obj 36 48 n_array;
#X obj 36 69 print;
#X obj 36 109 n_array;
#X obj 36 130 print;
#X obj 36 171 n_array;
#X obj 36 192 print;
#X obj 36 232 n_array;
#X obj 36 253 print;
#X obj 36 296 n_array;
#X obj 36 317 print;
#N canvas 0 50 450 250 (subpatch) 0;
#X array a_cnv0 100 float 2;
#X coords 0 100 100 -100 200 140 1 0 0;
#X restore 984 91 graph;
#X obj 1036 281 n_array;
#X obj 1038 331 n_array;
#X msg 35 28 m2f a_cnv0;
#X msg 35 89 m2f a_cnv0 0 0;
#X msg 35 151 m2f a_cnv0 0 50;
#X msg 35 212 m2f a_cnv0 50 0;
#X msg 36 276 m2f a_cnv0 50 -20;
#X msg 1036 262 count a_cnv0 0 0 0 1;
#X msg 1038 312 count a_cnv0 0 0 12 1;
#X obj 154 48 n_array;
#X obj 154 69 print;
#X obj 154 109 n_array;
#X obj 154 130 print;
#X obj 154 171 n_array;
#X obj 154 192 print;
#X obj 154 232 n_array;
#X obj 154 253 print;
#X obj 154 296 n_array;
#X obj 154 317 print;
#X msg 153 28 f2m a_cnv0;
#X msg 153 89 f2m a_cnv0 0 0;
#X msg 153 151 f2m a_cnv0 0 50;
#X msg 153 212 f2m a_cnv0 50 0;
#X msg 154 276 f2m a_cnv0 50 -20;
#X obj 274 48 n_array;
#X obj 274 69 print;
#X obj 274 109 n_array;
#X obj 274 130 print;
#X obj 274 171 n_array;
#X obj 274 192 print;
#X obj 274 232 n_array;
#X obj 274 253 print;
#X obj 274 296 n_array;
#X obj 274 317 print;
#X obj 407 48 n_array;
#X obj 407 69 print;
#X obj 407 109 n_array;
#X obj 407 130 print;
#X obj 407 171 n_array;
#X obj 407 192 print;
#X obj 407 232 n_array;
#X obj 407 253 print;
#X obj 407 296 n_array;
#X obj 407 317 print;
#X msg 273 28 db2pow a_cnv0;
#X msg 273 89 db2pow a_cnv0 0 0;
#X msg 273 151 db2pow a_cnv0 0 50;
#X msg 273 212 db2pow a_cnv0 50 0;
#X msg 274 276 db2pow a_cnv0 50 -20;
#X msg 406 28 pow2db a_cnv0;
#X msg 406 89 pow2db a_cnv0 0 0;
#X msg 406 151 pow2db a_cnv0 0 50;
#X msg 406 212 pow2db a_cnv0 50 0;
#X msg 407 276 pow2db a_cnv0 50 -20;
#X obj 557 48 n_array;
#X obj 557 69 print;
#X obj 557 109 n_array;
#X obj 557 130 print;
#X obj 557 171 n_array;
#X obj 557 192 print;
#X obj 557 232 n_array;
#X obj 557 253 print;
#X obj 557 296 n_array;
#X obj 557 317 print;
#X obj 692 48 n_array;
#X obj 692 69 print;
#X obj 692 109 n_array;
#X obj 692 130 print;
#X obj 692 171 n_array;
#X obj 692 192 print;
#X obj 692 232 n_array;
#X obj 692 253 print;
#X obj 692 296 n_array;
#X obj 692 317 print;
#X msg 556 28 db2rms a_cnv0;
#X msg 556 89 db2rms a_cnv0 0 0;
#X msg 556 151 db2rms a_cnv0 0 50;
#X msg 556 212 db2rms a_cnv0 50 0;
#X msg 557 276 db2rms a_cnv0 50 -20;
#X msg 691 28 rms2db a_cnv0;
#X msg 691 89 rms2db a_cnv0 0 0;
#X msg 691 151 rms2db a_cnv0 0 50;
#X msg 691 212 rms2db a_cnv0 50 0;
#X msg 692 276 rms2db a_cnv0 50 -20;
#X obj 832 48 n_array;
#X obj 832 69 print;
#X obj 832 109 n_array;
#X obj 832 130 print;
#X obj 832 171 n_array;
#X obj 832 192 print;
#X obj 832 232 n_array;
#X obj 832 253 print;
#X obj 832 296 n_array;
#X obj 832 317 print;
#X msg 831 28 logt2sec a_cnv0;
#X msg 831 89 logt2sec a_cnv0 0 0;
#X msg 831 151 logt2sec a_cnv0 0 50;
#X msg 831 212 logt2sec a_cnv0 50 0;
#X msg 832 276 logt2sec a_cnv0 50 -20;
#X connect 0 0 1 0;
#X connect 2 0 3 0;
#X connect 4 0 5 0;
#X connect 6 0 7 0;
#X connect 8 0 9 0;
#X connect 13 0 0 0;
#X connect 14 0 2 0;
#X connect 15 0 4 0;
#X connect 16 0 6 0;
#X connect 17 0 8 0;
#X connect 18 0 11 0;
#X connect 19 0 12 0;
#X connect 20 0 21 0;
#X connect 22 0 23 0;
#X connect 24 0 25 0;
#X connect 26 0 27 0;
#X connect 28 0 29 0;
#X connect 30 0 20 0;
#X connect 31 0 22 0;
#X connect 32 0 24 0;
#X connect 33 0 26 0;
#X connect 34 0 28 0;
#X connect 35 0 36 0;
#X connect 37 0 38 0;
#X connect 39 0 40 0;
#X connect 41 0 42 0;
#X connect 43 0 44 0;
#X connect 45 0 46 0;
#X connect 47 0 48 0;
#X connect 49 0 50 0;
#X connect 51 0 52 0;
#X connect 53 0 54 0;
#X connect 55 0 35 0;
#X connect 56 0 37 0;
#X connect 57 0 39 0;
#X connect 58 0 41 0;
#X connect 59 0 43 0;
#X connect 60 0 45 0;
#X connect 61 0 47 0;
#X connect 62 0 49 0;
#X connect 63 0 51 0;
#X connect 64 0 53 0;
#X connect 65 0 66 0;
#X connect 67 0 68 0;
#X connect 69 0 70 0;
#X connect 71 0 72 0;
#X connect 73 0 74 0;
#X connect 75 0 76 0;
#X connect 77 0 78 0;
#X connect 79 0 80 0;
#X connect 81 0 82 0;
#X connect 83 0 84 0;
#X connect 85 0 65 0;
#X connect 86 0 67 0;
#X connect 87 0 69 0;
#X connect 88 0 71 0;
#X connect 89 0 73 0;
#X connect 90 0 75 0;
#X connect 91 0 77 0;
#X connect 92 0 79 0;
#X connect 93 0 81 0;
#X connect 94 0 83 0;
#X connect 95 0 96 0;
#X connect 97 0 98 0;
#X connect 99 0 100 0;
#X connect 101 0 102 0;
#X connect 103 0 104 0;
#X connect 105 0 95 0;
#X connect 106 0 97 0;
#X connect 107 0 99 0;
#X connect 108 0 101 0;
#X connect 109 0 103 0;
#X restore 140 586 pd conversion;
#N canvas 127 150 1199 559 fft 0;
#N canvas 0 50 450 250 (subpatch) 0;
#X array a_fft_src 1024 float 2;
#X coords 0 1 1024 -1 200 140 1;
#X restore 46 26 graph;
#N canvas 0 50 450 250 (subpatch) 0;
#X array a_fft_r 1024 float 2;
#X coords 0 100 1024 -100 200 140 1 0 0;
#X restore 46 203 graph;
#N canvas 0 50 450 250 (subpatch) 0;
#X array a_fft_i 1024 float 2;
#X coords 0 100 1024 -100 200 140 1 0 0;
#X restore 252 203 graph;
#X obj 270 93 n_array;
#N canvas 0 50 450 250 (subpatch) 0;
#X array a_fft_dst 1024 float 2;
#X coords 0 1 1024 -1 200 140 1 0 0;
#X restore 46 386 graph;
#X obj 505 85 vradio 15 1 0 13 empty empty empty 0 -8 0 10 -262144
-1 -1 8;
#N canvas 0 50 450 300 (subpatch) 0;
#X obj 37 37 inlet;
#X msg 37 79 2 \$1;
#X obj 37 100 pow;
#X obj 37 121 outlet;
#X obj 37 58 + 2;
#X connect 0 0 4 0;
#X connect 1 0 2 0;
#X connect 2 0 3 0;
#X connect 4 0 1 0;
#X restore 505 283 pd;
#X floatatom 505 301 5 0 0 0 - - -;
#X obj 505 412 n_array;
#X obj 272 452 n_array;
#X msg 270 75 fft a_fft_src a_fft_r a_fft_i;
#X msg 272 434 ifft a_fft_dst a_fft_r a_fft_i;
#N canvas 0 50 450 250 (subpatch) 0;
#X array a_fft_a 1024 float 2;
#X coords 0 1 1024 -1 200 140 1 0 0;
#X restore 696 203 graph;
#N canvas 0 50 450 250 (subpatch) 0;
#X array a_fft_ph 1024 float 2;
#X coords 0 3.14 1024 -3.14 200 140 1 0 0;
#X restore 902 203 graph;
#X msg 505 327 resize a_fft_src \$1 \, resize a_fft_r \$1 \, resize
a_fft_i \$1 \, resize a_fft_dst \$1 \, resize a_fft_a \$1 \, resize
a_fft_ph \$1, f 21;
#X obj 820 93 n_array;
#X msg 820 75 vec2pol a_fft_r a_fft_i a_fft_a a_fft_ph;
#X obj 818 435 n_array;
#X msg 818 417 pol2vec a_fft_a a_fft_ph a_fft_r a_fft_i;
#X connect 5 0 6 0;
#X connect 6 0 7 0;
#X connect 7 0 14 0;
#X connect 10 0 3 0;
#X connect 11 0 9 0;
#X connect 14 0 8 0;
#X connect 16 0 15 0;
#X connect 18 0 17 0;
#X restore 140 606 pd fft;
#N canvas 0 45 1364 721 curves 0;
#N canvas 0 50 450 250 (subpatch) 0;
#X array a_curves 200 float 2;
#X coords 0 1 200 0 200 140 1 0 0;
#X restore 474 72 graph;
#X obj 94 141 n_array;
#X text 467 12 from mapping library for pd.;
#X text 417 28 AUTHOR Cyrille Henry and Hans-Christoph Steiner;
#X msg 94 123 c_breakpoint a_curves 0 0 \$1 \$2;
#X obj 97 70 hsl 50 15 0 1 0 0 empty empty x -2 -8 0 10 -228856 -1
-1 0 1;
#X obj 157 70 hsl 50 15 0 1 0 0 empty empty y -2 -8 0 10 -228856 -1
-1 0 1;
#X obj 154 87 t b f;
#X obj 94 105 pack f f, f 15;
#X text 67 36 c_breakpoint <array> <start> <len> <x> <y>;
#X text 219 70 x \, y - range 0 ... 1;
#X obj 94 291 n_array;
#X obj 97 220 hsl 50 15 0 1 0 0 empty empty x -2 -8 0 10 -228856 -1
-1 0 1;
#X obj 157 220 hsl 50 15 0 1 0 0 empty empty y -2 -8 0 10 -228856 -1
-1 0 1;
#X obj 154 237 t b f;
#X obj 94 255 pack f f, f 15;
#X text 219 220 x \, y - range 0 ... 1;
#X text 67 186 c_breakpoint_smooth <array> <start> <len> <x> <y>;
#X msg 94 273 c_breakpoint_smooth a_curves 0 0 \$1 \$2;
#X obj 94 400 n_array;
#X obj 97 360 hsl 50 15 0 1 0 0 empty empty x -2 -8 0 10 -228856 -1
-1 0 1;
#X msg 94 382 c_circular a_curves 0 0 \$1;
#X text 193 358 x - range 0 ... 1;
#X obj 94 500 n_array;
#X obj 97 460 hsl 50 15 0 1 0 0 empty empty x -2 -8 0 10 -228856 -1
-1 0 1;
#X text 193 458 x - range 0 ... 1;
#X text 67 326 c_cirular <array> <start> <len> <x>;
#X text 67 426 c_cirular_sigmoid <array> <start> <len> <x>;
#X msg 94 482 c_circular_sigmoid a_curves 0 0 \$1;
#X obj 464 331 n_array;
#X obj 467 260 hsl 50 15 0 1 0 0 empty empty x -2 -8 0 10 -228856 -1
-1 0 1;
#X obj 527 260 hsl 50 15 0 1 0 0 empty empty y -2 -8 0 10 -228856 -1
-1 0 1;
#X obj 524 277 t b f;
#X obj 464 295 pack f f, f 15;
#X text 589 260 x \, y - range 0 ... 1;
#X text 441 226 c_cubic <array> <start> <len> <x> <y>;
#X msg 464 313 c_cubic a_curves 0 0 \$1 \$2;
#X obj 464 405 n_array;
#X msg 464 387 c_exp a_curves 0 0;
#X text 441 364 c_exp <array> <start> <len>;
#X obj 464 485 n_array;
#X text 441 444 c_log <array> <start> <len>;
#X msg 464 467 c_log a_curves 0 0;
#X obj 774 141 n_array;
#X obj 777 70 hsl 50 15 0 1 0 0 empty empty x -2 -8 0 10 -228856 -1
-1 0 1;
#X obj 837 70 hsl 50 15 0 1 0 0 empty empty y -2 -8 0 10 -228856 -1
-1 0 1;
#X obj 834 87 t b f;
#X obj 774 105 pack f f, f 15;
#X text 899 70 x \, y - range 0 ... 1;
#X text 747 36 c_elleptic <array> <start> <len> <x> <y>;
#X msg 774 123 c_elleptic a_curves 0 0 \$1 \$2;
#X obj 774 281 n_array;
#X obj 777 210 hsl 50 15 0 1 0 0 empty empty x -2 -8 0 10 -228856 -1
-1 0 1;
#X obj 837 210 hsl 50 15 0 1 0 0 empty empty y -2 -8 0 10 -228856 -1
-1 0 1;
#X obj 834 227 t b f;
#X obj 774 245 pack f f, f 15;
#X text 899 210 x \, y - range 0 ... 1;
#X text 747 176 c_elleptic_seat <array> <start> <len> <x> <y>;
#X msg 774 263 c_elleptic_seat a_curves 0 0 \$1 \$2;
#X obj 774 421 n_array;
#X obj 777 350 hsl 50 15 0 1 0 0 empty empty x -2 -8 0 10 -228856 -1
-1 0 1;
#X obj 837 350 hsl 50 15 0 1 0 0 empty empty y -2 -8 0 10 -228856 -1
-1 0 1;
#X obj 834 367 t b f;
#X obj 774 385 pack f f, f 15;
#X text 899 350 x \, y - range 0 ... 1;
#X text 747 316 c_elleptic_sigmoid <array> <start> <len> <x> <y>;
#X msg 774 403 c_elleptic_sigmoid a_curves 0 0 \$1 \$2;
#X obj 1094 110 n_array;
#X obj 1097 70 hsl 50 15 0 1 0 0 empty empty x -2 -8 0 10 -228856 -1
-1 0 1;
#X text 1042 38 c_exponential <array> <start> <len> <x>;
#X msg 1094 92 c_exponential a_curves 0 0 \$1;
#X obj 1094 210 n_array;
#X obj 1097 170 hsl 50 15 0 1 0 0 empty empty x -2 -8 0 10 -228856
-1 -1 0 1;
#X text 1042 138 c_exponential_seat <array> <start> <len> <x>;
#X msg 1094 192 c_exponential_seat a_curves 0 0 \$1;
#X obj 1094 310 n_array;
#X obj 1097 270 hsl 50 15 0 1 0 0 empty empty x -2 -8 0 10 -228856
-1 -1 0 1;
#X text 1042 238 c_exponential_sigmoid <array> <start> <len> <x>;
#X msg 1094 292 c_exponential_sigmoid a_curves 0 0 \$1;
#X obj 1094 410 n_array;
#X obj 1097 370 hsl 50 15 0 1 0 0 empty empty x -2 -8 0 10 -228856
-1 -1 0 1;
#X text 1042 338 c_logistic_sigmoid <array> <start> <len> <x>;
#X msg 1094 392 c_logistic_sigmoid a_curves 0 0 \$1;
#X obj 426 654 n_array;
#X obj 429 583 hsl 50 15 0 1 0 0 empty empty x -2 -8 0 10 -228856 -1
-1 0 1;
#X obj 489 583 hsl 50 15 0 1 0 0 empty empty y -2 -8 0 10 -228856 -1
-1 0 1;
#X obj 486 600 t b f;
#X obj 426 618 pack f f, f 15;
#X text 549 581 x \, y - range 0 ... 1;
#X text 407 551 c_quadratic <array> <start> <len> <x> <y>;
#X msg 426 636 c_quadratic a_curves 0 0 \$1 \$2;
#X obj 94 651 n_array;
#X obj 97 580 hsl 50 15 0 1 0 0 empty empty x -2 -8 0 10 -228856 -1
-1 0 1;
#X obj 157 580 hsl 50 15 0 1 0 0 empty empty y -2 -8 0 10 -228856 -1
-1 0 1;
#X obj 154 597 t b f;
#X obj 94 615 pack f f, f 15;
#X text 219 580 x \, y - range 0 ... 1;
#X text 75 548 c_quartic <array> <start> <len> <x> <y>;
#X msg 94 633 c_quartic a_curves 0 0 \$1 \$2;
#X obj 733 654 n_array;
#X obj 736 583 hsl 50 15 0 1 0 0 empty empty x -2 -8 0 10 -228856 -1
-1 0 1;
#X obj 796 583 hsl 50 15 0 1 0 0 empty empty y -2 -8 0 10 -228856 -1
-1 0 1;
#X obj 793 600 t b f;
#X obj 733 618 pack f f, f 15;
#X text 852 583 x \, y - range 0 ... 1;
#X text 714 551 c_simplified_cubic_seat <array> <start> <len> <x> <y>
;
#X msg 733 636 c_simplified_cubic_seat a_curves 0 0 \$1 \$2;
#X obj 1094 650 n_array;
#X obj 1097 610 hsl 50 15 0 1 0 0 empty empty x -2 -8 0 10 -228856
-1 -1 0 1;
#X text 1044 578 c_simplified_quadratic <array> <start> <len> <x>;
#X msg 1094 632 c_simplified_quadratic a_curves 0 0 \$1;
#X connect 4 0 1 0;
#X connect 5 0 8 0;
#X connect 6 0 7 0;
#X connect 7 0 8 0;
#X connect 7 1 8 1;
#X connect 8 0 4 0;
#X connect 12 0 15 0;
#X connect 13 0 14 0;
#X connect 14 0 15 0;
#X connect 14 1 15 1;
#X connect 15 0 18 0;
#X connect 18 0 11 0;
#X connect 20 0 21 0;
#X connect 21 0 19 0;
#X connect 24 0 28 0;
#X connect 28 0 23 0;
#X connect 30 0 33 0;
#X connect 31 0 32 0;
#X connect 32 0 33 0;
#X connect 32 1 33 1;
#X connect 33 0 36 0;
#X connect 36 0 29 0;
#X connect 38 0 37 0;
#X connect 42 0 40 0;
#X connect 44 0 47 0;
#X connect 45 0 46 0;
#X connect 46 0 47 0;
#X connect 46 1 47 1;
#X connect 47 0 50 0;
#X connect 50 0 43 0;
#X connect 52 0 55 0;
#X connect 53 0 54 0;
#X connect 54 0 55 0;
#X connect 54 1 55 1;
#X connect 55 0 58 0;
#X connect 58 0 51 0;
#X connect 60 0 63 0;
#X connect 61 0 62 0;
#X connect 62 0 63 0;
#X connect 62 1 63 1;
#X connect 63 0 66 0;
#X connect 66 0 59 0;
#X connect 68 0 70 0;
#X connect 70 0 67 0;
#X connect 72 0 74 0;
#X connect 74 0 71 0;
#X connect 76 0 78 0;
#X connect 78 0 75 0;
#X connect 80 0 82 0;
#X connect 82 0 79 0;
#X connect 84 0 87 0;
#X connect 85 0 86 0;
#X connect 86 0 87 0;
#X connect 86 1 87 1;
#X connect 87 0 90 0;
#X connect 90 0 83 0;
#X connect 92 0 95 0;
#X connect 93 0 94 0;
#X connect 94 0 95 0;
#X connect 94 1 95 1;
#X connect 95 0 98 0;
#X connect 98 0 91 0;
#X connect 100 0 103 0;
#X connect 101 0 102 0;
#X connect 102 0 103 0;
#X connect 102 1 103 1;
#X connect 103 0 106 0;
#X connect 106 0 99 0;
#X connect 108 0 110 0;
#X connect 110 0 107 0;
#X restore 140 626 pd curves;
#X connect 2 0 3 0;
#X connect 3 0 4 0;
