#N canvas 538 81 741 519 10;
#X obj 30 382 n_browser;
#X msg 30 12 init;
#X msg 93 136 dir_print;
#X msg 84 120 dir_read;
#X msg 113 168 dir_up;
#X msg 104 152 change_dir_this;
#X msg 52 68 change_dir \$1;
#X msg 138 13 /;
#X obj 52 49 symbol;
#X msg 153 45 /home;
#X msg 146 29 /bin/;
#X msg 160 61 /root;
#X msg 39 28 size 80 20;
#X obj 126 346 loadbang;
#N canvas 110 162 746 490 view 0;
#N canvas 23 136 878 450 init 0;
#X obj 248 38 inlet;
#X obj 41 315 pack;
#X msg 422 369 3 \$1 13 10 1 0 \$3 \$2 \$4;
#X obj 422 264 t f f;
#X obj 422 349 pack f f f f;
#X obj 468 287 *;
#X obj 491 308 +;
#X obj 422 220 i;
#X obj 293 109 + 1;
#X obj 262 350 pack f f f f;
#X obj 262 278 t f f;
#X obj 262 302 +;
#X obj 262 231 i;
#X obj 289 302 *;
#X obj 331 326 +;
#X obj 632 298 *;
#X obj 632 274 t b f;
#X obj 575 348 pack f f f;
#X msg 575 369 maxel \$1 \, size \$2 \$3 \, color 22 22 22;
#X obj 590 304 * 2;
#X obj 575 328 i;
#X obj 41 296 i;
#X obj 422 419 outlet canvas;
#X obj 41 355 outlet browser;
#X obj 549 81 t b b b b;
#X obj 248 58 route columns rows size_x size_y font_size ldx ldy display
;
#X obj 216 183 outlet rows;
#X obj 491 329 - 1;
#X obj 632 323 - 1;
#X msg 262 369 8 \$1 13 \$2 \$3 \$4 String_;
#X msg 41 334 size \$1 \$2 \, dir_read \, dir_print;
#X obj 262 253 abs_itt;
#X obj 422 245 abs_itt;
#X connect 0 0 25 0;
#X connect 1 0 30 0;
#X connect 2 0 22 0;
#X connect 3 0 4 0;
#X connect 3 1 5 0;
#X connect 4 0 2 0;
#X connect 5 0 4 2;
#X connect 5 0 6 0;
#X connect 6 0 27 0;
#X connect 7 0 32 0;
#X connect 8 0 7 1;
#X connect 8 0 11 1;
#X connect 8 0 12 1;
#X connect 8 0 19 0;
#X connect 8 0 15 0;
#X connect 8 0 26 0;
#X connect 9 0 29 0;
#X connect 10 0 11 0;
#X connect 10 1 13 0;
#X connect 11 0 9 0;
#X connect 12 0 31 0;
#X connect 13 0 14 0;
#X connect 14 0 9 3;
#X connect 15 0 28 0;
#X connect 16 0 15 0;
#X connect 16 1 15 1;
#X connect 17 0 18 0;
#X connect 18 0 22 0;
#X connect 19 0 20 1;
#X connect 20 0 17 0;
#X connect 21 0 1 0;
#X connect 24 0 21 0;
#X connect 24 1 12 0;
#X connect 24 2 7 0;
#X connect 24 3 20 0;
#X connect 25 0 21 1;
#X connect 25 1 1 1;
#X connect 25 1 8 0;
#X connect 25 2 4 1;
#X connect 25 2 17 1;
#X connect 25 3 16 0;
#X connect 25 3 6 1;
#X connect 25 3 5 1;
#X connect 25 3 13 1;
#X connect 25 4 9 1;
#X connect 25 5 9 2;
#X connect 25 6 14 1;
#X connect 25 7 24 0;
#X connect 27 0 4 3;
#X connect 28 0 17 2;
#X connect 29 0 22 0;
#X connect 30 0 23 0;
#X connect 31 0 10 0;
#X connect 32 0 3 0;
#X restore 446 386 pd init;
#X obj 440 98 nbx 5 14 1 999 0 0 empty empty size_x 0 -8 0 10 -262144
-1 -1 256 256;
#X obj 440 126 nbx 5 14 1 999 0 0 empty empty size_y 0 -8 0 10 -262144
-1 -1 15 256;
#X obj 440 157 nbx 5 14 4 128 0 0 empty empty font_size 0 -8 0 10 -262144
-1 -1 10 256;
#X obj 440 188 nbx 5 14 -999 999 0 0 empty empty ldx 0 -8 0 10 -262144
-1 -1 2 256;
#X obj 440 218 nbx 5 14 -999 999 0 0 empty empty ldy 0 -8 0 10 -262144
-1 -1 7 256;
#X obj 440 42 nbx 5 14 4 128 0 0 empty empty column 0 -8 0 10 -262144
-1 -1 42 256;
#X obj 440 69 nbx 5 14 1 128 0 0 empty empty rows 0 -8 0 10 -262144
-1 -1 20 256;
#X obj 446 452 outlet browser;
#X obj 465 434 outlet rows;
#X obj 89 53 bng 15 250 50 0 empty empty store(after_press_ctrl-s)
17 7 0 10 -262144 -1 -1;
#X obj 145 68 pack f f f f f f f f;
#X msg 145 89 set \, set \$2 \$3 \$4 \$5 \$6 \$7 \$8;
#X msg 145 109 42 20 256 15 10 2 7;
#X obj 88 94 bng 15 250 50 0 empty empty recall 17 7 0 10 -262144 -1
-1;
#X obj 42 14 inlet init;
#X msg 210 174 set \$1;
#X msg 229 190 set \$1;
#X msg 249 206 set \$1;
#X msg 268 222 set \$1;
#X msg 288 238 set \$1;
#X msg 307 254 set \$1;
#X msg 327 270 set \$1;
#X msg 600 56 columns \$1 \, display;
#X msg 600 83 rows \$1 \, display;
#X msg 600 112 size_x \$1 \, display;
#X msg 600 140 size_y \$1 \, display;
#X msg 600 171 font_size \$1 \, display;
#X msg 600 202 ldx \$1 \, display;
#X msg 600 232 ldy \$1 \, display;
#X obj 197 140 unpack f f f f f f f;
#X msg 145 297 columns \$1 \, rows \$2 \, size_x \$3 \, size_y \$4
\, font_size \$5 \, ldx \$6 \, ldy \$7 \, display, f 42;
#X obj 42 35 t b b;
#X obj 485 406 s browsercnv;
#X msg 46 339 init;
#X connect 0 0 8 0;
#X connect 0 1 9 0;
#X connect 0 2 33 0;
#X connect 1 0 25 0;
#X connect 1 0 11 3;
#X connect 2 0 26 0;
#X connect 2 0 11 4;
#X connect 3 0 27 0;
#X connect 3 0 11 5;
#X connect 4 0 28 0;
#X connect 4 0 11 6;
#X connect 5 0 29 0;
#X connect 5 0 11 7;
#X connect 6 0 23 0;
#X connect 6 0 11 1;
#X connect 7 0 24 0;
#X connect 7 0 11 2;
#X connect 10 0 11 0;
#X connect 11 0 12 0;
#X connect 12 0 13 0;
#X connect 13 0 31 0;
#X connect 13 0 30 0;
#X connect 14 0 13 0;
#X connect 15 0 32 0;
#X connect 16 0 6 0;
#X connect 17 0 7 0;
#X connect 18 0 1 0;
#X connect 19 0 2 0;
#X connect 20 0 3 0;
#X connect 21 0 4 0;
#X connect 22 0 5 0;
#X connect 23 0 0 0;
#X connect 24 0 0 0;
#X connect 25 0 0 0;
#X connect 26 0 0 0;
#X connect 27 0 0 0;
#X connect 28 0 0 0;
#X connect 29 0 0 0;
#X connect 30 0 11 1;
#X connect 30 0 16 0;
#X connect 30 1 11 2;
#X connect 30 1 17 0;
#X connect 30 2 11 3;
#X connect 30 2 18 0;
#X connect 30 3 11 4;
#X connect 30 3 19 0;
#X connect 30 4 11 5;
#X connect 30 4 20 0;
#X connect 30 5 11 6;
#X connect 30 5 21 0;
#X connect 30 6 11 7;
#X connect 30 6 22 0;
#X connect 31 0 0 0;
#X connect 32 0 14 0;
#X connect 32 1 34 0;
#X connect 34 0 8 0;
#X restore 126 366 pd view;
#X msg 66 88 scroll_up 1;
#X msg 74 104 scroll_down 1;
#X msg 123 184 get_this;
#N canvas 132 155 537 408 keyboard 0;
#X msg 157 220 scroll_up 1 \, dir_print;
#X msg 192 236 scroll_down 1 \, dir_print;
#X msg 227 252 dir_up \, dir_read \, dir_print;
#X msg 261 268 change_dir_this;
#X msg 296 284 scroll_up 10 \, dir_print;
#X msg 331 300 scroll_down 10 \, dir_print;
#X msg 123 204 get_this;
#X obj 123 33 keyname, f 9;
#X obj 174 53 spigot;
#X obj 123 53 spigot;
#X obj 123 91 symbol, f 9;
#X obj 123 72 sel 1;
#X obj 228 37 inlet;
#X obj 123 316 outlet;
#X obj 123 110 sel Shift_R Up Down Left Right Prior Next;
#X connect 0 0 13 0;
#X connect 1 0 13 0;
#X connect 2 0 13 0;
#X connect 3 0 13 0;
#X connect 4 0 13 0;
#X connect 5 0 13 0;
#X connect 6 0 13 0;
#X connect 7 0 9 0;
#X connect 7 1 8 0;
#X connect 8 0 10 1;
#X connect 9 0 11 0;
#X connect 10 0 14 0;
#X connect 11 0 10 0;
#X connect 12 0 9 1;
#X connect 12 0 8 1;
#X connect 14 0 6 0;
#X connect 14 1 0 0;
#X connect 14 2 1 0;
#X connect 14 3 2 0;
#X connect 14 4 3 0;
#X connect 14 5 4 0;
#X connect 14 6 5 0;
#X restore 160 279 pd keyboard;
#X obj 160 262 tgl 15 1 empty empty keyboard_on? 17 7 0 10 -262144
-1 -1 1 1;
#X text 307 293 ^;
#X text 307 296 |;
#X text 305 308 up;
#X text 307 345 V;
#X text 307 335 |;
#X text 299 322 down;
#X text 244 377 shift_r;
#X text 256 346 pg up;
#X text 256 361 pg dn;
#X text 245 316 <---left;
#X text 331 316 right--->;
#X obj 165 418 s browsercnv;
#X obj 366 185 tgl 15 0 empty empty empty 17 7 0 10 -262144 -1 -1 0
1;
#X obj 366 201 tgl 15 0 empty empty empty 17 7 0 10 -262144 -1 -1 0
1;
#X obj 366 217 tgl 15 0 empty empty empty 17 7 0 10 -262144 -1 -1 0
1;
#X msg 130 200 filter hidden \$1 \, dir_read \, dir_print;
#X msg 139 216 filter name \$1 \, dir_read \, dir_print;
#X msg 149 232 filter ex \$1 \, dir_read \, dir_print;
#N canvas 109 168 572 464 (subpatch) 0;
#X obj 48 29 inlet;
#X obj 236 415 outlet;
#X obj 48 47 route -1;
#X obj 148 177 sel 0 1;
#X obj 93 66 unpack f f f s;
#X msg 120 228 22;
#X obj 354 234 inlet rows;
#X obj 339 253 +;
#X msg 419 201 18;
#X msg 447 201 22;
#X obj 419 166 sel 0 1 2 3 4 5 6;
#X msg 313 344 13 \$1 \$2;
#X obj 313 324 pack f s;
#X msg 374 344 10 \$1 \$2;
#X obj 374 324 pack f f;
#X obj 93 328 pack f f f;
#X msg 94 347 10 \$1 \$2 \$3;
#X msg 173 228 17;
#X msg 261 228 6;
#X msg 147 228 5;
#X obj 48 66 outlet;
#X text 397 137 color file or directory;
#X text 115 157 color select or no select;
#X msg 232 228 5;
#X msg 203 228 22;
#X connect 0 0 2 0;
#X connect 2 0 20 0;
#X connect 2 1 4 0;
#X connect 3 0 5 0;
#X connect 3 0 24 0;
#X connect 3 1 19 0;
#X connect 3 1 23 0;
#X connect 3 2 17 0;
#X connect 3 2 18 0;
#X connect 4 0 7 0;
#X connect 4 0 15 0;
#X connect 4 1 10 0;
#X connect 4 2 3 0;
#X connect 4 3 12 1;
#X connect 5 0 15 1;
#X connect 6 0 7 1;
#X connect 7 0 12 0;
#X connect 7 0 14 0;
#X connect 8 0 14 1;
#X connect 9 0 14 1;
#X connect 10 0 8 0;
#X connect 10 1 9 0;
#X connect 10 2 9 0;
#X connect 10 3 9 0;
#X connect 10 4 9 0;
#X connect 10 5 9 0;
#X connect 10 6 9 0;
#X connect 11 0 1 0;
#X connect 12 0 11 0;
#X connect 13 0 1 0;
#X connect 14 0 13 0;
#X connect 15 0 16 0;
#X connect 16 0 1 0;
#X connect 17 0 15 1;
#X connect 18 0 15 2;
#X connect 19 0 15 1;
#X connect 23 0 15 2;
#X connect 24 0 15 2;
#X restore 30 400 pd;
#X f 23;
#N canvas 109 408 450 300 wavplay 0;
#X obj 290 50 inlet;
#X obj 223 102 tgl 14 0 empty empty empty 17 7 0 10 -262144 -1 -1 0
1;
#X obj 290 128 spigot;
#X obj 290 212 readsf~;
#X msg 323 189 open \$1;
#X msg 290 166 1;
#X obj 290 255 dac~;
#X obj 183 102 nbx 3 14 0 200 0 0 empty empty empty 0 -8 0 10 -262144
-1 -1 0 256;
#X obj 183 121 * 0.02;
#X obj 289 232 *~ 0;
#X obj 290 147 t b a;
#X obj 323 170 symbol;
#X connect 0 0 2 0;
#X connect 1 0 2 1;
#X connect 2 0 10 0;
#X connect 3 0 9 0;
#X connect 4 0 3 0;
#X connect 5 0 3 0;
#X connect 7 0 8 0;
#X connect 8 0 9 1;
#X connect 9 0 6 0;
#X connect 9 0 6 1;
#X connect 10 0 5 0;
#X connect 10 1 11 0;
#X connect 11 0 4 0;
#X coords 0 -1 1 1 140 18 1 100 100;
#X restore 30 440 pd wavplay;
#X text 229 116 by default sort mode \, name \, no hidden \, no ex
, f 27;
#X obj 422 57 n_canvas 256 314 empty browsercnv empty 10 10 11 0 0
0 42;
#X obj 43 420 print -n;
#X connect 0 0 38 0;
#X connect 1 0 0 0;
#X connect 2 0 0 0;
#X connect 3 0 0 0;
#X connect 4 0 0 0;
#X connect 5 0 0 0;
#X connect 6 0 0 0;
#X connect 7 0 8 0;
#X connect 8 0 6 0;
#X connect 9 0 8 0;
#X connect 10 0 8 0;
#X connect 11 0 8 0;
#X connect 12 0 0 0;
#X connect 13 0 14 0;
#X connect 14 0 0 0;
#X connect 14 1 38 1;
#X connect 15 0 0 0;
#X connect 16 0 0 0;
#X connect 17 0 0 0;
#X connect 18 0 0 0;
#X connect 19 0 18 0;
#X connect 32 0 35 0;
#X connect 33 0 36 0;
#X connect 34 0 37 0;
#X connect 35 0 0 0;
#X connect 36 0 0 0;
#X connect 37 0 0 0;
#X connect 38 0 39 0;
#X connect 38 0 42 0;
#X connect 38 1 31 0;
