#N canvas 85 215 765 462 10;
#N canvas 275 83 521 502 knob 0;
#X floatatom 30 28 5 0 100 1 value(0...1) - - 0;
#X obj 75 181 sin;
#X obj 30 181 cos;
#X obj 30 123 * 6.28319;
#X obj 30 162 t f f, f 8;
#X msg 30 279 9 0 \$1 \$2 \$3 \$4;
#X obj 30 260 pack f f f f, f 23;
#X obj 30 221 *;
#X floatatom 147 82 5 0 100 0 - - - 0;
#X obj 147 103 * 0.01;
#X msg 230 13 100;
#X msg 311 207 size \$1 \$1;
#X msg 241 32 42;
#X obj 230 71 t b f f f, f 14;
#X obj 75 221 *;
#X obj 120 221 *;
#X obj 165 221 *;
#X floatatom 190 83 5 0 100 0 - - - 0;
#X obj 190 103 * 0.01;
#X obj 30 200 t f f;
#X obj 147 126 t b f;
#X obj 190 126 t b f;
#X obj 30 143 f;
#X obj 217 158 *;
#X obj 174 158 *;
#X obj 147 57 t b b;
#X obj 257 133 * 0.5;
#X obj 30 241 +;
#X obj 75 241 +;
#X obj 120 241 +;
#X obj 165 241 +;
#X msg 284 188 4 1 22 3 0 0 \$1 \$1;
#X msg 284 169 1 0 22 2 0 0 \$1 \$1;
#X obj 30 85 wrap;
#X obj 30 66 + 0.25;
#X obj 30 104 + 0.1;
#X obj 30 47 * 0.8;
#X obj 81 357 unpack f f f;
#X obj 150 414 +;
#X obj 175 414 clip 0 256;
#X obj 150 395 * -1;
#X floatatom 175 433 5 0 0 0 - - - 0;
#X obj 175 451 / 256, f 15;
#X obj 175 470 s to_knob_r;
#X obj 30 9 r to_knob_r;
#X msg 251 51 24;
#X obj 55 376 unpack f f f;
#X obj 30 338 route 0 1;
#X floatatom 232 369 5 0 9999 1 resolution - - 0;
#X msg 311 227 color 0 0 0;
#X msg 147 30 10;
#X msg 190 30 80;
#X obj 147 8 loadbang;
#X obj 232 331 loadbang;
#X msg 232 350 256;
#X text 281 37 <- set size;
#X obj 284 247 s to_knob;
#X obj 30 298 s to_knob;
#X obj 411 271 n_canvas 42 42 empty empty empty 10 10 11 16579836 16579836
16579836 2;
#X obj 411 249 r to_knob;
#X obj 411 421 s from_knob;
#X obj 30 318 r from_knob;
#X msg 111 12 0, f 2;
#N canvas 0 50 450 300 delta 0;
#X obj 40 45 inlet;
#X obj 40 180 outlet;
#X obj 40 135 -;
#X obj 67 118 f;
#X obj 40 81 t f b;
#X obj 82 45 inlet set;
#X connect 0 0 4 0;
#X connect 2 0 1 0;
#X connect 3 0 2 1;
#X connect 4 0 2 0;
#X connect 4 0 3 1;
#X connect 4 1 3 0;
#X connect 5 0 3 1;
#X restore 150 376 pd delta;
#X connect 0 0 36 0;
#X connect 1 0 14 0;
#X connect 1 0 16 0;
#X connect 2 0 19 0;
#X connect 3 0 22 0;
#X connect 4 0 2 0;
#X connect 4 1 1 0;
#X connect 5 0 57 0;
#X connect 6 0 5 0;
#X connect 7 0 27 0;
#X connect 8 0 9 0;
#X connect 9 0 20 0;
#X connect 10 0 13 0;
#X connect 11 0 56 0;
#X connect 12 0 13 0;
#X connect 13 0 25 0;
#X connect 13 1 26 0;
#X connect 13 2 32 0;
#X connect 13 2 31 0;
#X connect 13 3 11 0;
#X connect 13 3 49 0;
#X connect 14 0 28 0;
#X connect 15 0 29 0;
#X connect 16 0 30 0;
#X connect 17 0 18 0;
#X connect 18 0 21 0;
#X connect 19 0 7 0;
#X connect 19 1 15 0;
#X connect 20 0 22 0;
#X connect 20 1 24 0;
#X connect 21 0 22 0;
#X connect 21 1 23 0;
#X connect 22 0 4 0;
#X connect 23 0 16 1;
#X connect 23 0 15 1;
#X connect 24 0 14 1;
#X connect 24 0 7 1;
#X connect 25 0 8 0;
#X connect 25 1 17 0;
#X connect 26 0 23 1;
#X connect 26 0 24 1;
#X connect 26 0 30 1;
#X connect 26 0 29 1;
#X connect 26 0 28 1;
#X connect 26 0 27 1;
#X connect 27 0 6 0;
#X connect 28 0 6 1;
#X connect 29 0 6 2;
#X connect 30 0 6 3;
#X connect 31 0 56 0;
#X connect 32 0 56 0;
#X connect 33 0 35 0;
#X connect 34 0 33 0;
#X connect 35 0 3 0;
#X connect 36 0 34 0;
#X connect 37 2 63 0;
#X connect 38 0 39 0;
#X connect 39 0 38 1;
#X connect 39 0 41 0;
#X connect 40 0 38 0;
#X connect 41 0 42 0;
#X connect 42 0 43 0;
#X connect 44 0 0 0;
#X connect 45 0 13 0;
#X connect 46 1 63 1;
#X connect 47 1 46 0;
#X connect 47 2 37 0;
#X connect 48 0 42 1;
#X connect 48 0 39 2;
#X connect 49 0 56 0;
#X connect 50 0 8 0;
#X connect 51 0 17 0;
#X connect 52 0 50 0;
#X connect 52 0 51 0;
#X connect 52 0 62 0;
#X connect 52 0 12 0;
#X connect 53 0 54 0;
#X connect 54 0 48 0;
#X connect 58 0 60 0;
#X connect 59 0 58 0;
#X connect 61 0 47 0;
#X connect 62 0 0 0;
#X connect 63 0 40 0;
#X restore 355 173 pd knob;
#N canvas 618 229 330 444 text 0;
#X obj 80 133 bng 15 250 50 0 empty empty step 17 7 0 10 #fcfcfc #000000
#000000;
#X obj 80 93 tgl 15 0 empty empty <- 17 7 0 10 #fcfcfc #000000 #000000
0 1;
#X obj 80 113 metro 100;
#X floatatom 131 93 5 0 0 0 - - - 0;
#X obj 24 206 n_canvas 200 200 empty empty empty 10 10 11 0 0 0 100
;
#X obj 24 76 bng 15 250 50 0 empty empty init 17 7 0 10 #fcfcfc #000000
#000000;
#N canvas 0 50 608 445 init 0;
#X obj 155 29 inlet;
#X obj 155 58 t b b b;
#X obj 144 400 outlet;
#X obj 164 341 pack f f f f f, f 30;
#X obj 300 240 / 10;
#X msg 164 163 100;
#X msg 151 118 size 200 200 \, color 22 22 22 \, maxel 100;
#X obj 296 296 *;
#X obj 341 297 *;
#X obj 164 211 t f b b f f;
#X obj 265 261 % 10;
#X obj 322 260 int;
#X msg 435 241 20;
#X msg 252 297 14;
#X msg 208 297 13;
#X obj 341 319 + 10;
#X obj 296 320 + 6;
#X msg 164 361 8 \$1 \$2 \$3 \$4 \$5 .;
#N canvas 0 50 450 300 itt 0;
#X obj 73 106 until;
#X obj 73 79 t f b;
#X msg 113 106 0;
#X obj 73 133 i;
#X obj 104 133 + 1;
#X obj 73 161 outlet;
#X obj 73 46 inlet n;
#X obj 124 65 inlet stop;
#X connect 0 0 3 0;
#X connect 1 0 0 0;
#X connect 1 1 2 0;
#X connect 2 0 3 1;
#X connect 3 0 4 0;
#X connect 3 0 5 0;
#X connect 4 0 3 1;
#X connect 6 0 1 0;
#X connect 7 0 0 1;
#X restore 163 185 pd itt;
#X connect 0 0 1 0;
#X connect 1 0 5 0;
#X connect 1 1 6 0;
#X connect 1 2 12 0;
#X connect 3 0 17 0;
#X connect 4 0 11 0;
#X connect 5 0 18 0;
#X connect 6 0 2 0;
#X connect 7 0 16 0;
#X connect 8 0 15 0;
#X connect 9 0 3 0;
#X connect 9 1 14 0;
#X connect 9 2 13 0;
#X connect 9 3 10 0;
#X connect 9 4 4 0;
#X connect 10 0 7 0;
#X connect 11 0 8 0;
#X connect 12 0 7 1;
#X connect 12 0 8 1;
#X connect 13 0 3 2;
#X connect 14 0 3 1;
#X connect 15 0 3 4;
#X connect 16 0 3 3;
#X connect 17 0 2 0;
#X connect 18 0 9 0;
#X restore 24 96 pd init;
#N canvas 134 204 622 466 motion 0;
#X obj 100 27 inlet;
#X obj 174 440 outlet;
#X msg 100 48 100;
#X msg 298 350 13 \$1 \$2;
#X obj 298 328 pack f s;
#X obj 163 326 pack f f;
#X msg 163 350 11 \$1 \$2;
#X obj 42 331 pack f f;
#X obj 83 255 + 13;
#X obj 83 235 random 7;
#X msg 42 356 10 \$1 \$2;
#X msg 315 296 symbol P;
#X msg 390 293 symbol d;
#X obj 100 92 t f b;
#N canvas 0 50 450 300 itt 0;
#X obj 73 106 until;
#X obj 73 79 t f b;
#X msg 113 106 0;
#X obj 73 133 i;
#X obj 104 133 + 1;
#X obj 73 161 outlet;
#X obj 73 46 inlet n;
#X obj 124 65 inlet stop;
#X connect 0 0 3 0;
#X connect 1 0 0 0;
#X connect 1 1 2 0;
#X connect 2 0 3 1;
#X connect 3 0 4 0;
#X connect 3 0 5 0;
#X connect 4 0 3 1;
#X connect 6 0 1 0;
#X connect 7 0 0 1;
#X restore 99 69 pd itt;
#X obj 329 244 random 4;
#X obj 329 265 sel 0 1 2;
#X msg 453 293 symbol p;
#X msg 516 298 symbol D;
#X obj 208 288 random 27;
#X obj 208 307 + 6;
#X connect 0 0 2 0;
#X connect 2 0 14 0;
#X connect 3 0 1 0;
#X connect 4 0 3 0;
#X connect 5 0 6 0;
#X connect 6 0 1 0;
#X connect 7 0 10 0;
#X connect 8 0 7 1;
#X connect 9 0 8 0;
#X connect 10 0 1 0;
#X connect 11 0 4 1;
#X connect 12 0 4 1;
#X connect 13 0 4 0;
#X connect 13 0 5 0;
#X connect 13 0 7 0;
#X connect 13 1 9 0;
#X connect 13 1 15 0;
#X connect 13 1 19 0;
#X connect 14 0 13 0;
#X connect 15 0 16 0;
#X connect 16 0 11 0;
#X connect 16 1 12 0;
#X connect 16 2 17 0;
#X connect 16 3 18 0;
#X connect 17 0 4 1;
#X connect 18 0 4 1;
#X connect 19 0 20 0;
#X connect 20 0 5 1;
#X restore 80 150 pd motion;
#X obj 24 53 loadbang;
#X connect 0 0 7 0;
#X connect 1 0 2 0;
#X connect 2 0 0 0;
#X connect 3 0 2 1;
#X connect 5 0 6 0;
#X connect 6 0 4 0;
#X connect 7 0 4 0;
#X connect 8 0 5 0;
#X restore 355 211 pd text;
#N canvas 0 294 1359 443 test 1;
#X obj 2 37 nbx 2 14 0 99 0 0 s-seq-smplr-note99-0 r-seq-smplr-note99-0
empty 0 -8 0 10 #fcfcfc #000000 #000000 0 256;
#X obj 36 37 nbx 2 14 0 99 0 0 s-seq-smplr-note99-1 r-seq-smplr-note99-1
empty 0 -8 0 10 #fcfcfc #000000 #000000 0 256;
#X obj 70 37 nbx 2 14 0 99 0 0 s-seq-smplr-note99-2 r-seq-smplr-note99-2
empty 0 -8 0 10 #fcfcfc #000000 #000000 0 256;
#X obj 104 37 nbx 2 14 0 99 0 0 s-seq-smplr-note99-3 r-seq-smplr-note99-3
empty 0 -8 0 10 #fcfcfc #000000 #000000 0 256;
#X obj 138 37 nbx 2 14 0 99 0 0 s-seq-smplr-note99-4 r-seq-smplr-note99-4
empty 0 -8 0 10 #fcfcfc #000000 #000000 0 256;
#X obj 172 37 nbx 2 14 0 99 0 0 s-seq-smplr-note99-5 r-seq-smplr-note99-5
empty 0 -8 0 10 #fcfcfc #000000 #000000 0 256;
#X obj 206 37 nbx 2 14 0 99 0 0 s-seq-smplr-note99-6 r-seq-smplr-note99-6
empty 0 -8 0 10 #fcfcfc #000000 #000000 0 256;
#X obj 240 37 nbx 2 14 0 99 0 0 s-seq-smplr-note99-7 r-seq-smplr-note99-7
empty 0 -8 0 10 #fcfcfc #000000 #000000 0 256;
#X obj 274 37 nbx 2 14 0 99 0 0 s-seq-smplr-note99-8 r-seq-smplr-note99-8
empty 0 -8 0 10 #fcfcfc #000000 #000000 0 256;
#X obj 308 37 nbx 2 14 0 99 0 0 s-seq-smplr-note99-9 r-seq-smplr-note99-9
empty 0 -8 0 10 #fcfcfc #000000 #000000 0 256;
#X obj 2 57 nbx 2 14 0 99 0 0 s-seq-smplr-note99-10 r-seq-smplr-note99-10
empty 0 -8 0 10 #fcfcfc #000000 #000000 0 256;
#X obj 36 57 nbx 2 14 0 99 0 0 s-seq-smplr-note99-11 r-seq-smplr-note99-11
empty 0 -8 0 10 #fcfcfc #000000 #000000 0 256;
#X obj 70 57 nbx 2 14 0 99 0 0 s-seq-smplr-note99-12 r-seq-smplr-note99-12
empty 0 -8 0 10 #fcfcfc #000000 #000000 0 256;
#X obj 104 57 nbx 2 14 0 99 0 0 s-seq-smplr-note99-13 r-seq-smplr-note99-13
empty 0 -8 0 10 #fcfcfc #000000 #000000 0 256;
#X obj 138 57 nbx 2 14 0 99 0 0 s-seq-smplr-note99-14 r-seq-smplr-note99-14
empty 0 -8 0 10 #fcfcfc #000000 #000000 0 256;
#X obj 172 57 nbx 2 14 0 99 0 0 s-seq-smplr-note99-15 r-seq-smplr-note99-15
empty 0 -8 0 10 #fcfcfc #000000 #000000 0 256;
#X obj 206 57 nbx 2 14 0 99 0 0 s-seq-smplr-note99-16 r-seq-smplr-note99-16
empty 0 -8 0 10 #fcfcfc #000000 #000000 0 256;
#X obj 240 57 nbx 2 14 0 99 0 0 s-seq-smplr-note99-17 r-seq-smplr-note99-17
empty 0 -8 0 10 #fcfcfc #000000 #000000 0 256;
#X obj 274 57 nbx 2 14 0 99 0 0 s-seq-smplr-note99-18 r-seq-smplr-note99-18
empty 0 -8 0 10 #fcfcfc #000000 #000000 0 256;
#X obj 308 57 nbx 2 14 0 99 0 0 s-seq-smplr-note99-19 r-seq-smplr-note99-19
empty 0 -8 0 10 #fcfcfc #000000 #000000 0 256;
#X obj 2 77 nbx 2 14 0 99 0 0 s-seq-smplr-note99-20 r-seq-smplr-note99-20
empty 0 -8 0 10 #fcfcfc #000000 #000000 0 256;
#X obj 36 77 nbx 2 14 0 99 0 0 s-seq-smplr-note99-21 r-seq-smplr-note99-21
empty 0 -8 0 10 #fcfcfc #000000 #000000 0 256;
#X obj 70 77 nbx 2 14 0 99 0 0 s-seq-smplr-note99-22 r-seq-smplr-note99-22
empty 0 -8 0 10 #fcfcfc #000000 #000000 0 256;
#X obj 104 77 nbx 2 14 0 99 0 0 s-seq-smplr-note99-23 r-seq-smplr-note99-23
empty 0 -8 0 10 #fcfcfc #000000 #000000 0 256;
#X obj 138 77 nbx 2 14 0 99 0 0 s-seq-smplr-note99-24 r-seq-smplr-note99-24
empty 0 -8 0 10 #fcfcfc #000000 #000000 0 256;
#X obj 172 77 nbx 2 14 0 99 0 0 s-seq-smplr-note99-25 r-seq-smplr-note99-25
empty 0 -8 0 10 #fcfcfc #000000 #000000 0 256;
#X obj 206 77 nbx 2 14 0 99 0 0 s-seq-smplr-note99-26 r-seq-smplr-note99-26
empty 0 -8 0 10 #fcfcfc #000000 #000000 0 256;
#X obj 240 77 nbx 2 14 0 99 0 0 s-seq-smplr-note99-27 r-seq-smplr-note99-27
empty 0 -8 0 10 #fcfcfc #000000 #000000 0 256;
#X obj 274 77 nbx 2 14 0 99 0 0 s-seq-smplr-note99-28 r-seq-smplr-note99-28
empty 0 -8 0 10 #fcfcfc #000000 #000000 0 256;
#X obj 308 77 nbx 2 14 0 99 0 0 s-seq-smplr-note99-29 r-seq-smplr-note99-29
empty 0 -8 0 10 #fcfcfc #000000 #000000 0 256;
#X obj 2 97 nbx 2 14 0 99 0 0 s-seq-smplr-note99-30 r-seq-smplr-note99-30
empty 0 -8 0 10 #fcfcfc #000000 #000000 0 256;
#X obj 36 97 nbx 2 14 0 99 0 0 s-seq-smplr-note99-31 r-seq-smplr-note99-31
empty 0 -8 0 10 #fcfcfc #000000 #000000 0 256;
#X obj 70 97 nbx 2 14 0 99 0 0 s-seq-smplr-note99-32 r-seq-smplr-note99-32
empty 0 -8 0 10 #fcfcfc #000000 #000000 0 256;
#X obj 104 97 nbx 2 14 0 99 0 0 s-seq-smplr-note99-33 r-seq-smplr-note99-33
empty 0 -8 0 10 #fcfcfc #000000 #000000 0 256;
#X obj 138 97 nbx 2 14 0 99 0 0 s-seq-smplr-note99-34 r-seq-smplr-note99-34
empty 0 -8 0 10 #fcfcfc #000000 #000000 0 256;
#X obj 172 97 nbx 2 14 0 99 0 0 s-seq-smplr-note99-35 r-seq-smplr-note99-35
empty 0 -8 0 10 #fcfcfc #000000 #000000 0 256;
#X obj 206 97 nbx 2 14 0 99 0 0 s-seq-smplr-note99-36 r-seq-smplr-note99-36
empty 0 -8 0 10 #fcfcfc #000000 #000000 0 256;
#X obj 240 97 nbx 2 14 0 99 0 0 s-seq-smplr-note99-37 r-seq-smplr-note99-37
empty 0 -8 0 10 #fcfcfc #000000 #000000 0 256;
#X obj 274 97 nbx 2 14 0 99 0 0 s-seq-smplr-note99-38 r-seq-smplr-note99-38
empty 0 -8 0 10 #fcfcfc #000000 #000000 0 256;
#X obj 308 97 nbx 2 14 0 99 0 0 s-seq-smplr-note99-39 r-seq-smplr-note99-39
empty 0 -8 0 10 #fcfcfc #000000 #000000 0 256;
#X obj 2 117 nbx 2 14 0 99 0 0 s-seq-smplr-note99-40 r-seq-smplr-note99-40
empty 0 -8 0 10 #fcfcfc #000000 #000000 0 256;
#X obj 36 117 nbx 2 14 0 99 0 0 s-seq-smplr-note99-41 r-seq-smplr-note99-41
empty 0 -8 0 10 #fcfcfc #000000 #000000 0 256;
#X obj 70 117 nbx 2 14 0 99 0 0 s-seq-smplr-note99-42 r-seq-smplr-note99-42
empty 0 -8 0 10 #fcfcfc #000000 #000000 0 256;
#X obj 104 117 nbx 2 14 0 99 0 0 s-seq-smplr-note99-43 r-seq-smplr-note99-43
empty 0 -8 0 10 #fcfcfc #000000 #000000 0 256;
#X obj 138 117 nbx 2 14 0 99 0 0 s-seq-smplr-note99-44 r-seq-smplr-note99-44
empty 0 -8 0 10 #fcfcfc #000000 #000000 0 256;
#X obj 172 117 nbx 2 14 0 99 0 0 s-seq-smplr-note99-45 r-seq-smplr-note99-45
empty 0 -8 0 10 #fcfcfc #000000 #000000 0 256;
#X obj 206 117 nbx 2 14 0 99 0 0 s-seq-smplr-note99-46 r-seq-smplr-note99-46
empty 0 -8 0 10 #fcfcfc #000000 #000000 0 256;
#X obj 240 117 nbx 2 14 0 99 0 0 s-seq-smplr-note99-47 r-seq-smplr-note99-47
empty 0 -8 0 10 #fcfcfc #000000 #000000 0 256;
#X obj 274 117 nbx 2 14 0 99 0 0 s-seq-smplr-note99-48 r-seq-smplr-note99-48
empty 0 -8 0 10 #fcfcfc #000000 #000000 0 256;
#X obj 308 117 nbx 2 14 0 99 0 0 s-seq-smplr-note99-49 r-seq-smplr-note99-49
empty 0 -8 0 10 #fcfcfc #000000 #000000 0 256;
#X obj 2 137 nbx 2 14 0 99 0 0 s-seq-smplr-note99-50 r-seq-smplr-note99-50
empty 0 -8 0 10 #fcfcfc #000000 #000000 0 256;
#X obj 36 137 nbx 2 14 0 99 0 0 s-seq-smplr-note99-51 r-seq-smplr-note99-51
empty 0 -8 0 10 #fcfcfc #000000 #000000 0 256;
#X obj 70 137 nbx 2 14 0 99 0 0 s-seq-smplr-note99-52 r-seq-smplr-note99-52
empty 0 -8 0 10 #fcfcfc #000000 #000000 0 256;
#X obj 104 137 nbx 2 14 0 99 0 0 s-seq-smplr-note99-53 r-seq-smplr-note99-53
empty 0 -8 0 10 #fcfcfc #000000 #000000 0 256;
#X obj 138 137 nbx 2 14 0 99 0 0 s-seq-smplr-note99-54 r-seq-smplr-note99-54
empty 0 -8 0 10 #fcfcfc #000000 #000000 0 256;
#X obj 172 137 nbx 2 14 0 99 0 0 s-seq-smplr-note99-55 r-seq-smplr-note99-55
empty 0 -8 0 10 #fcfcfc #000000 #000000 0 256;
#X obj 206 137 nbx 2 14 0 99 0 0 s-seq-smplr-note99-56 r-seq-smplr-note99-56
empty 0 -8 0 10 #fcfcfc #000000 #000000 0 256;
#X obj 240 137 nbx 2 14 0 99 0 0 s-seq-smplr-note99-57 r-seq-smplr-note99-57
empty 0 -8 0 10 #fcfcfc #000000 #000000 0 256;
#X obj 274 137 nbx 2 14 0 99 0 0 s-seq-smplr-note99-58 r-seq-smplr-note99-58
empty 0 -8 0 10 #fcfcfc #000000 #000000 0 256;
#X obj 308 137 nbx 2 14 0 99 0 0 s-seq-smplr-note99-59 r-seq-smplr-note99-59
empty 0 -8 0 10 #fcfcfc #000000 #000000 0 256;
#X obj 2 157 nbx 2 14 0 99 0 0 s-seq-smplr-note99-60 r-seq-smplr-note99-60
empty 0 -8 0 10 #fcfcfc #000000 #000000 0 256;
#X obj 36 157 nbx 2 14 0 99 0 0 s-seq-smplr-note99-61 r-seq-smplr-note99-61
empty 0 -8 0 10 #fcfcfc #000000 #000000 0 256;
#X obj 70 157 nbx 2 14 0 99 0 0 s-seq-smplr-note99-62 r-seq-smplr-note99-62
empty 0 -8 0 10 #fcfcfc #000000 #000000 0 256;
#X obj 104 157 nbx 2 14 0 99 0 0 s-seq-smplr-note99-63 r-seq-smplr-note99-63
empty 0 -8 0 10 #fcfcfc #000000 #000000 0 256;
#X obj 138 157 nbx 2 14 0 99 0 0 s-seq-smplr-note99-64 r-seq-smplr-note99-64
empty 0 -8 0 10 #fcfcfc #000000 #000000 0 256;
#X obj 172 157 nbx 2 14 0 99 0 0 s-seq-smplr-note99-65 r-seq-smplr-note99-65
empty 0 -8 0 10 #fcfcfc #000000 #000000 0 256;
#X obj 206 157 nbx 2 14 0 99 0 0 s-seq-smplr-note99-66 r-seq-smplr-note99-66
empty 0 -8 0 10 #fcfcfc #000000 #000000 0 256;
#X obj 240 157 nbx 2 14 0 99 0 0 s-seq-smplr-note99-67 r-seq-smplr-note99-67
empty 0 -8 0 10 #fcfcfc #000000 #000000 0 256;
#X obj 274 157 nbx 2 14 0 99 0 0 s-seq-smplr-note99-68 r-seq-smplr-note99-68
empty 0 -8 0 10 #fcfcfc #000000 #000000 0 256;
#X obj 308 157 nbx 2 14 0 99 0 0 s-seq-smplr-note99-69 r-seq-smplr-note99-69
empty 0 -8 0 10 #fcfcfc #000000 #000000 0 256;
#X obj 2 177 nbx 2 14 0 99 0 0 s-seq-smplr-note99-70 r-seq-smplr-note99-70
empty 0 -8 0 10 #fcfcfc #000000 #000000 0 256;
#X obj 36 177 nbx 2 14 0 99 0 0 s-seq-smplr-note99-71 r-seq-smplr-note99-71
empty 0 -8 0 10 #fcfcfc #000000 #000000 0 256;
#X obj 70 177 nbx 2 14 0 99 0 0 s-seq-smplr-note99-72 r-seq-smplr-note99-72
empty 0 -8 0 10 #fcfcfc #000000 #000000 0 256;
#X obj 104 177 nbx 2 14 0 99 0 0 s-seq-smplr-note99-73 r-seq-smplr-note99-73
empty 0 -8 0 10 #fcfcfc #000000 #000000 0 256;
#X obj 138 177 nbx 2 14 0 99 0 0 s-seq-smplr-note99-74 r-seq-smplr-note99-74
empty 0 -8 0 10 #fcfcfc #000000 #000000 0 256;
#X obj 172 177 nbx 2 14 0 99 0 0 s-seq-smplr-note99-75 r-seq-smplr-note99-75
empty 0 -8 0 10 #fcfcfc #000000 #000000 0 256;
#X obj 206 177 nbx 2 14 0 99 0 0 s-seq-smplr-note99-76 r-seq-smplr-note99-76
empty 0 -8 0 10 #fcfcfc #000000 #000000 0 256;
#X obj 240 177 nbx 2 14 0 99 0 0 s-seq-smplr-note99-77 r-seq-smplr-note99-77
empty 0 -8 0 10 #fcfcfc #000000 #000000 0 256;
#X obj 274 177 nbx 2 14 0 99 0 0 s-seq-smplr-note99-78 r-seq-smplr-note99-78
empty 0 -8 0 10 #fcfcfc #000000 #000000 0 256;
#X obj 308 177 nbx 2 14 0 99 0 0 s-seq-smplr-note99-79 r-seq-smplr-note99-79
empty 0 -8 0 10 #fcfcfc #000000 #000000 0 256;
#X obj 2 197 nbx 2 14 0 99 0 0 s-seq-smplr-note99-80 r-seq-smplr-note99-80
empty 0 -8 0 10 #fcfcfc #000000 #000000 0 256;
#X obj 36 197 nbx 2 14 0 99 0 0 s-seq-smplr-note99-81 r-seq-smplr-note99-81
empty 0 -8 0 10 #fcfcfc #000000 #000000 0 256;
#X obj 70 197 nbx 2 14 0 99 0 0 s-seq-smplr-note99-82 r-seq-smplr-note99-82
empty 0 -8 0 10 #fcfcfc #000000 #000000 0 256;
#X obj 104 197 nbx 2 14 0 99 0 0 s-seq-smplr-note99-83 r-seq-smplr-note99-83
empty 0 -8 0 10 #fcfcfc #000000 #000000 0 256;
#X obj 138 197 nbx 2 14 0 99 0 0 s-seq-smplr-note99-84 r-seq-smplr-note99-84
empty 0 -8 0 10 #fcfcfc #000000 #000000 0 256;
#X obj 172 197 nbx 2 14 0 99 0 0 s-seq-smplr-note99-85 r-seq-smplr-note99-85
empty 0 -8 0 10 #fcfcfc #000000 #000000 0 256;
#X obj 206 197 nbx 2 14 0 99 0 0 s-seq-smplr-note99-86 r-seq-smplr-note99-86
empty 0 -8 0 10 #fcfcfc #000000 #000000 0 256;
#X obj 240 197 nbx 2 14 0 99 0 0 s-seq-smplr-note99-87 r-seq-smplr-note99-87
empty 0 -8 0 10 #fcfcfc #000000 #000000 0 256;
#X obj 274 197 nbx 2 14 0 99 0 0 s-seq-smplr-note99-88 r-seq-smplr-note99-88
empty 0 -8 0 10 #fcfcfc #000000 #000000 0 256;
#X obj 308 197 nbx 2 14 0 99 0 0 s-seq-smplr-note99-89 r-seq-smplr-note99-89
empty 0 -8 0 10 #fcfcfc #000000 #000000 0 256;
#X obj 2 217 nbx 2 14 0 99 0 0 s-seq-smplr-note99-90 r-seq-smplr-note99-90
empty 0 -8 0 10 #fcfcfc #000000 #000000 0 256;
#X obj 36 217 nbx 2 14 0 99 0 0 s-seq-smplr-note99-91 r-seq-smplr-note99-91
empty 0 -8 0 10 #fcfcfc #000000 #000000 0 256;
#X obj 70 217 nbx 2 14 0 99 0 0 s-seq-smplr-note99-92 r-seq-smplr-note99-92
empty 0 -8 0 10 #fcfcfc #000000 #000000 0 256;
#X obj 104 217 nbx 2 14 0 99 0 0 s-seq-smplr-note99-93 r-seq-smplr-note99-93
empty 0 -8 0 10 #fcfcfc #000000 #000000 0 256;
#X obj 138 217 nbx 2 14 0 99 0 0 s-seq-smplr-note99-94 r-seq-smplr-note99-94
empty 0 -8 0 10 #fcfcfc #000000 #000000 0 256;
#X obj 172 217 nbx 2 14 0 99 0 0 s-seq-smplr-note99-95 r-seq-smplr-note99-95
empty 0 -8 0 10 #fcfcfc #000000 #000000 0 256;
#X obj 206 217 nbx 2 14 0 99 0 0 s-seq-smplr-note99-96 r-seq-smplr-note99-96
empty 0 -8 0 10 #fcfcfc #000000 #000000 0 256;
#X obj 240 217 nbx 2 14 0 99 0 0 s-seq-smplr-note99-97 r-seq-smplr-note99-97
empty 0 -8 0 10 #fcfcfc #000000 #000000 0 256;
#X obj 274 217 nbx 2 14 0 99 0 0 s-seq-smplr-note99-98 r-seq-smplr-note99-98
empty 0 -8 0 10 #fcfcfc #000000 #000000 0 256;
#X obj 308 217 nbx 2 14 0 99 0 0 s-seq-smplr-note99-99 r-seq-smplr-note99-99
empty 0 -8 0 10 #fcfcfc #000000 #000000 0 256;
#X obj 2 237 nbx 2 14 0 99 0 0 s-seq-smplr-note99-100 r-seq-smplr-note99-100
empty 0 -8 0 10 #fcfcfc #000000 #000000 0 256;
#X obj 36 237 nbx 2 14 0 99 0 0 s-seq-smplr-note99-101 r-seq-smplr-note99-101
empty 0 -8 0 10 #fcfcfc #000000 #000000 0 256;
#X obj 70 237 nbx 2 14 0 99 0 0 s-seq-smplr-note99-102 r-seq-smplr-note99-102
empty 0 -8 0 10 #fcfcfc #000000 #000000 0 256;
#X obj 104 237 nbx 2 14 0 99 0 0 s-seq-smplr-note99-103 r-seq-smplr-note99-103
empty 0 -8 0 10 #fcfcfc #000000 #000000 0 256;
#X obj 138 237 nbx 2 14 0 99 0 0 s-seq-smplr-note99-104 r-seq-smplr-note99-104
empty 0 -8 0 10 #fcfcfc #000000 #000000 0 256;
#X obj 172 237 nbx 2 14 0 99 0 0 s-seq-smplr-note99-105 r-seq-smplr-note99-105
empty 0 -8 0 10 #fcfcfc #000000 #000000 0 256;
#X obj 206 237 nbx 2 14 0 99 0 0 s-seq-smplr-note99-106 r-seq-smplr-note99-106
empty 0 -8 0 10 #fcfcfc #000000 #000000 0 256;
#X obj 240 237 nbx 2 14 0 99 0 0 s-seq-smplr-note99-107 r-seq-smplr-note99-107
empty 0 -8 0 10 #fcfcfc #000000 #000000 0 256;
#X obj 274 237 nbx 2 14 0 99 0 0 s-seq-smplr-note99-108 r-seq-smplr-note99-108
empty 0 -8 0 10 #fcfcfc #000000 #000000 0 256;
#X obj 308 237 nbx 2 14 0 99 0 0 s-seq-smplr-note99-109 r-seq-smplr-note99-109
empty 0 -8 0 10 #fcfcfc #000000 #000000 0 256;
#X obj 2 257 nbx 2 14 0 99 0 0 s-seq-smplr-note99-110 r-seq-smplr-note99-110
empty 0 -8 0 10 #fcfcfc #000000 #000000 0 256;
#X obj 36 257 nbx 2 14 0 99 0 0 s-seq-smplr-note99-111 r-seq-smplr-note99-111
empty 0 -8 0 10 #fcfcfc #000000 #000000 0 256;
#X obj 70 257 nbx 2 14 0 99 0 0 s-seq-smplr-note99-112 r-seq-smplr-note99-112
empty 0 -8 0 10 #fcfcfc #000000 #000000 0 256;
#X obj 104 257 nbx 2 14 0 99 0 0 s-seq-smplr-note99-113 r-seq-smplr-note99-113
empty 0 -8 0 10 #fcfcfc #000000 #000000 0 256;
#X obj 138 257 nbx 2 14 0 99 0 0 s-seq-smplr-note99-114 r-seq-smplr-note99-114
empty 0 -8 0 10 #fcfcfc #000000 #000000 0 256;
#X obj 172 257 nbx 2 14 0 99 0 0 s-seq-smplr-note99-115 r-seq-smplr-note99-115
empty 0 -8 0 10 #fcfcfc #000000 #000000 0 256;
#X obj 206 257 nbx 2 14 0 99 0 0 s-seq-smplr-note99-116 r-seq-smplr-note99-116
empty 0 -8 0 10 #fcfcfc #000000 #000000 0 256;
#X obj 240 257 nbx 2 14 0 99 0 0 s-seq-smplr-note99-117 r-seq-smplr-note99-117
empty 0 -8 0 10 #fcfcfc #000000 #000000 0 256;
#X obj 274 257 nbx 2 14 0 99 0 0 s-seq-smplr-note99-118 r-seq-smplr-note99-118
empty 0 -8 0 10 #fcfcfc #000000 #000000 0 256;
#X obj 308 257 nbx 2 14 0 99 0 0 s-seq-smplr-note99-119 r-seq-smplr-note99-119
empty 0 -8 0 10 #fcfcfc #000000 #000000 0 256;
#X obj 2 277 nbx 2 14 0 99 0 0 s-seq-smplr-note99-120 r-seq-smplr-note99-120
empty 0 -8 0 10 #fcfcfc #000000 #000000 0 256;
#X obj 36 277 nbx 2 14 0 99 0 0 s-seq-smplr-note99-121 r-seq-smplr-note99-121
empty 0 -8 0 10 #fcfcfc #000000 #000000 0 256;
#X obj 70 277 nbx 2 14 0 99 0 0 s-seq-smplr-note99-122 r-seq-smplr-note99-122
empty 0 -8 0 10 #fcfcfc #000000 #000000 0 256;
#X obj 104 277 nbx 2 14 0 99 0 0 s-seq-smplr-note99-123 r-seq-smplr-note99-123
empty 0 -8 0 10 #fcfcfc #000000 #000000 0 256;
#X obj 138 277 nbx 2 14 0 99 0 0 s-seq-smplr-note99-124 r-seq-smplr-note99-124
empty 0 -8 0 10 #fcfcfc #000000 #000000 0 256;
#X obj 172 277 nbx 2 14 0 99 0 0 s-seq-smplr-note99-125 r-seq-smplr-note99-125
empty 0 -8 0 10 #fcfcfc #000000 #000000 0 256;
#X obj 206 277 nbx 2 14 0 99 0 0 s-seq-smplr-note99-126 r-seq-smplr-note99-126
empty 0 -8 0 10 #fcfcfc #000000 #000000 0 256;
#X obj 240 277 nbx 2 14 0 99 0 0 s-seq-smplr-note99-127 r-seq-smplr-note99-127
empty 0 -8 0 10 #fcfcfc #000000 #000000 0 256;
#X obj 274 277 nbx 2 14 0 99 0 0 s-seq-smplr-note99-128 r-seq-smplr-note99-128
empty 0 -8 0 10 #fcfcfc #000000 #000000 0 256;
#X obj 308 277 nbx 2 14 0 99 0 0 s-seq-smplr-note99-129 r-seq-smplr-note99-129
empty 0 -8 0 10 #fcfcfc #000000 #000000 0 256;
#X obj 2 297 nbx 2 14 0 99 0 0 s-seq-smplr-note99-130 r-seq-smplr-note99-130
empty 0 -8 0 10 #fcfcfc #000000 #000000 0 256;
#X obj 36 297 nbx 2 14 0 99 0 0 s-seq-smplr-note99-131 r-seq-smplr-note99-131
empty 0 -8 0 10 #fcfcfc #000000 #000000 0 256;
#X obj 70 297 nbx 2 14 0 99 0 0 s-seq-smplr-note99-132 r-seq-smplr-note99-132
empty 0 -8 0 10 #fcfcfc #000000 #000000 0 256;
#X obj 104 297 nbx 2 14 0 99 0 0 s-seq-smplr-note99-133 r-seq-smplr-note99-133
empty 0 -8 0 10 #fcfcfc #000000 #000000 0 256;
#X obj 138 297 nbx 2 14 0 99 0 0 s-seq-smplr-note99-134 r-seq-smplr-note99-134
empty 0 -8 0 10 #fcfcfc #000000 #000000 0 256;
#X obj 172 297 nbx 2 14 0 99 0 0 s-seq-smplr-note99-135 r-seq-smplr-note99-135
empty 0 -8 0 10 #fcfcfc #000000 #000000 0 256;
#X obj 206 297 nbx 2 14 0 99 0 0 s-seq-smplr-note99-136 r-seq-smplr-note99-136
empty 0 -8 0 10 #fcfcfc #000000 #000000 0 256;
#X obj 240 297 nbx 2 14 0 99 0 0 s-seq-smplr-note99-137 r-seq-smplr-note99-137
empty 0 -8 0 10 #fcfcfc #000000 #000000 0 256;
#X obj 274 297 nbx 2 14 0 99 0 0 s-seq-smplr-note99-138 r-seq-smplr-note99-138
empty 0 -8 0 10 #fcfcfc #000000 #000000 0 256;
#X obj 308 297 nbx 2 14 0 99 0 0 s-seq-smplr-note99-139 r-seq-smplr-note99-139
empty 0 -8 0 10 #fcfcfc #000000 #000000 0 256;
#X obj 2 317 nbx 2 14 0 99 0 0 s-seq-smplr-note99-140 r-seq-smplr-note99-140
empty 0 -8 0 10 #fcfcfc #000000 #000000 0 256;
#X obj 36 317 nbx 2 14 0 99 0 0 s-seq-smplr-note99-141 r-seq-smplr-note99-141
empty 0 -8 0 10 #fcfcfc #000000 #000000 0 256;
#X obj 70 317 nbx 2 14 0 99 0 0 s-seq-smplr-note99-142 r-seq-smplr-note99-142
empty 0 -8 0 10 #fcfcfc #000000 #000000 0 256;
#X obj 104 317 nbx 2 14 0 99 0 0 s-seq-smplr-note99-143 r-seq-smplr-note99-143
empty 0 -8 0 10 #fcfcfc #000000 #000000 0 256;
#X obj 138 317 nbx 2 14 0 99 0 0 s-seq-smplr-note99-144 r-seq-smplr-note99-144
empty 0 -8 0 10 #fcfcfc #000000 #000000 0 256;
#X obj 172 317 nbx 2 14 0 99 0 0 s-seq-smplr-note99-145 r-seq-smplr-note99-145
empty 0 -8 0 10 #fcfcfc #000000 #000000 0 256;
#X obj 206 317 nbx 2 14 0 99 0 0 s-seq-smplr-note99-146 r-seq-smplr-note99-146
empty 0 -8 0 10 #fcfcfc #000000 #000000 0 256;
#X obj 240 317 nbx 2 14 0 99 0 0 s-seq-smplr-note99-147 r-seq-smplr-note99-147
empty 0 -8 0 10 #fcfcfc #000000 #000000 0 256;
#X obj 274 317 nbx 2 14 0 99 0 0 s-seq-smplr-note99-148 r-seq-smplr-note99-148
empty 0 -8 0 10 #fcfcfc #000000 #000000 0 256;
#X obj 308 317 nbx 2 14 0 99 0 0 s-seq-smplr-note99-149 r-seq-smplr-note99-149
empty 0 -8 0 10 #fcfcfc #000000 #000000 0 256;
#X obj 2 337 nbx 2 14 0 99 0 0 s-seq-smplr-note99-150 r-seq-smplr-note99-150
empty 0 -8 0 10 #fcfcfc #000000 #000000 0 256;
#X obj 36 337 nbx 2 14 0 99 0 0 s-seq-smplr-note99-151 r-seq-smplr-note99-151
empty 0 -8 0 10 #fcfcfc #000000 #000000 0 256;
#X obj 70 337 nbx 2 14 0 99 0 0 s-seq-smplr-note99-152 r-seq-smplr-note99-152
empty 0 -8 0 10 #fcfcfc #000000 #000000 0 256;
#X obj 104 337 nbx 2 14 0 99 0 0 s-seq-smplr-note99-153 r-seq-smplr-note99-153
empty 0 -8 0 10 #fcfcfc #000000 #000000 0 256;
#X obj 138 337 nbx 2 14 0 99 0 0 s-seq-smplr-note99-154 r-seq-smplr-note99-154
empty 0 -8 0 10 #fcfcfc #000000 #000000 0 256;
#X obj 172 337 nbx 2 14 0 99 0 0 s-seq-smplr-note99-155 r-seq-smplr-note99-155
empty 0 -8 0 10 #fcfcfc #000000 #000000 0 256;
#X obj 206 337 nbx 2 14 0 99 0 0 s-seq-smplr-note99-156 r-seq-smplr-note99-156
empty 0 -8 0 10 #fcfcfc #000000 #000000 0 256;
#X obj 240 337 nbx 2 14 0 99 0 0 s-seq-smplr-note99-157 r-seq-smplr-note99-157
empty 0 -8 0 10 #fcfcfc #000000 #000000 0 256;
#X obj 274 337 nbx 2 14 0 99 0 0 s-seq-smplr-note99-158 r-seq-smplr-note99-158
empty 0 -8 0 10 #fcfcfc #000000 #000000 0 256;
#X obj 308 337 nbx 2 14 0 99 0 0 s-seq-smplr-note99-159 r-seq-smplr-note99-159
empty 0 -8 0 10 #fcfcfc #000000 #000000 0 256;
#X obj 2 357 nbx 2 14 0 99 0 0 s-seq-smplr-note99-160 r-seq-smplr-note99-160
empty 0 -8 0 10 #fcfcfc #000000 #000000 0 256;
#X obj 36 357 nbx 2 14 0 99 0 0 s-seq-smplr-note99-161 r-seq-smplr-note99-161
empty 0 -8 0 10 #fcfcfc #000000 #000000 0 256;
#X obj 70 357 nbx 2 14 0 99 0 0 s-seq-smplr-note99-162 r-seq-smplr-note99-162
empty 0 -8 0 10 #fcfcfc #000000 #000000 0 256;
#X obj 104 357 nbx 2 14 0 99 0 0 s-seq-smplr-note99-163 r-seq-smplr-note99-163
empty 0 -8 0 10 #fcfcfc #000000 #000000 0 256;
#X obj 138 357 nbx 2 14 0 99 0 0 s-seq-smplr-note99-164 r-seq-smplr-note99-164
empty 0 -8 0 10 #fcfcfc #000000 #000000 0 256;
#X obj 172 357 nbx 2 14 0 99 0 0 s-seq-smplr-note99-165 r-seq-smplr-note99-165
empty 0 -8 0 10 #fcfcfc #000000 #000000 0 256;
#X obj 206 357 nbx 2 14 0 99 0 0 s-seq-smplr-note99-166 r-seq-smplr-note99-166
empty 0 -8 0 10 #fcfcfc #000000 #000000 0 256;
#X obj 240 357 nbx 2 14 0 99 0 0 s-seq-smplr-note99-167 r-seq-smplr-note99-167
empty 0 -8 0 10 #fcfcfc #000000 #000000 0 256;
#X obj 274 357 nbx 2 14 0 99 0 0 s-seq-smplr-note99-168 r-seq-smplr-note99-168
empty 0 -8 0 10 #fcfcfc #000000 #000000 0 256;
#X obj 308 357 nbx 2 14 0 99 0 0 s-seq-smplr-note99-169 r-seq-smplr-note99-169
empty 0 -8 0 10 #fcfcfc #000000 #000000 0 256;
#X obj 2 377 nbx 2 14 0 99 0 0 s-seq-smplr-note99-170 r-seq-smplr-note99-170
empty 0 -8 0 10 #fcfcfc #000000 #000000 0 256;
#X obj 36 377 nbx 2 14 0 99 0 0 s-seq-smplr-note99-171 r-seq-smplr-note99-171
empty 0 -8 0 10 #fcfcfc #000000 #000000 0 256;
#X obj 70 377 nbx 2 14 0 99 0 0 s-seq-smplr-note99-172 r-seq-smplr-note99-172
empty 0 -8 0 10 #fcfcfc #000000 #000000 0 256;
#X obj 104 377 nbx 2 14 0 99 0 0 s-seq-smplr-note99-173 r-seq-smplr-note99-173
empty 0 -8 0 10 #fcfcfc #000000 #000000 0 256;
#X obj 138 377 nbx 2 14 0 99 0 0 s-seq-smplr-note99-174 r-seq-smplr-note99-174
empty 0 -8 0 10 #fcfcfc #000000 #000000 0 256;
#X obj 172 377 nbx 2 14 0 99 0 0 s-seq-smplr-note99-175 r-seq-smplr-note99-175
empty 0 -8 0 10 #fcfcfc #000000 #000000 0 256;
#X obj 206 377 nbx 2 14 0 99 0 0 s-seq-smplr-note99-176 r-seq-smplr-note99-176
empty 0 -8 0 10 #fcfcfc #000000 #000000 0 256;
#X obj 240 377 nbx 2 14 0 99 0 0 s-seq-smplr-note99-177 r-seq-smplr-note99-177
empty 0 -8 0 10 #fcfcfc #000000 #000000 0 256;
#X obj 274 377 nbx 2 14 0 99 0 0 s-seq-smplr-note99-178 r-seq-smplr-note99-178
empty 0 -8 0 10 #fcfcfc #000000 #000000 0 256;
#X obj 308 377 nbx 2 14 0 99 0 0 s-seq-smplr-note99-179 r-seq-smplr-note99-179
empty 0 -8 0 10 #fcfcfc #000000 #000000 0 256;
#X obj 2 397 nbx 2 14 0 99 0 0 s-seq-smplr-note99-180 r-seq-smplr-note99-180
empty 0 -8 0 10 #fcfcfc #000000 #000000 0 256;
#X obj 36 397 nbx 2 14 0 99 0 0 s-seq-smplr-note99-181 r-seq-smplr-note99-181
empty 0 -8 0 10 #fcfcfc #000000 #000000 0 256;
#X obj 70 397 nbx 2 14 0 99 0 0 s-seq-smplr-note99-182 r-seq-smplr-note99-182
empty 0 -8 0 10 #fcfcfc #000000 #000000 0 256;
#X obj 104 397 nbx 2 14 0 99 0 0 s-seq-smplr-note99-183 r-seq-smplr-note99-183
empty 0 -8 0 10 #fcfcfc #000000 #000000 0 256;
#X obj 138 397 nbx 2 14 0 99 0 0 s-seq-smplr-note99-184 r-seq-smplr-note99-184
empty 0 -8 0 10 #fcfcfc #000000 #000000 0 256;
#X obj 172 397 nbx 2 14 0 99 0 0 s-seq-smplr-note99-185 r-seq-smplr-note99-185
empty 0 -8 0 10 #fcfcfc #000000 #000000 0 256;
#X obj 206 397 nbx 2 14 0 99 0 0 s-seq-smplr-note99-186 r-seq-smplr-note99-186
empty 0 -8 0 10 #fcfcfc #000000 #000000 0 256;
#X obj 240 397 nbx 2 14 0 99 0 0 s-seq-smplr-note99-187 r-seq-smplr-note99-187
empty 0 -8 0 10 #fcfcfc #000000 #000000 0 256;
#X obj 274 397 nbx 2 14 0 99 0 0 s-seq-smplr-note99-188 r-seq-smplr-note99-188
empty 0 -8 0 10 #fcfcfc #000000 #000000 0 256;
#X obj 308 397 nbx 2 14 0 99 0 0 s-seq-smplr-note99-189 r-seq-smplr-note99-189
empty 0 -8 0 10 #fcfcfc #000000 #000000 0 256;
#X obj 2 417 nbx 2 14 0 99 0 0 s-seq-smplr-note99-190 r-seq-smplr-note99-190
empty 0 -8 0 10 #fcfcfc #000000 #000000 0 256;
#X obj 36 417 nbx 2 14 0 99 0 0 s-seq-smplr-note99-191 r-seq-smplr-note99-191
empty 0 -8 0 10 #fcfcfc #000000 #000000 0 256;
#X obj 70 417 nbx 2 14 0 99 0 0 s-seq-smplr-note99-192 r-seq-smplr-note99-192
empty 0 -8 0 10 #fcfcfc #000000 #000000 0 256;
#X obj 104 417 nbx 2 14 0 99 0 0 s-seq-smplr-note99-193 r-seq-smplr-note99-193
empty 0 -8 0 10 #fcfcfc #000000 #000000 0 256;
#X obj 138 417 nbx 2 14 0 99 0 0 s-seq-smplr-note99-194 r-seq-smplr-note99-194
empty 0 -8 0 10 #fcfcfc #000000 #000000 0 256;
#X obj 172 417 nbx 2 14 0 99 0 0 s-seq-smplr-note99-195 r-seq-smplr-note99-195
empty 0 -8 0 10 #fcfcfc #000000 #000000 0 256;
#X obj 206 417 nbx 2 14 0 99 0 0 s-seq-smplr-note99-196 r-seq-smplr-note99-196
empty 0 -8 0 10 #fcfcfc #000000 #000000 0 256;
#X obj 240 417 nbx 2 14 0 99 0 0 s-seq-smplr-note99-197 r-seq-smplr-note99-197
empty 0 -8 0 10 #fcfcfc #000000 #000000 0 256;
#X obj 274 417 nbx 2 14 0 99 0 0 s-seq-smplr-note99-198 r-seq-smplr-note99-198
empty 0 -8 0 10 #fcfcfc #000000 #000000 0 256;
#X obj 308 417 nbx 2 14 0 99 0 0 s-seq-smplr-note99-199 r-seq-smplr-note99-199
empty 0 -8 0 10 #fcfcfc #000000 #000000 0 256;
#X obj 426 40 cnv 16 48 16 s-seq-smplr-cnv-0 r-seq-smplr-cnv-0 (42)
2 8 0 14 #fce0c4 #fc0400 0;
#X obj 460 40 cnv 16 48 16 s-seq-smplr-cnv-1 r-seq-smplr-cnv-1 (5)
2 8 0 14 #fce0c4 #fc0400 0;
#X obj 494 40 cnv 16 48 16 s-seq-smplr-cnv-2 r-seq-smplr-cnv-2 (63)
2 8 0 14 #fce0c4 #fc0400 0;
#X obj 528 40 cnv 16 48 16 s-seq-smplr-cnv-3 r-seq-smplr-cnv-3 (61)
2 8 0 14 #fce0c4 #fc0400 0;
#X obj 562 40 cnv 16 48 16 s-seq-smplr-cnv-4 r-seq-smplr-cnv-4 (86)
2 8 0 14 #fce0c4 #fc0400 0;
#X obj 596 40 cnv 16 48 16 s-seq-smplr-cnv-5 r-seq-smplr-cnv-5 (3)
2 8 0 14 #fce0c4 #fc0400 0;
#X obj 630 40 cnv 16 48 16 s-seq-smplr-cnv-6 r-seq-smplr-cnv-6 (87)
2 8 0 14 #fce0c4 #fc0400 0;
#X obj 664 40 cnv 16 48 16 s-seq-smplr-cnv-7 r-seq-smplr-cnv-7 (35)
2 8 0 14 #fce0c4 #fc0400 0;
#X obj 698 40 cnv 16 48 16 s-seq-smplr-cnv-8 r-seq-smplr-cnv-8 (73)
2 8 0 14 #fce0c4 #fc0400 0;
#X obj 732 40 cnv 16 48 16 s-seq-smplr-cnv-9 r-seq-smplr-cnv-9 (48)
2 8 0 14 #fce0c4 #fc0400 0;
#X obj 426 60 cnv 16 48 16 s-seq-smplr-cnv-10 r-seq-smplr-cnv-10 (48)
2 8 0 14 #fce0c4 #fc0400 0;
#X obj 460 60 cnv 16 48 16 s-seq-smplr-cnv-11 r-seq-smplr-cnv-11 (33)
2 8 0 14 #fce0c4 #fc0400 0;
#X obj 494 60 cnv 16 48 16 s-seq-smplr-cnv-12 r-seq-smplr-cnv-12 (58)
2 8 0 14 #fce0c4 #fc0400 0;
#X obj 528 60 cnv 16 48 16 s-seq-smplr-cnv-13 r-seq-smplr-cnv-13 (55)
2 8 0 14 #fce0c4 #fc0400 0;
#X obj 562 60 cnv 16 48 16 s-seq-smplr-cnv-14 r-seq-smplr-cnv-14 (84)
2 8 0 14 #fce0c4 #fc0400 0;
#X obj 596 60 cnv 16 48 16 s-seq-smplr-cnv-15 r-seq-smplr-cnv-15 (42)
2 8 0 14 #fce0c4 #fc0400 0;
#X obj 630 60 cnv 16 48 16 s-seq-smplr-cnv-16 r-seq-smplr-cnv-16 (20)
2 8 0 14 #fce0c4 #fc0400 0;
#X obj 664 60 cnv 16 48 16 s-seq-smplr-cnv-17 r-seq-smplr-cnv-17 (44)
2 8 0 14 #fce0c4 #fc0400 0;
#X obj 698 60 cnv 16 48 16 s-seq-smplr-cnv-18 r-seq-smplr-cnv-18 (87)
2 8 0 14 #fce0c4 #fc0400 0;
#X obj 732 60 cnv 16 48 16 s-seq-smplr-cnv-19 r-seq-smplr-cnv-19 (95)
2 8 0 14 #fce0c4 #fc0400 0;
#X obj 426 80 cnv 16 48 16 s-seq-smplr-cnv-20 r-seq-smplr-cnv-20 (40)
2 8 0 14 #fce0c4 #fc0400 0;
#X obj 460 80 cnv 16 48 16 s-seq-smplr-cnv-21 r-seq-smplr-cnv-21 (46)
2 8 0 14 #fce0c4 #fc0400 0;
#X obj 494 80 cnv 16 48 16 s-seq-smplr-cnv-22 r-seq-smplr-cnv-22 (16)
2 8 0 14 #fce0c4 #fc0400 0;
#X obj 528 80 cnv 16 48 16 s-seq-smplr-cnv-23 r-seq-smplr-cnv-23 (17)
2 8 0 14 #fce0c4 #fc0400 0;
#X obj 562 80 cnv 16 48 16 s-seq-smplr-cnv-24 r-seq-smplr-cnv-24 (67)
2 8 0 14 #fce0c4 #fc0400 0;
#X obj 596 80 cnv 16 48 16 s-seq-smplr-cnv-25 r-seq-smplr-cnv-25 (97)
2 8 0 14 #fce0c4 #fc0400 0;
#X obj 630 80 cnv 16 48 16 s-seq-smplr-cnv-26 r-seq-smplr-cnv-26 (31)
2 8 0 14 #fce0c4 #fc0400 0;
#X obj 664 80 cnv 16 48 16 s-seq-smplr-cnv-27 r-seq-smplr-cnv-27 (78)
2 8 0 14 #fce0c4 #fc0400 0;
#X obj 698 80 cnv 16 48 16 s-seq-smplr-cnv-28 r-seq-smplr-cnv-28 (98)
2 8 0 14 #fce0c4 #fc0400 0;
#X obj 732 80 cnv 16 48 16 s-seq-smplr-cnv-29 r-seq-smplr-cnv-29 (37)
2 8 0 14 #fce0c4 #fc0400 0;
#X obj 426 100 cnv 16 48 16 s-seq-smplr-cnv-30 r-seq-smplr-cnv-30 (10)
2 8 0 14 #fce0c4 #fc0400 0;
#X obj 460 100 cnv 16 48 16 s-seq-smplr-cnv-31 r-seq-smplr-cnv-31 (40)
2 8 0 14 #fce0c4 #fc0400 0;
#X obj 494 100 cnv 16 48 16 s-seq-smplr-cnv-32 r-seq-smplr-cnv-32 (49)
2 8 0 14 #fce0c4 #fc0400 0;
#X obj 528 100 cnv 16 48 16 s-seq-smplr-cnv-33 r-seq-smplr-cnv-33 (10)
2 8 0 14 #fce0c4 #fc0400 0;
#X obj 562 100 cnv 16 48 16 s-seq-smplr-cnv-34 r-seq-smplr-cnv-34 (73)
2 8 0 14 #fce0c4 #fc0400 0;
#X obj 596 100 cnv 16 48 16 s-seq-smplr-cnv-35 r-seq-smplr-cnv-35 (3)
2 8 0 14 #fce0c4 #fc0400 0;
#X obj 630 100 cnv 16 48 16 s-seq-smplr-cnv-36 r-seq-smplr-cnv-36 (28)
2 8 0 14 #fce0c4 #fc0400 0;
#X obj 664 100 cnv 16 48 16 s-seq-smplr-cnv-37 r-seq-smplr-cnv-37 (60)
2 8 0 14 #fce0c4 #fc0400 0;
#X obj 698 100 cnv 16 48 16 s-seq-smplr-cnv-38 r-seq-smplr-cnv-38 (9)
2 8 0 14 #fce0c4 #fc0400 0;
#X obj 732 100 cnv 16 48 16 s-seq-smplr-cnv-39 r-seq-smplr-cnv-39 (56)
2 8 0 14 #fce0c4 #fc0400 0;
#X obj 426 120 cnv 16 48 16 s-seq-smplr-cnv-40 r-seq-smplr-cnv-40 (8)
2 8 0 14 #fce0c4 #fc0400 0;
#X obj 460 120 cnv 16 48 16 s-seq-smplr-cnv-41 r-seq-smplr-cnv-41 (31)
2 8 0 14 #fce0c4 #fc0400 0;
#X obj 494 120 cnv 16 48 16 s-seq-smplr-cnv-42 r-seq-smplr-cnv-42 (96)
2 8 0 14 #fce0c4 #fc0400 0;
#X obj 528 120 cnv 16 48 16 s-seq-smplr-cnv-43 r-seq-smplr-cnv-43 (23)
2 8 0 14 #fce0c4 #fc0400 0;
#X obj 562 120 cnv 16 48 16 s-seq-smplr-cnv-44 r-seq-smplr-cnv-44 (2)
2 8 0 14 #fce0c4 #fc0400 0;
#X obj 596 120 cnv 16 48 16 s-seq-smplr-cnv-45 r-seq-smplr-cnv-45 (68)
2 8 0 14 #fce0c4 #fc0400 0;
#X obj 630 120 cnv 16 48 16 s-seq-smplr-cnv-46 r-seq-smplr-cnv-46 (25)
2 8 0 14 #fce0c4 #fc0400 0;
#X obj 664 120 cnv 16 48 16 s-seq-smplr-cnv-47 r-seq-smplr-cnv-47 (16)
2 8 0 14 #fce0c4 #fc0400 0;
#X obj 698 120 cnv 16 48 16 s-seq-smplr-cnv-48 r-seq-smplr-cnv-48 (36)
2 8 0 14 #fce0c4 #fc0400 0;
#X obj 732 120 cnv 16 48 16 s-seq-smplr-cnv-49 r-seq-smplr-cnv-49 (9)
2 8 0 14 #fce0c4 #fc0400 0;
#X obj 426 140 cnv 16 48 16 s-seq-smplr-cnv-50 r-seq-smplr-cnv-50 (24)
2 8 0 14 #fce0c4 #fc0400 0;
#X obj 460 140 cnv 16 48 16 s-seq-smplr-cnv-51 r-seq-smplr-cnv-51 (76)
2 8 0 14 #fce0c4 #fc0400 0;
#X obj 494 140 cnv 16 48 16 s-seq-smplr-cnv-52 r-seq-smplr-cnv-52 (22)
2 8 0 14 #fce0c4 #fc0400 0;
#X obj 528 140 cnv 16 48 16 s-seq-smplr-cnv-53 r-seq-smplr-cnv-53 (89)
2 8 0 14 #fce0c4 #fc0400 0;
#X obj 562 140 cnv 16 48 16 s-seq-smplr-cnv-54 r-seq-smplr-cnv-54 (82)
2 8 0 14 #fce0c4 #fc0400 0;
#X obj 596 140 cnv 16 48 16 s-seq-smplr-cnv-55 r-seq-smplr-cnv-55 (31)
2 8 0 14 #fce0c4 #fc0400 0;
#X obj 630 140 cnv 16 48 16 s-seq-smplr-cnv-56 r-seq-smplr-cnv-56 (31)
2 8 0 14 #fce0c4 #fc0400 0;
#X obj 664 140 cnv 16 48 16 s-seq-smplr-cnv-57 r-seq-smplr-cnv-57 (36)
2 8 0 14 #fce0c4 #fc0400 0;
#X obj 698 140 cnv 16 48 16 s-seq-smplr-cnv-58 r-seq-smplr-cnv-58 (71)
2 8 0 14 #fce0c4 #fc0400 0;
#X obj 732 140 cnv 16 48 16 s-seq-smplr-cnv-59 r-seq-smplr-cnv-59 (36)
2 8 0 14 #fce0c4 #fc0400 0;
#X obj 426 160 cnv 16 48 16 s-seq-smplr-cnv-60 r-seq-smplr-cnv-60 (68)
2 8 0 14 #fce0c4 #fc0400 0;
#X obj 460 160 cnv 16 48 16 s-seq-smplr-cnv-61 r-seq-smplr-cnv-61 (72)
2 8 0 14 #fce0c4 #fc0400 0;
#X obj 494 160 cnv 16 48 16 s-seq-smplr-cnv-62 r-seq-smplr-cnv-62 (73)
2 8 0 14 #fce0c4 #fc0400 0;
#X obj 528 160 cnv 16 48 16 s-seq-smplr-cnv-63 r-seq-smplr-cnv-63 (25)
2 8 0 14 #fce0c4 #fc0400 0;
#X obj 562 160 cnv 16 48 16 s-seq-smplr-cnv-64 r-seq-smplr-cnv-64 (43)
2 8 0 14 #fce0c4 #fc0400 0;
#X obj 596 160 cnv 16 48 16 s-seq-smplr-cnv-65 r-seq-smplr-cnv-65 (5)
2 8 0 14 #fce0c4 #fc0400 0;
#X obj 630 160 cnv 16 48 16 s-seq-smplr-cnv-66 r-seq-smplr-cnv-66 (96)
2 8 0 14 #fce0c4 #fc0400 0;
#X obj 664 160 cnv 16 48 16 s-seq-smplr-cnv-67 r-seq-smplr-cnv-67 (59)
2 8 0 14 #fce0c4 #fc0400 0;
#X obj 698 160 cnv 16 48 16 s-seq-smplr-cnv-68 r-seq-smplr-cnv-68 (48)
2 8 0 14 #fce0c4 #fc0400 0;
#X obj 732 160 cnv 16 48 16 s-seq-smplr-cnv-69 r-seq-smplr-cnv-69 (37)
2 8 0 14 #fce0c4 #fc0400 0;
#X obj 426 180 cnv 16 48 16 s-seq-smplr-cnv-70 r-seq-smplr-cnv-70 (5)
2 8 0 14 #fce0c4 #fc0400 0;
#X obj 460 180 cnv 16 48 16 s-seq-smplr-cnv-71 r-seq-smplr-cnv-71 (77)
2 8 0 14 #fce0c4 #fc0400 0;
#X obj 494 180 cnv 16 48 16 s-seq-smplr-cnv-72 r-seq-smplr-cnv-72 (27)
2 8 0 14 #fce0c4 #fc0400 0;
#X obj 528 180 cnv 16 48 16 s-seq-smplr-cnv-73 r-seq-smplr-cnv-73 (54)
2 8 0 14 #fce0c4 #fc0400 0;
#X obj 562 180 cnv 16 48 16 s-seq-smplr-cnv-74 r-seq-smplr-cnv-74 (44)
2 8 0 14 #fce0c4 #fc0400 0;
#X obj 596 180 cnv 16 48 16 s-seq-smplr-cnv-75 r-seq-smplr-cnv-75 (39)
2 8 0 14 #fce0c4 #fc0400 0;
#X obj 630 180 cnv 16 48 16 s-seq-smplr-cnv-76 r-seq-smplr-cnv-76 (51)
2 8 0 14 #fce0c4 #fc0400 0;
#X obj 664 180 cnv 16 48 16 s-seq-smplr-cnv-77 r-seq-smplr-cnv-77 (29)
2 8 0 14 #fce0c4 #fc0400 0;
#X obj 698 180 cnv 16 48 16 s-seq-smplr-cnv-78 r-seq-smplr-cnv-78 (54)
2 8 0 14 #fce0c4 #fc0400 0;
#X obj 732 180 cnv 16 48 16 s-seq-smplr-cnv-79 r-seq-smplr-cnv-79 (80)
2 8 0 14 #fce0c4 #fc0400 0;
#X obj 426 200 cnv 16 48 16 s-seq-smplr-cnv-80 r-seq-smplr-cnv-80 (91)
2 8 0 14 #fce0c4 #fc0400 0;
#X obj 460 200 cnv 16 48 16 s-seq-smplr-cnv-81 r-seq-smplr-cnv-81 (18)
2 8 0 14 #fce0c4 #fc0400 0;
#X obj 494 200 cnv 16 48 16 s-seq-smplr-cnv-82 r-seq-smplr-cnv-82 (4)
2 8 0 14 #fce0c4 #fc0400 0;
#X obj 528 200 cnv 16 48 16 s-seq-smplr-cnv-83 r-seq-smplr-cnv-83 (54)
2 8 0 14 #fce0c4 #fc0400 0;
#X obj 562 200 cnv 16 48 16 s-seq-smplr-cnv-84 r-seq-smplr-cnv-84 (92)
2 8 0 14 #fce0c4 #fc0400 0;
#X obj 596 200 cnv 16 48 16 s-seq-smplr-cnv-85 r-seq-smplr-cnv-85 (63)
2 8 0 14 #fce0c4 #fc0400 0;
#X obj 630 200 cnv 16 48 16 s-seq-smplr-cnv-86 r-seq-smplr-cnv-86 (8)
2 8 0 14 #fce0c4 #fc0400 0;
#X obj 664 200 cnv 16 48 16 s-seq-smplr-cnv-87 r-seq-smplr-cnv-87 (85)
2 8 0 14 #fce0c4 #fc0400 0;
#X obj 698 200 cnv 16 48 16 s-seq-smplr-cnv-88 r-seq-smplr-cnv-88 (45)
2 8 0 14 #fce0c4 #fc0400 0;
#X obj 732 200 cnv 16 48 16 s-seq-smplr-cnv-89 r-seq-smplr-cnv-89 (82)
2 8 0 14 #fce0c4 #fc0400 0;
#X obj 426 220 cnv 16 48 16 s-seq-smplr-cnv-90 r-seq-smplr-cnv-90 (55)
2 8 0 14 #fce0c4 #fc0400 0;
#X obj 460 220 cnv 16 48 16 s-seq-smplr-cnv-91 r-seq-smplr-cnv-91 (14)
2 8 0 14 #fce0c4 #fc0400 0;
#X obj 494 220 cnv 16 48 16 s-seq-smplr-cnv-92 r-seq-smplr-cnv-92 (64)
2 8 0 14 #fce0c4 #fc0400 0;
#X obj 528 220 cnv 16 48 16 s-seq-smplr-cnv-93 r-seq-smplr-cnv-93 (77)
2 8 0 14 #fce0c4 #fc0400 0;
#X obj 562 220 cnv 16 48 16 s-seq-smplr-cnv-94 r-seq-smplr-cnv-94 (25)
2 8 0 14 #fce0c4 #fc0400 0;
#X obj 596 220 cnv 16 48 16 s-seq-smplr-cnv-95 r-seq-smplr-cnv-95 (51)
2 8 0 14 #fce0c4 #fc0400 0;
#X obj 630 220 cnv 16 48 16 s-seq-smplr-cnv-96 r-seq-smplr-cnv-96 (55)
2 8 0 14 #fce0c4 #fc0400 0;
#X obj 664 220 cnv 16 48 16 s-seq-smplr-cnv-97 r-seq-smplr-cnv-97 (25)
2 8 0 14 #fce0c4 #fc0400 0;
#X obj 698 220 cnv 16 48 16 s-seq-smplr-cnv-98 r-seq-smplr-cnv-98 (18)
2 8 0 14 #fce0c4 #fc0400 0;
#X obj 732 220 cnv 16 48 16 s-seq-smplr-cnv-99 r-seq-smplr-cnv-99 (18)
2 8 0 14 #fce0c4 #fc0400 0;
#X obj 426 240 cnv 16 48 16 s-seq-smplr-cnv-100 r-seq-smplr-cnv-100
(91) 2 8 0 14 #fce0c4 #fc0400 0;
#X obj 460 240 cnv 16 48 16 s-seq-smplr-cnv-101 r-seq-smplr-cnv-101
(81) 2 8 0 14 #fce0c4 #fc0400 0;
#X obj 494 240 cnv 16 48 16 s-seq-smplr-cnv-102 r-seq-smplr-cnv-102
(75) 2 8 0 14 #fce0c4 #fc0400 0;
#X obj 528 240 cnv 16 48 16 s-seq-smplr-cnv-103 r-seq-smplr-cnv-103
(1) 2 8 0 14 #fce0c4 #fc0400 0;
#X obj 562 240 cnv 16 48 16 s-seq-smplr-cnv-104 r-seq-smplr-cnv-104
(88) 2 8 0 14 #fce0c4 #fc0400 0;
#X obj 596 240 cnv 16 48 16 s-seq-smplr-cnv-105 r-seq-smplr-cnv-105
(75) 2 8 0 14 #fce0c4 #fc0400 0;
#X obj 630 240 cnv 16 48 16 s-seq-smplr-cnv-106 r-seq-smplr-cnv-106
(4) 2 8 0 14 #fce0c4 #fc0400 0;
#X obj 664 240 cnv 16 48 16 s-seq-smplr-cnv-107 r-seq-smplr-cnv-107
(97) 2 8 0 14 #fce0c4 #fc0400 0;
#X obj 698 240 cnv 16 48 16 s-seq-smplr-cnv-108 r-seq-smplr-cnv-108
(74) 2 8 0 14 #fce0c4 #fc0400 0;
#X obj 732 240 cnv 16 48 16 s-seq-smplr-cnv-109 r-seq-smplr-cnv-109
(9) 2 8 0 14 #fce0c4 #fc0400 0;
#X obj 426 260 cnv 16 48 16 s-seq-smplr-cnv-110 r-seq-smplr-cnv-110
(98) 2 8 0 14 #fce0c4 #fc0400 0;
#X obj 460 260 cnv 16 48 16 s-seq-smplr-cnv-111 r-seq-smplr-cnv-111
(64) 2 8 0 14 #fce0c4 #fc0400 0;
#X obj 494 260 cnv 16 48 16 s-seq-smplr-cnv-112 r-seq-smplr-cnv-112
(67) 2 8 0 14 #fce0c4 #fc0400 0;
#X obj 528 260 cnv 16 48 16 s-seq-smplr-cnv-113 r-seq-smplr-cnv-113
(57) 2 8 0 14 #fce0c4 #fc0400 0;
#X obj 562 260 cnv 16 48 16 s-seq-smplr-cnv-114 r-seq-smplr-cnv-114
(65) 2 8 0 14 #fce0c4 #fc0400 0;
#X obj 596 260 cnv 16 48 16 s-seq-smplr-cnv-115 r-seq-smplr-cnv-115
(67) 2 8 0 14 #fce0c4 #fc0400 0;
#X obj 630 260 cnv 16 48 16 s-seq-smplr-cnv-116 r-seq-smplr-cnv-116
(43) 2 8 0 14 #fce0c4 #fc0400 0;
#X obj 664 260 cnv 16 48 16 s-seq-smplr-cnv-117 r-seq-smplr-cnv-117
(64) 2 8 0 14 #fce0c4 #fc0400 0;
#X obj 698 260 cnv 16 48 16 s-seq-smplr-cnv-118 r-seq-smplr-cnv-118
(46) 2 8 0 14 #fce0c4 #fc0400 0;
#X obj 732 260 cnv 16 48 16 s-seq-smplr-cnv-119 r-seq-smplr-cnv-119
(30) 2 8 0 14 #fce0c4 #fc0400 0;
#X obj 426 280 cnv 16 48 16 s-seq-smplr-cnv-120 r-seq-smplr-cnv-120
(16) 2 8 0 14 #fce0c4 #fc0400 0;
#X obj 460 280 cnv 16 48 16 s-seq-smplr-cnv-121 r-seq-smplr-cnv-121
(43) 2 8 0 14 #fce0c4 #fc0400 0;
#X obj 494 280 cnv 16 48 16 s-seq-smplr-cnv-122 r-seq-smplr-cnv-122
(44) 2 8 0 14 #fce0c4 #fc0400 0;
#X obj 528 280 cnv 16 48 16 s-seq-smplr-cnv-123 r-seq-smplr-cnv-123
(80) 2 8 0 14 #fce0c4 #fc0400 0;
#X obj 562 280 cnv 16 48 16 s-seq-smplr-cnv-124 r-seq-smplr-cnv-124
(6) 2 8 0 14 #fce0c4 #fc0400 0;
#X obj 596 280 cnv 16 48 16 s-seq-smplr-cnv-125 r-seq-smplr-cnv-125
(75) 2 8 0 14 #fce0c4 #fc0400 0;
#X obj 630 280 cnv 16 48 16 s-seq-smplr-cnv-126 r-seq-smplr-cnv-126
(41) 2 8 0 14 #fce0c4 #fc0400 0;
#X obj 664 280 cnv 16 48 16 s-seq-smplr-cnv-127 r-seq-smplr-cnv-127
(99) 2 8 0 14 #fce0c4 #fc0400 0;
#X obj 698 280 cnv 16 48 16 s-seq-smplr-cnv-128 r-seq-smplr-cnv-128
(15) 2 8 0 14 #fce0c4 #fc0400 0;
#X obj 732 280 cnv 16 48 16 s-seq-smplr-cnv-129 r-seq-smplr-cnv-129
(4) 2 8 0 14 #fce0c4 #fc0400 0;
#X obj 426 300 cnv 16 48 16 s-seq-smplr-cnv-130 r-seq-smplr-cnv-130
(27) 2 8 0 14 #fce0c4 #fc0400 0;
#X obj 460 300 cnv 16 48 16 s-seq-smplr-cnv-131 r-seq-smplr-cnv-131
(71) 2 8 0 14 #fce0c4 #fc0400 0;
#X obj 494 300 cnv 16 48 16 s-seq-smplr-cnv-132 r-seq-smplr-cnv-132
(0) 2 8 0 14 #fce0c4 #fc0400 0;
#X obj 528 300 cnv 16 48 16 s-seq-smplr-cnv-133 r-seq-smplr-cnv-133
(39) 2 8 0 14 #fce0c4 #fc0400 0;
#X obj 562 300 cnv 16 48 16 s-seq-smplr-cnv-134 r-seq-smplr-cnv-134
(19) 2 8 0 14 #fce0c4 #fc0400 0;
#X obj 596 300 cnv 16 48 16 s-seq-smplr-cnv-135 r-seq-smplr-cnv-135
(31) 2 8 0 14 #fce0c4 #fc0400 0;
#X obj 630 300 cnv 16 48 16 s-seq-smplr-cnv-136 r-seq-smplr-cnv-136
(46) 2 8 0 14 #fce0c4 #fc0400 0;
#X obj 664 300 cnv 16 48 16 s-seq-smplr-cnv-137 r-seq-smplr-cnv-137
(54) 2 8 0 14 #fce0c4 #fc0400 0;
#X obj 698 300 cnv 16 48 16 s-seq-smplr-cnv-138 r-seq-smplr-cnv-138
(88) 2 8 0 14 #fce0c4 #fc0400 0;
#X obj 732 300 cnv 16 48 16 s-seq-smplr-cnv-139 r-seq-smplr-cnv-139
(12) 2 8 0 14 #fce0c4 #fc0400 0;
#X obj 426 320 cnv 16 48 16 s-seq-smplr-cnv-140 r-seq-smplr-cnv-140
(40) 2 8 0 14 #fce0c4 #fc0400 0;
#X obj 460 320 cnv 16 48 16 s-seq-smplr-cnv-141 r-seq-smplr-cnv-141
(80) 2 8 0 14 #fce0c4 #fc0400 0;
#X obj 494 320 cnv 16 48 16 s-seq-smplr-cnv-142 r-seq-smplr-cnv-142
(80) 2 8 0 14 #fce0c4 #fc0400 0;
#X obj 528 320 cnv 16 48 16 s-seq-smplr-cnv-143 r-seq-smplr-cnv-143
(95) 2 8 0 14 #fce0c4 #fc0400 0;
#X obj 562 320 cnv 16 48 16 s-seq-smplr-cnv-144 r-seq-smplr-cnv-144
(44) 2 8 0 14 #fce0c4 #fc0400 0;
#X obj 596 320 cnv 16 48 16 s-seq-smplr-cnv-145 r-seq-smplr-cnv-145
(9) 2 8 0 14 #fce0c4 #fc0400 0;
#X obj 630 320 cnv 16 48 16 s-seq-smplr-cnv-146 r-seq-smplr-cnv-146
(43) 2 8 0 14 #fce0c4 #fc0400 0;
#X obj 664 320 cnv 16 48 16 s-seq-smplr-cnv-147 r-seq-smplr-cnv-147
(57) 2 8 0 14 #fce0c4 #fc0400 0;
#X obj 698 320 cnv 16 48 16 s-seq-smplr-cnv-148 r-seq-smplr-cnv-148
(70) 2 8 0 14 #fce0c4 #fc0400 0;
#X obj 732 320 cnv 16 48 16 s-seq-smplr-cnv-149 r-seq-smplr-cnv-149
(91) 2 8 0 14 #fce0c4 #fc0400 0;
#X obj 426 340 cnv 16 48 16 s-seq-smplr-cnv-150 r-seq-smplr-cnv-150
(45) 2 8 0 14 #fce0c4 #fc0400 0;
#X obj 460 340 cnv 16 48 16 s-seq-smplr-cnv-151 r-seq-smplr-cnv-151
(20) 2 8 0 14 #fce0c4 #fc0400 0;
#X obj 494 340 cnv 16 48 16 s-seq-smplr-cnv-152 r-seq-smplr-cnv-152
(50) 2 8 0 14 #fce0c4 #fc0400 0;
#X obj 528 340 cnv 16 48 16 s-seq-smplr-cnv-153 r-seq-smplr-cnv-153
(30) 2 8 0 14 #fce0c4 #fc0400 0;
#X obj 562 340 cnv 16 48 16 s-seq-smplr-cnv-154 r-seq-smplr-cnv-154
(1) 2 8 0 14 #fce0c4 #fc0400 0;
#X obj 596 340 cnv 16 48 16 s-seq-smplr-cnv-155 r-seq-smplr-cnv-155
(98) 2 8 0 14 #fce0c4 #fc0400 0;
#X obj 630 340 cnv 16 48 16 s-seq-smplr-cnv-156 r-seq-smplr-cnv-156
(13) 2 8 0 14 #fce0c4 #fc0400 0;
#X obj 664 340 cnv 16 48 16 s-seq-smplr-cnv-157 r-seq-smplr-cnv-157
(87) 2 8 0 14 #fce0c4 #fc0400 0;
#X obj 698 340 cnv 16 48 16 s-seq-smplr-cnv-158 r-seq-smplr-cnv-158
(97) 2 8 0 14 #fce0c4 #fc0400 0;
#X obj 732 340 cnv 16 48 16 s-seq-smplr-cnv-159 r-seq-smplr-cnv-159
(46) 2 8 0 14 #fce0c4 #fc0400 0;
#X obj 426 360 cnv 16 48 16 s-seq-smplr-cnv-160 r-seq-smplr-cnv-160
(55) 2 8 0 14 #fce0c4 #fc0400 0;
#X obj 460 360 cnv 16 48 16 s-seq-smplr-cnv-161 r-seq-smplr-cnv-161
(75) 2 8 0 14 #fce0c4 #fc0400 0;
#X obj 494 360 cnv 16 48 16 s-seq-smplr-cnv-162 r-seq-smplr-cnv-162
(10) 2 8 0 14 #fce0c4 #fc0400 0;
#X obj 528 360 cnv 16 48 16 s-seq-smplr-cnv-163 r-seq-smplr-cnv-163
(9) 2 8 0 14 #fce0c4 #fc0400 0;
#X obj 562 360 cnv 16 48 16 s-seq-smplr-cnv-164 r-seq-smplr-cnv-164
(18) 2 8 0 14 #fce0c4 #fc0400 0;
#X obj 596 360 cnv 16 48 16 s-seq-smplr-cnv-165 r-seq-smplr-cnv-165
(58) 2 8 0 14 #fce0c4 #fc0400 0;
#X obj 630 360 cnv 16 48 16 s-seq-smplr-cnv-166 r-seq-smplr-cnv-166
(35) 2 8 0 14 #fce0c4 #fc0400 0;
#X obj 664 360 cnv 16 48 16 s-seq-smplr-cnv-167 r-seq-smplr-cnv-167
(70) 2 8 0 14 #fce0c4 #fc0400 0;
#X obj 698 360 cnv 16 48 16 s-seq-smplr-cnv-168 r-seq-smplr-cnv-168
(57) 2 8 0 14 #fce0c4 #fc0400 0;
#X obj 732 360 cnv 16 48 16 s-seq-smplr-cnv-169 r-seq-smplr-cnv-169
(50) 2 8 0 14 #fce0c4 #fc0400 0;
#X obj 426 380 cnv 16 48 16 s-seq-smplr-cnv-170 r-seq-smplr-cnv-170
(8) 2 8 0 14 #fce0c4 #fc0400 0;
#X obj 460 380 cnv 16 48 16 s-seq-smplr-cnv-171 r-seq-smplr-cnv-171
(99) 2 8 0 14 #fce0c4 #fc0400 0;
#X obj 494 380 cnv 16 48 16 s-seq-smplr-cnv-172 r-seq-smplr-cnv-172
(17) 2 8 0 14 #fce0c4 #fc0400 0;
#X obj 528 380 cnv 16 48 16 s-seq-smplr-cnv-173 r-seq-smplr-cnv-173
(14) 2 8 0 14 #fce0c4 #fc0400 0;
#X obj 562 380 cnv 16 48 16 s-seq-smplr-cnv-174 r-seq-smplr-cnv-174
(27) 2 8 0 14 #fce0c4 #fc0400 0;
#X obj 596 380 cnv 16 48 16 s-seq-smplr-cnv-175 r-seq-smplr-cnv-175
(1) 2 8 0 14 #fce0c4 #fc0400 0;
#X obj 630 380 cnv 16 48 16 s-seq-smplr-cnv-176 r-seq-smplr-cnv-176
(5) 2 8 0 14 #fce0c4 #fc0400 0;
#X obj 664 380 cnv 16 48 16 s-seq-smplr-cnv-177 r-seq-smplr-cnv-177
(58) 2 8 0 14 #fce0c4 #fc0400 0;
#X obj 698 380 cnv 16 48 16 s-seq-smplr-cnv-178 r-seq-smplr-cnv-178
(77) 2 8 0 14 #fce0c4 #fc0400 0;
#X obj 732 380 cnv 16 48 16 s-seq-smplr-cnv-179 r-seq-smplr-cnv-179
(64) 2 8 0 14 #fce0c4 #fc0400 0;
#X obj 426 400 cnv 16 48 16 s-seq-smplr-cnv-180 r-seq-smplr-cnv-180
(65) 2 8 0 14 #fce0c4 #fc0400 0;
#X obj 460 400 cnv 16 48 16 s-seq-smplr-cnv-181 r-seq-smplr-cnv-181
(38) 2 8 0 14 #fce0c4 #fc0400 0;
#X obj 494 400 cnv 16 48 16 s-seq-smplr-cnv-182 r-seq-smplr-cnv-182
(54) 2 8 0 14 #fce0c4 #fc0400 0;
#X obj 528 400 cnv 16 48 16 s-seq-smplr-cnv-183 r-seq-smplr-cnv-183
(8) 2 8 0 14 #fce0c4 #fc0400 0;
#X obj 562 400 cnv 16 48 16 s-seq-smplr-cnv-184 r-seq-smplr-cnv-184
(52) 2 8 0 14 #fce0c4 #fc0400 0;
#X obj 596 400 cnv 16 48 16 s-seq-smplr-cnv-185 r-seq-smplr-cnv-185
(50) 2 8 0 14 #fce0c4 #fc0400 0;
#X obj 630 400 cnv 16 48 16 s-seq-smplr-cnv-186 r-seq-smplr-cnv-186
(88) 2 8 0 14 #fce0c4 #fc0400 0;
#X obj 664 400 cnv 16 48 16 s-seq-smplr-cnv-187 r-seq-smplr-cnv-187
(33) 2 8 0 14 #fce0c4 #fc0400 0;
#X obj 698 400 cnv 16 48 16 s-seq-smplr-cnv-188 r-seq-smplr-cnv-188
(1) 2 8 0 14 #fce0c4 #fc0400 0;
#X obj 732 400 cnv 16 48 16 s-seq-smplr-cnv-189 r-seq-smplr-cnv-189
(35) 2 8 0 14 #fce0c4 #fc0400 0;
#X obj 426 420 cnv 16 48 16 s-seq-smplr-cnv-190 r-seq-smplr-cnv-190
(66) 2 8 0 14 #fce0c4 #fc0400 0;
#X obj 460 420 cnv 16 48 16 s-seq-smplr-cnv-191 r-seq-smplr-cnv-191
(69) 2 8 0 14 #fce0c4 #fc0400 0;
#X obj 494 420 cnv 16 48 16 s-seq-smplr-cnv-192 r-seq-smplr-cnv-192
(6) 2 8 0 14 #fce0c4 #fc0400 0;
#X obj 528 420 cnv 16 48 16 s-seq-smplr-cnv-193 r-seq-smplr-cnv-193
(73) 2 8 0 14 #fce0c4 #fc0400 0;
#X obj 562 420 cnv 16 48 16 s-seq-smplr-cnv-194 r-seq-smplr-cnv-194
(54) 2 8 0 14 #fce0c4 #fc0400 0;
#X obj 596 420 cnv 16 48 16 s-seq-smplr-cnv-195 r-seq-smplr-cnv-195
(21) 2 8 0 14 #fce0c4 #fc0400 0;
#X obj 630 420 cnv 16 48 16 s-seq-smplr-cnv-196 r-seq-smplr-cnv-196
(89) 2 8 0 14 #fce0c4 #fc0400 0;
#X obj 664 420 cnv 16 48 16 s-seq-smplr-cnv-197 r-seq-smplr-cnv-197
(84) 2 8 0 14 #fce0c4 #fc0400 0;
#X obj 698 420 cnv 16 48 16 s-seq-smplr-cnv-198 r-seq-smplr-cnv-198
(25) 2 8 0 14 #fce0c4 #fc0400 0;
#X obj 732 420 cnv 16 48 16 s-seq-smplr-cnv-199 r-seq-smplr-cnv-199
(20) 2 8 0 14 #fce0c4 #fc0400 0;
#X floatatom 377 245 5 0 0 0 - - - 0;
#X obj 350 246 tgl 15 0 empty empty empty 17 7 0 10 #fcfcfc #000000
#000000 0 1;
#X obj 866 35 n_canvas 400 400 empty empty empty 10 10 11 16579836
65793 65793 200;
#N canvas 537 121 556 364 cnv 0;
#X obj 127 121 until;
#X msg 127 100 200;
#X msg 180 127 0;
#X obj 131 152 i;
#X obj 169 153 + 1;
#X obj 153 74 t b b;
#X obj 153 53 bng 15 250 50 0 empty empty empty 17 7 0 10 #fcfcfc #000000
#000000;
#X obj 177 316 s;
#X obj 96 216 random 100;
#X obj 153 30 inlet;
#X obj 131 175 t b f;
#X msg 167 214 symbol r-seq-smplr-cnv-\$1;
#X msg 102 276 label (\$1);
#X connect 0 0 3 0;
#X connect 1 0 0 0;
#X connect 2 0 3 1;
#X connect 3 0 4 0;
#X connect 3 0 10 0;
#X connect 4 0 3 1;
#X connect 5 0 1 0;
#X connect 5 1 2 0;
#X connect 6 0 5 0;
#X connect 8 0 12 0;
#X connect 9 0 6 0;
#X connect 10 0 8 0;
#X connect 10 1 11 0;
#X connect 11 0 7 1;
#X connect 12 0 7 0;
#X restore 808 105 pd cnv;
#N canvas 22 185 556 364 n_canvas 0;
#X obj 127 121 until;
#X msg 127 100 200;
#X msg 180 127 0;
#X obj 131 152 i;
#X obj 169 153 + 1;
#X obj 153 74 t b b;
#X obj 153 53 bng 15 250 50 0 empty empty empty 17 7 0 10 #fcfcfc #000000
#000000;
#X obj 153 30 inlet;
#X obj 186 247 pack f f;
#X obj 179 219 t f b;
#X obj 245 224 random 99;
#X obj 177 316 outlet;
#X msg 171 269 13 \$1 (\$2);
#X connect 0 0 3 0;
#X connect 1 0 0 0;
#X connect 2 0 3 1;
#X connect 3 0 4 0;
#X connect 3 0 9 0;
#X connect 4 0 3 1;
#X connect 5 0 1 0;
#X connect 5 1 2 0;
#X connect 6 0 5 0;
#X connect 7 0 6 0;
#X connect 8 0 12 0;
#X connect 9 0 8 0;
#X connect 9 1 10 0;
#X connect 10 0 8 1;
#X connect 12 0 11 0;
#X restore 1283 95 pd n_canvas;
#N canvas 229 96 684 527 init 0;
#X msg 316 187 maxel 200;
#X msg 286 187 200;
#X obj 258 325 pack f f f;
#X obj 286 231 t f f f;
#X obj 296 257 % 10;
#X obj 333 255 div 10;
#X obj 332 277 * 20;
#X msg 272 349 8 \$1 18 12 \$2 \$3 [\$1];
#X obj 283 282 * 40;
#X obj 283 305 + 5;
#X obj 328 303 + 10;
#X obj 293 143 loadbang;
#X obj 293 162 t b b;
#X obj 454 381 outlet;
#X obj 261 140 bng 15 250 50 0 empty empty empty 17 7 0 10 #fcfcfc
#000000 #000000;
#N canvas 0 50 450 300 itt 0;
#X obj 73 106 until;
#X obj 73 79 t f b;
#X msg 113 106 0;
#X obj 73 133 i;
#X obj 104 133 + 1;
#X obj 73 161 outlet;
#X obj 73 46 inlet n;
#X obj 124 65 inlet stop;
#X connect 0 0 3 0;
#X connect 1 0 0 0;
#X connect 1 1 2 0;
#X connect 2 0 3 1;
#X connect 3 0 4 0;
#X connect 3 0 5 0;
#X connect 4 0 3 1;
#X connect 6 0 1 0;
#X connect 7 0 0 1;
#X restore 279 207 pd itt;
#X connect 0 0 13 0;
#X connect 1 0 15 0;
#X connect 2 0 7 0;
#X connect 3 0 2 0;
#X connect 3 1 4 0;
#X connect 3 2 5 0;
#X connect 4 0 8 0;
#X connect 5 0 6 0;
#X connect 6 0 10 0;
#X connect 7 0 13 0;
#X connect 8 0 9 0;
#X connect 9 0 2 1;
#X connect 10 0 2 2;
#X connect 11 0 12 0;
#X connect 12 0 1 0;
#X connect 12 1 0 0;
#X connect 14 0 12 0;
#X connect 15 0 3 0;
#X restore 875 13 pd init;
#X obj 377 209 loadbang;
#X msg 377 227 250;
#X obj 350 264 metro;
#X obj 350 282 s \$0_m;
#N canvas 671 176 450 300 (subpatch) 0;
#X obj 48 136 spigot;
#X obj 100 100 tgl 20 0 empty empty empty 17 7 0 10 #fcfcfc #000000
#000000 0 1;
#X obj 42 69 r \$0_m, f 7;
#X obj 48 159 outlet;
#X connect 0 0 3 0;
#X connect 1 0 0 1;
#X connect 2 0 0 0;
#X coords 0 -1 1 1 20 20 2 100 100;
#X restore 357 75 pd;
#N canvas 518 122 450 300 nbx 0;
#X obj 127 121 until;
#X msg 127 100 200;
#X msg 180 127 0;
#X obj 131 152 i;
#X obj 169 153 + 1;
#X obj 153 74 t b b;
#X obj 153 53 bng 15 250 50 0 empty empty empty 17 7 0 10 #fcfcfc #000000
#000000;
#X obj 137 282 s;
#X msg 168 215 symbol r-seq-smplr-note99-\$1;
#X obj 96 216 random 100;
#X obj 153 30 inlet;
#X obj 131 175 t b f;
#X connect 0 0 3 0;
#X connect 1 0 0 0;
#X connect 2 0 3 1;
#X connect 3 0 4 0;
#X connect 3 0 11 0;
#X connect 4 0 3 1;
#X connect 5 0 1 0;
#X connect 5 1 2 0;
#X connect 6 0 5 0;
#X connect 8 0 7 1;
#X connect 9 0 7 0;
#X connect 10 0 6 0;
#X connect 11 0 9 0;
#X connect 11 1 8 0;
#X restore 357 97 pd nbx;
#N canvas 671 176 450 300 (subpatch) 0;
#X obj 48 136 spigot;
#X obj 100 100 tgl 20 0 empty empty empty 17 7 0 10 #fcfcfc #000000
#000000 0 1;
#X obj 42 69 r \$0_m, f 7;
#X obj 48 159 outlet;
#X connect 0 0 3 0;
#X connect 1 0 0 1;
#X connect 2 0 0 0;
#X coords 0 -1 1 1 20 20 2 100 100;
#X restore 808 83 pd;
#N canvas 671 176 450 300 (subpatch) 0;
#X obj 48 136 spigot;
#X obj 100 100 tgl 20 0 empty empty empty 17 7 0 10 #fcfcfc #000000
#000000 0 1;
#X obj 42 69 r \$0_m, f 7;
#X obj 48 159 outlet;
#X connect 0 0 3 0;
#X connect 1 0 0 1;
#X connect 2 0 0 0;
#X coords 0 -1 1 1 20 20 2 100 100;
#X restore 1283 73 pd;
#X obj 1283 118 s \$0_tocnv;
#X obj 805 14 r \$0_tocnv;
#X connect 400 0 408 1;
#X connect 401 0 408 0;
#X connect 404 0 414 0;
#X connect 405 0 402 0;
#X connect 406 0 407 0;
#X connect 407 0 400 0;
#X connect 408 0 409 0;
#X connect 410 0 411 0;
#X connect 412 0 403 0;
#X connect 413 0 404 0;
#X connect 415 0 402 0;
#X restore 355 247 pd test;
#N canvas 188 165 569 327 color 0;
#X obj 14 47 n_canvas 100 100 empty \\\$0_color n_canvas 0 -10 11 4813160
4813160 0 1;
#X obj 14 169 cnv 15 100 100 empty \$0_color canvas 0 -10 0 11 #497167
#000000 0;
#X floatatom 326 192 5 0 0 2 color - - 0;
#X obj 326 231 s \$0_color;
#X obj 337 106 t b f;
#X obj 337 126 +, f 5;
#X obj 265 165 +;
#X obj 337 146 t b f;
#X obj 301 106 << 8;
#X obj 265 106 << 16;
#X obj 265 195 * -1;
#X floatatom 265 88 5 1 255 2 R - - 0;
#X floatatom 301 88 5 1 255 2 G - - 0;
#X floatatom 337 88 5 1 255 2 B - - 0;
#X msg 326 211 color \$1 \$1 22;
#X msg 398 72 1;
#X obj 398 54 loadbang;
#X connect 2 0 14 0;
#X connect 4 0 5 0;
#X connect 4 1 5 1;
#X connect 5 0 7 0;
#X connect 6 0 10 0;
#X connect 7 0 6 0;
#X connect 7 1 6 1;
#X connect 8 0 5 0;
#X connect 9 0 6 0;
#X connect 10 0 14 0;
#X connect 11 0 9 0;
#X connect 12 0 8 0;
#X connect 13 0 4 0;
#X connect 14 0 3 0;
#X connect 15 0 11 0;
#X connect 15 0 12 0;
#X connect 15 0 13 0;
#X connect 16 0 15 0;
#X restore 355 229 pd color;
#N canvas 0 158 1406 460 edit 0;
#X obj 218 55 n_canvas 20 20 \\\$0_s_abc \\\$0_r_abc NioCanvas 20 20
20 14476540 3952892 3952892 100;
#X msg 775 58 size 20 20;
#X obj 768 79 s \$0_r_abc;
#X obj 768 137 r \$0_s_abc;
#X msg 768 36 size 100 100;
#X msg 896 60 size 20 20;
#X msg 889 38 size 100 100;
#X obj 889 81 s \$0_r_dfg;
#X obj 889 139 r \$0_s_dfg;
#X msg 172 260 send;
#X msg 188 296 send AAA;
#X msg 181 278 send empty;
#X msg 335 263 receive;
#X msg 344 281 receive empty;
#X msg 507 254 label;
#X msg 513 272 label empty;
#X msg 521 290 label Label;
#X msg 351 299 receive BBB;
#X msg 528 308 label NioCanvas;
#X msg 359 371 receive \$1;
#X obj 359 353 makefilename \\\$0_%s;
#X obj 202 350 makefilename \\\$0_%s;
#X msg 202 368 send \$1;
#X obj 536 363 makefilename \\\$0_%s;
#X msg 536 381 label \$1;
#X msg 536 326 symbol label;
#X msg 545 344 symbol ncnv;
#X obj 172 384 s \$0_da;
#X obj 335 387 s \$0_da;
#X obj 507 397 s \$0_da;
#X obj 218 31 r \$0_da;
#X msg 202 314 symbol s_abc;
#X msg 212 332 symbol s_dfg;
#X msg 359 317 symbol r_abc;
#X msg 365 335 symbol r_dfg;
#X msg 69 331 size 20 20;
#X msg 62 313 size 100 100;
#X obj 62 349 s \$0_da;
#X text 539 230 set label;
#X text 361 232 set receive;
#X text 204 232 set send;
#X text 76 280 set size;
#X obj 697 347 s \$0_da;
#X obj 864 357 s \$0_da;
#X text 863 250 set label font size;
#X msg 873 299 label_font 20;
#X msg 864 281 label_font 12;
#X floatatom 881 320 5 0 0 0 - - - 0;
#X msg 881 337 label_font \$1;
#X text 694 274 set label font position;
#X msg 697 307 label_pos 10 10;
#X msg 706 326 label_pos 20 20;
#X text 1201 253 set color;
#X floatatom 1185 292 5 0 0 2 backgroud - - 0;
#X floatatom 1255 292 5 0 0 2 frame - - 0;
#X floatatom 1325 292 5 0 0 2 label - - 0;
#X obj 1325 312 t b f;
#X obj 1255 312 t b f;
#X obj 1185 328 pack f f f;
#X msg 1185 346 color \$1 \$2 \$3;
#X obj 1185 365 s \$0_da;
#X text 643 58 send to n_canvas;
#X text 615 150 receive from n_canvas;
#X obj 1029 341 s \$0_da;
#X text 1008 278 set amount of elements;
#X msg 1029 305 maxel 1;
#X msg 1035 323 maxel 100;
#X obj 768 158 print from_abc;
#X obj 889 160 print from_dfg;
#X connect 1 0 2 0;
#X connect 3 0 67 0;
#X connect 4 0 2 0;
#X connect 5 0 7 0;
#X connect 6 0 7 0;
#X connect 8 0 68 0;
#X connect 9 0 27 0;
#X connect 10 0 27 0;
#X connect 11 0 27 0;
#X connect 12 0 28 0;
#X connect 13 0 28 0;
#X connect 14 0 29 0;
#X connect 15 0 29 0;
#X connect 16 0 29 0;
#X connect 17 0 28 0;
#X connect 18 0 29 0;
#X connect 19 0 28 0;
#X connect 20 0 19 0;
#X connect 21 0 22 0;
#X connect 22 0 27 0;
#X connect 23 0 24 0;
#X connect 24 0 29 0;
#X connect 25 0 23 0;
#X connect 26 0 23 0;
#X connect 30 0 0 0;
#X connect 31 0 21 0;
#X connect 32 0 21 0;
#X connect 33 0 20 0;
#X connect 34 0 20 0;
#X connect 35 0 37 0;
#X connect 36 0 37 0;
#X connect 45 0 43 0;
#X connect 46 0 43 0;
#X connect 47 0 48 0;
#X connect 48 0 43 0;
#X connect 50 0 42 0;
#X connect 51 0 42 0;
#X connect 53 0 58 0;
#X connect 54 0 57 0;
#X connect 55 0 56 0;
#X connect 56 0 58 0;
#X connect 56 1 58 2;
#X connect 57 0 58 0;
#X connect 57 1 58 1;
#X connect 58 0 59 0;
#X connect 59 0 60 0;
#X connect 65 0 63 0;
#X connect 66 0 63 0;
#X restore 355 137 pd edit;
#N canvas 619 56 950 592 draw 0;
#X msg 149 37 1 0 13 1 0 0 100 100;
#X msg 156 55 1 0 22 3 10 10 90 90;
#X msg 164 73 1 0 18 0 90 10 10 90;
#X obj 149 92 s \$0_draw;
#X text 20 16 erase: 0 id;
#X msg 28 34 0 0;
#X obj 28 53 s \$0_draw;
#X text 116 15 line: 1 id color widtch x0 y0 x1 y1;
#X msg 390 37 2 0 13 1 0 0 100 100;
#X msg 400 55 2 0 22 3 10 10 90 90;
#X msg 418 91 2 0 18 0 25 25 75 75;
#X msg 408 73 2 0 18 10 25 25 75 75;
#X obj 390 109 s \$0_draw;
#X text 366 15 rect: 2 id color widtch x0 y0 x1 y1;
#X obj 629 108 s \$0_draw;
#X msg 629 36 3 0 13 4 1 0 0 100 100;
#X msg 639 54 3 0 22 5 3 10 10 90 90;
#X msg 647 72 3 0 18 6 10 25 25 75 75;
#X msg 657 90 3 0 18 7 0 25 25 75 75;
#X text 605 16 rect filled: 3 id fcolor bcolor widtch x0 y0 x1 y1;
#X msg 55 167 4 0 13 1 0 0 100 100;
#X msg 63 185 4 0 22 3 10 10 90 90;
#X msg 79 221 4 0 18 0 50 25 100 100;
#X msg 70 203 4 0 18 10 25 40 90 90;
#X obj 55 240 s \$0_draw;
#X text 19 144 oval: 4 id color widtch x0 y0 x1 y1;
#X obj 339 240 s \$0_draw;
#X text 269 144 oval filled: 5 id fcolor bcolor widtch x0 y0 x1 y1
;
#X msg 339 167 5 0 13 5 1 0 0 100 100;
#X msg 346 186 5 0 22 7 3 10 10 90 90;
#X msg 354 202 5 0 18 9 10 25 40 90 90;
#X msg 363 221 5 0 18 5 0 50 25 100 100;
#X msg 59 318 6 0 22 3 45 270 10 10 90 90;
#X msg 51 300 6 0 13 1 0 90 5 5 95 95;
#X msg 65 336 6 0 18 3 110 45 25 40 90 90;
#X obj 51 373 s \$0_draw;
#X text 12 277 arc: 6 id color widtch start ex x0 y0 x1 y1;
#X msg 76 354 6 0 18 5 50 125 60 25 100 100;
#X obj 341 373 s \$0_draw;
#X text 303 277 arc filled: 7 id fcolor bcolor widtch start ex x0 y0
x1 y1;
#X msg 341 300 7 0 13 5 1 0 90 5 5 95 95;
#X msg 349 318 7 0 22 6 3 45 270 10 10 90 90;
#X msg 355 336 7 0 18 7 3 110 45 25 40 90 90;
#X msg 366 354 7 0 18 8 5 50 125 60 25 100 100;
#X msg 722 232 8 0 13 14 10 20 Text;
#X msg 729 250 8 0 22 11 10 30 Another_text;
#X msg 737 268 8 0 27 34 20 30 ABC!;
#X obj 722 304 s \$0_draw;
#X text 695 211 text: 8 id color fontsize x0 y0 text;
#X msg 741 286 8 0 18 18 20 40 !@#$%^&*()_+;
#X msg 40 456 9 0 0 0;
#X msg 47 474 9 0 0 0 100 100;
#X msg 54 492 9 0 0 0 50 50;
#X msg 61 510 9 0 10 10 90 90;
#X msg 68 528 9 0 10 90 90 10;
#X obj 40 546 s \$0_draw;
#X text 18 436 move: 9 id x0 y0 x1 y1;
#X msg 224 462 10 0 10 20;
#X msg 232 480 10 0 3 15;
#X msg 238 498 10 0 13 21;
#X msg 248 516 10 0 17 13;
#X obj 224 534 s \$0_draw;
#X text 184 435 color: 10 id (f)color bcolor;
#X msg 418 460 11 0 1;
#X msg 426 478 11 0 4;
#X msg 439 514 11 0 10;
#X msg 446 532 11 0 20;
#X msg 433 496 11 0 0;
#X obj 418 550 s \$0_draw;
#X text 375 434 fontsize/widtch: 11 id v;
#X msg 605 459 12 0 180 90;
#X msg 611 477 12 0 45 270;
#X msg 616 495 12 0 55 280;
#X msg 622 513 12 0 45 45;
#X obj 605 532 s \$0_draw;
#X text 545 433 start-ex(for arc): 12 id start ex;
#X msg 825 461 13 0 ABCDEFG;
#X msg 842 515 13 0 PureData;
#X obj 825 533 s \$0_draw;
#X text 805 434 text: 13 id text;
#X msg 831 479 13 0 Canvas;
#X msg 837 497 13 0 Something;
#X connect 0 0 3 0;
#X connect 1 0 3 0;
#X connect 2 0 3 0;
#X connect 5 0 6 0;
#X connect 8 0 12 0;
#X connect 9 0 12 0;
#X connect 10 0 12 0;
#X connect 11 0 12 0;
#X connect 15 0 14 0;
#X connect 16 0 14 0;
#X connect 17 0 14 0;
#X connect 18 0 14 0;
#X connect 20 0 24 0;
#X connect 21 0 24 0;
#X connect 22 0 24 0;
#X connect 23 0 24 0;
#X connect 28 0 26 0;
#X connect 29 0 26 0;
#X connect 30 0 26 0;
#X connect 31 0 26 0;
#X connect 32 0 35 0;
#X connect 33 0 35 0;
#X connect 34 0 35 0;
#X connect 37 0 35 0;
#X connect 40 0 38 0;
#X connect 41 0 38 0;
#X connect 42 0 38 0;
#X connect 43 0 38 0;
#X connect 44 0 47 0;
#X connect 45 0 47 0;
#X connect 46 0 47 0;
#X connect 49 0 47 0;
#X connect 50 0 55 0;
#X connect 51 0 55 0;
#X connect 52 0 55 0;
#X connect 53 0 55 0;
#X connect 54 0 55 0;
#X connect 57 0 61 0;
#X connect 58 0 61 0;
#X connect 59 0 61 0;
#X connect 60 0 61 0;
#X connect 63 0 68 0;
#X connect 64 0 68 0;
#X connect 65 0 68 0;
#X connect 66 0 68 0;
#X connect 67 0 68 0;
#X connect 70 0 74 0;
#X connect 71 0 74 0;
#X connect 72 0 74 0;
#X connect 73 0 74 0;
#X connect 76 0 78 0;
#X connect 77 0 78 0;
#X connect 80 0 78 0;
#X connect 81 0 78 0;
#X restore 355 155 pd draw;
#X text 350 107 examples:;
#X obj 59 138 n_canvas 100 100 empty \\\$0_draw empty 10 10 11 16579836
65793 65793 4;
#N canvas 259 74 1107 692 test2 0;
#X floatatom 98 51 5 0 0 0 - - - 0;
#X obj 71 52 tgl 15 0 empty empty empty 17 7 0 10 #fcfcfc #000000 #000000
0 1;
#X obj 71 152 n_canvas 1000 520 empty empty empty 10 10 11 10461087
65793 65793 640;
#N canvas 457 117 556 364 n_canvas 0;
#X obj 127 121 until;
#X msg 180 127 0;
#X obj 131 152 i;
#X obj 169 153 + 1;
#X obj 153 74 t b b;
#X obj 153 53 bng 15 250 50 0 empty empty empty 17 7 0 10 #fcfcfc #000000
#000000;
#X obj 153 30 inlet;
#X obj 146 334 outlet;
#X obj 177 191 t f b b b;
#X obj 204 224 random 99;
#X obj 276 218 random 99;
#X obj 346 214 random 99;
#X obj 254 289 makefilename [%2d;
#X obj 279 256 makefilename %2d;
#X obj 356 236 makefilename %2d];
#X obj 400 186 random 99;
#X obj 145 260 pack f s s s f;
#X msg 127 100 640;
#X msg 62 294 13 \$1 \$2:\$4 \, 10 \$1 \$5 \$5;
#X connect 0 0 2 0;
#X connect 1 0 2 1;
#X connect 2 0 3 0;
#X connect 2 0 8 0;
#X connect 3 0 2 1;
#X connect 4 0 17 0;
#X connect 4 1 1 0;
#X connect 5 0 4 0;
#X connect 6 0 5 0;
#X connect 8 0 16 0;
#X connect 8 1 9 0;
#X connect 8 2 10 0;
#X connect 8 3 11 0;
#X connect 8 3 15 0;
#X connect 9 0 12 0;
#X connect 10 0 13 0;
#X connect 11 0 14 0;
#X connect 12 0 16 1;
#X connect 13 0 16 2;
#X connect 14 0 16 3;
#X connect 15 0 16 4;
#X connect 16 0 18 0;
#X connect 17 0 0 0;
#X connect 18 0 7 0;
#X restore 71 109 pd n_canvas;
#N canvas 682 63 684 527 init 0;
#X obj 258 325 pack f f f;
#X obj 286 231 t f f f;
#X msg 272 349 8 \$1 18 12 \$2 \$3 [\$1];
#X obj 283 305 + 5;
#X obj 328 303 + 10;
#X obj 293 143 loadbang;
#X obj 293 162 t b b;
#X obj 454 381 outlet;
#X obj 261 140 bng 15 250 50 0 empty empty empty 17 7 0 10 #fcfcfc
#000000 #000000;
#X obj 332 277 * 16;
#X msg 286 186 640;
#X msg 320 189 maxel 640;
#X obj 333 255 div 20;
#X obj 295 257 % 20;
#X obj 282 282 * 50;
#N canvas 0 50 450 300 itt 0;
#X obj 73 106 until;
#X obj 73 79 t f b;
#X msg 113 106 0;
#X obj 73 133 i;
#X obj 104 133 + 1;
#X obj 73 161 outlet;
#X obj 73 46 inlet n;
#X obj 124 65 inlet stop;
#X connect 0 0 3 0;
#X connect 1 0 0 0;
#X connect 1 1 2 0;
#X connect 2 0 3 1;
#X connect 3 0 4 0;
#X connect 3 0 5 0;
#X connect 4 0 3 1;
#X connect 6 0 1 0;
#X connect 7 0 0 1;
#X restore 269 205 pd itt;
#X connect 0 0 2 0;
#X connect 1 0 0 0;
#X connect 1 1 13 0;
#X connect 1 2 12 0;
#X connect 2 0 7 0;
#X connect 3 0 0 1;
#X connect 4 0 0 2;
#X connect 5 0 6 0;
#X connect 6 0 10 0;
#X connect 6 1 11 0;
#X connect 8 0 6 0;
#X connect 9 0 4 0;
#X connect 10 0 15 0;
#X connect 11 0 7 0;
#X connect 12 0 9 0;
#X connect 13 0 14 0;
#X connect 14 0 3 0;
#X connect 15 0 1 0;
#X restore 80 130 pd init;
#X obj 98 15 loadbang;
#X msg 98 33 250;
#X obj 71 70 metro;
#X floatatom 196 9 5 0 0 0 bpm - - 0;
#X floatatom 196 53 5 0 0 0 1/96ms - - 0;
#X obj 196 71 * 6;
#X floatatom 196 90 5 0 0 0 1/16ms - - 0;
#N canvas 0 50 450 300 bpmto96 0;
#X obj 96 65 inlet;
#X obj 96 145 outlet;
#X obj 96 85 max 1;
#X msg 96 105 2500 \$1;
#X obj 96 125 /;
#X connect 0 0 2 0;
#X connect 2 0 3 0;
#X connect 3 0 4 0;
#X connect 4 0 1 0;
#X restore 191 27 pd bpmto96;
#X connect 0 0 7 1;
#X connect 1 0 7 0;
#X connect 3 0 2 0;
#X connect 4 0 2 0;
#X connect 5 0 6 0;
#X connect 6 0 0 0;
#X connect 7 0 3 0;
#X connect 8 0 12 0;
#X connect 9 0 10 0;
#X connect 10 0 11 0;
#X connect 11 0 7 1;
#X connect 12 0 9 0;
#X restore 355 265 pd test2;
#N canvas 178 65 1188 683 test3 0;
#X obj 73 121 n_canvas 1024 40 empty empty empty 10 10 11 16579836
65793 65793 1024;
#X obj 20 8 tgl 15 0 empty empty empty 17 7 0 10 #fcfcfc #000000 #000000
0 1;
#X obj 20 26 metro 250;
#X floatatom 71 6 5 0 100000 0 - - - 0;
#N canvas 485 45 459 525 (subpatch) 0;
#N canvas 0 50 450 300 itt 0;
#X obj 73 106 until;
#X obj 73 79 t f b;
#X msg 113 106 0;
#X obj 73 133 i;
#X obj 104 133 + 1;
#X obj 73 161 outlet;
#X obj 73 46 inlet n;
#X obj 124 65 inlet stop;
#X connect 0 0 3 0;
#X connect 1 0 0 0;
#X connect 1 1 2 0;
#X connect 2 0 3 1;
#X connect 3 0 4 0;
#X connect 3 0 5 0;
#X connect 4 0 3 1;
#X connect 6 0 1 0;
#X connect 7 0 0 1;
#X restore 104 285 pd itt;
#X msg 104 242 1024;
#X obj 104 261 t f f;
#X msg 166 276 maxel \$1;
#X msg 88 379 1 \$1 13 1 \$1 \$2 \$1 \$3;
#X obj 106 305 t f b;
#N canvas 0 50 450 300 itt 0;
#X obj 73 106 until;
#X obj 73 79 t f b;
#X msg 113 106 0;
#X obj 73 133 i;
#X obj 104 133 + 1;
#X obj 73 161 outlet;
#X obj 73 46 inlet n;
#X obj 124 65 inlet stop;
#X connect 0 0 3 0;
#X connect 1 0 0 0;
#X connect 1 1 2 0;
#X connect 2 0 3 1;
#X connect 3 0 4 0;
#X connect 3 0 5 0;
#X connect 4 0 3 1;
#X connect 6 0 1 0;
#X connect 7 0 0 1;
#X restore 234 287 pd itt;
#X msg 234 247 1024;
#X obj 234 267 t f f;
#X obj 234 305 t f b;
#X msg 233 389 9 \$1 \$1 \$2 \$1 \$3;
#X obj 252 206 tgl 15 0 empty empty go 17 7 0 10 #fcfcfc #000000 #000000
0 1;
#X obj 234 228 metro 250;
#X floatatom 147 138 5 0 100000 0 height - - 0;
#X obj 162 343 random 200;
#X obj 129 321 random 200;
#X obj 248 333 random 200;
#X obj 274 349 random 200;
#X obj 145 437 outlet;
#X obj 139 108 bng 15 250 50 0 empty empty init 17 7 0 10 #fcfcfc #000000
#000000;
#X obj 330 175 inlet;
#X obj 102 359 pack f f f f;
#X obj 234 371 pack f f f f;
#X msg 241 424 size 1024 \$1;
#X obj 209 29 loadbang;
#X msg 211 75 40;
#X obj 185 51 t b b;
#X connect 0 0 5 0;
#X connect 1 0 2 0;
#X connect 2 0 0 0;
#X connect 2 1 3 0;
#X connect 4 0 18 0;
#X connect 5 0 21 0;
#X connect 5 1 14 0;
#X connect 5 1 15 0;
#X connect 6 0 9 0;
#X connect 7 0 8 0;
#X connect 8 0 6 0;
#X connect 9 0 22 0;
#X connect 9 1 16 0;
#X connect 9 1 17 0;
#X connect 10 0 18 0;
#X connect 11 0 12 0;
#X connect 12 0 7 0;
#X connect 13 0 15 1;
#X connect 13 0 14 1;
#X connect 13 0 16 1;
#X connect 13 0 17 1;
#X connect 13 0 23 0;
#X connect 14 0 21 2;
#X connect 15 0 21 1;
#X connect 16 0 22 1;
#X connect 17 0 22 2;
#X connect 19 0 1 0;
#X connect 20 0 7 0;
#X connect 21 0 4 0;
#X connect 22 0 10 0;
#X connect 23 0 18 0;
#X connect 24 0 26 0;
#X connect 25 0 13 0;
#X connect 26 0 19 0;
#X connect 26 1 25 0;
#X coords 0 -1 1 1 85 60 2 100 100;
#X restore 75 51 pd;
#X obj 67 263 n_canvas 1024 40 empty empty empty 10 10 11 16579836
65793 65793 1024;
#X obj 229 30 hsl 128 15 0 127 0 0 empty empty empty -2 -8 0 10 #fcfcfc
#000000 #000000 0 0;
#X obj 22 47 t b;
#N canvas 0 50 485 417 sl 0;
#X obj 122 17 inlet;
#X obj 146 326 outlet;
#X obj 221 261 delay \$1;
#X msg 328 177 0;
#X msg 287 158 1;
#X obj 146 308 f;
#X obj 221 228 t b b;
#X obj 54 131 spigot 1;
#X msg 99 101 0;
#X obj 54 150 t b b;
#X obj 258 344 i;
#X obj 122 35 t b b f;
#X obj 303 309 == 0;
#X obj 221 194 spigot 1;
#X obj 249 293 t b b;
#X obj 398 183 inlet;
#X connect 0 0 11 0;
#X connect 2 0 14 0;
#X connect 3 0 12 0;
#X connect 3 0 13 1;
#X connect 4 0 12 0;
#X connect 4 0 13 1;
#X connect 5 0 1 0;
#X connect 6 0 2 0;
#X connect 6 0 5 0;
#X connect 6 1 3 0;
#X connect 7 0 9 0;
#X connect 8 0 7 1;
#X connect 9 0 13 0;
#X connect 9 1 8 0;
#X connect 10 0 7 1;
#X connect 11 0 7 0;
#X connect 11 1 4 0;
#X connect 11 2 5 1;
#X connect 12 0 10 1;
#X connect 13 0 6 0;
#X connect 14 0 13 0;
#X connect 14 1 10 0;
#X connect 15 0 2 1;
#X restore 18 143 pd sl;
#X floatatom 35 110 5 0 0 0 - - - 0;
#X msg 24 74 1;
#X obj 22 166 t b;
#X obj 9 246 timer;
#X floatatom 9 265 0 0 0 0 - - - 0;
#X obj 9 227 t b b;
#N canvas 485 45 459 525 (subpatch) 0;
#N canvas 0 50 450 300 itt 0;
#X obj 73 106 until;
#X obj 73 79 t f b;
#X msg 113 106 0;
#X obj 73 133 i;
#X obj 104 133 + 1;
#X obj 73 161 outlet;
#X obj 73 46 inlet n;
#X obj 124 65 inlet stop;
#X connect 0 0 3 0;
#X connect 1 0 0 0;
#X connect 1 1 2 0;
#X connect 2 0 3 1;
#X connect 3 0 4 0;
#X connect 3 0 5 0;
#X connect 4 0 3 1;
#X connect 6 0 1 0;
#X connect 7 0 0 1;
#X restore 104 285 pd itt;
#X msg 104 242 1024;
#X obj 104 261 t f f;
#X msg 166 276 maxel \$1;
#X msg 88 379 1 \$1 13 1 \$1 \$2 \$1 \$3;
#X obj 106 305 t f b;
#N canvas 0 50 450 300 itt 0;
#X obj 73 106 until;
#X obj 73 79 t f b;
#X msg 113 106 0;
#X obj 73 133 i;
#X obj 104 133 + 1;
#X obj 73 161 outlet;
#X obj 73 46 inlet n;
#X obj 124 65 inlet stop;
#X connect 0 0 3 0;
#X connect 1 0 0 0;
#X connect 1 1 2 0;
#X connect 2 0 3 1;
#X connect 3 0 4 0;
#X connect 3 0 5 0;
#X connect 4 0 3 1;
#X connect 6 0 1 0;
#X connect 7 0 0 1;
#X restore 234 287 pd itt;
#X msg 234 247 1024;
#X obj 234 267 t f f;
#X obj 234 305 t f b;
#X msg 233 389 9 \$1 \$1 \$2 \$1 \$3;
#X obj 252 206 tgl 15 0 empty empty go 17 7 0 10 #fcfcfc #000000 #000000
0 1;
#X obj 234 228 metro 250;
#X floatatom 147 138 5 0 100000 0 height - - 0;
#X obj 162 343 random 200;
#X obj 129 321 random 200;
#X obj 248 333 random 200;
#X obj 274 349 random 200;
#X obj 145 437 outlet;
#X obj 139 108 bng 15 250 50 0 empty empty init 17 7 0 10 #fcfcfc #000000
#000000;
#X obj 330 175 inlet;
#X obj 102 359 pack f f f f;
#X obj 234 371 pack f f f f;
#X msg 241 424 size 1024 \$1;
#X obj 209 29 loadbang;
#X msg 211 75 40;
#X obj 185 51 t b b;
#X connect 0 0 5 0;
#X connect 1 0 2 0;
#X connect 2 0 0 0;
#X connect 2 1 3 0;
#X connect 4 0 18 0;
#X connect 5 0 21 0;
#X connect 5 1 14 0;
#X connect 5 1 15 0;
#X connect 6 0 9 0;
#X connect 7 0 8 0;
#X connect 8 0 6 0;
#X connect 9 0 22 0;
#X connect 9 1 16 0;
#X connect 9 1 17 0;
#X connect 10 0 18 0;
#X connect 11 0 12 0;
#X connect 12 0 7 0;
#X connect 13 0 15 1;
#X connect 13 0 14 1;
#X connect 13 0 16 1;
#X connect 13 0 17 1;
#X connect 13 0 23 0;
#X connect 14 0 21 2;
#X connect 15 0 21 1;
#X connect 16 0 22 1;
#X connect 17 0 22 2;
#X connect 19 0 1 0;
#X connect 20 0 7 0;
#X connect 21 0 4 0;
#X connect 22 0 10 0;
#X connect 23 0 18 0;
#X connect 24 0 26 0;
#X connect 25 0 13 0;
#X connect 26 0 19 0;
#X connect 26 1 25 0;
#X coords 0 -1 1 1 85 60 2 100 100;
#X restore 67 191 pd;
#X obj 77 411 n_canvas 1024 40 empty empty empty 10 10 11 16579836
65793 65793 1024;
#N canvas 485 45 459 525 (subpatch) 0;
#N canvas 0 50 450 300 itt 0;
#X obj 73 106 until;
#X obj 73 79 t f b;
#X msg 113 106 0;
#X obj 73 133 i;
#X obj 104 133 + 1;
#X obj 73 161 outlet;
#X obj 73 46 inlet n;
#X obj 124 65 inlet stop;
#X connect 0 0 3 0;
#X connect 1 0 0 0;
#X connect 1 1 2 0;
#X connect 2 0 3 1;
#X connect 3 0 4 0;
#X connect 3 0 5 0;
#X connect 4 0 3 1;
#X connect 6 0 1 0;
#X connect 7 0 0 1;
#X restore 104 285 pd itt;
#X msg 104 242 1024;
#X obj 104 261 t f f;
#X msg 166 276 maxel \$1;
#X msg 88 379 1 \$1 13 1 \$1 \$2 \$1 \$3;
#X obj 106 305 t f b;
#N canvas 0 50 450 300 itt 0;
#X obj 73 106 until;
#X obj 73 79 t f b;
#X msg 113 106 0;
#X obj 73 133 i;
#X obj 104 133 + 1;
#X obj 73 161 outlet;
#X obj 73 46 inlet n;
#X obj 124 65 inlet stop;
#X connect 0 0 3 0;
#X connect 1 0 0 0;
#X connect 1 1 2 0;
#X connect 2 0 3 1;
#X connect 3 0 4 0;
#X connect 3 0 5 0;
#X connect 4 0 3 1;
#X connect 6 0 1 0;
#X connect 7 0 0 1;
#X restore 234 287 pd itt;
#X msg 234 247 1024;
#X obj 234 267 t f f;
#X obj 234 305 t f b;
#X msg 233 389 9 \$1 \$1 \$2 \$1 \$3;
#X obj 252 206 tgl 15 0 empty empty go 17 7 0 10 #fcfcfc #000000 #000000
0 1;
#X obj 234 228 metro 250;
#X floatatom 147 138 5 0 100000 0 height - - 0;
#X obj 162 343 random 200;
#X obj 129 321 random 200;
#X obj 248 333 random 200;
#X obj 274 349 random 200;
#X obj 145 437 outlet;
#X obj 139 108 bng 15 250 50 0 empty empty init 17 7 0 10 #fcfcfc #000000
#000000;
#X obj 330 175 inlet;
#X obj 102 359 pack f f f f;
#X obj 234 371 pack f f f f;
#X msg 241 424 size 1024 \$1;
#X obj 209 29 loadbang;
#X msg 211 75 40;
#X obj 185 51 t b b;
#X connect 0 0 5 0;
#X connect 1 0 2 0;
#X connect 2 0 0 0;
#X connect 2 1 3 0;
#X connect 4 0 18 0;
#X connect 5 0 21 0;
#X connect 5 1 14 0;
#X connect 5 1 15 0;
#X connect 6 0 9 0;
#X connect 7 0 8 0;
#X connect 8 0 6 0;
#X connect 9 0 22 0;
#X connect 9 1 16 0;
#X connect 9 1 17 0;
#X connect 10 0 18 0;
#X connect 11 0 12 0;
#X connect 12 0 7 0;
#X connect 13 0 15 1;
#X connect 13 0 14 1;
#X connect 13 0 16 1;
#X connect 13 0 17 1;
#X connect 13 0 23 0;
#X connect 14 0 21 2;
#X connect 15 0 21 1;
#X connect 16 0 22 1;
#X connect 17 0 22 2;
#X connect 19 0 1 0;
#X connect 20 0 7 0;
#X connect 21 0 4 0;
#X connect 22 0 10 0;
#X connect 23 0 18 0;
#X connect 24 0 26 0;
#X connect 25 0 13 0;
#X connect 26 0 19 0;
#X connect 26 1 25 0;
#X coords 0 -1 1 1 85 60 2 100 100;
#X restore 60 333 pd;
#X obj 77 555 n_canvas 1024 40 empty empty empty 10 10 11 16579836
65793 65793 1024;
#N canvas 485 45 459 525 (subpatch) 0;
#N canvas 0 50 450 300 itt 0;
#X obj 73 106 until;
#X obj 73 79 t f b;
#X msg 113 106 0;
#X obj 73 133 i;
#X obj 104 133 + 1;
#X obj 73 161 outlet;
#X obj 73 46 inlet n;
#X obj 124 65 inlet stop;
#X connect 0 0 3 0;
#X connect 1 0 0 0;
#X connect 1 1 2 0;
#X connect 2 0 3 1;
#X connect 3 0 4 0;
#X connect 3 0 5 0;
#X connect 4 0 3 1;
#X connect 6 0 1 0;
#X connect 7 0 0 1;
#X restore 104 285 pd itt;
#X msg 104 242 1024;
#X obj 104 261 t f f;
#X msg 166 276 maxel \$1;
#X msg 88 379 1 \$1 13 1 \$1 \$2 \$1 \$3;
#X obj 106 305 t f b;
#N canvas 0 50 450 300 itt 0;
#X obj 73 106 until;
#X obj 73 79 t f b;
#X msg 113 106 0;
#X obj 73 133 i;
#X obj 104 133 + 1;
#X obj 73 161 outlet;
#X obj 73 46 inlet n;
#X obj 124 65 inlet stop;
#X connect 0 0 3 0;
#X connect 1 0 0 0;
#X connect 1 1 2 0;
#X connect 2 0 3 1;
#X connect 3 0 4 0;
#X connect 3 0 5 0;
#X connect 4 0 3 1;
#X connect 6 0 1 0;
#X connect 7 0 0 1;
#X restore 234 287 pd itt;
#X msg 234 247 1024;
#X obj 234 267 t f f;
#X obj 234 305 t f b;
#X msg 233 389 9 \$1 \$1 \$2 \$1 \$3;
#X obj 252 206 tgl 15 0 empty empty go 17 7 0 10 #fcfcfc #000000 #000000
0 1;
#X obj 234 228 metro 250;
#X floatatom 147 138 5 0 100000 0 height - - 0;
#X obj 162 343 random 200;
#X obj 129 321 random 200;
#X obj 248 333 random 200;
#X obj 274 349 random 200;
#X obj 145 437 outlet;
#X obj 139 108 bng 15 250 50 0 empty empty init 17 7 0 10 #fcfcfc #000000
#000000;
#X obj 330 175 inlet;
#X obj 102 359 pack f f f f;
#X obj 234 371 pack f f f f;
#X msg 241 424 size 1024 \$1;
#X obj 209 29 loadbang;
#X msg 211 75 40;
#X obj 185 51 t b b;
#X connect 0 0 5 0;
#X connect 1 0 2 0;
#X connect 2 0 0 0;
#X connect 2 1 3 0;
#X connect 4 0 18 0;
#X connect 5 0 21 0;
#X connect 5 1 14 0;
#X connect 5 1 15 0;
#X connect 6 0 9 0;
#X connect 7 0 8 0;
#X connect 8 0 6 0;
#X connect 9 0 22 0;
#X connect 9 1 16 0;
#X connect 9 1 17 0;
#X connect 10 0 18 0;
#X connect 11 0 12 0;
#X connect 12 0 7 0;
#X connect 13 0 15 1;
#X connect 13 0 14 1;
#X connect 13 0 16 1;
#X connect 13 0 17 1;
#X connect 13 0 23 0;
#X connect 14 0 21 2;
#X connect 15 0 21 1;
#X connect 16 0 22 1;
#X connect 17 0 22 2;
#X connect 19 0 1 0;
#X connect 20 0 7 0;
#X connect 21 0 4 0;
#X connect 22 0 10 0;
#X connect 23 0 18 0;
#X connect 24 0 26 0;
#X connect 25 0 13 0;
#X connect 26 0 19 0;
#X connect 26 1 25 0;
#X coords 0 -1 1 1 85 60 2 100 100;
#X restore 45 483 pd;
#X obj 3 92 bng 15 250 50 0 empty empty empty 17 7 0 10 #fcfcfc #000000
#000000;
#X connect 1 0 2 0;
#X connect 2 0 7 0;
#X connect 3 0 2 1;
#X connect 4 0 0 0;
#X connect 6 0 7 0;
#X connect 7 0 10 0;
#X connect 8 0 11 0;
#X connect 8 0 14 0;
#X connect 9 0 8 1;
#X connect 10 0 8 0;
#X connect 11 0 4 0;
#X connect 11 0 15 0;
#X connect 11 0 17 0;
#X connect 11 0 19 0;
#X connect 12 0 13 0;
#X connect 14 0 12 0;
#X connect 14 1 12 1;
#X connect 15 0 5 0;
#X connect 17 0 16 0;
#X connect 19 0 18 0;
#X connect 20 0 10 0;
#X restore 355 283 pd test3;
#N canvas 406 160 450 300 test4 0;
#X obj 96 113 n_canvas 10 10 empty empty empty 10 10 11 16579836 65793
65793 4;
#X obj 96 271 print;
#X floatatom 115 147 5 0 0 0 - - - 0;
#X msg 96 16 1 0 14 1 90 10 10 90;
#X msg 107 39 1 1 15 1 20 40 50 80;
#X msg 115 61 1 2 16 1 20 20 80 80;
#X msg 126 84 1 3 17 1 40 50 100 100;
#X floatatom 115 167 5 0 0 0 - - - 0;
#X floatatom 115 187 5 0 0 0 - - - 0;
#X floatatom 115 207 5 0 0 0 - - - 0;
#X obj 151 174 nbx 5 14 -1e+37 1e+37 0 0 empty empty empty 0 -8 0 10
#fcfcfc #000000 #000000 0 256;
#X obj 166 195 n_knob default.gif 1 33 0 1 0.01 0.5 256 empty empty
empty 11 0 -8 0 0 0 0 5 11 0 42 0;
#X connect 0 0 1 0;
#X connect 3 0 0 0;
#X connect 4 0 0 0;
#X connect 5 0 0 0;
#X connect 6 0 0 0;
#X restore 355 301 pd test4;
#N canvas 622 142 636 295 draw 0;
#X text 20 16 erase: 0 id;
#X obj 28 53 s \$0_draw;
#X obj 164 243 s \$0_draw;
#X text 132 24 rect: 2 id color widtch x0 y0 x1 y1;
#X obj 413 155 s \$0_draw;
#X text 371 22 text: 8 id color fontsize x0 y0 text;
#X msg 28 34 0 0 \, 0 1;
#X floatatom 164 76 5 0 0 0 fs - - 0;
#X msg 413 135 8 0 13 \$1 0 0 A;
#X obj 164 113 / 2;
#X obj 164 192 pack f f f;
#X obj 164 132 * -1;
#X msg 164 218 2 1 13 1 0 \$1 \$3 \$2;
#X obj 247 113 / 2;
#X obj 330 159 * 0.6;
#X floatatom 330 177 5 0 0 1 ssize_h - - 0;
#X floatatom 247 131 5 0 0 1 ssize_w - - 0;
#X obj 164 95 t f f f f, f 42;
#X connect 6 0 1 0;
#X connect 7 0 17 0;
#X connect 8 0 4 0;
#X connect 9 0 11 0;
#X connect 10 0 12 0;
#X connect 11 0 10 0;
#X connect 12 0 2 0;
#X connect 13 0 16 0;
#X connect 14 0 15 0;
#X connect 15 0 10 2;
#X connect 16 0 10 1;
#X connect 17 0 9 0;
#X connect 17 1 13 0;
#X connect 17 2 14 0;
#X connect 17 3 8 0;
#X restore 355 319 pd draw font;
#N canvas 238 128 875 519 numbox 0;
#X floatatom 30 28 5 0 100 1 value(0...1) - - 0;
#X obj 341 279 unpack f f f;
#X obj 410 336 +;
#X obj 435 336 clip 0 256;
#X obj 410 317 * -1;
#X floatatom 435 355 5 0 0 0 - - - 0;
#X obj 435 373 / 256, f 15;
#X obj 315 298 unpack f f f;
#X obj 290 260 route 0 1;
#X floatatom 492 291 5 0 9999 1 resolution - - 0;
#X obj 492 253 loadbang;
#X obj 669 314 n_canvas 80 16 empty empty val: 4 8 11 16572608 0 5779456
1;
#N canvas 0 50 450 300 delta 0;
#X obj 40 45 inlet;
#X obj 40 180 outlet;
#X obj 40 135 -;
#X obj 67 118 f;
#X obj 40 81 t f b;
#X obj 82 45 inlet set;
#X connect 0 0 4 0;
#X connect 2 0 1 0;
#X connect 3 0 2 1;
#X connect 4 0 2 0;
#X connect 4 0 3 1;
#X connect 4 1 3 0;
#X connect 5 0 3 1;
#X restore 410 297 pd delta;
#X obj 669 231 r to_numbox;
#X obj 669 403 s from_numbox;
#X obj 290 240 r from_numbox;
#X obj 69 432 s to_numbox;
#X obj 435 392 s to_numbox_r;
#X obj 30 9 r to_numbox_r;
#X obj 677 147 s to_numbox;
#X floatatom 45 245 5 0 9999 1 range - - 0;
#X obj 45 207 loadbang;
#X msg 45 226 2;
#X obj 30 263 * 2;
#X floatatom 51 319 5 -9999 9999 1 min - - 0;
#X obj 51 281 loadbang;
#X msg 51 300 -1;
#X obj 30 336 + -1;
#X floatatom 179 57 5 1 9999 1 w - - 0;
#X obj 179 19 loadbang;
#X floatatom 234 57 5 1 9999 1 h - - 0;
#X obj 234 19 loadbang;
#X msg 234 38 16;
#X floatatom 294 57 5 -9999 9999 1 ldx - - 0;
#X obj 294 19 loadbang;
#X floatatom 354 57 5 -9999 9999 1 ldy - - 0;
#X obj 354 19 loadbang;
#X floatatom 677 57 5 -9999 9999 1 ndx - - 0;
#X obj 677 19 loadbang;
#X floatatom 737 57 5 -9999 9999 1 ndy - - 0;
#X obj 737 19 loadbang;
#X floatatom 415 57 5 0 30 1 bcol - - 0;
#X obj 415 19 loadbang;
#X floatatom 475 57 5 0 30 1 fcol - - 0;
#X obj 475 19 loadbang;
#X floatatom 535 57 5 0 30 1 lcol - - 0;
#X obj 535 19 loadbang;
#X floatatom 794 57 5 0 30 1 ncol - - 0;
#X obj 794 19 loadbang;
#X obj 179 136 s to_numbox;
#X msg 179 118 size \$1 \$2;
#X obj 179 100 pack;
#X obj 234 77 t b f;
#X obj 294 136 s to_numbox;
#X obj 294 100 pack;
#X obj 354 77 t b f;
#X msg 294 118 label_pos \$1 \$2;
#X obj 415 182 s to_numbox;
#X obj 474 77 t b f;
#X obj 415 146 pack f f f;
#X obj 534 77 t b f;
#X msg 415 164 color \$1 \$2 \$3;
#X msg 475 38 22;
#X msg 570 143 label val:;
#X obj 570 121 loadbang;
#X obj 570 164 s to_numbox;
#X msg 294 38 4;
#X msg 354 38 8;
#X msg 415 38 4;
#X obj 737 76 t b f;
#X obj 677 108 pack f f f;
#X obj 794 76 t b f;
#X msg 677 129 8 0 \$3 11 \$1 \$2 Text;
#X obj 69 396 makefilename %02.2f;
#X msg 794 38 22;
#X obj 30 375 moses 0;
#X obj 30 489 s to_numbox;
#X obj 30 453 makefilename %02.2f;
#X msg 30 471 13 0 \$1;
#X msg 69 414 13 0 +\$1;
#X obj 30 355 change;
#X msg 535 38 24;
#X msg 677 38 36;
#X msg 737 38 8;
#X msg 179 38 80;
#X floatatom 45 103 5 1 9999 1 steps - - 0;
#X obj 45 65 loadbang;
#X obj 30 140 *;
#X obj 30 161 i;
#X obj 30 181 *;
#X obj 72 167 /;
#X msg 72 149 1 \$1;
#X obj 45 121 t f f;
#X msg 492 272 400;
#X msg 45 84 100;
#X connect 0 0 87 0;
#X connect 1 2 12 0;
#X connect 2 0 3 0;
#X connect 3 0 2 1;
#X connect 3 0 5 0;
#X connect 4 0 2 0;
#X connect 5 0 6 0;
#X connect 6 0 17 0;
#X connect 7 1 12 1;
#X connect 8 1 7 0;
#X connect 8 2 1 0;
#X connect 9 0 6 1;
#X connect 9 0 3 2;
#X connect 10 0 93 0;
#X connect 11 0 14 0;
#X connect 12 0 4 0;
#X connect 13 0 11 0;
#X connect 15 0 8 0;
#X connect 18 0 0 0;
#X connect 20 0 23 1;
#X connect 21 0 22 0;
#X connect 22 0 20 0;
#X connect 23 0 27 0;
#X connect 24 0 27 1;
#X connect 25 0 26 0;
#X connect 26 0 24 0;
#X connect 27 0 80 0;
#X connect 28 0 51 0;
#X connect 29 0 84 0;
#X connect 30 0 52 0;
#X connect 31 0 32 0;
#X connect 32 0 30 0;
#X connect 33 0 54 0;
#X connect 34 0 66 0;
#X connect 35 0 55 0;
#X connect 36 0 67 0;
#X connect 37 0 70 0;
#X connect 38 0 82 0;
#X connect 39 0 69 0;
#X connect 40 0 83 0;
#X connect 41 0 59 0;
#X connect 42 0 68 0;
#X connect 43 0 58 0;
#X connect 44 0 62 0;
#X connect 45 0 60 0;
#X connect 46 0 81 0;
#X connect 47 0 71 0;
#X connect 48 0 74 0;
#X connect 50 0 49 0;
#X connect 51 0 50 0;
#X connect 52 0 51 0;
#X connect 52 1 51 1;
#X connect 54 0 56 0;
#X connect 55 0 54 0;
#X connect 55 1 54 1;
#X connect 56 0 53 0;
#X connect 58 0 59 0;
#X connect 58 1 59 1;
#X connect 59 0 61 0;
#X connect 60 0 59 0;
#X connect 60 1 59 2;
#X connect 61 0 57 0;
#X connect 62 0 43 0;
#X connect 63 0 65 0;
#X connect 64 0 63 0;
#X connect 66 0 33 0;
#X connect 67 0 35 0;
#X connect 68 0 41 0;
#X connect 69 0 70 0;
#X connect 69 1 70 1;
#X connect 70 0 72 0;
#X connect 71 0 70 0;
#X connect 71 1 70 2;
#X connect 72 0 19 0;
#X connect 73 0 79 0;
#X connect 74 0 47 0;
#X connect 75 0 77 0;
#X connect 75 1 73 0;
#X connect 77 0 78 0;
#X connect 78 0 76 0;
#X connect 79 0 16 0;
#X connect 80 0 75 0;
#X connect 81 0 45 0;
#X connect 82 0 37 0;
#X connect 83 0 39 0;
#X connect 84 0 28 0;
#X connect 85 0 92 0;
#X connect 86 0 94 0;
#X connect 87 0 88 0;
#X connect 88 0 89 0;
#X connect 89 0 23 0;
#X connect 90 0 89 1;
#X connect 91 0 90 0;
#X connect 92 0 87 1;
#X connect 92 1 91 0;
#X connect 93 0 9 0;
#X connect 94 0 85 0;
#X restore 355 193 pd numbox;
#X obj 59 270 print;
#X connect 7 0 13 0;
#X coords 0 462 1 461 85 60 0;
