#N canvas 350 62 925 595 10;
#X obj 126 100 tgl 26 0 empty empty run 4 12 0 10 -262144 -262144 -1
0 1;
#X obj 256 113 nbx 3 13 0 999 0 0 empty empty pos 8 -6 0 12 -261682
-1 -1 0 256;
#X obj 100 100 bng 26 50 50 0 empty empty << 7 12 0 10 -262144 -257985
-1;
#X obj 461 113 nbx 6 13 0 999 0 1 empty empty bpm 24 -6 0 12 -262144
-1 -1 116 256;
#X msg 256 78 set \$1;
#X obj 461 129 s transport_bpm;
#X obj 477 418 s~ transport_ph;
#X floatatom 558 189 5 0 0 1 time(ms) - -;
#X obj 558 129 r transport_bpm;
#X obj 152 100 bng 26 50 50 0 empty empty < 10 12 0 10 -262144 -257985
-1;
#X obj 460 494 r transport_run;
#X obj 122 494 r transport_96th;
#X obj 660 494 r transport_bpm;
#X msg 660 555 bpm = \$1;
#X msg 756 555 time96th = \$1;
#X obj 756 494 r transport_time96th;
#X msg 693 187 time \$1;
#X obj 567 169 s transport_time96th;
#X obj 693 169 r transport_time96th;
#X obj 26 494 r~ transport_ph;
#X obj 26 573 dac~;
#X obj 26 533 *~ 0.2;
#X obj 364 494 r transport_1th;
#X msg 460 555 run = \$1;
#X obj 487 400 s transport_96th;
#X obj 505 364 s transport_1th;
#X obj 256 60 r transport_1th;
#X obj 204 100 tgl 26 0 empty empty loop 1 12 0 10 -262144 -262144
-1 0 1;
#X obj 178 100 bng 26 50 50 0 empty empty > 10 12 0 10 -262144 -257985
-1;
#X obj 100 471 s to_clock;
#X obj 256 272 s to_clock;
#X msg 100 453 start;
#X obj 126 435 s to_clock;
#X obj 152 398 s to_clock;
#X obj 178 362 s to_clock;
#X msg 152 380 back;
#X msg 178 344 next;
#X obj 204 326 s to_clock;
#X msg 256 254 pos \$1;
#X obj 379 5 r transport_set;
#X obj 256 236 * 96;
#X obj 297 113 nbx 3 13 0 999 0 1 empty empty s-s 8 -6 0 12 -262130
-1 -1 6 256;
#X obj 297 235 s to_clock;
#X obj 297 199 * 96;
#X msg 297 217 ss \$1;
#X obj 338 113 nbx 3 13 1 999 0 1 empty empty s-e 8 -6 0 12 -262130
-1 -1 195 256;
#X obj 338 212 s to_clock;
#X obj 338 176 * 96;
#X msg 338 194 se \$1;
#X obj 379 113 nbx 3 13 0 999 0 1 empty empty l-s 8 -6 0 12 -204786
-1 -1 0 256;
#X obj 379 191 s to_clock;
#X obj 379 155 * 96;
#X obj 420 113 nbx 3 13 1 999 0 1 empty empty l-l 8 -6 0 12 -204786
-1 -1 1 256;
#X obj 420 172 s to_clock;
#X obj 420 136 * 96;
#X msg 379 173 ls \$1;
#X msg 420 154 ll \$1;
#X obj 379 23 v transport_1th;
#X obj 478 272 r to_clock;
#X obj 693 205 s to_clock;
#X obj 496 382 s transport_12th;
#X obj 268 532 tgl 15 0 empty empty Tempo_Ind. 17 7 0 10 -262144 -258113
-1 1 1;
#X obj 262 494 r transport_12th;
#X obj 514 346 s transport_run;
#X obj 230 100 bng 26 50 50 0 empty empty S 10 12 0 10 -262144 -257985
-1;
#N canvas 1 81 450 300 (subpatch) 0;
#X obj 101 101 hradio 8 1 0 16 empty empty empty 0 -8 0 10 -262144
-1 -1 5;
#X obj 101 16 inlet;
#X obj 101 39 div 6;
#X obj 101 59 change;
#X obj 101 80 mod 16;
#X connect 1 0 2 0;
#X connect 2 0 3 0;
#X connect 3 0 4 0;
#X connect 4 0 0 0;
#X coords 0 -1 1 1 130 10 2 100 100;
#X restore 129 534 pd;
#N canvas 0 50 450 300 bpm2ms 0;
#X obj 96 65 inlet;
#X obj 96 145 outlet;
#X obj 96 85 max 1;
#X msg 96 105 2500 \$1;
#X obj 96 125 /;
#X connect 0 0 2 0;
#X connect 2 0 3 0;
#X connect 3 0 4 0;
#X connect 4 0 1 0;
#X restore 558 149 pd bpm2ms;
#N canvas 0 50 450 300 (subpatch) 0;
#X obj 101 101 tgl 15 1 empty empty empty 17 7 0 10 -228856 -1 -1 1
1;
#X obj 80 127 *~ 0;
#X obj 80 148 outlet~;
#X obj 80 73 inlet~;
#X connect 0 0 1 1;
#X connect 1 0 2 0;
#X connect 3 0 1 0;
#X coords 0 -1 1 1 17 17 2 100 100;
#X restore 26 512 pd;
#N canvas 0 50 450 300 (subpatch) 0;
#X obj 101 101 tgl 15 1 empty empty empty 17 7 0 10 -228856 -1 -1 1
1;
#X obj 68 73 inlet;
#X obj 68 148 outlet;
#X obj 68 127 spigot;
#X connect 0 0 3 1;
#X connect 1 0 3 0;
#X connect 3 0 2 0;
#X coords 0 -1 1 1 17 17 2 100 100;
#X restore 122 512 pd;
#X obj 460 573 n_print 2;
#X obj 122 573 n_print 5;
#X obj 262 573 n_print 1;
#X obj 363 573 n_print 0;
#X obj 660 573 n_print 2;
#X obj 756 573 n_print 2;
#N canvas 0 50 450 300 (subpatch) 0;
#X obj 101 101 tgl 15 1 empty empty empty 17 7 0 10 -228856 -1 -1 1
1;
#X obj 68 73 inlet;
#X obj 68 148 outlet;
#X obj 68 127 spigot;
#X connect 0 0 3 1;
#X connect 1 0 3 0;
#X connect 3 0 2 0;
#X coords 0 -1 1 1 17 17 2 100 100;
#X restore 262 512 pd;
#N canvas 0 50 450 300 (subpatch) 0;
#X obj 101 101 tgl 15 1 empty empty empty 17 7 0 10 -228856 -1 -1 1
1;
#X obj 68 73 inlet;
#X obj 68 148 outlet;
#X obj 68 127 spigot;
#X connect 0 0 3 1;
#X connect 1 0 3 0;
#X connect 3 0 2 0;
#X coords 0 -1 1 1 17 17 2 100 100;
#X restore 363 512 pd;
#X obj 478 290 n_clock~;
#X obj 126 5 r transport_run;
#N canvas 1 81 450 300 color 0;
#X obj 224 92 inlet;
#X obj 224 234 outlet;
#X obj 224 153 sel 0;
#X msg 224 202 color 0 0 22;
#X msg 251 175 color 15 15 13;
#X msg 156 148 set \$1;
#X connect 0 0 2 0;
#X connect 0 0 5 0;
#X connect 2 0 3 0;
#X connect 2 1 4 0;
#X connect 3 0 1 0;
#X connect 4 0 1 0;
#X connect 5 0 1 0;
#X restore 126 23 pd color;
#X obj 523 328 s transport_loop;
#N canvas 1 81 450 300 color 0;
#X obj 224 92 inlet;
#X obj 224 234 outlet;
#X obj 224 153 sel 0;
#X msg 224 202 color 0 0 22;
#X msg 251 175 color 15 15 13;
#X msg 156 148 set \$1;
#X connect 0 0 2 0;
#X connect 0 0 5 0;
#X connect 2 0 3 0;
#X connect 2 1 4 0;
#X connect 3 0 1 0;
#X connect 4 0 1 0;
#X connect 5 0 1 0;
#X restore 204 41 pd color;
#X obj 204 23 r transport_loop;
#X obj 466 513 tgl 15 0 empty empty Run 17 7 0 10 -262144 -258113 -1
0 1;
#X obj 557 573 n_print 2;
#X obj 563 513 tgl 15 0 empty empty Loop 17 7 0 10 -262144 -258113
-1 0 1;
#X obj 557 494 r transport_loop;
#X msg 557 555 loop = \$1;
#X obj 741 316 loadbang;
#X msg 741 334 0;
#X obj 741 352 s transport_run;
#X obj 741 376 loadbang;
#X msg 741 394 0;
#X obj 741 412 s transport_loop;
#X obj 230 290 s transport_set;
#X msg 126 417 run \$1;
#X msg 204 308 loop \$1;
#X msg 363 555 1th = \$1;
#X msg 262 555 12th = \$1;
#X msg 122 555 96th = \$1;
#X connect 0 0 95 0;
#X connect 1 0 40 0;
#X connect 2 0 31 0;
#X connect 3 0 5 0;
#X connect 4 0 1 0;
#X connect 8 0 66 0;
#X connect 9 0 35 0;
#X connect 10 0 23 0;
#X connect 10 0 83 0;
#X connect 11 0 68 0;
#X connect 12 0 13 0;
#X connect 13 0 73 0;
#X connect 14 0 74 0;
#X connect 15 0 14 0;
#X connect 16 0 59 0;
#X connect 18 0 16 0;
#X connect 19 0 67 0;
#X connect 21 0 20 0;
#X connect 21 0 20 1;
#X connect 22 0 76 0;
#X connect 23 0 69 0;
#X connect 26 0 4 0;
#X connect 27 0 96 0;
#X connect 28 0 36 0;
#X connect 31 0 29 0;
#X connect 35 0 33 0;
#X connect 36 0 34 0;
#X connect 38 0 30 0;
#X connect 39 0 57 0;
#X connect 40 0 38 0;
#X connect 41 0 43 0;
#X connect 43 0 44 0;
#X connect 44 0 42 0;
#X connect 45 0 47 0;
#X connect 47 0 48 0;
#X connect 48 0 46 0;
#X connect 49 0 51 0;
#X connect 51 0 55 0;
#X connect 52 0 54 0;
#X connect 54 0 56 0;
#X connect 55 0 50 0;
#X connect 56 0 53 0;
#X connect 57 0 49 0;
#X connect 58 0 77 0;
#X connect 62 0 75 0;
#X connect 64 0 94 0;
#X connect 66 0 17 0;
#X connect 66 0 7 0;
#X connect 67 0 21 0;
#X connect 68 0 65 0;
#X connect 68 0 99 0;
#X connect 75 0 61 0;
#X connect 75 0 98 0;
#X connect 76 0 97 0;
#X connect 77 0 6 0;
#X connect 77 1 24 0;
#X connect 77 2 60 0;
#X connect 77 3 25 0;
#X connect 77 4 63 0;
#X connect 77 5 80 0;
#X connect 78 0 79 0;
#X connect 79 0 0 0;
#X connect 81 0 27 0;
#X connect 82 0 81 0;
#X connect 86 0 87 0;
#X connect 86 0 85 0;
#X connect 87 0 84 0;
#X connect 88 0 89 0;
#X connect 89 0 90 0;
#X connect 91 0 92 0;
#X connect 92 0 93 0;
#X connect 95 0 32 0;
#X connect 96 0 37 0;
#X connect 97 0 72 0;
#X connect 98 0 71 0;
#X connect 99 0 70 0;
#X coords 0 595 1 594 433 26 0;
