#N canvas 700 78 468 533 10;
#X obj 21 440 unpack f f f;
#X floatatom 21 460 5 0 0 0 - - -;
#X floatatom 55 460 5 0 0 0 - - -;
#X floatatom 90 460 5 0 0 0 - - -;
#X obj 60 399 unpack f f f f;
#X floatatom 60 421 5 0 0 0 - - -;
#X floatatom 94 421 5 0 0 0 - - -;
#X floatatom 128 421 5 0 0 0 - - -;
#X floatatom 162 421 5 0 0 0 - - -;
#X obj 99 359 unpack f f f f;
#X floatatom 99 381 5 0 0 0 - - -;
#X floatatom 133 381 5 0 0 0 - - -;
#X floatatom 167 381 5 0 0 0 - - -;
#X floatatom 201 381 5 0 0 0 - - -;
#X obj 139 317 unpack f f f f;
#X floatatom 139 339 5 0 0 0 - - -;
#X floatatom 173 339 5 0 0 0 - - -;
#X floatatom 207 339 5 0 0 0 - - -;
#X floatatom 241 339 5 0 0 0 - - -;
#X msg 217 274 1 Control_L 0;
#X msg 217 255 set \, add2 \$1 \, add2 \$2 \, add2 \$3;
#X obj 257 233 bng 15 250 50 0 empty empty menusave 17 7 0 10 -262144
-1 -1;
#X obj 336 184 print;
#X obj 296 211 tgl 15 0 empty empty editmode 17 7 0 10 -262144 -1 -1
0 1;
#X obj 21 148 route motion mouse mouseup setbounds map key menusave
editmode;
#X obj 178 295 tgl 15 0 empty empty map 17 7 0 10 -262144 -1 -1 1 1
;
#X obj 21 6 hradio 15 1 0 8 empty empty empty 0 -8 0 10 -262144 -1
-1 0;
#X msg 21 24 canvas \$1;
#X text 132 459 motion;
#X text 248 381 mouseup;
#X text 205 420 mouse;
#X text 285 338 setbounds;
#X text 323 275 key;
#X obj 21 44 n_cnvinfo;
#X obj 21 127 n_cnvrcv;
#X obj 21 65 route id;
#X obj 21 86 symbol;
#X msg 21 107 cnv \$1;
#N canvas 222 76 472 533 ... 0;
#X obj 21 440 unpack f f f;
#X floatatom 21 460 5 0 0 0 - - -;
#X floatatom 55 460 5 0 0 0 - - -;
#X floatatom 90 460 5 0 0 0 - - -;
#X obj 60 399 unpack f f f f;
#X floatatom 60 421 5 0 0 0 - - -;
#X floatatom 94 421 5 0 0 0 - - -;
#X floatatom 128 421 5 0 0 0 - - -;
#X floatatom 162 421 5 0 0 0 - - -;
#X obj 99 359 unpack f f f f;
#X floatatom 99 381 5 0 0 0 - - -;
#X floatatom 133 381 5 0 0 0 - - -;
#X floatatom 167 381 5 0 0 0 - - -;
#X floatatom 201 381 5 0 0 0 - - -;
#X obj 139 317 unpack f f f f;
#X floatatom 139 339 5 0 0 0 - - -;
#X floatatom 173 339 5 0 0 0 - - -;
#X floatatom 207 339 5 0 0 0 - - -;
#X floatatom 241 339 5 0 0 0 - - -;
#X msg 217 274 1 Control_L 0;
#X msg 217 255 set \, add2 \$1 \, add2 \$2 \, add2 \$3;
#X obj 257 233 bng 15 250 50 0 empty empty menusave 17 7 0 10 -262144
-1 -1;
#X obj 336 184 print;
#X obj 296 211 tgl 15 0 empty empty editmode 17 7 0 10 -262144 -1 -1
0 1;
#X obj 21 148 route motion mouse mouseup setbounds map key menusave
editmode;
#X obj 178 295 tgl 15 0 empty empty map 17 7 0 10 -262144 -1 -1 1 1
;
#X obj 21 6 hradio 15 1 0 8 empty empty empty 0 -8 0 10 -262144 -1
-1 0;
#X msg 21 24 canvas \$1;
#X text 132 459 motion;
#X text 248 381 mouseup;
#X text 205 420 mouse;
#X text 285 338 setbounds;
#X text 323 275 key;
#X obj 21 44 n_cnvinfo;
#X obj 21 127 n_cnvrcv;
#X obj 21 65 route id;
#X obj 21 86 symbol;
#X msg 21 107 cnv \$1;
#X connect 0 0 1 0;
#X connect 0 1 2 0;
#X connect 0 2 3 0;
#X connect 4 0 5 0;
#X connect 4 1 6 0;
#X connect 4 2 7 0;
#X connect 4 3 8 0;
#X connect 9 0 10 0;
#X connect 9 1 11 0;
#X connect 9 2 12 0;
#X connect 9 3 13 0;
#X connect 14 0 15 0;
#X connect 14 1 16 0;
#X connect 14 2 17 0;
#X connect 14 3 18 0;
#X connect 20 0 19 0;
#X connect 24 0 0 0;
#X connect 24 1 4 0;
#X connect 24 2 9 0;
#X connect 24 3 14 0;
#X connect 24 4 25 0;
#X connect 24 5 20 0;
#X connect 24 6 21 0;
#X connect 24 7 23 0;
#X connect 24 8 22 0;
#X connect 26 0 27 0;
#X connect 27 0 33 0;
#X connect 33 0 35 0;
#X connect 34 0 24 0;
#X connect 35 0 36 0;
#X connect 36 0 37 0;
#X connect 37 0 34 0;
#X restore 104 496 pd ...;
#X obj 113 81 print;
#X connect 0 0 1 0;
#X connect 0 1 2 0;
#X connect 0 2 3 0;
#X connect 4 0 5 0;
#X connect 4 1 6 0;
#X connect 4 2 7 0;
#X connect 4 3 8 0;
#X connect 9 0 10 0;
#X connect 9 1 11 0;
#X connect 9 2 12 0;
#X connect 9 3 13 0;
#X connect 14 0 15 0;
#X connect 14 1 16 0;
#X connect 14 2 17 0;
#X connect 14 3 18 0;
#X connect 20 0 19 0;
#X connect 24 0 0 0;
#X connect 24 1 4 0;
#X connect 24 2 9 0;
#X connect 24 3 14 0;
#X connect 24 4 25 0;
#X connect 24 5 20 0;
#X connect 24 6 21 0;
#X connect 24 7 23 0;
#X connect 24 8 22 0;
#X connect 26 0 27 0;
#X connect 27 0 33 0;
#X connect 33 0 35 0;
#X connect 34 0 24 0;
#X connect 35 0 36 0;
#X connect 35 0 39 0;
#X connect 36 0 37 0;
#X connect 37 0 34 0;
