#N canvas 82 196 985 442 10;
#X msg 87 55 canvas;
#X obj 35 84 n_cnvinfo;
#N canvas 423 95 513 542 canvas 0;
#X obj 39 25 inlet;
#X symbolatom 103 119 24 0 0 1 id - - 0;
#X floatatom 103 141 24 0 0 1 screenx1 - - 0;
#X floatatom 103 161 24 0 0 1 screeny1 - - 0;
#X floatatom 103 181 24 0 0 1 screenx2 - - 0;
#X floatatom 103 201 24 0 0 1 screeny2 - - 0;
#X symbolatom 103 221 24 0 0 1 name - - 0;
#X obj 57 119 symbol;
#X obj 57 221 symbol;
#X floatatom 103 241 24 0 0 1 font - - 0;
#X floatatom 103 261 24 0 0 1 havewindow - - 0;
#X floatatom 103 281 24 0 0 1 mapped - - 0;
#X floatatom 103 301 24 0 0 1 dirty - - 0;
#X floatatom 103 321 24 0 0 1 edit - - 0;
#X floatatom 103 341 24 0 0 1 goprect - - 0;
#X floatatom 103 361 24 0 0 1 hidetext - - 0;
#X floatatom 103 381 24 0 0 1 zoom - - 0;
#X obj 39 49 route id screenx1 screeny1 screenx2 screeny2 name font havewindow mapped dirty edit goprect hidetext zoom dollarzero;
#X floatatom 103 401 24 0 0 1 dollarzero - - 0;
#X connect 0 0 17 0;
#X connect 7 0 1 0;
#X connect 8 0 6 0;
#X connect 17 0 7 0;
#X connect 17 1 2 0;
#X connect 17 2 3 0;
#X connect 17 3 4 0;
#X connect 17 4 5 0;
#X connect 17 5 8 0;
#X connect 17 6 9 0;
#X connect 17 7 10 0;
#X connect 17 8 11 0;
#X connect 17 9 12 0;
#X connect 17 10 13 0;
#X connect 17 11 14 0;
#X connect 17 12 15 0;
#X connect 17 13 16 0;
#X connect 17 14 18 0;
#X coords 0 -1 1 1 222 322 1 100 100;
#X restore 35 104 pd canvas info;
#X obj 479 18 bng 18 250 50 0 empty empty empty 0 -9 0 10 #fcfcfc #000000 #000000;
#X obj 35 54 bng 18 250 50 0 empty empty empty 0 -9 0 10 #fcfcfc #000000 #000000;
#X text 62 55 or;
#X obj 257 62 bng 18 250 50 0 empty empty empty 0 -9 0 10 #fcfcfc #000000 #000000;
#X obj 701 62 bng 18 250 50 0 empty empty empty 0 -9 0 10 #fcfcfc #000000 #000000;
#N canvas 455 216 450 300 (subpatch) 0;
#X obj 159 25 inlet;
#X obj 159 220 outlet;
#N canvas 45 433 450 300 another_canvas 0;
#X obj 159 122 n_cnvinfo;
#X obj 159 25 inlet;
#X obj 159 220 outlet;
#X connect 0 0 2 0;
#X connect 1 0 0 0;
#X coords 0 300 1 299 200 60 0;
#X restore 159 123 pd another_canvas;
#X connect 0 0 2 0;
#X connect 2 0 1 0;
#X coords 0 300 1 299 200 60 0;
#X restore 701 83 pd;
#N canvas 854 433 450 300 canvas_have_goprect 0;
#X obj 159 122 n_cnvinfo;
#X obj 159 25 inlet;
#X obj 159 220 outlet;
#X connect 0 0 2 0;
#X connect 1 0 0 0;
#X coords 0 -1 1 1 200 60 1 100 100;
#X restore 479 39 pd canvas_have_goprect;
#N canvas 36 50 450 300 canvas_no_goprect 0;
#X obj 159 122 n_cnvinfo;
#X obj 159 25 inlet;
#X obj 159 220 outlet;
#X connect 0 0 2 0;
#X connect 1 0 0 0;
#X coords 0 300 1 299 200 60 0;
#X restore 257 83 pd canvas_no_goprect;
#N canvas 423 95 513 542 canvas 0;
#X obj 39 25 inlet;
#X symbolatom 103 119 24 0 0 1 id - - 0;
#X floatatom 103 141 24 0 0 1 screenx1 - - 0;
#X floatatom 103 161 24 0 0 1 screeny1 - - 0;
#X floatatom 103 181 24 0 0 1 screenx2 - - 0;
#X floatatom 103 201 24 0 0 1 screeny2 - - 0;
#X symbolatom 103 221 24 0 0 1 name - - 0;
#X obj 57 119 symbol;
#X obj 57 221 symbol;
#X floatatom 103 241 24 0 0 1 font - - 0;
#X floatatom 103 261 24 0 0 1 havewindow - - 0;
#X floatatom 103 281 24 0 0 1 mapped - - 0;
#X floatatom 103 301 24 0 0 1 dirty - - 0;
#X floatatom 103 321 24 0 0 1 edit - - 0;
#X floatatom 103 341 24 0 0 1 goprect - - 0;
#X floatatom 103 361 24 0 0 1 hidetext - - 0;
#X floatatom 103 381 24 0 0 1 zoom - - 0;
#X obj 39 49 route id screenx1 screeny1 screenx2 screeny2 name font havewindow mapped dirty edit goprect hidetext zoom dollarzero;
#X floatatom 103 401 24 0 0 1 dollarzero - - 0;
#X connect 0 0 17 0;
#X connect 7 0 1 0;
#X connect 8 0 6 0;
#X connect 17 0 7 0;
#X connect 17 1 2 0;
#X connect 17 2 3 0;
#X connect 17 3 4 0;
#X connect 17 4 5 0;
#X connect 17 5 8 0;
#X connect 17 6 9 0;
#X connect 17 7 10 0;
#X connect 17 8 11 0;
#X connect 17 9 12 0;
#X connect 17 10 13 0;
#X connect 17 11 14 0;
#X connect 17 12 15 0;
#X connect 17 13 16 0;
#X connect 17 14 18 0;
#X coords 0 -1 1 1 222 322 1 100 100;
#X restore 257 104 pd canvas info;
#N canvas 423 95 513 542 canvas 0;
#X obj 39 25 inlet;
#X symbolatom 103 119 24 0 0 1 id - - 0;
#X floatatom 103 141 24 0 0 1 screenx1 - - 0;
#X floatatom 103 161 24 0 0 1 screeny1 - - 0;
#X floatatom 103 181 24 0 0 1 screenx2 - - 0;
#X floatatom 103 201 24 0 0 1 screeny2 - - 0;
#X symbolatom 103 221 24 0 0 1 name - - 0;
#X obj 57 119 symbol;
#X obj 57 221 symbol;
#X floatatom 103 241 24 0 0 1 font - - 0;
#X floatatom 103 261 24 0 0 1 havewindow - - 0;
#X floatatom 103 281 24 0 0 1 mapped - - 0;
#X floatatom 103 301 24 0 0 1 dirty - - 0;
#X floatatom 103 321 24 0 0 1 edit - - 0;
#X floatatom 103 341 24 0 0 1 goprect - - 0;
#X floatatom 103 361 24 0 0 1 hidetext - - 0;
#X floatatom 103 381 24 0 0 1 zoom - - 0;
#X obj 39 49 route id screenx1 screeny1 screenx2 screeny2 name font havewindow mapped dirty edit goprect hidetext zoom dollarzero;
#X floatatom 103 401 24 0 0 1 dollarzero - - 0;
#X connect 0 0 17 0;
#X connect 7 0 1 0;
#X connect 8 0 6 0;
#X connect 17 0 7 0;
#X connect 17 1 2 0;
#X connect 17 2 3 0;
#X connect 17 3 4 0;
#X connect 17 4 5 0;
#X connect 17 5 8 0;
#X connect 17 6 9 0;
#X connect 17 7 10 0;
#X connect 17 8 11 0;
#X connect 17 9 12 0;
#X connect 17 10 13 0;
#X connect 17 11 14 0;
#X connect 17 12 15 0;
#X connect 17 13 16 0;
#X connect 17 14 18 0;
#X coords 0 -1 1 1 222 322 1 100 100;
#X restore 479 104 pd canvas info;
#N canvas 423 95 513 542 canvas 0;
#X obj 39 25 inlet;
#X symbolatom 103 119 24 0 0 1 id - - 0;
#X floatatom 103 141 24 0 0 1 screenx1 - - 0;
#X floatatom 103 161 24 0 0 1 screeny1 - - 0;
#X floatatom 103 181 24 0 0 1 screenx2 - - 0;
#X floatatom 103 201 24 0 0 1 screeny2 - - 0;
#X symbolatom 103 221 24 0 0 1 name - - 0;
#X obj 57 119 symbol;
#X obj 57 221 symbol;
#X floatatom 103 241 24 0 0 1 font - - 0;
#X floatatom 103 261 24 0 0 1 havewindow - - 0;
#X floatatom 103 281 24 0 0 1 mapped - - 0;
#X floatatom 103 301 24 0 0 1 dirty - - 0;
#X floatatom 103 321 24 0 0 1 edit - - 0;
#X floatatom 103 341 24 0 0 1 goprect - - 0;
#X floatatom 103 361 24 0 0 1 hidetext - - 0;
#X floatatom 103 381 24 0 0 1 zoom - - 0;
#X obj 39 49 route id screenx1 screeny1 screenx2 screeny2 name font havewindow mapped dirty edit goprect hidetext zoom dollarzero;
#X floatatom 103 401 24 0 0 1 dollarzero - - 0;
#X connect 0 0 17 0;
#X connect 7 0 1 0;
#X connect 8 0 6 0;
#X connect 17 0 7 0;
#X connect 17 1 2 0;
#X connect 17 2 3 0;
#X connect 17 3 4 0;
#X connect 17 4 5 0;
#X connect 17 5 8 0;
#X connect 17 6 9 0;
#X connect 17 7 10 0;
#X connect 17 8 11 0;
#X connect 17 9 12 0;
#X connect 17 10 13 0;
#X connect 17 11 14 0;
#X connect 17 12 15 0;
#X connect 17 13 16 0;
#X connect 17 14 18 0;
#X coords 0 -1 1 1 222 322 1 100 100;
#X restore 701 104 pd canvas info;
#X connect 0 0 1 0;
#X connect 1 0 2 0;
#X connect 3 0 9 0;
#X connect 4 0 1 0;
#X connect 6 0 10 0;
#X connect 7 0 8 0;
#X connect 8 0 13 0;
#X connect 9 0 12 0;
#X connect 10 0 11 0;
#X coords 0 442 1 441 85 60 0;
