#N canvas 721 132 508 417 10;
#X msg 442 134 info;
#N canvas 0 50 450 250 (subpatch) 0;
#X array \$0-imp 10176 float 2;
#X coords 0 1 10176 -1 100 40 1 0 0;
#X restore 353 60 graph;
#X obj 105 30 nbx 3 15 -1e+37 1e+37 0 1 empty empty empty 0 -9 0 10 #bbbbbb #000000 #000000 19 256;
#X obj 105 49 mtof;
#X obj 105 69 phasor~;
#X text 36 307 Arguments: array_imp size;
#X obj 13 15 vradio 17 1 1 8 empty empty empty 0 -9 0 10 #bbbbbb #000000 #000000 7;
#X text 29 20 _64;
#X text 29 37 _128;
#X text 29 54 _256;
#X text 29 71 _512;
#X text 29 88 _1024;
#X text 29 105 _2048;
#X text 29 122 _4096;
#X text 29 139 _8192;
#X msg 13 172 2 \$1;
#X obj 13 191 pow;
#X floatatom 13 210 5 0 0 0 - - - 0;
#X obj 13 153 + 6;
#X obj 13 247 s \$0-to;
#X obj 104 185 n_conv~ \$0-imp 512;
#X obj 223 168 r \$0-to;
#X obj 442 155 s \$0-to;
#X obj 271 279 i \$0;
#X obj 271 48 bng 17 250 50 0 empty empty open\ imp.\ file 0 -9 0 10 #fcfcfc #000000 #000000;
#X obj 271 70 openpanel;
#X obj 271 190 soundfiler;
#X obj 271 152 pack s \$0;
#X msg 271 171 read -resize \$1 \$2-imp;
#X obj 271 260 bang;
#X obj 271 317 s \$0-to;
#X msg 271 298 open \$1-imp \, info;
#X obj 304 243 bng 17 250 50 0 empty empty empty 0 -9 0 10 #fcfcfc #000000 #000000;
#X obj 144 231 nbx 3 15 0 1e+37 0 1 empty empty post 0 -9 0 10 #bbbbbb #000000 #000000 2 256;
#X obj 144 248 * 0.01;
#X obj 104 243 *~ 1;
#X obj 104 266 dac~;
#X msg 13 228 size \$1 \, info;
#X obj 111 344 a_cpu;
#X obj 279 108 loadbang;
#X msg 279 130 ./impulse/1.wav;
#N canvas 336 107 687 518 many 0;
#X obj 536 90 tgl 17 0 empty empty empty 0 -9 0 10 #fcfcfc #000000 #000000 0 1;
#X obj 536 112 switch~;
#X obj 177 94 n_conv~ \$0-imp1 512;
#N canvas 0 50 450 250 (subpatch) 0;
#X array \$0-imp1 10176 float 2;
#X coords 0 1 10176 -1 100 40 1 0 0;
#X restore 385 95 graph;
#X obj 177 147 n_conv~ \$0-imp1 512;
#X obj 177 200 n_conv~ \$0-imp1 512;
#X obj 177 247 n_conv~ \$0-imp1 512;
#X obj 176 18 nbx 3 15 -1e+37 1e+37 0 1 empty empty empty 0 -9 0 10 #bbbbbb #000000 #000000 15 256;
#X obj 176 37 mtof;
#X obj 176 57 phasor~;
#X obj 339 157 nbx 3 15 0 1e+37 0 1 empty empty post 0 -9 0 10 #bbbbbb #000000 #000000 2.56 256;
#X obj 178 336 *~ 1;
#X obj 415 408 i \$0;
#X obj 415 205 bng 17 250 50 0 empty empty open\ imp.\ file 0 -9 0 10 #fcfcfc #000000 #000000;
#X obj 415 227 openpanel;
#X obj 415 347 soundfiler;
#X obj 415 309 pack s \$0;
#X obj 415 389 bang;
#X obj 448 372 bng 17 250 50 0 empty empty empty 0 -9 0 10 #fcfcfc #000000 #000000;
#X obj 423 265 loadbang;
#X msg 423 287 ./impulse/1.wav;
#X msg 415 328 read -resize \$1 \$2-imp1;
#X obj 178 378 outlet~;
#X obj 177 121 *~ 1;
#X obj 177 175 *~ 1;
#X obj 177 225 *~ 1;
#X obj 339 174 * 0.01;
#X obj 13 15 vradio 17 1 0 8 empty empty empty 0 -9 0 10 #ffffff #000000 #000000 0;
#X text 29 20 _64;
#X text 29 37 _128;
#X text 29 54 _256;
#X text 29 71 _512;
#X text 29 88 _1024;
#X text 29 105 _2048;
#X text 29 122 _4096;
#X text 29 139 _8192;
#X msg 13 172 2 \$1;
#X obj 13 191 pow;
#X floatatom 13 210 5 0 0 0 - - - 0;
#X obj 13 153 + 6;
#X msg 13 228 size \$1 \, info;
#X msg 372 441 open \$1-imp1;
#X connect 0 0 1 0;
#X connect 2 0 23 0;
#X connect 4 0 24 0;
#X connect 5 0 25 0;
#X connect 6 0 11 0;
#X connect 7 0 8 0;
#X connect 8 0 9 0;
#X connect 9 0 2 0;
#X connect 10 0 26 0;
#X connect 11 0 22 0;
#X connect 12 0 41 0;
#X connect 13 0 14 0;
#X connect 14 0 16 0;
#X connect 15 0 17 0;
#X connect 16 0 21 0;
#X connect 17 0 12 0;
#X connect 18 0 17 0;
#X connect 19 0 20 0;
#X connect 20 0 16 0;
#X connect 21 0 15 0;
#X connect 23 0 4 0;
#X connect 24 0 5 0;
#X connect 25 0 6 0;
#X connect 26 0 11 1;
#X connect 26 0 23 1;
#X connect 26 0 24 1;
#X connect 26 0 25 1;
#X connect 27 0 39 0;
#X connect 36 0 37 0;
#X connect 37 0 38 0;
#X connect 38 0 40 0;
#X connect 39 0 36 0;
#X connect 40 0 2 0;
#X connect 40 0 4 0;
#X connect 40 0 5 0;
#X connect 40 0 6 0;
#X connect 41 0 2 0;
#X connect 41 0 4 0;
#X connect 41 0 5 0;
#X connect 41 0 6 0;
#X restore 29 349 pd many;
#X obj 29 373 dac~;
#X msg 111 369 21.75 %;
#X msg 432 382 22.625 %;
#X msg 432 359 21.75 %;
#X connect 0 0 22 0;
#X connect 2 0 3 0;
#X connect 3 0 4 0;
#X connect 4 0 20 0;
#X connect 6 0 18 0;
#X connect 15 0 16 0;
#X connect 16 0 17 0;
#X connect 17 0 37 0;
#X connect 18 0 15 0;
#X connect 20 0 35 0;
#X connect 21 0 20 0;
#X connect 23 0 31 0;
#X connect 24 0 25 0;
#X connect 25 0 27 0;
#X connect 26 0 29 0;
#X connect 27 0 28 0;
#X connect 28 0 26 0;
#X connect 29 0 23 0;
#X connect 31 0 30 0;
#X connect 32 0 29 0;
#X connect 33 0 34 0;
#X connect 34 0 35 1;
#X connect 35 0 36 0;
#X connect 35 0 36 1;
#X connect 37 0 19 0;
#X connect 38 0 43 0;
#X connect 39 0 40 0;
#X connect 40 0 27 0;
#X connect 41 0 42 0;
#X connect 41 0 42 1;
