#N canvas 811 171 549 464 10;
#X obj 28 30 bng 15 250 50 0 empty empty empty 17 7 0 10 #fcfcfc #000000 #000000;
#X floatatom 28 422 5 0 0 1 year - - 0;
#X floatatom 43 405 5 0 0 1 mount - - 0;
#X floatatom 58 388 5 0 0 1 day - - 0;
#X floatatom 73 371 5 0 0 1 hour - - 0;
#X floatatom 88 354 5 0 0 1 minute - - 0;
#X floatatom 103 337 5 0 0 1 second - - 0;
#X symbolatom 118 320 10 0 0 1 weekday - - 0;
#X symbolatom 133 303 10 0 0 1 mount_short - - 0;
#X obj 28 51 n_date;
#X symbolatom 148 286 10 0 0 1 mount - - 0;
#X floatatom 163 269 12 0 0 1 day(0-365) - - 0;
#X floatatom 178 252 5 0 0 1 isdst - - 0;
#X floatatom 193 235 12 0 0 1 clocks_per_second - - 0;
#X floatatom 208 218 12 0 0 1 time(float) - - 0;
#X symbolatom 223 201 12 0 0 1 time(symbol) - - 0;
#X obj 99 69 print;
#X floatatom 238 184 12 0 0 1 second_first_16_bit - - 0;
#X floatatom 253 167 12 0 0 1 second_last_16_bit - - 0;
#X obj 28 127 unpack f f f f f f s s s f f f f s f f;
#X connect 0 0 9 0;
#X connect 9 0 16 0;
#X connect 9 0 19 0;
#X connect 19 0 1 0;
#X connect 19 1 2 0;
#X connect 19 2 3 0;
#X connect 19 3 4 0;
#X connect 19 4 5 0;
#X connect 19 5 6 0;
#X connect 19 6 7 0;
#X connect 19 7 8 0;
#X connect 19 8 10 0;
#X connect 19 9 11 0;
#X connect 19 10 12 0;
#X connect 19 11 13 0;
#X connect 19 12 14 0;
#X connect 19 13 15 0;
#X connect 19 14 17 0;
#X connect 19 15 18 0;
