#N canvas 138 254 1084 224 10;
#X obj 22 142 n_demux~;
#X floatatom 33 116 5 0 0 0 - - - 0;
#X obj 23 31 nbx 3 14 -1e+37 1e+37 0 1 empty empty empty 0 -8 0 10 #fcfcfc #000000 #000000 55 256;
#X obj 23 47 sig~;
#X obj 22 164 snapshot~;
#X floatatom 22 185 5 0 0 0 - - - 0;
#X obj 1014 106 loadbang;
#X msg 1014 126 1;
#X obj 1014 146 metro 50;
#X floatatom 113 116 5 0 0 0 - - - 0;
#X obj 103 31 nbx 3 14 -1e+37 1e+37 0 1 empty empty empty 0 -8 0 10 #fcfcfc #000000 #000000 29 256;
#X obj 103 47 sig~;
#X floatatom 102 185 5 0 0 0 - - - 0;
#X obj 102 164 snapshot~;
#X obj 102 142 n_demux~ 2, f 12;
#X floatatom 172 185 5 0 0 0 - - - 0;
#X obj 172 164 snapshot~;
#X floatatom 253 116 5 0 0 0 - - - 0;
#X obj 243 31 nbx 3 14 -1e+37 1e+37 0 1 empty empty empty 0 -8 0 10 #fcfcfc #000000 #000000 77 256;
#X obj 243 47 sig~;
#X floatatom 242 185 5 0 0 0 - - - 0;
#X obj 242 164 snapshot~;
#X floatatom 312 185 5 0 0 0 - - - 0;
#X obj 312 164 snapshot~;
#X obj 242 142 n_demux~ 4, f 36;
#X floatatom 383 185 5 0 0 0 - - - 0;
#X obj 383 164 snapshot~;
#X floatatom 454 185 5 0 0 0 - - - 0;
#X obj 454 164 snapshot~;
#X floatatom 533 117 5 0 0 0 - - - 0;
#X obj 523 31 nbx 3 14 -1e+37 1e+37 0 1 empty empty empty 0 -8 0 10 #fcfcfc #000000 #000000 97 256;
#X obj 523 47 sig~;
#X floatatom 522 185 5 0 0 0 - - - 0;
#X obj 522 164 snapshot~;
#X floatatom 584 185 5 0 0 0 - - - 0;
#X obj 584 164 snapshot~;
#X floatatom 645 185 5 0 0 0 - - - 0;
#X obj 645 164 snapshot~;
#X floatatom 706 185 5 0 0 0 - - - 0;
#X obj 706 164 snapshot~;
#X obj 522 142 n_demux~ 8, f 72;
#X floatatom 767 185 5 0 0 0 - - - 0;
#X obj 767 164 snapshot~;
#X floatatom 829 185 5 0 0 0 - - - 0;
#X obj 829 164 snapshot~;
#X floatatom 890 185 5 0 0 0 - - - 0;
#X obj 890 164 snapshot~;
#X floatatom 951 185 5 0 0 0 - - - 0;
#X obj 951 164 snapshot~;
#X obj 33 94 tgl 18 0 empty empty empty 0 -9 0 10 #fcfcfc #000000 #000000 0 1;
#X obj 113 94 hradio 18 1 0 2 empty empty empty 0 -9 0 10 #fcfcfc #000000 #000000 0;
#X obj 253 94 hradio 18 1 0 4 empty empty empty 0 -9 0 10 #fcfcfc #000000 #000000 0;
#X obj 533 95 hradio 18 1 0 8 empty empty empty 0 -9 0 10 #fcfcfc #000000 #000000 0;
#X connect 0 0 4 0;
#X connect 1 0 0 0;
#X connect 2 0 3 0;
#X connect 3 0 0 0;
#X connect 4 0 5 0;
#X connect 6 0 7 0;
#X connect 7 0 8 0;
#X connect 8 0 46 0;
#X connect 8 0 48 0;
#X connect 8 0 44 0;
#X connect 8 0 42 0;
#X connect 8 0 39 0;
#X connect 8 0 37 0;
#X connect 8 0 35 0;
#X connect 8 0 33 0;
#X connect 8 0 28 0;
#X connect 8 0 26 0;
#X connect 8 0 23 0;
#X connect 8 0 21 0;
#X connect 8 0 16 0;
#X connect 8 0 13 0;
#X connect 8 0 4 0;
#X connect 9 0 14 0;
#X connect 10 0 11 0;
#X connect 11 0 14 0;
#X connect 13 0 12 0;
#X connect 14 0 13 0;
#X connect 14 1 16 0;
#X connect 16 0 15 0;
#X connect 17 0 24 0;
#X connect 18 0 19 0;
#X connect 19 0 24 0;
#X connect 21 0 20 0;
#X connect 23 0 22 0;
#X connect 24 0 21 0;
#X connect 24 1 23 0;
#X connect 24 2 26 0;
#X connect 24 3 28 0;
#X connect 26 0 25 0;
#X connect 28 0 27 0;
#X connect 29 0 40 0;
#X connect 30 0 31 0;
#X connect 31 0 40 0;
#X connect 33 0 32 0;
#X connect 35 0 34 0;
#X connect 37 0 36 0;
#X connect 39 0 38 0;
#X connect 40 0 33 0;
#X connect 40 1 35 0;
#X connect 40 2 37 0;
#X connect 40 3 39 0;
#X connect 40 4 42 0;
#X connect 40 5 44 0;
#X connect 40 6 46 0;
#X connect 40 7 48 0;
#X connect 42 0 41 0;
#X connect 44 0 43 0;
#X connect 46 0 45 0;
#X connect 48 0 47 0;
#X connect 49 0 1 0;
#X connect 50 0 9 0;
#X connect 51 0 17 0;
#X connect 52 0 29 0;
