#N canvas 408 148 725 485 10;
#X obj 118 122 r \$0-to;
#X obj 118 160 s~ \$0-a;
#X obj 97 34 nbx 3 12 0 99999 0 1 empty empty len_f 0 -8 0 10 #bbbbbb #000000 #000000 537 256;
#X obj 167 33 nbx 3 12 0 1e+37 0 1 empty empty inc_f 0 -8 0 10 #bbbbbb #000000 #000000 94 256;
#X obj 97 88 s \$0-to;
#X obj 167 89 s \$0-to;
#X obj 348 293 r~ \$0-a;
#X obj 51 377 s \$0-to;
#X obj 349 388 dac~;
#X obj 349 364 *~ 0;
#X obj 370 325 nbx 3 12 0 1e+37 0 1 empty empty Level 0 -9 0 10 #bbbbbb #000000 #000000 38 256;
#X obj 370 342 * 0.01;
#N canvas 0 50 450 250 (subpatch) 0;
#X array \$0-scope-0 4410 float 4;
#X coords 0 1 4409 -1 200 140 1 0 0;
#X restore 436 324 graph;
#X obj 114 349 r~ \$0-a;
#X obj 506 287 nbx 5 12 1 1e+37 0 1 empty empty empty 0 -9 0 10 #bbbbbb #000000 #000000 4410 256;
#X obj 506 304 array size \$0-scope-0;
#X obj 114 373 tabwrite~ \$0-scope-0;
#X msg 506 239 441;
#X msg 540 248 4410;
#X msg 564 269 44100;
#N canvas 388 66 584 601 transport 0;
#X obj 60 216 bng 26 50 50 0 empty empty rst 3 13 0 10 #fcfcfc #f8fc00 #000000;
#X obj 112 229 nbx 6 13 0 999 0 1 empty empty bpm 12 -7 0 10 #c6feff #000000 #000000 140 256;
#X obj 86 269 s \$0-run;
#X obj 60 289 s \$0-rst;
#X obj 86 76 loadbang;
#X msg 86 99 0;
#X obj 230 234 metro 10;
#X obj 275 195 a_bpm2ms;
#X floatatom 275 216 5 0 999999 1 time96 - - 0;
#X floatatom 230 380 5 0 0 1 pos96 - - 0;
#X obj 57 444 outlet pos96;
#X obj 137 444 outlet run;
#X obj 204 444 outlet time96;
#X obj 359 231 s \$0-time96;
#X obj 112 122 loadbang;
#X obj 86 216 tgl 26 0 empty empty run 3 13 0 10 #fcfcfc #000000 #000000 0 1;
#X obj 230 332 i;
#X obj 279 328 + 1;
#X obj 271 261 r \$0-rst;
#X msg 271 283 0;
#X obj 308 328 moses 96;
#X msg 318 350 0;
#X connect 0 0 3 0;
#X connect 1 0 7 0;
#X connect 4 0 5 0;
#X connect 5 0 15 0;
#X connect 6 0 16 0;
#X connect 7 0 8 0;
#X connect 8 0 6 1;
#X connect 8 0 13 0;
#X connect 8 0 12 0;
#X connect 9 0 10 0;
#X connect 14 0 1 0;
#X connect 15 0 2 0;
#X connect 15 0 11 0;
#X connect 15 0 6 0;
#X connect 16 0 17 0;
#X connect 16 0 9 0;
#X connect 17 0 20 0;
#X connect 18 0 19 0;
#X connect 19 0 16 1;
#X connect 20 0 16 1;
#X connect 20 1 21 0;
#X connect 21 0 16 1;
#X coords 0 -1 1 1 113 42 1 60 200;
#X restore 64 244 pd transport;
#N canvas 290 47 780 639 seq 0;
#X obj 288 403 f;
#X obj 319 217 vsl 16 20 0 1 0 1 empty empty empty 17 7 0 10 #fcfcfc #000000 #000000 0 1;
#X obj 316 403 f;
#X obj 335 217 vsl 16 20 0 1 0 1 empty empty empty 17 7 0 10 #606060 #000000 #000000 0 1;
#X obj 345 403 f;
#X obj 351 217 vsl 16 20 0 1 0 1 empty empty empty 17 7 0 10 #fcfcfc #000000 #000000 0 1;
#X obj 374 403 f;
#X obj 367 217 vsl 16 20 0 1 0 1 empty empty empty 17 7 0 10 #fcfcfc #000000 #000000 1900 1;
#X obj 402 403 f;
#X obj 383 217 vsl 16 20 0 1 0 1 empty empty empty 17 7 0 10 #fcfcfc #000000 #000000 0 1;
#X obj 431 403 f;
#X obj 399 217 vsl 16 20 0 1 0 1 empty empty empty 17 7 0 10 #fcfcfc #000000 #000000 0 1;
#X obj 460 403 f;
#X obj 415 217 vsl 16 20 0 1 0 1 empty empty empty 17 7 0 10 #fcfcfc #000000 #000000 1900 1;
#X obj 488 403 f;
#X obj 431 217 vsl 16 20 0 1 0 1 empty empty empty 17 7 0 10 #fcfcfc #000000 #000000 0 1;
#X obj 517 403 f;
#X obj 447 217 vsl 16 20 0 1 0 1 empty empty empty 17 7 0 10 #fcfcfc #000000 #000000 0 1;
#X obj 546 403 f;
#X obj 463 217 vsl 16 20 0 1 0 1 empty empty empty 17 7 0 10 #fcfcfc #000000 #000000 1900 1;
#X obj 574 403 f;
#X obj 479 217 vsl 16 20 0 1 0 1 empty empty empty 17 7 0 10 #fcfcfc #000000 #000000 0 1;
#X obj 603 403 f;
#X obj 495 217 vsl 16 20 0 1 0 1 empty empty empty 17 7 0 10 #fcfcfc #000000 #000000 0 1;
#X obj 632 403 f;
#X obj 511 217 vsl 16 20 0 1 0 1 empty empty empty 17 7 0 10 #fcfcfc #000000 #000000 1900 1;
#X obj 660 403 f;
#X obj 527 217 vsl 16 20 0 1 0 1 empty empty empty 17 7 0 10 #fcfcfc #000000 #000000 0 1;
#X obj 689 403 f;
#X obj 543 217 vsl 16 20 0 1 0 1 empty empty empty 17 7 0 10 #fcfcfc #000000 #000000 1900 1;
#X obj 718 403 f;
#X obj 288 385 route 0 1 2 3 4 5 6 7 8 9 10 11 12 13 14 15;
#X obj 288 419 f;
#X obj 289 441 outlet;
#X obj 303 159 route 0 1 2 3 4 5 6 7 8 9 10 11 12 13 14 15;
#X obj 533 34 inlet;
#X obj 255 18 loadbang;
#X text 457 52 on;
#X text 457 82 off;
#X msg 255 36 16;
#X msg 533 77 \$1 \$2;
#X obj 376 559 outlet;
#X obj 380 435 sel 0;
#X text 452 488 gate out(time = step / 2);
#X obj 430 470 / 2;
#X obj 367 485 delay;
#X msg 367 506 0;
#X obj 303 217 vsl 16 20 0 1 0 1 empty empty empty 0 -9 0 10 #fcfcfc #000000 #000000 1700 1;
#X obj 388 458 t b f;
#X obj 255 54 a_itt;
#X obj 39 333 a_position 6 16 0 0 0 16 10;
#X obj 533 54 route set;
#X obj 32 70 inlet pos96;
#X obj 168 69 inlet time96;
#X obj 39 354 a_z;
#X obj 127 310 * 0.01;
#X obj 572 200 vradio 14 1 1 3 empty empty empty 0 -8 0 10 #ffffff #000000 #000000 0;
#X obj 404 200 nbx 2 15 1 96 0 1 empty empty d -10 8 0 10 #c7c6ff #000000 #000000 6 256;
#X obj 447 200 nbx 2 15 1 16 0 1 empty empty s -10 8 0 10 #c7c6ff #000000 #000000 16 256;
#X obj 490 200 nbx 2 15 0 16 0 1 empty empty o -10 8 0 10 #c7c6ff #000000 #000000 0 256;
#X obj 531 200 nbx 2 15 0 100 0 1 empty empty f -10 8 0 10 #e3c6ff #000000 #000000 0 256;
#X text 561 199 >;
#X text 561 212 <;
#X text 561 226 ?;
#X obj 108 69 inlet run;
#X obj 375 535 spigot;
#X obj 273 479 sel 0;
#X msg 280 510 stop;
#X msg 271 534 0;
#X obj 97 135 s \$0-run;
#X msg 339 84 \$1 color 0 22 22;
#X msg 336 53 \$1 color 21 22 22;
#X text 30 419 i_seq16s = seq 16 step slider;
#X connect 0 0 32 0;
#X connect 1 0 2 1;
#X connect 2 0 32 0;
#X connect 3 0 4 1;
#X connect 4 0 32 0;
#X connect 5 0 6 1;
#X connect 6 0 32 0;
#X connect 7 0 8 1;
#X connect 8 0 32 0;
#X connect 9 0 10 1;
#X connect 10 0 32 0;
#X connect 11 0 12 1;
#X connect 12 0 32 0;
#X connect 13 0 14 1;
#X connect 14 0 32 0;
#X connect 15 0 16 1;
#X connect 16 0 32 0;
#X connect 17 0 18 1;
#X connect 18 0 32 0;
#X connect 19 0 20 1;
#X connect 20 0 32 0;
#X connect 21 0 22 1;
#X connect 22 0 32 0;
#X connect 23 0 24 1;
#X connect 24 0 32 0;
#X connect 25 0 26 1;
#X connect 26 0 32 0;
#X connect 27 0 28 1;
#X connect 28 0 32 0;
#X connect 29 0 30 1;
#X connect 30 0 32 0;
#X connect 31 0 0 0;
#X connect 31 1 2 0;
#X connect 31 2 4 0;
#X connect 31 3 6 0;
#X connect 31 4 8 0;
#X connect 31 5 10 0;
#X connect 31 6 12 0;
#X connect 31 7 14 0;
#X connect 31 8 16 0;
#X connect 31 9 18 0;
#X connect 31 10 20 0;
#X connect 31 11 22 0;
#X connect 31 12 24 0;
#X connect 31 13 26 0;
#X connect 31 14 28 0;
#X connect 31 15 30 0;
#X connect 32 0 33 0;
#X connect 32 0 42 0;
#X connect 34 0 47 0;
#X connect 34 1 1 0;
#X connect 34 2 3 0;
#X connect 34 3 5 0;
#X connect 34 4 7 0;
#X connect 34 5 9 0;
#X connect 34 6 11 0;
#X connect 34 7 13 0;
#X connect 34 8 15 0;
#X connect 34 9 17 0;
#X connect 34 10 19 0;
#X connect 34 11 21 0;
#X connect 34 12 23 0;
#X connect 34 13 25 0;
#X connect 34 14 27 0;
#X connect 34 15 29 0;
#X connect 35 0 51 0;
#X connect 36 0 39 0;
#X connect 39 0 49 0;
#X connect 40 0 34 0;
#X connect 42 1 48 0;
#X connect 44 0 45 1;
#X connect 45 0 46 0;
#X connect 46 0 65 0;
#X connect 47 0 0 1;
#X connect 48 0 45 0;
#X connect 48 1 65 0;
#X connect 49 0 70 0;
#X connect 50 0 54 0;
#X connect 50 2 44 0;
#X connect 51 0 40 0;
#X connect 52 0 50 0;
#X connect 53 0 50 7;
#X connect 54 0 31 0;
#X connect 54 0 71 0;
#X connect 54 1 70 0;
#X connect 55 0 50 4;
#X connect 56 0 50 5;
#X connect 57 0 50 1;
#X connect 58 0 50 2;
#X connect 59 0 50 3;
#X connect 60 0 55 0;
#X connect 64 0 69 0;
#X connect 64 0 66 0;
#X connect 64 0 65 1;
#X connect 65 0 41 0;
#X connect 66 0 67 0;
#X connect 66 0 68 0;
#X connect 67 0 45 0;
#X connect 68 0 41 0;
#X connect 70 0 34 0;
#X connect 71 0 34 0;
#X coords 0 -1 1 1 286 42 1 300 200;
#X restore 24 289 pd seq;
#N canvas 0 50 450 250 (subpatch) 0;
#X array \$0-s 3734 float 2;
#X coords 0 1 3734 -1 100 40 1 0 0;
#X restore 500 94 graph;
#X obj 227 33 nbx 3 12 0 1e+37 0 1 empty empty inc_l 0 -8 0 10 #bbbbbb #000000 #000000 44 256;
#X obj 227 89 s \$0-to;
#X obj 345 164 i \$0;
#X obj 345 207 s \$0-to;
#X msg 345 185 array \$1-s;
#X obj 345 47 openpanel;
#X obj 345 25 bng 15 250 50 0 empty empty load\ sample 17 7 0 10 #fcfcfc #000000 #000000;
#X obj 345 122 soundfiler;
#X obj 345 71 pack s \$0;
#X msg 345 96 read -resize \$1 \$2-s;
#X obj 227 48 * 0.01;
#X obj 167 48 * 0.01;
#X obj 37 34 nbx 3 12 0 99999 0 1 empty empty start 0 -8 0 10 #bbbbbb #000000 #000000 0 256;
#X obj 37 88 s \$0-to;
#X msg 97 67 len_f \$1;
#X msg 167 70 inc_f \$1;
#X msg 227 70 inc_l \$1;
#X text 36 191 Arguments: array start len_f inc_f inc_l;
#X obj 118 141 n_ds~ \$0-s 0 0 1 1;
#X obj 24 336 sel 0;
#X obj 51 356 bang;
#X obj 72 124 bng 17 250 50 0 empty empty empty 0 -9 0 10 #fcfcfc #000000 #000000;
#X msg 37 68 start \$1;
#X obj 345 143 bang;
#X obj 465 32 loadbang;
#X msg 465 54 ./samples/kick.wav;
#X connect 0 0 41 0;
#X connect 2 0 37 0;
#X connect 3 0 34 0;
#X connect 6 0 9 0;
#X connect 9 0 8 0;
#X connect 9 0 8 1;
#X connect 10 0 11 0;
#X connect 11 0 9 1;
#X connect 13 0 16 0;
#X connect 14 0 15 0;
#X connect 17 0 14 0;
#X connect 18 0 14 0;
#X connect 19 0 14 0;
#X connect 20 0 21 0;
#X connect 20 1 21 1;
#X connect 20 2 21 2;
#X connect 21 0 42 0;
#X connect 23 0 33 0;
#X connect 25 0 27 0;
#X connect 27 0 26 0;
#X connect 28 0 31 0;
#X connect 29 0 28 0;
#X connect 30 0 46 0;
#X connect 31 0 32 0;
#X connect 32 0 30 0;
#X connect 33 0 39 0;
#X connect 34 0 38 0;
#X connect 35 0 45 0;
#X connect 37 0 4 0;
#X connect 38 0 5 0;
#X connect 39 0 24 0;
#X connect 41 0 1 0;
#X connect 42 1 43 0;
#X connect 43 0 7 0;
#X connect 43 0 16 0;
#X connect 44 0 41 0;
#X connect 45 0 36 0;
#X connect 46 0 25 0;
#X connect 47 0 48 0;
#X connect 48 0 31 0;
