#N canvas 514 249 580 357 12;
#X floatatom 42 75 5 0 0 0 - - - 0;
#X obj 42 98 phasor~;
#X obj 43 286 tabwrite~ \$0-nodelay;
#X obj 177 257 tabwrite~ \$0-delay;
#N canvas 0 50 450 250 (subpatch) 0;
#X array \$0-nodelay 100 float 2;
#X coords 0 1 100 -1 200 80 1 0 0;
#X restore 356 238 graph;
#N canvas 0 50 450 250 (subpatch) 0;
#X array \$0-delay 100 float 2;
#X coords 0 1 100 -1 200 80 1 0 0;
#X restore 356 238 graph;
#X text 181 29 Sample delay.;
#X floatatom 176 122 5 0 0 1 delay\ in\ samples - - 0;
#X obj 105 242 bng 15 250 50 0 empty empty empty 17 7 0 10 #fcfcfc
#000000 #000000;
#X obj 176 158 n_d~ 999 0;
#X obj 70 214 dac~, f 8;
#X obj 69 191 *~ 0.1;
#X obj 122 191 *~ 0.1;
#X text 256 159 Arguments: buffer_size delay;
#X connect 0 0 1 0;
#X connect 1 0 2 0;
#X connect 1 0 9 0;
#X connect 1 0 11 0;
#X connect 7 0 9 0;
#X connect 8 0 2 0;
#X connect 8 0 3 0;
#X connect 9 0 3 0;
#X connect 9 0 12 0;
#X connect 11 0 10 0;
#X connect 12 0 10 1;
