#N canvas 807 189 400 389 10;
#X obj 278 36 nbx 2 14 1 32 0 1 empty empty step 32 8 0 10 #fcfcfc #000000 #000000 16 256;
#X obj 278 52 nbx 2 14 0 32 0 1 empty empty hit 32 8 0 10 #fcfcfc #000000 #000000 10 256;
#X obj 278 68 nbx 2 14 0 32 0 1 empty empty acc 32 8 0 10 #fcfcfc #000000 #000000 4 256;
#X obj 233 80 bng 15 250 50 0 empty empty empty 17 7 0 10 #fcfcfc #000000 #000000;
#X obj 278 84 nbx 2 14 0 32 0 1 empty empty hit_rot 32 8 0 10 #fcfcfc #000000 #000000 0 256;
#X obj 278 100 nbx 2 14 0 32 0 1 empty empty acc_rot 32 8 0 10 #fcfcfc #000000 #000000 0 256;
#X obj 233 226 n_euklid;
#X msg 278 128 step \$1 \, bang;
#X msg 278 148 hit \$1 \, bang;
#X msg 278 168 acc \$1 \, bang;
#X msg 278 188 hit_rot \$1 \, bang;
#X msg 278 208 acc_rot \$1 \, bang;
#X obj 328 244 print;
#N canvas 0 50 450 250 (subpatch) 0;
#X array \$0-euklid 16 float 2;
#X coords 0 2 16 0 256 20 1 0 0;
#X restore 25 306 graph;
#X obj 233 267 array set \$0-euklid;
#X obj 64 74 array size \$0-euklid;
#X obj 28 306 hsl 251 20 0 16 0 0 empty empty empty -2 -9 0 10 #fcfcfc #ff0400 #000000 0 1;
#X msg 44 212 range 0 \$1;
#X obj 44 192 - 1;
#X obj 44 232 nbx 5 16 0 15 0 0 empty empty empty 0 -9 0 10 #fcfcfc #000000 #000000 0 256;
#X obj 104 248 tabread \$0-euklid;
#X floatatom 104 271 5 0 0 0 - - - 0;
#X obj 25 50 t f f f;
#X msg 25 98 range 0 \$1;
#X connect 0 0 7 0;
#X connect 0 0 22 0;
#X connect 1 0 8 0;
#X connect 2 0 9 0;
#X connect 3 0 6 0;
#X connect 4 0 10 0;
#X connect 5 0 11 0;
#X connect 6 0 12 0;
#X connect 6 0 14 0;
#X connect 7 0 6 0;
#X connect 8 0 6 0;
#X connect 9 0 6 0;
#X connect 10 0 6 0;
#X connect 11 0 6 0;
#X connect 17 0 19 0;
#X connect 18 0 17 0;
#X connect 19 0 16 0;
#X connect 19 0 20 0;
#X connect 20 0 21 0;
#X connect 22 0 23 0;
#X connect 22 1 18 0;
#X connect 22 2 15 0;
#X connect 23 0 16 0;
