#N canvas 686 177 468 456 10;
#X obj 22 133 osc~;
#X obj 162 48 mtof;
#X obj 162 32 nbx 5 14 0 120 0 1 empty empty pitch 56 7 0 10 #fcfcfc #000000 #000000 120 256;
#X obj 162 67 nbx 5 14 0 99999 0 0 empty empty freq 56 7 0 10 #fcfcfc #000000 #000000 0 256;
#X obj 162 159 nbx 5 14 0 99999 0 0 empty empty samples 56 7 0 10 #fcfcfc #000000 #000000 0 256;
#X obj 162 102 samplerate~;
#X obj 162 83 t b f;
#X obj 162 121 /;
#X obj 162 140 i;
#X obj 313 181 nbx 5 14 -999 999 0 1 empty empty treshold 56 7 0 10 #fcfcfc #000000 #000000 0 256;
#X obj 329 34 tgl 15 1 empty empty rise/fall 17 7 0 10 #fcfcfc #000000 #000000 1 1;
#X obj 22 206 +~ 0;
#X obj 22 67 nbx 5 14 0 99999 0 0 empty empty freq 56 7 0 10 #fcfcfc #000000 #000000 0 256;
#N canvas 0 0 450 300 (subpatch) 0;
#X array \$0-a 150 float 2;
#X coords 0 1 150 -1 200 100 1 0 0;
#X restore 193 344 graph;
#X obj 22 47 mtof;
#X obj 22 31 nbx 3 14 0 120 0 1 empty empty pitch 42 7 0 10 #bbbbbb #000000 #000000 62 256;
#X text 271 101 set minimal length record;
#X text 259 28 ---;
#X text 259 177 ---;
#X text 271 42 |;
#X text 271 56 |;
#X text 271 70 |;
#X text 271 84 |;
#X text 271 121 |;
#X text 271 135 |;
#X text 271 149 |;
#X text 271 163 |;
#X text 227 310 record 1 period wave;
#X msg 22 83 \$1 50;
#X obj 22 103 line~;
#X obj 43 308 nbx 3 14 0 999 0 1 empty empty amp 42 7 0 10 #bbbbbb #000000 #000000 65 256;
#X obj 43 324 * 0.01;
#X obj 22 345 *~ 0;
#X obj 22 368 dac~;
#X obj 54 151 nbx 3 14 0 999 0 1 empty empty amp 42 7 0 10 #bbbbbb #000000 #000000 78 256;
#X obj 54 167 * 0.01;
#X obj 22 167 *~ 0;
#X obj 54 190 nbx 3 14 -999 999 0 1 empty empty dc 42 7 0 10 #bbbbbb #000000 #000000 0 256;
#X obj 54 206 * 0.01;
#X obj 22 252 n_freez~ \$0-a;
#X msg 162 175 min_len \$1;
#X obj 30 229 r \$0-to;
#X obj 162 195 s \$0-to;
#X obj 313 237 s \$0-to;
#X msg 313 217 treshold \$1;
#X msg 329 51 mode \$1;
#X obj 329 72 s \$0-to;
#X obj 164 234 bng 18 250 50 0 empty empty empty 0 -9 0 10 #fcfcfc #000000 #000000;
#X obj 313 197 * 0.01;
#X obj 97 273 tgl 18 0 empty empty rec 22 8 0 10 #fcfcfc #000000 #000000 0 1;
#X connect 0 0 36 0;
#X connect 1 0 3 0;
#X connect 2 0 1 0;
#X connect 3 0 6 0;
#X connect 4 0 40 0;
#X connect 5 0 7 0;
#X connect 6 0 5 0;
#X connect 6 1 7 1;
#X connect 7 0 8 0;
#X connect 8 0 4 0;
#X connect 9 0 48 0;
#X connect 10 0 45 0;
#X connect 11 0 39 0;
#X connect 12 0 28 0;
#X connect 14 0 12 0;
#X connect 15 0 14 0;
#X connect 28 0 29 0;
#X connect 29 0 0 0;
#X connect 30 0 31 0;
#X connect 31 0 32 1;
#X connect 32 0 33 0;
#X connect 32 0 33 1;
#X connect 34 0 35 0;
#X connect 35 0 36 1;
#X connect 36 0 11 0;
#X connect 37 0 38 0;
#X connect 38 0 11 1;
#X connect 39 0 32 0;
#X connect 39 1 49 0;
#X connect 40 0 42 0;
#X connect 41 0 39 0;
#X connect 44 0 43 0;
#X connect 45 0 46 0;
#X connect 47 0 39 0;
#X connect 48 0 44 0;
