#N canvas 149 128 934 460 10;
#X obj 130 342 a_cpu;
#X obj 11 279 r \$0-to;
#X obj 11 299 n_graincloud~;
#X text 111 298 arguments: -;
#N canvas 0 50 450 250 (subpatch) 0;
#X array \$0-a 269338 float 2;
#X coords 0 1 269338 -1 200 60 1 0 0;
#X restore 11 198 graph;
#X obj 14 1 bng 15 250 50 0 empty empty empty 17 7 0 10 #fcfcfc #000000 #000000;
#X obj 14 19 openpanel;
#X obj 91 135 soundfiler;
#X obj 14 158 s \$0-to;
#X floatatom 91 155 10 0 0 1 sample_size - - 0;
#X obj 23 39 loadbang;
#X obj 91 174 s \$0-sample-size;
#X obj 14 79 t b s;
#X msg 22 59 symbol ./samples/loop.wav;
#X obj 91 97 pack s \$0;
#X msg 91 117 read -resize \$1 \$2-a;
#X obj 14 118 i \$0;
#X msg 14 138 array \$1-a;
#X obj 349 149 nbx 3 14 0 1e+37 0 1 empty empty level 38 8 0 10 #fcfcfc #000000 #000000 101 256;
#X obj 384 165 nbx 3 14 0 100 0 1 empty empty position 38 8 0 10 #fcfcfc #000000 #000000 27.81 256;
#X obj 349 225 * 0.01;
#X obj 418 181 nbx 3 14 0 100 0 1 empty empty length 38 8 0 10 #fcfcfc #000000 #000000 1 256;
#X obj 453 197 nbx 3 14 0 10000 0 1 empty empty speed 38 8 0 10 #fcfcfc #000000 #000000 100 256;
#X obj 453 249 * 0.01;
#N canvas 375 158 439 348 (subpatch) 0;
#X obj 226 128 r \$0-sample-size;
#X obj 178 139 inlet;
#X obj 178 240 outlet;
#X obj 178 160 * 0.01;
#X obj 226 149 - 1;
#X obj 226 170 t b f;
#X obj 178 204 *;
#X connect 0 0 4 0;
#X connect 1 0 3 0;
#X connect 3 0 6 0;
#X connect 4 0 5 0;
#X connect 5 0 6 0;
#X connect 5 1 6 1;
#X connect 6 0 2 0;
#X restore 384 247 pd;
#N canvas 375 158 439 348 (subpatch) 0;
#X obj 226 128 r \$0-sample-size;
#X obj 178 139 inlet;
#X obj 178 246 outlet;
#X obj 178 160 * 0.01;
#X obj 226 149 - 1;
#X obj 226 170 t b f;
#X obj 178 204 *;
#X obj 178 225 + 1;
#X connect 0 0 4 0;
#X connect 1 0 3 0;
#X connect 3 0 6 0;
#X connect 4 0 5 0;
#X connect 5 0 6 0;
#X connect 5 1 6 1;
#X connect 6 0 7 0;
#X connect 7 0 2 0;
#X restore 418 248 pd;
#X obj 488 213 nbx 3 14 -100 100 0 1 empty empty pan 38 8 0 10 #fcfcfc #000000 #000000 0 256;
#X obj 488 269 * 0.01;
#X obj 314 133 nbx 3 14 0 63 0 1 empty empty number 38 8 0 10 #fcfcfc #000000 #000000 0 256;
#X obj 280 349 s \$0-to;
#X obj 280 162 bng 15 250 50 0 empty empty play -32 7 0 10 #fcfcfc #000000 #000000;
#N canvas 556 165 518 503 key 0;
#X obj 100 42 key;
#X obj 300 160 keyup;
#X obj 300 181 sel 113;
#X obj 100 67 route 113;
#X obj 299 203 delay 50;
#X msg 299 224 0;
#X obj 100 88 t b b;
#X msg 163 131 stop;
#X msg 111 189 127;
#X obj 177 289 change;
#X obj 177 350 outlet;
#X obj 177 310 sel 0;
#X connect 0 0 3 0;
#X connect 1 0 2 0;
#X connect 2 0 4 0;
#X connect 3 0 6 0;
#X connect 4 0 5 0;
#X connect 5 0 9 0;
#X connect 6 0 8 0;
#X connect 6 1 7 0;
#X connect 7 0 4 0;
#X connect 8 0 9 0;
#X connect 9 0 11 0;
#X connect 11 1 10 0;
#X coords 0 503 1 502 66 15 0;
#X restore 280 112 pd key q;
#X obj 630 139 tgl 15 0 empty empty empty 17 7 0 10 #faff00 #000000 #000000 0 1;
#X obj 630 157 metro;
#X obj 657 140 nbx 5 14 1 1000 0 1 empty empty empty 0 -8 0 10 #fcfcfc #000000 #000000 71 256;
#X obj 630 177 i;
#X obj 630 197 + 1;
#X obj 630 217 mod 16;
#X obj 702 423 s \$0-to;
#X obj 725 29 nbx 5 14 0 1000 0 1 empty empty level 0 -8 0 10 #fcfcfc #000000 #000000 31 256;
#X obj 742 118 nbx 5 14 0 100 0 1 empty empty pos 8 -8 0 10 #fcfcfc #000000 #000000 14.9606 256;
#N canvas 375 158 439 348 (subpatch) 0;
#X obj 226 128 r \$0-sample-size;
#X obj 178 139 inlet;
#X obj 178 240 outlet;
#X obj 178 160 * 0.01;
#X obj 226 149 - 1;
#X obj 226 170 t b f;
#X obj 178 204 *;
#X connect 0 0 4 0;
#X connect 1 0 3 0;
#X connect 3 0 6 0;
#X connect 4 0 5 0;
#X connect 5 0 6 0;
#X connect 5 1 6 1;
#X connect 6 0 2 0;
#X restore 741 134 pd;
#X obj 760 184 nbx 5 14 0 100 0 1 empty empty length 0 -8 0 10 #fcfcfc #000000 #000000 12 256;
#N canvas 375 158 439 348 (subpatch) 0;
#X obj 226 128 r \$0-sample-size;
#X obj 178 139 inlet;
#X obj 178 240 outlet;
#X obj 178 160 * 0.01;
#X obj 226 149 - 1;
#X obj 226 170 t b f;
#X obj 178 204 *;
#X connect 0 0 4 0;
#X connect 1 0 3 0;
#X connect 3 0 6 0;
#X connect 4 0 5 0;
#X connect 5 0 6 0;
#X connect 5 1 6 1;
#X connect 6 0 2 0;
#X restore 760 200 pd;
#X obj 780 249 nbx 5 14 0 1000 0 1 empty empty speed 0 -8 0 10 #fcfcfc #000000 #000000 106 256;
#X obj 780 281 * 0.01;
#X obj 799 314 nbx 5 14 -100 100 0 1 empty empty pan 0 -8 0 10 #fcfcfc #000000 #000000 0 256;
#X obj 799 346 * 0.01;
#X obj 630 237 t f b;
#X obj 663 201 nbx 5 14 1 64 0 1 empty empty empty 0 -8 0 10 #fcfcfc #000000 #000000 5 256;
#X obj 745 86 hsl 128 15 0 100 0 0 empty empty empty -2 -8 0 10 #fcfcfc #000000 #000000 0 1;
#N canvas 0 16 450 300 (subpatch) 0;
#X obj 117 69 inlet;
#X obj 117 229 outlet;
#X obj 167 74 r \$0-metro;
#X obj 167 132 random;
#X obj 200 100 nbx 5 14 0 10000 0 1 empty empty empty 0 -8 0 10 #c7c6ff #000000 #000000 0 256;
#X obj 117 203 +;
#X obj 117 92 t b f;
#X connect 0 0 6 0;
#X connect 2 0 3 0;
#X connect 3 0 5 0;
#X connect 4 0 3 1;
#X connect 5 0 1 0;
#X connect 6 0 5 0;
#X connect 6 1 5 1;
#X coords 0 -1 1 1 54 14 2 200 100;
#X restore 799 330 pd;
#N canvas 0 16 450 300 (subpatch) 0;
#X obj 117 69 inlet;
#X obj 117 229 outlet;
#X obj 167 74 r \$0-metro;
#X obj 167 132 random;
#X obj 200 100 nbx 5 14 0 10000 0 1 empty empty empty 0 -8 0 10 #c7c6ff #000000 #000000 4 256;
#X obj 117 203 +;
#X obj 117 92 t b f;
#X connect 0 0 6 0;
#X connect 2 0 3 0;
#X connect 3 0 5 0;
#X connect 4 0 3 1;
#X connect 5 0 1 0;
#X connect 6 0 5 0;
#X connect 6 1 5 1;
#X coords 0 -1 1 1 54 14 2 200 100;
#X restore 780 265 pd;
#N canvas 0 16 450 300 (subpatch) 0;
#X obj 117 69 inlet;
#X obj 117 229 outlet;
#X obj 167 74 r \$0-metro;
#X obj 167 132 random;
#X obj 200 100 nbx 5 14 0 10000 0 1 empty empty empty 0 -8 0 10 #c7c6ff #000000 #000000 542 256;
#X obj 117 203 +;
#X obj 117 92 t b f;
#X connect 0 0 6 0;
#X connect 2 0 3 0;
#X connect 3 0 5 0;
#X connect 4 0 3 1;
#X connect 5 0 1 0;
#X connect 6 0 5 0;
#X connect 6 1 5 1;
#X coords 0 -1 1 1 54 14 2 200 100;
#X restore 760 220 pd;
#N canvas 455 216 450 300 (subpatch) 0;
#X obj 117 69 inlet;
#X obj 117 229 outlet;
#X obj 167 74 r \$0-metro;
#X obj 167 132 random;
#X obj 200 100 nbx 5 14 0 10000 0 1 empty empty empty 0 -8 0 10 #c7c6ff #000000 #000000 1503 256;
#X obj 117 203 +;
#X obj 117 92 t b f;
#X connect 0 0 6 0;
#X connect 2 0 3 0;
#X connect 3 0 5 0;
#X connect 4 0 3 1;
#X connect 5 0 1 0;
#X connect 6 0 5 0;
#X connect 6 1 5 1;
#X coords 0 -1 1 1 54 14 2 200 100;
#X restore 741 154 pd;
#X obj 725 61 * 0.01;
#N canvas 0 16 450 300 (subpatch) 0;
#X obj 117 69 inlet;
#X obj 117 229 outlet;
#X obj 167 74 r \$0-metro;
#X obj 167 132 random;
#X obj 200 100 nbx 5 14 0 10000 0 1 empty empty empty 0 -8 0 10 #c7c6ff #000000 #000000 0 256;
#X obj 117 203 +;
#X obj 117 92 t b f;
#X connect 0 0 6 0;
#X connect 2 0 3 0;
#X connect 3 0 5 0;
#X connect 4 0 3 1;
#X connect 5 0 1 0;
#X connect 6 0 5 0;
#X connect 6 1 5 1;
#X coords 0 -1 1 1 54 14 2 200 100;
#X restore 725 45 pd;
#X floatatom 630 278 5 0 0 1 number - - 0;
#X obj 657 257 s \$0-metro;
#X obj 280 309 pack f f f f f f f f, f 41;
#X obj 523 229 nbx 3 14 0 100 0 1 empty empty shape 38 8 0 10 #fcfcfc #000000 #000000 0 256;
#X obj 523 289 * 0.01;
#X msg 280 329 s \$2 \$3 \$4 \$5 \$6 \$7 \$8;
#X obj 702 368 pack f f f f f f f, f 20;
#X obj 858 318 nbx 5 14 0 100 0 1 empty empty shape 0 -8 0 10 #fcfcfc #000000 #000000 0 256;
#X obj 858 350 * 0.01;
#N canvas 0 16 450 300 (subpatch) 0;
#X obj 117 69 inlet;
#X obj 117 229 outlet;
#X obj 167 74 r \$0-metro;
#X obj 167 132 random;
#X obj 200 100 nbx 5 14 0 10000 0 1 empty empty empty 0 -8 0 10 #c7c6ff #000000 #000000 0 256;
#X obj 117 203 +;
#X obj 117 92 t b f;
#X connect 0 0 6 0;
#X connect 2 0 3 0;
#X connect 3 0 5 0;
#X connect 4 0 3 1;
#X connect 5 0 1 0;
#X connect 6 0 5 0;
#X connect 6 1 5 1;
#X coords 0 -1 1 1 54 14 2 200 100;
#X restore 858 334 pd;
#X msg 702 403 s \$1 \$2 \$3 \$4 \$5 \$6 \$7;
#X obj 12 364 dac~, f 13;
#X connect 1 0 2 0;
#X connect 2 0 68 0;
#X connect 2 1 68 1;
#X connect 5 0 6 0;
#X connect 6 0 12 0;
#X connect 7 0 9 0;
#X connect 9 0 11 0;
#X connect 10 0 13 0;
#X connect 12 0 16 0;
#X connect 12 1 14 0;
#X connect 13 0 12 0;
#X connect 14 0 15 0;
#X connect 15 0 7 0;
#X connect 16 0 17 0;
#X connect 17 0 8 0;
#X connect 18 0 20 0;
#X connect 19 0 24 0;
#X connect 20 0 59 2;
#X connect 21 0 25 0;
#X connect 22 0 23 0;
#X connect 23 0 59 5;
#X connect 24 0 59 3;
#X connect 25 0 59 4;
#X connect 26 0 27 0;
#X connect 27 0 59 6;
#X connect 28 0 59 1;
#X connect 30 0 59 0;
#X connect 31 0 30 0;
#X connect 32 0 33 0;
#X connect 33 0 35 0;
#X connect 34 0 33 1;
#X connect 35 0 36 0;
#X connect 36 0 37 0;
#X connect 37 0 35 1;
#X connect 37 0 48 0;
#X connect 39 0 56 0;
#X connect 40 0 41 0;
#X connect 41 0 54 0;
#X connect 42 0 43 0;
#X connect 43 0 53 0;
#X connect 44 0 52 0;
#X connect 45 0 63 4;
#X connect 46 0 51 0;
#X connect 47 0 63 5;
#X connect 48 0 57 0;
#X connect 48 1 58 0;
#X connect 49 0 37 1;
#X connect 50 0 40 0;
#X connect 51 0 47 0;
#X connect 52 0 45 0;
#X connect 53 0 63 3;
#X connect 54 0 63 2;
#X connect 55 0 63 1;
#X connect 56 0 55 0;
#X connect 57 0 63 0;
#X connect 59 0 62 0;
#X connect 60 0 61 0;
#X connect 61 0 59 7;
#X connect 62 0 29 0;
#X connect 63 0 67 0;
#X connect 64 0 66 0;
#X connect 65 0 63 6;
#X connect 66 0 65 0;
#X connect 67 0 38 0;
