#N canvas 422 168 516 396 10;
#X text 189 12 Image.;
#X obj 63 135 n_img default.gif 33 32;
#X floatatom 63 60 5 0 0 1 frame(0-32) - - 0;
#X obj 277 222 n_img tk_logo100.gif 1 0;
#X msg 277 127 image tk_logo100.gif 1 0;
#X msg 286 147 image tk_logo64.gif 1 0;
#X msg 296 167 image pd_logo.gif 1 0;
#X text 158 30 Only GIF format.;
#X obj 25 294 n_img default_24.gif 65 62;
#X floatatom 25 219 5 0 0 1 frame(0-64) - - 0;
#X obj 159 291 n_img default_32.gif 65 48;
#X floatatom 159 216 5 0 0 1 frame(0-64) - - 0;
#X connect 2 0 1 0;
#X connect 4 0 3 0;
#X connect 5 0 3 0;
#X connect 6 0 3 0;
#X connect 9 0 8 0;
#X connect 11 0 10 0;
