#N canvas 550 105 746 551 10;
#X obj 40 265 n_key2n;
#X obj 40 247 r \$0-to;
#X obj 42 26 tgl 15 1 empty empty on 17 7 0 10 -262144 -1 -1 1 1;
#X msg 42 49 on \$1;
#X obj 42 67 s \$0-to;
#X obj 130 67 s \$0-to;
#X msg 130 49 octave \$1;
#X obj 130 8 bng 15 250 50 0 empty empty octave_down 17 7 0 10 -262144
-1 -1;
#X msg 130 28 -2;
#X obj 240 67 s \$0-to;
#X msg 240 49 octave \$1;
#X obj 240 8 bng 15 250 50 0 empty empty octave_up 17 7 0 10 -262144
-1 -1;
#X msg 240 28 -1;
#X obj 340 67 s \$0-to;
#X msg 340 49 octave \$1;
#X obj 340 31 nbx 5 14 0 12 0 0 empty empty octave 0 -8 0 10 -262144
-1 -1 0 256;
#X obj 40 193 s \$0-to;
#X obj 40 157 nbx 5 14 1 32 0 0 empty empty voice 0 -8 0 10 -262144
-1 -1 1 256;
#X msg 40 175 voice \$1;
#X obj 130 193 s \$0-to;
#X obj 130 157 nbx 5 14 0 127 0 0 empty empty velocity 0 -8 0 10 -262144
-1 -1 0 256;
#X msg 130 175 vel \$1;
#X obj 288 142 vradio 15 1 1 2 empty empty mode 0 -8 0 10 -262144 -1
-1 1;
#X text 303 143 _CYCLE;
#X text 303 158 _FREE;
#X obj 288 193 s \$0-to;
#X msg 288 175 mode \$1;
#X obj 517 65 s \$0-to;
#X obj 517 29 nbx 5 14 0 1000 0 0 empty empty tkr 0 -8 0 10 -262144
-1 -1 0 256;
#X msg 517 47 tkr \$1;
#X msg 455 44 reset;
#X obj 455 65 s \$0-to;
#N canvas 317 72 487 415 poly 0;
#X obj 195 299 t b f;
#X obj 165 281 t b f;
#X obj 135 262 t b f;
#X obj 230 242 * 0.01;
#X obj 270 341 outlet~;
#X obj 281 111 inlet;
#X obj 105 133 vsl 20 100 -20 127 0 1 empty empty ATT 0 -9 0 10 -262130
-1 -1 0 1;
#X obj 105 243 mtof;
#X obj 135 133 vsl 20 100 -20 127 0 1 empty empty DEC 0 -9 0 10 -262130
-1 -1 4100 1;
#X obj 135 243 mtof;
#X obj 165 133 vsl 20 100 0 100 0 1 empty empty SUS 0 -9 0 10 -262130
-1 -1 1500 1;
#X obj 195 133 vsl 20 100 -20 150 0 1 empty empty REL 0 -9 0 10 -262130
-1 -1 6200 1;
#X obj 195 242 mtof;
#X obj 230 133 vsl 20 100 0 25 0 1 empty empty AMP 0 -9 0 10 -228856
-1 -1 3000 1;
#X obj 281 132 route 0 1 2 3 4 5 6 7;
#X obj 270 322 *~ 0;
#N canvas 166 243 321 292 syntch 0;
#N canvas 380 161 840 607 envelope 0;
#X obj 102 94 inlet;
#X obj 115 149 sel 0;
#X obj 339 308 t b;
#X obj 459 252 inlet;
#X obj 418 387 del \$2;
#X obj 461 465 pack 0 \$3;
#X obj 534 257 inlet;
#X obj 596 257 inlet;
#X obj 669 256 inlet;
#X msg 115 180 stop;
#X obj 592 412 pack 0 \$5;
#X text 455 230 attack;
#X text 535 234 decay;
#X text 589 235 sustain;
#X text 666 235 release;
#X obj 299 245 moses;
#X obj 289 275 t b b;
#X msg 97 395 0;
#X obj 220 368 f 1;
#X obj 118 118 t f f;
#X obj 459 582 outlet~;
#X text 98 69 trigger/peak;
#X text 78 33 ADSR ENVELOPE \, more or less from pd doc \, audio-rate
version;
#X obj 223 400 pack 0 \$1;
#X obj 459 557 vline~;
#X obj 478 384 * \$4;
#X obj 447 421 f;
#X connect 0 0 19 0;
#X connect 1 0 9 0;
#X connect 1 0 10 0;
#X connect 1 1 15 0;
#X connect 2 0 4 0;
#X connect 2 0 18 0;
#X connect 3 0 4 1;
#X connect 3 0 23 1;
#X connect 4 0 26 0;
#X connect 5 0 24 0;
#X connect 6 0 5 1;
#X connect 7 0 25 1;
#X connect 8 0 10 1;
#X connect 9 0 4 0;
#X connect 10 0 24 0;
#X connect 15 0 16 0;
#X connect 15 1 2 0;
#X connect 16 0 2 0;
#X connect 16 1 17 0;
#X connect 17 0 24 0;
#X connect 18 0 23 0;
#X connect 19 0 1 0;
#X connect 19 1 18 1;
#X connect 19 1 25 0;
#X connect 23 0 24 0;
#X connect 24 0 20 0;
#X connect 25 0 26 1;
#X connect 26 0 5 0;
#X restore 134 181 pd envelope;
#X obj 192 149 * 0.01;
#X obj 90 128 * 0.01;
#X obj 57 128 mtof;
#X obj 57 164 osc~;
#X obj 57 197 *~;
#X obj 56 234 outlet~;
#X obj 57 98 unpack;
#X obj 138 128 unpack f f f f;
#X obj 138 108 r \$0-eg;
#X obj 57 71 inlet [pitch:gate];
#X connect 0 0 5 1;
#X connect 1 0 0 3;
#X connect 2 0 0 0;
#X connect 3 0 4 0;
#X connect 4 0 5 0;
#X connect 5 0 6 0;
#X connect 7 0 3 0;
#X connect 7 1 2 0;
#X connect 8 0 0 1;
#X connect 8 1 0 2;
#X connect 8 2 1 0;
#X connect 8 3 0 4;
#X connect 9 0 8 0;
#X connect 10 0 7 0;
#X restore 281 291 pd syntch;
#X obj 105 338 s \$0-eg;
#N canvas 166 243 321 292 syntch 0;
#N canvas 380 161 840 607 envelope 0;
#X obj 102 94 inlet;
#X obj 115 149 sel 0;
#X obj 339 308 t b;
#X obj 459 252 inlet;
#X obj 418 387 del \$2;
#X obj 461 465 pack 0 \$3;
#X obj 534 257 inlet;
#X obj 596 257 inlet;
#X obj 669 256 inlet;
#X msg 115 180 stop;
#X obj 592 412 pack 0 \$5;
#X text 455 230 attack;
#X text 535 234 decay;
#X text 589 235 sustain;
#X text 666 235 release;
#X obj 299 245 moses;
#X obj 289 275 t b b;
#X msg 97 395 0;
#X obj 220 368 f 1;
#X obj 118 118 t f f;
#X obj 459 582 outlet~;
#X text 98 69 trigger/peak;
#X text 78 33 ADSR ENVELOPE \, more or less from pd doc \, audio-rate
version;
#X obj 223 400 pack 0 \$1;
#X obj 459 557 vline~;
#X obj 478 384 * \$4;
#X obj 447 421 f;
#X connect 0 0 19 0;
#X connect 1 0 9 0;
#X connect 1 0 10 0;
#X connect 1 1 15 0;
#X connect 2 0 4 0;
#X connect 2 0 18 0;
#X connect 3 0 4 1;
#X connect 3 0 23 1;
#X connect 4 0 26 0;
#X connect 5 0 24 0;
#X connect 6 0 5 1;
#X connect 7 0 25 1;
#X connect 8 0 10 1;
#X connect 9 0 4 0;
#X connect 10 0 24 0;
#X connect 15 0 16 0;
#X connect 15 1 2 0;
#X connect 16 0 2 0;
#X connect 16 1 17 0;
#X connect 17 0 24 0;
#X connect 18 0 23 0;
#X connect 19 0 1 0;
#X connect 19 1 18 1;
#X connect 19 1 25 0;
#X connect 23 0 24 0;
#X connect 24 0 20 0;
#X connect 25 0 26 1;
#X connect 26 0 5 0;
#X restore 134 181 pd envelope;
#X obj 192 149 * 0.01;
#X obj 90 128 * 0.01;
#X obj 57 128 mtof;
#X obj 57 164 osc~;
#X obj 57 197 *~;
#X obj 56 234 outlet~;
#X obj 57 98 unpack;
#X obj 138 128 unpack f f f f;
#X obj 138 108 r \$0-eg;
#X obj 57 71 inlet [pitch:gate];
#X connect 0 0 5 1;
#X connect 1 0 0 3;
#X connect 2 0 0 0;
#X connect 3 0 4 0;
#X connect 4 0 5 0;
#X connect 5 0 6 0;
#X connect 7 0 3 0;
#X connect 7 1 2 0;
#X connect 8 0 0 1;
#X connect 8 1 0 2;
#X connect 8 2 1 0;
#X connect 8 3 0 4;
#X connect 9 0 8 0;
#X connect 10 0 7 0;
#X restore 296 271 pd syntch;
#N canvas 166 243 321 292 syntch 0;
#N canvas 380 161 840 607 envelope 0;
#X obj 102 94 inlet;
#X obj 115 149 sel 0;
#X obj 339 308 t b;
#X obj 459 252 inlet;
#X obj 418 387 del \$2;
#X obj 461 465 pack 0 \$3;
#X obj 534 257 inlet;
#X obj 596 257 inlet;
#X obj 669 256 inlet;
#X msg 115 180 stop;
#X obj 592 412 pack 0 \$5;
#X text 455 230 attack;
#X text 535 234 decay;
#X text 589 235 sustain;
#X text 666 235 release;
#X obj 299 245 moses;
#X obj 289 275 t b b;
#X msg 97 395 0;
#X obj 220 368 f 1;
#X obj 118 118 t f f;
#X obj 459 582 outlet~;
#X text 98 69 trigger/peak;
#X text 78 33 ADSR ENVELOPE \, more or less from pd doc \, audio-rate
version;
#X obj 223 400 pack 0 \$1;
#X obj 459 557 vline~;
#X obj 478 384 * \$4;
#X obj 447 421 f;
#X connect 0 0 19 0;
#X connect 1 0 9 0;
#X connect 1 0 10 0;
#X connect 1 1 15 0;
#X connect 2 0 4 0;
#X connect 2 0 18 0;
#X connect 3 0 4 1;
#X connect 3 0 23 1;
#X connect 4 0 26 0;
#X connect 5 0 24 0;
#X connect 6 0 5 1;
#X connect 7 0 25 1;
#X connect 8 0 10 1;
#X connect 9 0 4 0;
#X connect 10 0 24 0;
#X connect 15 0 16 0;
#X connect 15 1 2 0;
#X connect 16 0 2 0;
#X connect 16 1 17 0;
#X connect 17 0 24 0;
#X connect 18 0 23 0;
#X connect 19 0 1 0;
#X connect 19 1 18 1;
#X connect 19 1 25 0;
#X connect 23 0 24 0;
#X connect 24 0 20 0;
#X connect 25 0 26 1;
#X connect 26 0 5 0;
#X restore 134 181 pd envelope;
#X obj 192 149 * 0.01;
#X obj 90 128 * 0.01;
#X obj 57 128 mtof;
#X obj 57 164 osc~;
#X obj 57 197 *~;
#X obj 56 234 outlet~;
#X obj 57 98 unpack;
#X obj 138 128 unpack f f f f;
#X obj 138 108 r \$0-eg;
#X obj 57 71 inlet [pitch:gate];
#X connect 0 0 5 1;
#X connect 1 0 0 3;
#X connect 2 0 0 0;
#X connect 3 0 4 0;
#X connect 4 0 5 0;
#X connect 5 0 6 0;
#X connect 7 0 3 0;
#X connect 7 1 2 0;
#X connect 8 0 0 1;
#X connect 8 1 0 2;
#X connect 8 2 1 0;
#X connect 8 3 0 4;
#X connect 9 0 8 0;
#X connect 10 0 7 0;
#X restore 311 251 pd syntch;
#N canvas 166 243 321 292 syntch 0;
#N canvas 380 161 840 607 envelope 0;
#X obj 102 94 inlet;
#X obj 115 149 sel 0;
#X obj 339 308 t b;
#X obj 459 252 inlet;
#X obj 418 387 del \$2;
#X obj 461 465 pack 0 \$3;
#X obj 534 257 inlet;
#X obj 596 257 inlet;
#X obj 669 256 inlet;
#X msg 115 180 stop;
#X obj 592 412 pack 0 \$5;
#X text 455 230 attack;
#X text 535 234 decay;
#X text 589 235 sustain;
#X text 666 235 release;
#X obj 299 245 moses;
#X obj 289 275 t b b;
#X msg 97 395 0;
#X obj 220 368 f 1;
#X obj 118 118 t f f;
#X obj 459 582 outlet~;
#X text 98 69 trigger/peak;
#X text 78 33 ADSR ENVELOPE \, more or less from pd doc \, audio-rate
version;
#X obj 223 400 pack 0 \$1;
#X obj 459 557 vline~;
#X obj 478 384 * \$4;
#X obj 447 421 f;
#X connect 0 0 19 0;
#X connect 1 0 9 0;
#X connect 1 0 10 0;
#X connect 1 1 15 0;
#X connect 2 0 4 0;
#X connect 2 0 18 0;
#X connect 3 0 4 1;
#X connect 3 0 23 1;
#X connect 4 0 26 0;
#X connect 5 0 24 0;
#X connect 6 0 5 1;
#X connect 7 0 25 1;
#X connect 8 0 10 1;
#X connect 9 0 4 0;
#X connect 10 0 24 0;
#X connect 15 0 16 0;
#X connect 15 1 2 0;
#X connect 16 0 2 0;
#X connect 16 1 17 0;
#X connect 17 0 24 0;
#X connect 18 0 23 0;
#X connect 19 0 1 0;
#X connect 19 1 18 1;
#X connect 19 1 25 0;
#X connect 23 0 24 0;
#X connect 24 0 20 0;
#X connect 25 0 26 1;
#X connect 26 0 5 0;
#X restore 134 181 pd envelope;
#X obj 192 149 * 0.01;
#X obj 90 128 * 0.01;
#X obj 57 128 mtof;
#X obj 57 164 osc~;
#X obj 57 197 *~;
#X obj 56 234 outlet~;
#X obj 57 98 unpack;
#X obj 138 128 unpack f f f f;
#X obj 138 108 r \$0-eg;
#X obj 57 71 inlet [pitch:gate];
#X connect 0 0 5 1;
#X connect 1 0 0 3;
#X connect 2 0 0 0;
#X connect 3 0 4 0;
#X connect 4 0 5 0;
#X connect 5 0 6 0;
#X connect 7 0 3 0;
#X connect 7 1 2 0;
#X connect 8 0 0 1;
#X connect 8 1 0 2;
#X connect 8 2 1 0;
#X connect 8 3 0 4;
#X connect 9 0 8 0;
#X connect 10 0 7 0;
#X restore 327 231 pd syntch;
#N canvas 166 243 321 292 syntch 0;
#N canvas 380 161 840 607 envelope 0;
#X obj 102 94 inlet;
#X obj 115 149 sel 0;
#X obj 339 308 t b;
#X obj 459 252 inlet;
#X obj 418 387 del \$2;
#X obj 461 465 pack 0 \$3;
#X obj 534 257 inlet;
#X obj 596 257 inlet;
#X obj 669 256 inlet;
#X msg 115 180 stop;
#X obj 592 412 pack 0 \$5;
#X text 455 230 attack;
#X text 535 234 decay;
#X text 589 235 sustain;
#X text 666 235 release;
#X obj 299 245 moses;
#X obj 289 275 t b b;
#X msg 97 395 0;
#X obj 220 368 f 1;
#X obj 118 118 t f f;
#X obj 459 582 outlet~;
#X text 98 69 trigger/peak;
#X text 78 33 ADSR ENVELOPE \, more or less from pd doc \, audio-rate
version;
#X obj 223 400 pack 0 \$1;
#X obj 459 557 vline~;
#X obj 478 384 * \$4;
#X obj 447 421 f;
#X connect 0 0 19 0;
#X connect 1 0 9 0;
#X connect 1 0 10 0;
#X connect 1 1 15 0;
#X connect 2 0 4 0;
#X connect 2 0 18 0;
#X connect 3 0 4 1;
#X connect 3 0 23 1;
#X connect 4 0 26 0;
#X connect 5 0 24 0;
#X connect 6 0 5 1;
#X connect 7 0 25 1;
#X connect 8 0 10 1;
#X connect 9 0 4 0;
#X connect 10 0 24 0;
#X connect 15 0 16 0;
#X connect 15 1 2 0;
#X connect 16 0 2 0;
#X connect 16 1 17 0;
#X connect 17 0 24 0;
#X connect 18 0 23 0;
#X connect 19 0 1 0;
#X connect 19 1 18 1;
#X connect 19 1 25 0;
#X connect 23 0 24 0;
#X connect 24 0 20 0;
#X connect 25 0 26 1;
#X connect 26 0 5 0;
#X restore 134 181 pd envelope;
#X obj 192 149 * 0.01;
#X obj 90 128 * 0.01;
#X obj 57 128 mtof;
#X obj 57 164 osc~;
#X obj 57 197 *~;
#X obj 56 234 outlet~;
#X obj 57 98 unpack;
#X obj 138 128 unpack f f f f;
#X obj 138 108 r \$0-eg;
#X obj 57 71 inlet [pitch:gate];
#X connect 0 0 5 1;
#X connect 1 0 0 3;
#X connect 2 0 0 0;
#X connect 3 0 4 0;
#X connect 4 0 5 0;
#X connect 5 0 6 0;
#X connect 7 0 3 0;
#X connect 7 1 2 0;
#X connect 8 0 0 1;
#X connect 8 1 0 2;
#X connect 8 2 1 0;
#X connect 8 3 0 4;
#X connect 9 0 8 0;
#X connect 10 0 7 0;
#X restore 342 211 pd syntch;
#N canvas 166 243 321 292 syntch 0;
#N canvas 380 161 840 607 envelope 0;
#X obj 102 94 inlet;
#X obj 115 149 sel 0;
#X obj 339 308 t b;
#X obj 459 252 inlet;
#X obj 418 387 del \$2;
#X obj 461 465 pack 0 \$3;
#X obj 534 257 inlet;
#X obj 596 257 inlet;
#X obj 669 256 inlet;
#X msg 115 180 stop;
#X obj 592 412 pack 0 \$5;
#X text 455 230 attack;
#X text 535 234 decay;
#X text 589 235 sustain;
#X text 666 235 release;
#X obj 299 245 moses;
#X obj 289 275 t b b;
#X msg 97 395 0;
#X obj 220 368 f 1;
#X obj 118 118 t f f;
#X obj 459 582 outlet~;
#X text 98 69 trigger/peak;
#X text 78 33 ADSR ENVELOPE \, more or less from pd doc \, audio-rate
version;
#X obj 223 400 pack 0 \$1;
#X obj 459 557 vline~;
#X obj 478 384 * \$4;
#X obj 447 421 f;
#X connect 0 0 19 0;
#X connect 1 0 9 0;
#X connect 1 0 10 0;
#X connect 1 1 15 0;
#X connect 2 0 4 0;
#X connect 2 0 18 0;
#X connect 3 0 4 1;
#X connect 3 0 23 1;
#X connect 4 0 26 0;
#X connect 5 0 24 0;
#X connect 6 0 5 1;
#X connect 7 0 25 1;
#X connect 8 0 10 1;
#X connect 9 0 4 0;
#X connect 10 0 24 0;
#X connect 15 0 16 0;
#X connect 15 1 2 0;
#X connect 16 0 2 0;
#X connect 16 1 17 0;
#X connect 17 0 24 0;
#X connect 18 0 23 0;
#X connect 19 0 1 0;
#X connect 19 1 18 1;
#X connect 19 1 25 0;
#X connect 23 0 24 0;
#X connect 24 0 20 0;
#X connect 25 0 26 1;
#X connect 26 0 5 0;
#X restore 134 181 pd envelope;
#X obj 192 149 * 0.01;
#X obj 90 128 * 0.01;
#X obj 57 128 mtof;
#X obj 57 164 osc~;
#X obj 57 197 *~;
#X obj 56 234 outlet~;
#X obj 57 98 unpack;
#X obj 138 128 unpack f f f f;
#X obj 138 108 r \$0-eg;
#X obj 57 71 inlet [pitch:gate];
#X connect 0 0 5 1;
#X connect 1 0 0 3;
#X connect 2 0 0 0;
#X connect 3 0 4 0;
#X connect 4 0 5 0;
#X connect 5 0 6 0;
#X connect 7 0 3 0;
#X connect 7 1 2 0;
#X connect 8 0 0 1;
#X connect 8 1 0 2;
#X connect 8 2 1 0;
#X connect 8 3 0 4;
#X connect 9 0 8 0;
#X connect 10 0 7 0;
#X restore 357 191 pd syntch;
#N canvas 166 243 321 292 syntch 0;
#N canvas 380 161 840 607 envelope 0;
#X obj 102 94 inlet;
#X obj 115 149 sel 0;
#X obj 339 308 t b;
#X obj 459 252 inlet;
#X obj 418 387 del \$2;
#X obj 461 465 pack 0 \$3;
#X obj 534 257 inlet;
#X obj 596 257 inlet;
#X obj 669 256 inlet;
#X msg 115 180 stop;
#X obj 592 412 pack 0 \$5;
#X text 455 230 attack;
#X text 535 234 decay;
#X text 589 235 sustain;
#X text 666 235 release;
#X obj 299 245 moses;
#X obj 289 275 t b b;
#X msg 97 395 0;
#X obj 220 368 f 1;
#X obj 118 118 t f f;
#X obj 459 582 outlet~;
#X text 98 69 trigger/peak;
#X text 78 33 ADSR ENVELOPE \, more or less from pd doc \, audio-rate
version;
#X obj 223 400 pack 0 \$1;
#X obj 459 557 vline~;
#X obj 478 384 * \$4;
#X obj 447 421 f;
#X connect 0 0 19 0;
#X connect 1 0 9 0;
#X connect 1 0 10 0;
#X connect 1 1 15 0;
#X connect 2 0 4 0;
#X connect 2 0 18 0;
#X connect 3 0 4 1;
#X connect 3 0 23 1;
#X connect 4 0 26 0;
#X connect 5 0 24 0;
#X connect 6 0 5 1;
#X connect 7 0 25 1;
#X connect 8 0 10 1;
#X connect 9 0 4 0;
#X connect 10 0 24 0;
#X connect 15 0 16 0;
#X connect 15 1 2 0;
#X connect 16 0 2 0;
#X connect 16 1 17 0;
#X connect 17 0 24 0;
#X connect 18 0 23 0;
#X connect 19 0 1 0;
#X connect 19 1 18 1;
#X connect 19 1 25 0;
#X connect 23 0 24 0;
#X connect 24 0 20 0;
#X connect 25 0 26 1;
#X connect 26 0 5 0;
#X restore 134 181 pd envelope;
#X obj 192 149 * 0.01;
#X obj 90 128 * 0.01;
#X obj 57 128 mtof;
#X obj 57 164 osc~;
#X obj 57 197 *~;
#X obj 56 234 outlet~;
#X obj 57 98 unpack;
#X obj 138 128 unpack f f f f;
#X obj 138 108 r \$0-eg;
#X obj 57 71 inlet [pitch:gate];
#X connect 0 0 5 1;
#X connect 1 0 0 3;
#X connect 2 0 0 0;
#X connect 3 0 4 0;
#X connect 4 0 5 0;
#X connect 5 0 6 0;
#X connect 7 0 3 0;
#X connect 7 1 2 0;
#X connect 8 0 0 1;
#X connect 8 1 0 2;
#X connect 8 2 1 0;
#X connect 8 3 0 4;
#X connect 9 0 8 0;
#X connect 10 0 7 0;
#X restore 373 171 pd syntch;
#N canvas 166 243 321 292 syntch 0;
#N canvas 380 161 840 607 envelope 0;
#X obj 102 94 inlet;
#X obj 115 149 sel 0;
#X obj 339 308 t b;
#X obj 459 252 inlet;
#X obj 418 387 del \$2;
#X obj 461 465 pack 0 \$3;
#X obj 534 257 inlet;
#X obj 596 257 inlet;
#X obj 669 256 inlet;
#X msg 115 180 stop;
#X obj 592 412 pack 0 \$5;
#X text 455 230 attack;
#X text 535 234 decay;
#X text 589 235 sustain;
#X text 666 235 release;
#X obj 299 245 moses;
#X obj 289 275 t b b;
#X msg 97 395 0;
#X obj 220 368 f 1;
#X obj 118 118 t f f;
#X obj 459 582 outlet~;
#X text 98 69 trigger/peak;
#X text 78 33 ADSR ENVELOPE \, more or less from pd doc \, audio-rate
version;
#X obj 223 400 pack 0 \$1;
#X obj 459 557 vline~;
#X obj 478 384 * \$4;
#X obj 447 421 f;
#X connect 0 0 19 0;
#X connect 1 0 9 0;
#X connect 1 0 10 0;
#X connect 1 1 15 0;
#X connect 2 0 4 0;
#X connect 2 0 18 0;
#X connect 3 0 4 1;
#X connect 3 0 23 1;
#X connect 4 0 26 0;
#X connect 5 0 24 0;
#X connect 6 0 5 1;
#X connect 7 0 25 1;
#X connect 8 0 10 1;
#X connect 9 0 4 0;
#X connect 10 0 24 0;
#X connect 15 0 16 0;
#X connect 15 1 2 0;
#X connect 16 0 2 0;
#X connect 16 1 17 0;
#X connect 17 0 24 0;
#X connect 18 0 23 0;
#X connect 19 0 1 0;
#X connect 19 1 18 1;
#X connect 19 1 25 0;
#X connect 23 0 24 0;
#X connect 24 0 20 0;
#X connect 25 0 26 1;
#X connect 26 0 5 0;
#X restore 134 181 pd envelope;
#X obj 192 149 * 0.01;
#X obj 90 128 * 0.01;
#X obj 57 128 mtof;
#X obj 57 164 osc~;
#X obj 57 197 *~;
#X obj 56 234 outlet~;
#X obj 57 98 unpack;
#X obj 138 128 unpack f f f f;
#X obj 138 108 r \$0-eg;
#X obj 57 71 inlet [pitch:gate];
#X connect 0 0 5 1;
#X connect 1 0 0 3;
#X connect 2 0 0 0;
#X connect 3 0 4 0;
#X connect 4 0 5 0;
#X connect 5 0 6 0;
#X connect 7 0 3 0;
#X connect 7 1 2 0;
#X connect 8 0 0 1;
#X connect 8 1 0 2;
#X connect 8 2 1 0;
#X connect 8 3 0 4;
#X connect 9 0 8 0;
#X connect 10 0 7 0;
#X restore 388 151 pd syntch;
#X obj 105 319 pack 0 0 1 0, f 20;
#X text 194 390 example 8-voice synth.;
#X obj 320 338 outlet~;
#X connect 0 0 25 0;
#X connect 0 1 25 3;
#X connect 1 0 25 0;
#X connect 1 1 25 2;
#X connect 2 0 25 0;
#X connect 2 1 25 1;
#X connect 3 0 15 1;
#X connect 5 0 14 0;
#X connect 6 0 7 0;
#X connect 7 0 25 0;
#X connect 8 0 9 0;
#X connect 9 0 2 0;
#X connect 10 0 1 0;
#X connect 11 0 12 0;
#X connect 12 0 0 0;
#X connect 13 0 3 0;
#X connect 14 0 16 0;
#X connect 14 1 18 0;
#X connect 14 2 19 0;
#X connect 14 3 20 0;
#X connect 14 4 21 0;
#X connect 14 5 22 0;
#X connect 14 6 23 0;
#X connect 14 7 24 0;
#X connect 15 0 4 0;
#X connect 15 0 27 0;
#X connect 16 0 15 0;
#X connect 18 0 15 0;
#X connect 19 0 15 0;
#X connect 20 0 15 0;
#X connect 21 0 15 0;
#X connect 22 0 15 0;
#X connect 23 0 15 0;
#X connect 24 0 15 0;
#X connect 25 0 17 0;
#X coords 0 -1 1 1 154 140 1 100 100;
#X restore 40 376 pd poly;
#X obj 40 518 dac~, f 25;
#N canvas 1 81 549 266 voice_view 0;
#X obj 49 8 inlet;
#X obj 105 80 unpack;
#X floatatom 105 105 5 0 0 0 - - -;
#X obj 105 122 tgl 32 0 empty empty empty 17 7 0 10 -262144 -1 -1 0
127;
#X obj 105 60 route 0 1 2 3 4 5 6 7, f 57;
#X obj 147 80 unpack;
#X floatatom 147 105 5 0 0 0 - - -;
#X obj 147 122 tgl 32 0 empty empty empty 17 7 0 10 -262144 -1 -1 0
127;
#X obj 189 80 unpack;
#X floatatom 189 105 5 0 0 0 - - -;
#X obj 189 122 tgl 32 0 empty empty empty 17 7 0 10 -262144 -1 -1 0
127;
#X obj 231 80 unpack;
#X floatatom 231 105 5 0 0 0 - - -;
#X obj 231 122 tgl 32 0 empty empty empty 17 7 0 10 -262144 -1 -1 0
127;
#X obj 273 80 unpack;
#X floatatom 273 105 5 0 0 0 - - -;
#X obj 273 122 tgl 32 0 empty empty empty 17 7 0 10 -262144 -1 -1 0
127;
#X obj 315 80 unpack;
#X floatatom 315 105 5 0 0 0 - - -;
#X obj 315 122 tgl 32 0 empty empty empty 17 7 0 10 -262144 -1 -1 0
127;
#X obj 357 80 unpack;
#X floatatom 357 105 5 0 0 0 - - -;
#X obj 357 122 tgl 32 0 empty empty empty 17 7 0 10 -262144 -1 -1 0
127;
#X obj 399 80 unpack;
#X floatatom 399 105 5 0 0 0 - - -;
#X obj 399 122 tgl 32 0 empty empty empty 17 7 0 10 -262144 -1 -1 0
127;
#X obj 49 97 outlet;
#X msg 105 37 \$1 \$2 \$3;
#X connect 0 0 26 0;
#X connect 0 0 27 0;
#X connect 1 0 2 0;
#X connect 1 1 3 0;
#X connect 4 0 1 0;
#X connect 4 1 5 0;
#X connect 4 2 8 0;
#X connect 4 3 11 0;
#X connect 4 4 14 0;
#X connect 4 5 17 0;
#X connect 4 6 20 0;
#X connect 4 7 23 0;
#X connect 5 0 6 0;
#X connect 5 1 7 0;
#X connect 8 0 9 0;
#X connect 8 1 10 0;
#X connect 11 0 12 0;
#X connect 11 1 13 0;
#X connect 14 0 15 0;
#X connect 14 1 16 0;
#X connect 17 0 18 0;
#X connect 17 1 19 0;
#X connect 20 0 21 0;
#X connect 20 1 22 0;
#X connect 23 0 24 0;
#X connect 23 1 25 0;
#X connect 27 0 4 0;
#X coords 0 -1 1 1 336 60 2 100 100;
#X restore 40 314 pd voice_view;
#N canvas 0 45 450 300 (subpatch) 0;
#X array \$0_a_key2n 128 float 3;
#A 0 0 0 0 0 0 0 0 0 0 0 0 0 0 0 0 0 0 0 0 0 0 0 0 0 0 0 0 0 0 0 0
0 0 0 0 0 0 0 0 0 0 0 0 0 13 0 15 17 28 0 14 16 0 19 21 23 0 26 0 16
0 31 0 0 0 0 0 0 0 0 0 0 0 0 0 0 0 0 0 0 0 0 0 0 0 0 0 0 0 0 0 30 0
32 0 0 0 0 8 5 4 17 0 7 9 25 11 0 14 12 10 27 29 13 18 2 20 24 6 15
3 22 1 0 0 0 0 0;
#X coords 0 300 128 299 200 140 0;
#X restore 510 244 graph;
#X text 514 224 key code this;
#X text 550 244 \$0_a_key2n;
#X obj 439 110 key;
#X obj 572 110 keyup;
#X obj 439 148 sel 0;
#X obj 572 148 sel 0;
#X msg 466 168 key \$1;
#X msg 599 169 keyup \$1;
#X obj 466 187 s \$0-to;
#X obj 599 187 s \$0-to;
#X obj 435 300 bng 16 250 50 0 empty empty down 17 7 0 10 -262144 -1
-1;
#X obj 500 300 bng 16 250 50 0 empty empty up 17 7 0 10 -262144 -1
-1;
#X obj 435 225 keyname, f 8;
#X obj 435 244 pack f s;
#X obj 435 263 route 1;
#X msg 565 318 reset;
#X msg 630 318 hold;
#X obj 435 282 route Next Prior Escape `, f 44;
#X obj 435 337 s \$0-to;
#X obj 439 129 tabread \$0_a_key2n;
#X obj 572 129 tabread \$0_a_key2n;
#X msg 435 318 octave -2;
#X msg 500 318 octave -1;
#X obj 288 239 tgl 15 1 empty empty debug 17 7 0 10 -262144 -1 -1 0
1;
#X obj 288 280 s \$0-to;
#X msg 288 262 debug \$1;
#X obj 500 337 s \$0-to;
#X obj 565 337 s \$0-to;
#X obj 630 337 s \$0-to;
#X text 61 287 outlet: voice pitch gate;
#X connect 0 0 34 0;
#X connect 1 0 0 0;
#X connect 2 0 3 0;
#X connect 3 0 4 0;
#X connect 6 0 5 0;
#X connect 7 0 8 0;
#X connect 8 0 6 0;
#X connect 10 0 9 0;
#X connect 11 0 12 0;
#X connect 12 0 10 0;
#X connect 14 0 13 0;
#X connect 15 0 14 0;
#X connect 17 0 18 0;
#X connect 18 0 16 0;
#X connect 20 0 21 0;
#X connect 21 0 19 0;
#X connect 22 0 26 0;
#X connect 26 0 25 0;
#X connect 28 0 29 0;
#X connect 29 0 27 0;
#X connect 30 0 31 0;
#X connect 32 0 33 0;
#X connect 32 1 33 1;
#X connect 34 0 32 0;
#X connect 38 0 55 0;
#X connect 39 0 56 0;
#X connect 40 1 42 0;
#X connect 41 1 43 0;
#X connect 42 0 44 0;
#X connect 43 0 45 0;
#X connect 46 0 57 0;
#X connect 47 0 58 0;
#X connect 48 0 49 0;
#X connect 48 1 49 1;
#X connect 49 0 50 0;
#X connect 50 0 53 0;
#X connect 51 0 63 0;
#X connect 52 0 64 0;
#X connect 53 0 46 0;
#X connect 53 1 47 0;
#X connect 53 2 51 0;
#X connect 53 3 52 0;
#X connect 55 0 40 0;
#X connect 56 0 41 0;
#X connect 57 0 54 0;
#X connect 58 0 62 0;
#X connect 59 0 61 0;
#X connect 61 0 60 0;
