#N canvas 433 76 773 656 10;
#X obj 44 39 tgl 15 1 empty empty type_universe 17 7 0 10 -262144 -1
-1 1 1;
#X obj 146 40 nbx 5 14 3 64 0 1 empty empty width 56 7 0 10 -262144
-1 -1 36 256;
#X obj 352 37 bng 15 50 10 0 empty empty step 17 7 0 10 -262144 -1
-1;
#X obj 508 76 s \$0-to;
#X obj 352 76 s \$0-to;
#X obj 44 75 s \$0-to;
#X obj 404 37 bng 15 50 10 0 empty empty dump 17 7 0 10 -262144 -1
-1;
#X obj 404 76 s \$0-to;
#N canvas 224 170 405 490 convert 0;
#X obj 102 350 inlet;
#X obj 158 432 outlet;
#N canvas 453 251 352 478 create 0;
#X obj 48 395 outlet;
#X obj 75 240 %;
#X obj 75 315 *;
#X obj 133 271 + 1;
#X obj 133 315 *;
#X obj 104 315 *;
#X obj 162 271 + 1;
#X obj 162 315 *;
#X obj 104 239 div;
#X obj 75 335 + 1;
#X obj 133 335 + 1;
#X obj 104 335 + 1;
#X obj 162 335 + 1;
#X obj 190 298 v \$0_fcol;
#X obj 219 316 v \$0_bcol_off;
#X obj 48 356 pack f f f f f f f, f 29;
#X obj 48 201 t f f;
#N canvas 0 50 450 300 itt 0;
#X obj 73 106 until;
#X obj 73 79 t f b;
#X msg 113 106 0;
#X obj 73 133 i;
#X obj 104 133 + 1;
#X obj 73 161 outlet;
#X obj 73 46 inlet n;
#X obj 124 65 inlet stop;
#X connect 0 0 3 0;
#X connect 1 0 0 0;
#X connect 1 1 2 0;
#X connect 2 0 3 1;
#X connect 3 0 4 0;
#X connect 3 0 5 0;
#X connect 4 0 3 1;
#X connect 6 0 1 0;
#X connect 7 0 0 1;
#X restore 48 178 pd itt;
#X obj 48 24 inlet;
#X msg 48 142 \$2 \$3;
#X obj 48 44 t l b l;
#X obj 48 160 *;
#X msg 172 119 \$2;
#X text 16 431 rect filled: 3 id fcolor bcolor widtch x0 y0 x1 y1;
#X msg 231 119 \$1;
#X msg 48 375 3 \$1 \$6 \$7 1 \$2 \$3 \$4 \$5;
#X connect 1 0 2 0;
#X connect 1 0 3 0;
#X connect 2 0 9 0;
#X connect 3 0 4 0;
#X connect 4 0 10 0;
#X connect 5 0 11 0;
#X connect 6 0 7 0;
#X connect 7 0 12 0;
#X connect 8 0 5 0;
#X connect 8 0 6 0;
#X connect 9 0 15 1;
#X connect 10 0 15 3;
#X connect 11 0 15 2;
#X connect 12 0 15 4;
#X connect 13 0 15 5;
#X connect 14 0 15 6;
#X connect 15 0 25 0;
#X connect 16 0 15 0;
#X connect 16 1 1 0;
#X connect 16 1 8 0;
#X connect 17 0 16 0;
#X connect 18 0 20 0;
#X connect 19 0 21 0;
#X connect 20 0 19 0;
#X connect 20 1 13 0;
#X connect 20 1 14 0;
#X connect 20 2 22 0;
#X connect 20 2 24 0;
#X connect 21 0 17 0;
#X connect 22 0 1 1;
#X connect 22 0 8 1;
#X connect 24 0 2 1;
#X connect 24 0 5 1;
#X connect 24 0 4 1;
#X connect 24 0 7 1;
#X connect 25 0 0 0;
#X restore 214 368 pd create;
#N canvas 295 320 277 291 maxel 0;
#X obj 53 145 outlet;
#X msg 53 123 maxel \$1;
#X obj 53 101 *;
#X msg 53 71 \$2 \$3;
#X obj 53 49 inlet;
#X connect 1 0 0 0;
#X connect 2 0 1 0;
#X connect 3 0 2 0;
#X connect 4 0 3 0;
#X restore 253 282 pd maxel;
#N canvas 308 231 374 423 size 0;
#X obj 92 169 outlet;
#X msg 92 151 size \$1 \$2;
#X obj 92 97 *;
#X obj 155 97 *;
#X obj 92 133 pack, f 11;
#X obj 92 115 + 2;
#X obj 155 115 + 2;
#X obj 92 43 inlet;
#X obj 92 61 t l l, f 11;
#X msg 155 79 \$1 \$3;
#X msg 92 79 \$1 \$2;
#X connect 1 0 0 0;
#X connect 2 0 5 0;
#X connect 3 0 6 0;
#X connect 4 0 1 0;
#X connect 5 0 4 0;
#X connect 6 0 4 1;
#X connect 7 0 8 0;
#X connect 8 0 10 0;
#X connect 8 1 9 0;
#X connect 9 0 3 0;
#X connect 10 0 2 0;
#X restore 233 324 pd size;
#X obj 102 386 s \$0_to_canvas;
#X obj 158 414 r \$0_to_canvas;
#X obj 214 386 s \$0_to_canvas;
#X obj 233 342 s \$0_to_canvas;
#X obj 253 300 s \$0_to_canvas;
#X obj 227 213 t b f;
#X obj 214 259 t l l l;
#X obj 279 213 t b f;
#X obj 214 238 pack f f f;
#N canvas 570 154 366 470 color 0;
#X text 34 395 color: 10 id (f)color bcolor;
#X obj 95 35 inlet;
#X obj 123 201 sel 0 1, f 10;
#X obj 151 237 v \$0_bcol_on;
#X obj 123 219 v \$0_bcol_off;
#X obj 231 237 v \$0_fcol;
#X obj 95 303 pack f f f;
#X msg 95 324 10 \$1 \$3 \$2;
#X obj 95 344 outlet;
#X obj 95 55 t l l b;
#X msg 77 160 \$1;
#X msg 119 124 \$2;
#X connect 1 0 9 0;
#X connect 2 0 4 0;
#X connect 2 1 3 0;
#X connect 3 0 6 1;
#X connect 4 0 6 1;
#X connect 5 0 6 2;
#X connect 6 0 7 0;
#X connect 7 0 8 0;
#X connect 9 0 10 0;
#X connect 9 1 11 0;
#X connect 9 2 5 0;
#X connect 10 0 6 0;
#X connect 11 0 2 0;
#X restore 102 368 pd color on off;
#X obj 227 142 inlet w;
#X obj 279 142 inlet h;
#X obj 214 118 inlet s;
#X connect 0 0 14 0;
#X connect 2 0 7 0;
#X connect 3 0 9 0;
#X connect 4 0 8 0;
#X connect 6 0 1 0;
#X connect 10 0 13 0;
#X connect 10 1 13 1;
#X connect 11 0 2 0;
#X connect 11 1 4 0;
#X connect 11 2 3 0;
#X connect 12 0 13 0;
#X connect 12 1 13 2;
#X connect 13 0 11 0;
#X connect 14 0 5 0;
#X connect 15 0 10 0;
#X connect 16 0 12 0;
#X connect 17 0 13 0;
#X coords 0 490 1 489 200 14 0;
#X restore 44 230 pd convert;
#X f 38;
#X obj 44 121 r \$0-to;
#X msg 44 56 universe \$1;
#X obj 246 40 nbx 5 14 3 64 0 1 empty empty height 56 7 0 10 -262144
-1 -1 36 256;
#X obj 146 75 s \$0-to;
#X obj 246 75 s \$0-to;
#X obj 44 139 n_life, f 66;
#X obj 44 248 n_canvas 290 290 empty empty empty 10 10 11 16579836
0 0 1296;
#X msg 352 56 step;
#X msg 146 56 width \$1;
#X msg 246 56 height \$1;
#N canvas 276 178 450 300 constant 0;
#X obj 163 72 loadbang;
#X obj 103 131 v \$0_fcol;
#X obj 163 131 v \$0_bcol_on;
#X obj 243 131 v \$0_bcol_off;
#X msg 103 111 22;
#X msg 163 112 13;
#X msg 243 112 0;
#X connect 0 0 4 0;
#X connect 0 0 5 0;
#X connect 0 0 6 0;
#X connect 4 0 1 0;
#X connect 5 0 2 0;
#X connect 6 0 3 0;
#X restore 399 630 pd constant colors;
#X obj 398 266 nbx 5 14 2 20 0 1 empty empty size 56 7 0 10 -262144
-1 -1 8 256;
#X obj 458 37 bng 15 50 10 0 empty empty start 17 7 0 10 -262144 -1
-1;
#X obj 458 76 s \$0-to;
#X msg 458 56 start;
#X obj 562 240 tgl 15 0 empty empty empty 17 7 0 10 -262144 -1 -1 0
1;
#X obj 562 258 metro 250;
#X obj 613 241 nbx 5 14 2 1e+37 0 1 empty empty empty 6 -8 0 10 -262144
-1 -1 56 256;
#X obj 562 298 s \$0-to;
#N canvas 109 267 361 448 clear 0;
#X obj 27 137 inlet doit;
#X obj 82 382 outlet;
#N canvas 0 50 450 300 itt 0;
#X obj 73 106 until;
#X obj 73 79 t f b;
#X msg 113 106 0;
#X obj 73 133 i;
#X obj 104 133 + 1;
#X obj 73 161 outlet;
#X obj 73 46 inlet n;
#X obj 124 65 inlet stop;
#X connect 0 0 3 0;
#X connect 1 0 0 0;
#X connect 1 1 2 0;
#X connect 2 0 3 1;
#X connect 3 0 4 0;
#X connect 3 0 5 0;
#X connect 4 0 3 1;
#X connect 6 0 1 0;
#X connect 7 0 0 1;
#X restore 82 252 pd itt;
#X obj 82 234 *;
#X obj 246 145 t b f;
#X obj 195 168 pack f f;
#X obj 246 124 inlet h;
#X obj 195 124 inlet w;
#X obj 82 193 list;
#X obj 27 160 t b b;
#X msg 82 216 \$1 \$2;
#X msg 82 337 set_cell \$1 0;
#X msg 27 358 start \, dump;
#X connect 0 0 9 0;
#X connect 2 0 11 0;
#X connect 3 0 2 0;
#X connect 4 0 5 0;
#X connect 4 1 5 1;
#X connect 5 0 8 1;
#X connect 6 0 4 0;
#X connect 7 0 5 0;
#X connect 8 0 10 0;
#X connect 9 0 12 0;
#X connect 9 1 8 0;
#X connect 10 0 3 0;
#X connect 11 0 1 0;
#X connect 12 0 1 0;
#X restore 399 457 pd clear;
#X f 27;
#X obj 399 436 bng 15 50 10 0 empty empty clear 17 7 0 10 -262144 -1
-1;
#X obj 399 476 s \$0-to;
#X obj 399 370 bng 15 50 10 0 empty empty random 17 7 0 10 -262144
-1 -1;
#X obj 399 410 s \$0-to;
#N canvas 119 92 342 461 random 0;
#X obj 27 137 inlet doit;
#X obj 82 394 outlet;
#N canvas 0 50 450 300 itt 0;
#X obj 73 106 until;
#X obj 73 79 t f b;
#X msg 113 106 0;
#X obj 73 133 i;
#X obj 104 133 + 1;
#X obj 73 161 outlet;
#X obj 73 46 inlet n;
#X obj 124 65 inlet stop;
#X connect 0 0 3 0;
#X connect 1 0 0 0;
#X connect 1 1 2 0;
#X connect 2 0 3 1;
#X connect 3 0 4 0;
#X connect 3 0 5 0;
#X connect 4 0 3 1;
#X connect 6 0 1 0;
#X connect 7 0 0 1;
#X restore 82 252 pd itt;
#X obj 82 234 *;
#X obj 246 145 t b f;
#X obj 195 168 pack f f;
#X obj 246 124 inlet h;
#X obj 195 124 inlet w;
#X obj 82 193 list;
#X obj 27 160 t b b;
#X msg 82 216 \$1 \$2;
#X obj 127 292 random 100;
#X obj 127 310 < 20;
#X obj 82 275 t f b;
#X obj 82 329 pack f f;
#X msg 82 349 set_cell \$1 \$2;
#X msg 27 370 start \, dump;
#X connect 0 0 9 0;
#X connect 2 0 13 0;
#X connect 3 0 2 0;
#X connect 4 0 5 0;
#X connect 4 1 5 1;
#X connect 5 0 8 1;
#X connect 6 0 4 0;
#X connect 7 0 5 0;
#X connect 8 0 10 0;
#X connect 9 0 16 0;
#X connect 9 1 8 0;
#X connect 10 0 3 0;
#X connect 11 0 12 0;
#X connect 12 0 14 1;
#X connect 13 0 14 0;
#X connect 13 1 11 0;
#X connect 14 0 15 0;
#X connect 15 0 1 0;
#X connect 16 0 1 0;
#X restore 399 391 pd random;
#X f 27;
#X obj 508 37 tgl 15 1 empty empty set_cell 17 7 0 10 -262144 -1 -1
0 1;
#X obj 142 171 nbx 7 14 -1e+37 1e+37 0 0 empty empty step 6 -8 0 10
-261234 -1 -1 0 256;
#X obj 240 171 nbx 7 14 -1e+37 1e+37 0 0 empty empty all 6 -8 0 10
-261234 -1 -1 0 256;
#X obj 437 171 nbx 7 14 -1e+37 1e+37 0 0 empty empty cycle 6 -8 0 10
-261234 -1 -1 0 256;
#X msg 404 56 dump;
#X msg 508 57 set_cell 0 \$1;
#X msg 562 278 step \, dump;
#X text 236 15 conway's game of life;
#N canvas 28 109 494 421 draw 0;
#X obj 91 36 inlet;
#X obj 157 342 outlet;
#X obj 91 57 route 0;
#X obj 418 73 inlet h;
#X obj 367 73 inlet w;
#X obj 267 73 inlet size;
#X obj 157 136 div;
#X obj 157 157 clip 0 1000;
#X obj 192 176 div;
#X obj 192 197 clip 0 1000;
#X obj 314 110 - 1;
#X obj 326 150 - 1;
#X obj 192 218 *;
#X obj 157 239 +;
#X obj 157 260 change;
#X obj 130 84 unpack f f f f;
#X obj 218 284 == 0;
#X obj 157 304 pack f f;
#X msg 266 268 set -9999;
#X msg 157 322 set_cell \$1 \$2 \, dump;
#X obj 259 246 change -9999;
#X connect 0 0 2 0;
#X connect 2 1 15 0;
#X connect 3 0 11 0;
#X connect 4 0 10 0;
#X connect 4 0 12 1;
#X connect 5 0 6 1;
#X connect 5 0 8 1;
#X connect 6 0 7 0;
#X connect 7 0 13 0;
#X connect 8 0 9 0;
#X connect 9 0 12 0;
#X connect 10 0 7 2;
#X connect 11 0 9 2;
#X connect 12 0 13 1;
#X connect 13 0 14 0;
#X connect 14 0 17 0;
#X connect 15 1 6 0;
#X connect 15 2 8 0;
#X connect 15 3 20 0;
#X connect 16 0 17 1;
#X connect 17 0 19 0;
#X connect 18 0 14 0;
#X connect 19 0 1 0;
#X connect 20 0 18 0;
#X connect 20 0 16 0;
#X restore 44 613 pd draw;
#X f 36;
#X obj 44 632 s \$0-to;
#X obj 398 282 s \$0-size;
#X obj 119 212 r \$0-size;
#X obj 115 595 r \$0-size;
#X obj 398 305 bng 15 50 10 0 empty empty one_step 17 7 0 10 -262144
-1 -1;
#X obj 398 344 s \$0-to;
#X msg 398 324 step \, dump;
#X msg 562 222 0;
#X obj 523 185 moses 1;
#X obj 562 204 spigot;
#X obj 595 186 tgl 15 1 empty empty stop_case_cycle_detect 17 7 0 10
-262144 -1 -1 1 1;
#X obj 44 212 spigot;
#X obj 77 191 tgl 15 1 empty empty display 17 7 0 10 -204786 -1 -1
1 1;
#X obj 399 606 s \$0-width;
#X obj 399 550 r \$0-to;
#X obj 399 568 route width height;
#X obj 451 587 s \$0-height;
#X obj 186 595 r \$0-width;
#X obj 257 595 r \$0-height;
#X obj 194 212 r \$0-width;
#X obj 269 212 r \$0-height;
#X obj 478 373 r \$0-width;
#X obj 558 373 r \$0-height;
#X obj 478 439 r \$0-width;
#X obj 558 439 r \$0-height;
#X obj 338 171 nbx 7 14 -1e+37 1e+37 0 0 empty empty hash 6 -8 0 10
-261234 -1 -1 0 256;
#X connect 0 0 10 0;
#X connect 1 0 17 0;
#X connect 2 0 16 0;
#X connect 6 0 38 0;
#X connect 8 0 15 0;
#X connect 9 0 14 0;
#X connect 10 0 5 0;
#X connect 11 0 18 0;
#X connect 14 0 54 0;
#X connect 14 1 35 0;
#X connect 14 2 36 0;
#X connect 14 3 68 0;
#X connect 14 4 37 0;
#X connect 15 0 42 0;
#X connect 16 0 4 0;
#X connect 17 0 12 0;
#X connect 18 0 13 0;
#X connect 20 0 44 0;
#X connect 21 0 23 0;
#X connect 23 0 22 0;
#X connect 24 0 25 0;
#X connect 25 0 40 0;
#X connect 26 0 25 1;
#X connect 28 0 30 0;
#X connect 29 0 28 0;
#X connect 31 0 33 0;
#X connect 33 0 32 0;
#X connect 34 0 39 0;
#X connect 37 0 51 0;
#X connect 38 0 7 0;
#X connect 39 0 3 0;
#X connect 40 0 27 0;
#X connect 42 0 43 0;
#X connect 45 0 8 1;
#X connect 46 0 42 1;
#X connect 47 0 49 0;
#X connect 49 0 48 0;
#X connect 50 0 24 0;
#X connect 51 1 52 0;
#X connect 52 0 50 0;
#X connect 53 0 52 1;
#X connect 54 0 8 0;
#X connect 55 0 54 1;
#X connect 57 0 58 0;
#X connect 58 0 56 0;
#X connect 58 1 59 0;
#X connect 60 0 42 2;
#X connect 61 0 42 3;
#X connect 62 0 8 2;
#X connect 63 0 8 3;
#X connect 64 0 33 1;
#X connect 65 0 33 2;
#X connect 66 0 28 1;
#X connect 67 0 28 2;
