#N canvas 205 191 950 351 10;
#X obj 63 148 nbx 2 14 0 1e+37 0 0 empty empty empty 0 -8 0 10 #fcfcfc #000000 #000000 0 256;
#X obj 63 166 * 0.01;
#X obj 203 148 nbx 2 14 0 1e+37 0 0 empty empty empty 0 -8 0 10 #fcfcfc #000000 #000000 0 256;
#X obj 203 166 * 0.01;
#X obj 293 148 nbx 2 14 0 1e+37 0 0 empty empty empty 0 -8 0 10 #fcfcfc #000000 #000000 0 256;
#X obj 293 166 * 0.01;
#X obj 55 206 n_matrix~;
#X msg 31 15 debug;
#N canvas 425 186 510 361 (subpatch) 0;
#X obj 100 100 nbx 5 14 -1e+37 1e+37 0 1 empty empty empty 0 -8 0 10 #bbbbbb #000000 #000000 60 256;
#X obj 100 158 osc~ 100;
#X obj 100 139 mtof;
#X obj 100 179 *~ 0.1;
#X obj 101 202 outlet~;
#X connect 0 0 2 0;
#X connect 1 0 3 0;
#X connect 2 0 1 0;
#X connect 3 0 4 0;
#X coords 0 -1 1 1 54 14 2 100 100;
#X restore 55 119 pd;
#N canvas 425 186 510 361 (subpatch) 0;
#X obj 79 207 dac~;
#X obj 79 187 *~ 0;
#X obj 100 100 tgl 18 0 empty empty empty 17 7 0 10 #bbbbbb #000000 #000000 0 1;
#X obj 78 27 inlet~;
#X connect 1 0 0 0;
#X connect 1 0 0 1;
#X connect 2 0 1 1;
#X connect 3 0 1 0;
#X coords 0 -1 1 1 18 18 2 100 100;
#X restore 368 250 pd;
#X text 75 12 print state;
#X msg 63 186 set 0 0 \$1;
#X msg 203 186 set 0 0 \$1;
#X msg 293 186 set 1 0 \$1;
#N canvas 425 186 510 361 (subpatch) 0;
#X obj 79 207 dac~;
#X obj 79 187 *~ 0;
#X obj 100 100 tgl 18 0 empty empty empty 17 7 0 10 #bbbbbb #000000 #000000 0 1;
#X obj 78 27 inlet~;
#X connect 1 0 0 0;
#X connect 1 0 0 1;
#X connect 2 0 1 1;
#X connect 3 0 1 0;
#X coords 0 -1 1 1 18 18 2 100 100;
#X restore 432 250 pd;
#N canvas 425 186 510 361 (subpatch) 0;
#X obj 79 207 dac~;
#X obj 79 187 *~ 0;
#X obj 100 100 tgl 18 0 empty empty empty 17 7 0 10 #bbbbbb #000000 #000000 0 1;
#X obj 78 27 inlet~;
#X connect 1 0 0 0;
#X connect 1 0 0 1;
#X connect 2 0 1 1;
#X connect 3 0 1 0;
#X coords 0 -1 1 1 18 18 2 100 100;
#X restore 496 250 pd;
#N canvas 425 186 510 361 (subpatch) 0;
#X obj 79 207 dac~;
#X obj 79 187 *~ 0;
#X obj 100 100 tgl 18 0 empty empty empty 17 7 0 10 #bbbbbb #000000 #000000 0 1;
#X obj 78 27 inlet~;
#X connect 1 0 0 0;
#X connect 1 0 0 1;
#X connect 2 0 1 1;
#X connect 3 0 1 0;
#X coords 0 -1 1 1 18 18 2 100 100;
#X restore 562 250 pd;
#N canvas 425 186 510 361 (subpatch) 0;
#X obj 79 207 dac~;
#X obj 79 187 *~ 0;
#X obj 100 100 tgl 18 0 empty empty empty 17 7 0 10 #bbbbbb #000000 #000000 0 1;
#X obj 78 27 inlet~;
#X connect 1 0 0 0;
#X connect 1 0 0 1;
#X connect 2 0 1 1;
#X connect 3 0 1 0;
#X coords 0 -1 1 1 18 18 2 100 100;
#X restore 54 239 pd;
#N canvas 425 186 510 361 (subpatch) 0;
#X obj 79 207 dac~;
#X obj 79 187 *~ 0;
#X obj 100 100 tgl 18 0 empty empty empty 17 7 0 10 #bbbbbb #000000 #000000 0 1;
#X obj 78 27 inlet~;
#X connect 1 0 0 0;
#X connect 1 0 0 1;
#X connect 2 0 1 1;
#X connect 3 0 1 0;
#X coords 0 -1 1 1 18 18 2 100 100;
#X restore 195 237 pd;
#X msg 12 190 debug;
#X msg 154 190 debug;
#N canvas 425 186 510 361 (subpatch) 0;
#X obj 100 100 nbx 5 14 -1e+37 1e+37 0 1 empty empty empty 0 -8 0 10 #bbbbbb #000000 #000000 60 256;
#X obj 100 158 osc~ 100;
#X obj 100 139 mtof;
#X obj 100 179 *~ 0.1;
#X obj 101 202 outlet~;
#X connect 0 0 2 0;
#X connect 1 0 3 0;
#X connect 2 0 1 0;
#X connect 3 0 4 0;
#X coords 0 -1 1 1 54 14 2 100 100;
#X restore 195 119 pd;
#N canvas 425 186 510 361 (subpatch) 0;
#X obj 100 100 nbx 5 14 -1e+37 1e+37 0 1 empty empty empty 0 -8 0 10 #bbbbbb #000000 #000000 64 256;
#X obj 100 158 osc~ 100;
#X obj 100 139 mtof;
#X obj 100 179 *~ 0.1;
#X obj 101 202 outlet~;
#X connect 0 0 2 0;
#X connect 1 0 3 0;
#X connect 2 0 1 0;
#X connect 3 0 4 0;
#X coords 0 -1 1 1 54 14 2 100 100;
#X restore 282 119 pd;
#N canvas 425 186 510 361 (subpatch) 0;
#X obj 100 100 nbx 5 14 -1e+37 1e+37 0 1 empty empty empty 0 -8 0 10 #bbbbbb #000000 #000000 62 256;
#X obj 100 158 osc~ 100;
#X obj 100 139 mtof;
#X obj 100 179 *~ 0.1;
#X obj 101 202 outlet~;
#X connect 0 0 2 0;
#X connect 1 0 3 0;
#X connect 2 0 1 0;
#X connect 3 0 4 0;
#X coords 0 -1 1 1 54 14 2 100 100;
#X restore 368 89 pd;
#N canvas 425 186 510 361 (subpatch) 0;
#X obj 100 100 nbx 5 14 -1e+37 1e+37 0 1 empty empty empty 0 -8 0 10 #bbbbbb #000000 #000000 65 256;
#X obj 100 158 osc~ 100;
#X obj 100 139 mtof;
#X obj 100 179 *~ 0.1;
#X obj 101 202 outlet~;
#X connect 0 0 2 0;
#X connect 1 0 3 0;
#X connect 2 0 1 0;
#X connect 3 0 4 0;
#X coords 0 -1 1 1 54 14 2 100 100;
#X restore 434 89 pd;
#N canvas 425 186 510 361 (subpatch) 0;
#X obj 100 100 nbx 5 14 -1e+37 1e+37 0 1 empty empty empty 0 -8 0 10 #bbbbbb #000000 #000000 71 256;
#X obj 100 158 osc~ 100;
#X obj 100 139 mtof;
#X obj 100 179 *~ 0.1;
#X obj 101 202 outlet~;
#X connect 0 0 2 0;
#X connect 1 0 3 0;
#X connect 2 0 1 0;
#X connect 3 0 4 0;
#X coords 0 -1 1 1 54 14 2 100 100;
#X restore 498 89 pd;
#N canvas 425 186 510 361 (subpatch) 0;
#X obj 100 100 nbx 5 14 -1e+37 1e+37 0 1 empty empty empty 0 -8 0 10 #bbbbbb #000000 #000000 79 256;
#X obj 100 158 osc~ 100;
#X obj 100 139 mtof;
#X obj 100 179 *~ 0.1;
#X obj 101 202 outlet~;
#X connect 0 0 2 0;
#X connect 1 0 3 0;
#X connect 2 0 1 0;
#X connect 3 0 4 0;
#X coords 0 -1 1 1 54 14 2 100 100;
#X restore 563 89 pd;
#N canvas 425 186 510 361 (subpatch) 0;
#X obj 79 207 dac~;
#X obj 79 187 *~ 0;
#X obj 100 100 tgl 18 0 empty empty empty 17 7 0 10 #bbbbbb #000000 #000000 0 1;
#X obj 78 27 inlet~;
#X connect 1 0 0 0;
#X connect 1 0 0 1;
#X connect 2 0 1 1;
#X connect 3 0 1 0;
#X coords 0 -1 1 1 18 18 2 100 100;
#X restore 63 320 pd;
#X obj 196 207 n_matrix~ m 2 1;
#X text 135 40 Arguments: mode in out;
#X text 200 54 |;
#X text 200 64 |;
#X text 201 77 a - add;
#X text 201 88 m - mult;
#X obj 31 41 n_matrix~ a 4 4;
#N canvas 425 186 510 361 (subpatch) 0;
#X obj 79 207 dac~;
#X obj 79 187 *~ 0;
#X obj 100 100 tgl 18 0 empty empty empty 17 7 0 10 #bbbbbb #000000 #000000 0 1;
#X obj 78 27 inlet~;
#X connect 1 0 0 0;
#X connect 1 0 0 1;
#X connect 2 0 1 1;
#X connect 3 0 1 0;
#X coords 0 -1 1 1 18 18 2 100 100;
#X restore 658 250 pd;
#N canvas 425 186 510 361 (subpatch) 0;
#X obj 79 207 dac~;
#X obj 79 187 *~ 0;
#X obj 100 100 tgl 18 0 empty empty empty 17 7 0 10 #bbbbbb #000000 #000000 0 1;
#X obj 78 27 inlet~;
#X connect 1 0 0 0;
#X connect 1 0 0 1;
#X connect 2 0 1 1;
#X connect 3 0 1 0;
#X coords 0 -1 1 1 18 18 2 100 100;
#X restore 722 250 pd;
#N canvas 425 186 510 361 (subpatch) 0;
#X obj 79 207 dac~;
#X obj 79 187 *~ 0;
#X obj 100 100 tgl 18 0 empty empty empty 17 7 0 10 #bbbbbb #000000 #000000 0 1;
#X obj 78 27 inlet~;
#X connect 1 0 0 0;
#X connect 1 0 0 1;
#X connect 2 0 1 1;
#X connect 3 0 1 0;
#X coords 0 -1 1 1 18 18 2 100 100;
#X restore 786 250 pd;
#N canvas 425 186 510 361 (subpatch) 0;
#X obj 79 207 dac~;
#X obj 79 187 *~ 0;
#X obj 100 100 tgl 18 0 empty empty empty 17 7 0 10 #bbbbbb #000000 #000000 0 1;
#X obj 78 27 inlet~;
#X connect 1 0 0 0;
#X connect 1 0 0 1;
#X connect 2 0 1 1;
#X connect 3 0 1 0;
#X coords 0 -1 1 1 18 18 2 100 100;
#X restore 852 250 pd;
#N canvas 425 186 510 361 (subpatch) 0;
#X obj 100 100 nbx 5 14 -1e+37 1e+37 0 1 empty empty empty 0 -8 0 10 #bbbbbb #000000 #000000 62 256;
#X obj 100 158 osc~ 100;
#X obj 100 139 mtof;
#X obj 100 179 *~ 0.1;
#X obj 101 202 outlet~;
#X connect 0 0 2 0;
#X connect 1 0 3 0;
#X connect 2 0 1 0;
#X connect 3 0 4 0;
#X coords 0 -1 1 1 54 14 2 100 100;
#X restore 658 89 pd;
#N canvas 425 186 510 361 (subpatch) 0;
#X obj 100 100 nbx 5 14 -1e+37 1e+37 0 1 empty empty empty 0 -8 0 10 #bbbbbb #000000 #000000 65 256;
#X obj 100 158 osc~ 100;
#X obj 100 139 mtof;
#X obj 100 179 *~ 0.1;
#X obj 101 202 outlet~;
#X connect 0 0 2 0;
#X connect 1 0 3 0;
#X connect 2 0 1 0;
#X connect 3 0 4 0;
#X coords 0 -1 1 1 54 14 2 100 100;
#X restore 724 89 pd;
#N canvas 425 186 510 361 (subpatch) 0;
#X obj 100 100 nbx 5 14 -1e+37 1e+37 0 1 empty empty empty 0 -8 0 10 #bbbbbb #000000 #000000 71 256;
#X obj 100 158 osc~ 100;
#X obj 100 139 mtof;
#X obj 100 179 *~ 0.1;
#X obj 101 202 outlet~;
#X connect 0 0 2 0;
#X connect 1 0 3 0;
#X connect 2 0 1 0;
#X connect 3 0 4 0;
#X coords 0 -1 1 1 54 14 2 100 100;
#X restore 788 89 pd;
#N canvas 425 186 510 361 (subpatch) 0;
#X obj 100 100 nbx 5 14 -1e+37 1e+37 0 1 empty empty empty 0 -8 0 10 #bbbbbb #000000 #000000 79 256;
#X obj 100 158 osc~ 100;
#X obj 100 139 mtof;
#X obj 100 179 *~ 0.1;
#X obj 101 202 outlet~;
#X connect 0 0 2 0;
#X connect 1 0 3 0;
#X connect 2 0 1 0;
#X connect 3 0 4 0;
#X coords 0 -1 1 1 54 14 2 100 100;
#X restore 853 89 pd;
#N canvas 297 127 766 478 test 0;
#X obj 104 116 nbx 3 15 0 100 0 1 empty empty empty 0 -9 0 10 #bbbbbb #000000 #000000 0 256;
#X obj 437 142 * 0.01;
#X obj 437 186 s \$0-to0;
#X obj 142 116 nbx 3 15 0 100 0 1 empty empty empty 0 -9 0 10 #bbbbbb #000000 #000000 0 256;
#X obj 515 142 * 0.01;
#X obj 515 186 s \$0-to0;
#X obj 181 116 nbx 3 15 0 100 0 1 empty empty empty 0 -9 0 10 #bbbbbb #000000 #000000 0 256;
#X obj 589 142 * 0.01;
#X obj 589 186 s \$0-to0;
#X obj 220 116 nbx 3 15 0 100 0 1 empty empty empty 0 -9 0 10 #bbbbbb #000000 #000000 0 256;
#X obj 663 142 * 0.01;
#X obj 663 186 s \$0-to0;
#X obj 104 137 nbx 3 15 0 100 0 1 empty empty empty 0 -9 0 10 #bbbbbb #000000 #000000 0 256;
#X obj 437 212 * 0.01;
#X obj 437 256 s \$0-to0;
#X obj 142 137 nbx 3 15 0 100 0 1 empty empty empty 0 -9 0 10 #bbbbbb #000000 #000000 0 256;
#X obj 515 212 * 0.01;
#X obj 515 256 s \$0-to0;
#X obj 181 137 nbx 3 15 0 100 0 1 empty empty empty 0 -9 0 10 #bbbbbb #000000 #000000 0 256;
#X obj 589 212 * 0.01;
#X obj 589 256 s \$0-to0;
#X obj 220 137 nbx 3 15 0 100 0 1 empty empty empty 0 -9 0 10 #bbbbbb #000000 #000000 0 256;
#X obj 663 212 * 0.01;
#X obj 663 256 s \$0-to0;
#X obj 104 156 nbx 3 15 0 100 0 1 empty empty empty 0 -9 0 10 #bbbbbb #000000 #000000 0 256;
#X obj 437 292 * 0.01;
#X obj 437 336 s \$0-to0;
#X obj 142 156 nbx 3 15 0 100 0 1 empty empty empty 0 -9 0 10 #bbbbbb #000000 #000000 0 256;
#X obj 515 292 * 0.01;
#X obj 515 336 s \$0-to0;
#X obj 181 156 nbx 3 15 0 100 0 1 empty empty empty 0 -9 0 10 #bbbbbb #000000 #000000 0 256;
#X obj 589 292 * 0.01;
#X obj 589 336 s \$0-to0;
#X obj 220 156 nbx 3 15 0 100 0 1 empty empty empty 0 -9 0 10 #bbbbbb #000000 #000000 0 256;
#X obj 663 292 * 0.01;
#X obj 663 336 s \$0-to0;
#X obj 104 177 nbx 3 15 0 100 0 1 empty empty empty 0 -9 0 10 #bbbbbb #000000 #000000 0 256;
#X obj 437 362 * 0.01;
#X obj 437 406 s \$0-to0;
#X obj 142 177 nbx 3 15 0 100 0 1 empty empty empty 0 -9 0 10 #bbbbbb #000000 #000000 0 256;
#X obj 515 362 * 0.01;
#X obj 515 406 s \$0-to0;
#X obj 181 177 nbx 3 15 0 100 0 1 empty empty empty 0 -9 0 10 #bbbbbb #000000 #000000 0 256;
#X obj 589 362 * 0.01;
#X obj 589 406 s \$0-to0;
#X obj 220 177 nbx 3 15 0 100 0 1 empty empty empty 0 -9 0 10 #bbbbbb #000000 #000000 0 256;
#X obj 663 362 * 0.01;
#X obj 663 406 s \$0-to0;
#X obj 85 293 r \$0-to0;
#X obj 264 122 bng 17 250 50 0 empty empty debug 0 -9 0 10 #fcfcfc #000000 #000000;
#X msg 148 276 debug;
#X obj 203 309 inlet~;
#X obj 255 308 inlet~;
#X obj 301 308 inlet~;
#X obj 351 307 inlet~;
#X obj 203 420 outlet~;
#X obj 253 420 outlet~;
#X obj 303 420 outlet~;
#X obj 353 420 outlet~;
#X msg 437 164 set 0 0 \$1;
#X msg 515 164 set 0 1 \$1;
#X msg 663 164 set 0 3 \$1;
#X msg 589 164 set 0 2 \$1;
#X msg 663 234 set 1 3 \$1;
#X msg 588 234 set 1 2 \$1;
#X msg 515 234 set 1 1 \$1;
#X msg 437 234 set 1 0 \$1;
#X msg 663 314 set 2 3 \$1;
#X msg 589 314 set 2 2 \$1;
#X msg 514 314 set 2 1 \$1;
#X msg 436 314 set 2 0 \$1;
#X msg 663 384 set 3 3 \$1;
#X msg 588 383 set 3 2 \$1;
#X msg 515 384 set 3 1 \$1;
#X msg 438 384 set 3 0 \$1;
#X obj 204 375 n_matrix~ m 4 4;
#X connect 0 0 1 0;
#X connect 1 0 59 0;
#X connect 3 0 4 0;
#X connect 4 0 60 0;
#X connect 6 0 7 0;
#X connect 7 0 62 0;
#X connect 9 0 10 0;
#X connect 10 0 61 0;
#X connect 12 0 13 0;
#X connect 13 0 66 0;
#X connect 15 0 16 0;
#X connect 16 0 65 0;
#X connect 18 0 19 0;
#X connect 19 0 64 0;
#X connect 21 0 22 0;
#X connect 22 0 63 0;
#X connect 24 0 25 0;
#X connect 25 0 70 0;
#X connect 27 0 28 0;
#X connect 28 0 69 0;
#X connect 30 0 31 0;
#X connect 31 0 68 0;
#X connect 33 0 34 0;
#X connect 34 0 67 0;
#X connect 36 0 37 0;
#X connect 37 0 74 0;
#X connect 39 0 40 0;
#X connect 40 0 73 0;
#X connect 42 0 43 0;
#X connect 43 0 72 0;
#X connect 45 0 46 0;
#X connect 46 0 71 0;
#X connect 48 0 75 0;
#X connect 49 0 50 0;
#X connect 50 0 75 0;
#X connect 51 0 75 0;
#X connect 52 0 75 1;
#X connect 53 0 75 2;
#X connect 54 0 75 3;
#X connect 59 0 2 0;
#X connect 60 0 5 0;
#X connect 61 0 11 0;
#X connect 62 0 8 0;
#X connect 63 0 23 0;
#X connect 64 0 20 0;
#X connect 65 0 17 0;
#X connect 66 0 14 0;
#X connect 67 0 35 0;
#X connect 68 0 32 0;
#X connect 69 0 29 0;
#X connect 70 0 26 0;
#X connect 71 0 47 0;
#X connect 72 0 44 0;
#X connect 73 0 41 0;
#X connect 74 0 38 0;
#X connect 75 0 55 0;
#X connect 75 1 56 0;
#X connect 75 2 57 0;
#X connect 75 3 58 0;
#X coords 0 -1 1 1 200 100 1 100 100;
#X restore 369 133 pd test 4x4 m;
#N canvas 297 127 766 478 test 0;
#X obj 264 122 bng 17 250 50 0 empty empty debug 0 -9 0 10 #fcfcfc #000000 #000000;
#X msg 148 276 debug;
#X obj 203 309 inlet~;
#X obj 255 308 inlet~;
#X obj 301 308 inlet~;
#X obj 351 307 inlet~;
#X obj 203 420 outlet~;
#X obj 253 420 outlet~;
#X obj 303 420 outlet~;
#X obj 353 420 outlet~;
#X msg 437 164 set 0 0 \$1;
#X msg 515 164 set 0 1 \$1;
#X msg 663 164 set 0 3 \$1;
#X msg 589 164 set 0 2 \$1;
#X msg 663 234 set 1 3 \$1;
#X msg 588 234 set 1 2 \$1;
#X msg 515 234 set 1 1 \$1;
#X msg 437 234 set 1 0 \$1;
#X msg 663 314 set 2 3 \$1;
#X msg 589 314 set 2 2 \$1;
#X msg 514 314 set 2 1 \$1;
#X msg 436 314 set 2 0 \$1;
#X msg 663 384 set 3 3 \$1;
#X msg 588 383 set 3 2 \$1;
#X msg 515 384 set 3 1 \$1;
#X msg 438 384 set 3 0 \$1;
#X obj 204 375 n_matrix~ a 4 4;
#X obj 114 116 tgl 15 1 empty empty empty 0 -9 0 10 #bbbbbb #000000 #000000 1 1;
#X obj 114 137 tgl 15 1 empty empty empty 0 -9 0 10 #bbbbbb #000000 #000000 0 1;
#X obj 114 156 tgl 15 1 empty empty empty 0 -9 0 10 #bbbbbb #000000 #000000 0 1;
#X obj 114 177 tgl 15 1 empty empty empty 0 -9 0 10 #bbbbbb #000000 #000000 0 1;
#X obj 144 116 tgl 15 1 empty empty empty 0 -9 0 10 #bbbbbb #000000 #000000 0 1;
#X obj 144 137 tgl 15 1 empty empty empty 0 -9 0 10 #bbbbbb #000000 #000000 1 1;
#X obj 144 156 tgl 15 1 empty empty empty 0 -9 0 10 #bbbbbb #000000 #000000 0 1;
#X obj 144 177 tgl 15 1 empty empty empty 0 -9 0 10 #bbbbbb #000000 #000000 0 1;
#X obj 174 116 tgl 15 1 empty empty empty 0 -9 0 10 #bbbbbb #000000 #000000 0 1;
#X obj 174 137 tgl 15 1 empty empty empty 0 -9 0 10 #bbbbbb #000000 #000000 0 1;
#X obj 174 156 tgl 15 1 empty empty empty 0 -9 0 10 #bbbbbb #000000 #000000 1 1;
#X obj 174 177 tgl 15 1 empty empty empty 0 -9 0 10 #bbbbbb #000000 #000000 0 1;
#X obj 204 116 tgl 15 1 empty empty empty 0 -9 0 10 #bbbbbb #000000 #000000 0 1;
#X obj 204 137 tgl 15 1 empty empty empty 0 -9 0 10 #bbbbbb #000000 #000000 0 1;
#X obj 204 156 tgl 15 1 empty empty empty 0 -9 0 10 #bbbbbb #000000 #000000 0 1;
#X obj 204 177 tgl 15 1 empty empty empty 0 -9 0 10 #bbbbbb #000000 #000000 1 1;
#X obj 437 186 s \$0-to1;
#X obj 516 186 s \$0-to1;
#X obj 590 184 s \$0-to1;
#X obj 663 186 s \$0-to1;
#X obj 437 256 s \$0-to1;
#X obj 515 256 s \$0-to1;
#X obj 589 256 s \$0-to1;
#X obj 663 256 s \$0-to1;
#X obj 437 336 s \$0-to1;
#X obj 515 336 s \$0-to1;
#X obj 589 336 s \$0-to1;
#X obj 664 335 s \$0-to1;
#X obj 437 406 s \$0-to1;
#X obj 515 406 s \$0-to1;
#X obj 589 406 s \$0-to1;
#X obj 663 406 s \$0-to1;
#X obj 85 293 r \$0-to1;
#X connect 0 0 1 0;
#X connect 1 0 26 0;
#X connect 2 0 26 0;
#X connect 3 0 26 1;
#X connect 4 0 26 2;
#X connect 5 0 26 3;
#X connect 10 0 43 0;
#X connect 11 0 44 0;
#X connect 12 0 46 0;
#X connect 13 0 45 0;
#X connect 14 0 50 0;
#X connect 15 0 49 0;
#X connect 16 0 48 0;
#X connect 17 0 47 0;
#X connect 18 0 54 0;
#X connect 19 0 53 0;
#X connect 20 0 52 0;
#X connect 21 0 51 0;
#X connect 22 0 58 0;
#X connect 23 0 57 0;
#X connect 24 0 56 0;
#X connect 25 0 55 0;
#X connect 26 0 6 0;
#X connect 26 1 7 0;
#X connect 26 2 8 0;
#X connect 26 3 9 0;
#X connect 27 0 10 0;
#X connect 28 0 17 0;
#X connect 29 0 21 0;
#X connect 30 0 25 0;
#X connect 31 0 11 0;
#X connect 32 0 16 0;
#X connect 33 0 20 0;
#X connect 34 0 24 0;
#X connect 35 0 13 0;
#X connect 36 0 15 0;
#X connect 37 0 19 0;
#X connect 38 0 23 0;
#X connect 39 0 12 0;
#X connect 40 0 14 0;
#X connect 41 0 18 0;
#X connect 42 0 22 0;
#X connect 59 0 26 0;
#X coords 0 -1 1 1 200 100 1 100 100;
#X restore 659 133 pd test 4x4 a;
#N canvas 243 150 874 432 test 0;
#X obj 456 126 osc~ 333;
#X msg 367 42 debug;
#X obj 19 149 t b f;
#X msg 19 106 16;
#X msg 19 171 32;
#X obj 19 213 pack f f;
#X obj 97 151 t b f;
#X msg 97 107 16;
#X msg 97 173 32;
#X obj 97 214 pack f f;
#X msg 19 235 set \$1 \$2 1;
#X msg 96 235 set \$1 \$2 0;
#X obj 536 397 outlet~;
#X obj 537 361 *~ 0.0001;
#N canvas 73 334 450 300 itt 0;
#X obj 73 106 until;
#X obj 73 79 t f b;
#X msg 113 106 0;
#X obj 73 133 i;
#X obj 104 133 + 1;
#X obj 73 161 outlet;
#X obj 73 46 inlet n;
#X obj 124 65 inlet stop;
#X connect 0 0 3 0;
#X connect 1 0 0 0;
#X connect 1 1 2 0;
#X connect 2 0 3 1;
#X connect 3 0 4 0;
#X connect 3 0 5 0;
#X connect 4 0 3 1;
#X connect 6 0 1 0;
#X connect 7 0 0 1;
#X restore 19 127 pd itt;
#N canvas 73 334 450 300 itt 0;
#X obj 73 106 until;
#X obj 73 79 t f b;
#X msg 113 106 0;
#X obj 73 133 i;
#X obj 104 133 + 1;
#X obj 73 161 outlet;
#X obj 73 46 inlet n;
#X obj 124 65 inlet stop;
#X connect 0 0 3 0;
#X connect 1 0 0 0;
#X connect 1 1 2 0;
#X connect 2 0 3 1;
#X connect 3 0 4 0;
#X connect 3 0 5 0;
#X connect 4 0 3 1;
#X connect 6 0 1 0;
#X connect 7 0 0 1;
#X restore 97 128 pd itt;
#N canvas 73 334 450 300 itt 0;
#X obj 73 106 until;
#X obj 73 79 t f b;
#X msg 113 106 0;
#X obj 73 133 i;
#X obj 104 133 + 1;
#X obj 73 161 outlet;
#X obj 73 46 inlet n;
#X obj 124 65 inlet stop;
#X connect 0 0 3 0;
#X connect 1 0 0 0;
#X connect 1 1 2 0;
#X connect 2 0 3 1;
#X connect 3 0 4 0;
#X connect 3 0 5 0;
#X connect 4 0 3 1;
#X connect 6 0 1 0;
#X connect 7 0 0 1;
#X restore 19 192 pd itt;
#N canvas 73 334 450 300 itt 0;
#X obj 73 106 until;
#X obj 73 79 t f b;
#X msg 113 106 0;
#X obj 73 133 i;
#X obj 104 133 + 1;
#X obj 73 161 outlet;
#X obj 73 46 inlet n;
#X obj 124 65 inlet stop;
#X connect 0 0 3 0;
#X connect 1 0 0 0;
#X connect 1 1 2 0;
#X connect 2 0 3 1;
#X connect 3 0 4 0;
#X connect 3 0 5 0;
#X connect 4 0 3 1;
#X connect 6 0 1 0;
#X connect 7 0 0 1;
#X restore 97 193 pd itt;
#N canvas 468 15 660 511 cpu 0;
#X obj 128 414 outlet;
#X obj 354 213 /;
#X msg 354 192 100 \$1;
#X obj 292 160 t f f;
#X obj 292 182 / 4;
#X obj 128 383 *;
#X obj 200 199 metro;
#X obj 354 366 / 4;
#X obj 200 159 loadbang;
#X msg 200 179 1;
#X obj 292 114 loadbang;
#X msg 292 137 2000;
#X text 329 139 time in ms;
#N canvas 731 202 489 342 cputime 0;
#X obj 204 106 t b b, f 7;
#X obj 204 127 cputime;
#X obj 144 187 +;
#X obj 204 153 t b f;
#X obj 144 66 inlet;
#X obj 204 67 inlet;
#X obj 144 217 outlet;
#X connect 0 0 1 0;
#X connect 0 1 1 1;
#X connect 1 0 3 0;
#X connect 2 0 6 0;
#X connect 3 0 2 0;
#X connect 3 1 2 1;
#X connect 4 0 2 0;
#X connect 5 0 0 0;
#X restore 128 288 pd cputime;
#X obj 226 221 + 1;
#X obj 252 221 % 4;
#X obj 200 221 i;
#X text 282 220 count;
#X obj 200 250 sel 0;
#N canvas 435 195 489 342 cputime 0;
#X obj 204 106 t b b, f 7;
#X obj 204 127 cputime;
#X obj 204 67 inlet;
#X obj 204 208 outlet;
#X connect 0 0 1 0;
#X connect 0 1 1 1;
#X connect 1 0 3 0;
#X connect 2 0 0 0;
#X restore 128 267 pd cputime;
#N canvas 731 202 489 342 cputime 0;
#X obj 204 106 t b b, f 7;
#X obj 204 127 cputime;
#X obj 144 187 +;
#X obj 204 153 t b f;
#X obj 144 66 inlet;
#X obj 204 67 inlet;
#X obj 144 217 outlet;
#X connect 0 0 1 0;
#X connect 0 1 1 1;
#X connect 1 0 3 0;
#X connect 2 0 6 0;
#X connect 3 0 2 0;
#X connect 3 1 2 1;
#X connect 4 0 2 0;
#X connect 5 0 0 0;
#X restore 128 309 pd cputime;
#N canvas 731 202 489 342 cputime 0;
#X obj 204 106 t b b, f 7;
#X obj 204 127 cputime;
#X obj 144 187 +;
#X obj 204 153 t b f;
#X obj 144 66 inlet;
#X obj 204 67 inlet;
#X obj 144 217 outlet;
#X connect 0 0 1 0;
#X connect 0 1 1 1;
#X connect 1 0 3 0;
#X connect 2 0 6 0;
#X connect 3 0 2 0;
#X connect 3 1 2 1;
#X connect 4 0 2 0;
#X connect 5 0 0 0;
#X restore 128 329 pd cputime;
#X obj 200 271 sel 1;
#X obj 200 292 sel 2;
#X obj 200 312 sel 3;
#X obj 128 351 change 0;
#X connect 1 0 7 0;
#X connect 2 0 1 0;
#X connect 3 0 4 0;
#X connect 3 1 2 0;
#X connect 4 0 6 1;
#X connect 5 0 0 0;
#X connect 6 0 16 0;
#X connect 7 0 5 1;
#X connect 8 0 9 0;
#X connect 9 0 6 0;
#X connect 10 0 11 0;
#X connect 11 0 3 0;
#X connect 13 0 20 0;
#X connect 14 0 15 0;
#X connect 15 0 16 1;
#X connect 16 0 14 0;
#X connect 16 0 18 0;
#X connect 16 0 22 0;
#X connect 16 0 23 0;
#X connect 16 0 24 0;
#X connect 18 0 19 0;
#X connect 19 0 13 0;
#X connect 20 0 21 0;
#X connect 21 0 25 0;
#X connect 22 0 13 1;
#X connect 23 0 20 1;
#X connect 24 0 21 1;
#X connect 25 0 5 0;
#X restore 64 313 pd cpu;
#X floatatom 64 343 5 0 0 1 cpu% - - 0;
#X text 69 386 8%;
#X text 14 84 all on;
#X text 94 84 all off;
#X obj 189 149 t b f;
#X msg 189 171 32;
#X obj 189 213 pack f f;
#X msg 189 235 set \$1 \$2 1;
#N canvas 73 334 450 300 itt 0;
#X obj 73 106 until;
#X obj 73 79 t f b;
#X msg 113 106 0;
#X obj 73 133 i;
#X obj 104 133 + 1;
#X obj 73 161 outlet;
#X obj 73 46 inlet n;
#X obj 124 65 inlet stop;
#X connect 0 0 3 0;
#X connect 1 0 0 0;
#X connect 1 1 2 0;
#X connect 2 0 3 1;
#X connect 3 0 4 0;
#X connect 3 0 5 0;
#X connect 4 0 3 1;
#X connect 6 0 1 0;
#X connect 7 0 0 1;
#X restore 189 127 pd itt;
#N canvas 73 334 450 300 itt 0;
#X obj 73 106 until;
#X obj 73 79 t f b;
#X msg 113 106 0;
#X obj 73 133 i;
#X obj 104 133 + 1;
#X obj 73 161 outlet;
#X obj 73 46 inlet n;
#X obj 124 65 inlet stop;
#X connect 0 0 3 0;
#X connect 1 0 0 0;
#X connect 1 1 2 0;
#X connect 2 0 3 1;
#X connect 3 0 4 0;
#X connect 3 0 5 0;
#X connect 4 0 3 1;
#X connect 6 0 1 0;
#X connect 7 0 0 1;
#X restore 189 192 pd itt;
#X text 184 84 half on;
#X msg 189 106 8;
#X obj 367 272 n_matrix~ m 16 32, f 81;
#N canvas 73 334 450 300 itt 0;
#X obj 73 106 until;
#X obj 73 79 t f b;
#X msg 113 106 0;
#X obj 73 133 i;
#X obj 104 133 + 1;
#X obj 73 161 outlet;
#X obj 73 46 inlet n;
#X obj 124 65 inlet stop;
#X connect 0 0 3 0;
#X connect 1 0 0 0;
#X connect 1 1 2 0;
#X connect 2 0 3 1;
#X connect 3 0 4 0;
#X connect 3 0 5 0;
#X connect 4 0 3 1;
#X connect 6 0 1 0;
#X connect 7 0 0 1;
#X restore 280 127 pd itt;
#X msg 280 106 16;
#X msg 280 235 set \$1 \$1 1;
#X connect 0 0 31 5;
#X connect 0 0 31 4;
#X connect 0 0 31 3;
#X connect 0 0 31 2;
#X connect 0 0 31 1;
#X connect 0 0 31 0;
#X connect 0 0 31 6;
#X connect 0 0 31 7;
#X connect 0 0 31 8;
#X connect 0 0 31 9;
#X connect 0 0 31 10;
#X connect 0 0 31 11;
#X connect 0 0 31 12;
#X connect 0 0 31 13;
#X connect 0 0 31 14;
#X connect 0 0 31 15;
#X connect 1 0 31 0;
#X connect 2 0 4 0;
#X connect 2 1 5 1;
#X connect 3 0 14 0;
#X connect 4 0 16 0;
#X connect 5 0 10 0;
#X connect 6 0 8 0;
#X connect 6 1 9 1;
#X connect 7 0 15 0;
#X connect 8 0 17 0;
#X connect 9 0 11 0;
#X connect 10 0 31 0;
#X connect 11 0 31 0;
#X connect 13 0 12 0;
#X connect 14 0 2 0;
#X connect 15 0 6 0;
#X connect 16 0 5 0;
#X connect 17 0 9 0;
#X connect 18 0 19 0;
#X connect 23 0 24 0;
#X connect 23 1 25 1;
#X connect 24 0 28 0;
#X connect 25 0 26 0;
#X connect 26 0 31 0;
#X connect 27 0 23 0;
#X connect 28 0 25 0;
#X connect 30 0 27 0;
#X connect 31 0 13 0;
#X connect 31 1 13 0;
#X connect 31 2 13 0;
#X connect 31 3 13 0;
#X connect 31 4 13 0;
#X connect 31 5 13 0;
#X connect 31 6 13 0;
#X connect 31 7 13 0;
#X connect 31 8 13 0;
#X connect 31 9 13 0;
#X connect 31 10 13 0;
#X connect 31 11 13 0;
#X connect 31 12 13 0;
#X connect 31 13 13 0;
#X connect 31 14 13 0;
#X connect 31 15 13 0;
#X connect 31 16 13 0;
#X connect 31 17 13 0;
#X connect 31 18 13 0;
#X connect 31 19 13 0;
#X connect 31 20 13 0;
#X connect 31 21 13 0;
#X connect 31 22 13 0;
#X connect 31 23 13 0;
#X connect 31 24 13 0;
#X connect 31 25 13 0;
#X connect 31 26 13 0;
#X connect 31 27 13 0;
#X connect 31 28 13 0;
#X connect 31 29 13 0;
#X connect 31 30 13 0;
#X connect 31 31 13 0;
#X connect 32 0 34 0;
#X connect 33 0 32 0;
#X connect 34 0 31 0;
#X restore 63 296 pd test m 16 32;
#N canvas 425 186 510 361 (subpatch) 0;
#X obj 79 207 dac~;
#X obj 79 187 *~ 0;
#X obj 100 100 tgl 18 0 empty empty empty 17 7 0 10 #bbbbbb #000000 #000000 0 1;
#X obj 78 27 inlet~;
#X connect 1 0 0 0;
#X connect 1 0 0 1;
#X connect 2 0 1 1;
#X connect 3 0 1 0;
#X coords 0 -1 1 1 18 18 2 100 100;
#X restore 173 320 pd;
#N canvas 243 150 874 432 test 0;
#X obj 456 126 osc~ 333;
#X msg 367 42 debug;
#X obj 19 149 t b f;
#X msg 19 106 16;
#X msg 19 171 32;
#X obj 19 213 pack f f;
#X obj 97 151 t b f;
#X msg 97 107 16;
#X msg 97 173 32;
#X obj 97 214 pack f f;
#X msg 19 235 set \$1 \$2 1;
#X msg 96 235 set \$1 \$2 0;
#X obj 536 397 outlet~;
#X obj 537 361 *~ 0.0001;
#N canvas 73 334 450 300 itt 0;
#X obj 73 106 until;
#X obj 73 79 t f b;
#X msg 113 106 0;
#X obj 73 133 i;
#X obj 104 133 + 1;
#X obj 73 161 outlet;
#X obj 73 46 inlet n;
#X obj 124 65 inlet stop;
#X connect 0 0 3 0;
#X connect 1 0 0 0;
#X connect 1 1 2 0;
#X connect 2 0 3 1;
#X connect 3 0 4 0;
#X connect 3 0 5 0;
#X connect 4 0 3 1;
#X connect 6 0 1 0;
#X connect 7 0 0 1;
#X restore 19 127 pd itt;
#N canvas 73 334 450 300 itt 0;
#X obj 73 106 until;
#X obj 73 79 t f b;
#X msg 113 106 0;
#X obj 73 133 i;
#X obj 104 133 + 1;
#X obj 73 161 outlet;
#X obj 73 46 inlet n;
#X obj 124 65 inlet stop;
#X connect 0 0 3 0;
#X connect 1 0 0 0;
#X connect 1 1 2 0;
#X connect 2 0 3 1;
#X connect 3 0 4 0;
#X connect 3 0 5 0;
#X connect 4 0 3 1;
#X connect 6 0 1 0;
#X connect 7 0 0 1;
#X restore 97 128 pd itt;
#N canvas 73 334 450 300 itt 0;
#X obj 73 106 until;
#X obj 73 79 t f b;
#X msg 113 106 0;
#X obj 73 133 i;
#X obj 104 133 + 1;
#X obj 73 161 outlet;
#X obj 73 46 inlet n;
#X obj 124 65 inlet stop;
#X connect 0 0 3 0;
#X connect 1 0 0 0;
#X connect 1 1 2 0;
#X connect 2 0 3 1;
#X connect 3 0 4 0;
#X connect 3 0 5 0;
#X connect 4 0 3 1;
#X connect 6 0 1 0;
#X connect 7 0 0 1;
#X restore 19 192 pd itt;
#N canvas 73 334 450 300 itt 0;
#X obj 73 106 until;
#X obj 73 79 t f b;
#X msg 113 106 0;
#X obj 73 133 i;
#X obj 104 133 + 1;
#X obj 73 161 outlet;
#X obj 73 46 inlet n;
#X obj 124 65 inlet stop;
#X connect 0 0 3 0;
#X connect 1 0 0 0;
#X connect 1 1 2 0;
#X connect 2 0 3 1;
#X connect 3 0 4 0;
#X connect 3 0 5 0;
#X connect 4 0 3 1;
#X connect 6 0 1 0;
#X connect 7 0 0 1;
#X restore 97 193 pd itt;
#N canvas 468 15 660 511 cpu 0;
#X obj 128 414 outlet;
#X obj 354 213 /;
#X msg 354 192 100 \$1;
#X obj 292 160 t f f;
#X obj 292 182 / 4;
#X obj 128 383 *;
#X obj 200 199 metro;
#X obj 354 366 / 4;
#X obj 200 159 loadbang;
#X msg 200 179 1;
#X obj 292 114 loadbang;
#X msg 292 137 2000;
#X text 329 139 time in ms;
#N canvas 731 202 489 342 cputime 0;
#X obj 204 106 t b b, f 7;
#X obj 204 127 cputime;
#X obj 144 187 +;
#X obj 204 153 t b f;
#X obj 144 66 inlet;
#X obj 204 67 inlet;
#X obj 144 217 outlet;
#X connect 0 0 1 0;
#X connect 0 1 1 1;
#X connect 1 0 3 0;
#X connect 2 0 6 0;
#X connect 3 0 2 0;
#X connect 3 1 2 1;
#X connect 4 0 2 0;
#X connect 5 0 0 0;
#X restore 128 288 pd cputime;
#X obj 226 221 + 1;
#X obj 252 221 % 4;
#X obj 200 221 i;
#X text 282 220 count;
#X obj 200 250 sel 0;
#N canvas 435 195 489 342 cputime 0;
#X obj 204 106 t b b, f 7;
#X obj 204 127 cputime;
#X obj 204 67 inlet;
#X obj 204 208 outlet;
#X connect 0 0 1 0;
#X connect 0 1 1 1;
#X connect 1 0 3 0;
#X connect 2 0 0 0;
#X restore 128 267 pd cputime;
#N canvas 731 202 489 342 cputime 0;
#X obj 204 106 t b b, f 7;
#X obj 204 127 cputime;
#X obj 144 187 +;
#X obj 204 153 t b f;
#X obj 144 66 inlet;
#X obj 204 67 inlet;
#X obj 144 217 outlet;
#X connect 0 0 1 0;
#X connect 0 1 1 1;
#X connect 1 0 3 0;
#X connect 2 0 6 0;
#X connect 3 0 2 0;
#X connect 3 1 2 1;
#X connect 4 0 2 0;
#X connect 5 0 0 0;
#X restore 128 309 pd cputime;
#N canvas 731 202 489 342 cputime 0;
#X obj 204 106 t b b, f 7;
#X obj 204 127 cputime;
#X obj 144 187 +;
#X obj 204 153 t b f;
#X obj 144 66 inlet;
#X obj 204 67 inlet;
#X obj 144 217 outlet;
#X connect 0 0 1 0;
#X connect 0 1 1 1;
#X connect 1 0 3 0;
#X connect 2 0 6 0;
#X connect 3 0 2 0;
#X connect 3 1 2 1;
#X connect 4 0 2 0;
#X connect 5 0 0 0;
#X restore 128 329 pd cputime;
#X obj 200 271 sel 1;
#X obj 200 292 sel 2;
#X obj 200 312 sel 3;
#X obj 128 351 change 0;
#X connect 1 0 7 0;
#X connect 2 0 1 0;
#X connect 3 0 4 0;
#X connect 3 1 2 0;
#X connect 4 0 6 1;
#X connect 5 0 0 0;
#X connect 6 0 16 0;
#X connect 7 0 5 1;
#X connect 8 0 9 0;
#X connect 9 0 6 0;
#X connect 10 0 11 0;
#X connect 11 0 3 0;
#X connect 13 0 20 0;
#X connect 14 0 15 0;
#X connect 15 0 16 1;
#X connect 16 0 14 0;
#X connect 16 0 18 0;
#X connect 16 0 22 0;
#X connect 16 0 23 0;
#X connect 16 0 24 0;
#X connect 18 0 19 0;
#X connect 19 0 13 0;
#X connect 20 0 21 0;
#X connect 21 0 25 0;
#X connect 22 0 13 1;
#X connect 23 0 20 1;
#X connect 24 0 21 1;
#X connect 25 0 5 0;
#X restore 64 313 pd cpu;
#X floatatom 64 343 5 0 0 1 cpu% - - 0;
#X text 69 386 8%;
#X text 14 84 all on;
#X text 94 84 all off;
#X obj 189 149 t b f;
#X msg 189 171 32;
#X obj 189 213 pack f f;
#X msg 189 235 set \$1 \$2 1;
#N canvas 73 334 450 300 itt 0;
#X obj 73 106 until;
#X obj 73 79 t f b;
#X msg 113 106 0;
#X obj 73 133 i;
#X obj 104 133 + 1;
#X obj 73 161 outlet;
#X obj 73 46 inlet n;
#X obj 124 65 inlet stop;
#X connect 0 0 3 0;
#X connect 1 0 0 0;
#X connect 1 1 2 0;
#X connect 2 0 3 1;
#X connect 3 0 4 0;
#X connect 3 0 5 0;
#X connect 4 0 3 1;
#X connect 6 0 1 0;
#X connect 7 0 0 1;
#X restore 189 127 pd itt;
#N canvas 73 334 450 300 itt 0;
#X obj 73 106 until;
#X obj 73 79 t f b;
#X msg 113 106 0;
#X obj 73 133 i;
#X obj 104 133 + 1;
#X obj 73 161 outlet;
#X obj 73 46 inlet n;
#X obj 124 65 inlet stop;
#X connect 0 0 3 0;
#X connect 1 0 0 0;
#X connect 1 1 2 0;
#X connect 2 0 3 1;
#X connect 3 0 4 0;
#X connect 3 0 5 0;
#X connect 4 0 3 1;
#X connect 6 0 1 0;
#X connect 7 0 0 1;
#X restore 189 192 pd itt;
#X text 184 84 half on;
#X msg 189 106 8;
#N canvas 73 334 450 300 itt 0;
#X obj 73 106 until;
#X obj 73 79 t f b;
#X msg 113 106 0;
#X obj 73 133 i;
#X obj 104 133 + 1;
#X obj 73 161 outlet;
#X obj 73 46 inlet n;
#X obj 124 65 inlet stop;
#X connect 0 0 3 0;
#X connect 1 0 0 0;
#X connect 1 1 2 0;
#X connect 2 0 3 1;
#X connect 3 0 4 0;
#X connect 3 0 5 0;
#X connect 4 0 3 1;
#X connect 6 0 1 0;
#X connect 7 0 0 1;
#X restore 280 127 pd itt;
#X msg 280 106 16;
#X msg 280 235 set \$1 \$1 1;
#X obj 367 272 n_matrix~ a 16 32, f 81;
#X connect 0 0 34 5;
#X connect 0 0 34 4;
#X connect 0 0 34 3;
#X connect 0 0 34 2;
#X connect 0 0 34 1;
#X connect 0 0 34 0;
#X connect 0 0 34 6;
#X connect 0 0 34 7;
#X connect 0 0 34 8;
#X connect 0 0 34 9;
#X connect 0 0 34 10;
#X connect 0 0 34 11;
#X connect 0 0 34 12;
#X connect 0 0 34 13;
#X connect 0 0 34 14;
#X connect 0 0 34 15;
#X connect 1 0 34 0;
#X connect 2 0 4 0;
#X connect 2 1 5 1;
#X connect 3 0 14 0;
#X connect 4 0 16 0;
#X connect 5 0 10 0;
#X connect 6 0 8 0;
#X connect 6 1 9 1;
#X connect 7 0 15 0;
#X connect 8 0 17 0;
#X connect 9 0 11 0;
#X connect 10 0 34 0;
#X connect 11 0 34 0;
#X connect 13 0 12 0;
#X connect 14 0 2 0;
#X connect 15 0 6 0;
#X connect 16 0 5 0;
#X connect 17 0 9 0;
#X connect 18 0 19 0;
#X connect 23 0 24 0;
#X connect 23 1 25 1;
#X connect 24 0 28 0;
#X connect 25 0 26 0;
#X connect 26 0 34 0;
#X connect 27 0 23 0;
#X connect 28 0 25 0;
#X connect 30 0 27 0;
#X connect 31 0 33 0;
#X connect 32 0 31 0;
#X connect 33 0 34 0;
#X connect 34 0 13 0;
#X connect 34 1 13 0;
#X connect 34 2 13 0;
#X connect 34 3 13 0;
#X connect 34 4 13 0;
#X connect 34 5 13 0;
#X connect 34 6 13 0;
#X connect 34 7 13 0;
#X connect 34 8 13 0;
#X connect 34 9 13 0;
#X connect 34 10 13 0;
#X connect 34 11 13 0;
#X connect 34 12 13 0;
#X connect 34 13 13 0;
#X connect 34 14 13 0;
#X connect 34 15 13 0;
#X connect 34 16 13 0;
#X connect 34 17 13 0;
#X connect 34 18 13 0;
#X connect 34 19 13 0;
#X connect 34 20 13 0;
#X connect 34 21 13 0;
#X connect 34 22 13 0;
#X connect 34 23 13 0;
#X connect 34 24 13 0;
#X connect 34 25 13 0;
#X connect 34 26 13 0;
#X connect 34 27 13 0;
#X connect 34 28 13 0;
#X connect 34 29 13 0;
#X connect 34 30 13 0;
#X connect 34 31 13 0;
#X restore 173 297 pd test a 16 32;
#X connect 0 0 1 0;
#X connect 1 0 11 0;
#X connect 2 0 3 0;
#X connect 3 0 12 0;
#X connect 4 0 5 0;
#X connect 5 0 13 0;
#X connect 6 0 17 0;
#X connect 7 0 34 0;
#X connect 8 0 6 0;
#X connect 11 0 6 0;
#X connect 12 0 28 0;
#X connect 13 0 28 0;
#X connect 19 0 6 0;
#X connect 20 0 28 0;
#X connect 21 0 28 0;
#X connect 22 0 28 1;
#X connect 23 0 43 0;
#X connect 24 0 43 1;
#X connect 25 0 43 2;
#X connect 26 0 43 3;
#X connect 28 0 18 0;
#X connect 39 0 44 0;
#X connect 40 0 44 1;
#X connect 41 0 44 2;
#X connect 42 0 44 3;
#X connect 43 0 9 0;
#X connect 43 1 14 0;
#X connect 43 2 15 0;
#X connect 43 3 16 0;
#X connect 44 0 35 0;
#X connect 44 1 36 0;
#X connect 44 2 37 0;
#X connect 44 3 38 0;
#X connect 45 0 27 0;
#X connect 47 0 46 0;
