#N canvas 244 382 1066 260 10;
#X obj 65 113 n_mux~;
#X obj 175 113 n_mux~ 2, f 14;
#X obj 66 40 nbx 3 14 -1e+37 1e+37 0 1 empty empty empty 0 -8 0 10
#fcfcfc #000000 #000000 9 256;
#X obj 66 59 sig~;
#X floatatom 77 87 5 0 0 0 - - - 0;
#X obj 66 154 snapshot~;
#X obj 969 163 loadbang;
#X msg 969 181 1;
#X obj 969 199 metro 50;
#X obj 969 217 s \$0-m;
#X obj 72 135 r \$0-m;
#X floatatom 66 175 5 0 0 0 - - - 0;
#X obj 176 154 snapshot~;
#X obj 182 135 r \$0-m;
#X floatatom 176 175 5 0 0 0 - - - 0;
#X obj 176 40 nbx 3 14 -1e+37 1e+37 0 1 empty empty empty 0 -8 0 10
#fcfcfc #000000 #000000 27 256;
#X obj 176 59 sig~;
#X obj 256 40 nbx 3 14 -1e+37 1e+37 0 1 empty empty empty 0 -8 0 10
#fcfcfc #000000 #000000 -7 256;
#X obj 256 59 sig~;
#X floatatom 187 87 5 0 0 0 - - - 0;
#X obj 326 154 snapshot~;
#X obj 332 135 r \$0-m;
#X floatatom 326 175 5 0 0 0 - - - 0;
#X obj 326 40 nbx 3 14 -1e+37 1e+37 0 1 empty empty empty 0 -8 0 10
#fcfcfc #000000 #000000 9 256;
#X obj 326 59 sig~;
#X obj 405 40 nbx 3 14 -1e+37 1e+37 0 1 empty empty empty 0 -8 0 10
#fcfcfc #000000 #000000 -6 256;
#X obj 405 59 sig~;
#X floatatom 337 87 5 0 0 0 - - - 0;
#X obj 325 113 n_mux~ 4, f 40;
#X obj 484 40 nbx 3 14 -1e+37 1e+37 0 1 empty empty empty 0 -8 0 10
#fcfcfc #000000 #000000 -26 256;
#X obj 484 59 sig~;
#X obj 563 40 nbx 3 14 -1e+37 1e+37 0 1 empty empty empty 0 -8 0 10
#fcfcfc #000000 #000000 3 256;
#X obj 563 59 sig~;
#X obj 606 154 snapshot~;
#X obj 612 135 r \$0-m;
#X floatatom 606 175 5 0 0 0 - - - 0;
#X obj 606 40 nbx 3 14 -1e+37 1e+37 0 1 empty empty empty 0 -8 0 10
#fcfcfc #000000 #000000 -1 256;
#X obj 606 59 sig~;
#X obj 654 40 nbx 3 14 -1e+37 1e+37 0 1 empty empty empty 0 -8 0 10
#fcfcfc #000000 #000000 11 256;
#X obj 654 59 sig~;
#X floatatom 617 87 5 0 0 0 - - - 0;
#X obj 701 40 nbx 3 14 -1e+37 1e+37 0 1 empty empty empty 0 -8 0 10
#fcfcfc #000000 #000000 22 256;
#X obj 701 59 sig~;
#X obj 751 40 nbx 3 14 -1e+37 1e+37 0 1 empty empty empty 0 -8 0 10
#fcfcfc #000000 #000000 33 256;
#X obj 751 59 sig~;
#X obj 605 113 n_mux~ 8, f 57;
#X obj 798 40 nbx 3 14 -1e+37 1e+37 0 1 empty empty empty 0 -8 0 10
#fcfcfc #000000 #000000 44 256;
#X obj 798 59 sig~;
#X obj 848 40 nbx 3 14 -1e+37 1e+37 0 1 empty empty empty 0 -8 0 10
#fcfcfc #000000 #000000 55 256;
#X obj 848 59 sig~;
#X obj 896 40 nbx 3 14 -1e+37 1e+37 0 1 empty empty empty 0 -8 0 10
#fcfcfc #000000 #000000 66 256;
#X obj 896 59 sig~;
#X obj 945 40 nbx 3 14 -1e+37 1e+37 0 1 empty empty empty 0 -8 0 10
#fcfcfc #000000 #000000 77 256;
#X obj 945 59 sig~;
#X text 443 213 test n_mux~;
#X connect 0 0 5 0;
#X connect 1 0 12 0;
#X connect 2 0 3 0;
#X connect 3 0 0 0;
#X connect 4 0 0 0;
#X connect 5 0 11 0;
#X connect 6 0 7 0;
#X connect 7 0 8 0;
#X connect 8 0 9 0;
#X connect 10 0 5 0;
#X connect 12 0 14 0;
#X connect 13 0 12 0;
#X connect 15 0 16 0;
#X connect 16 0 1 0;
#X connect 17 0 18 0;
#X connect 18 0 1 1;
#X connect 19 0 1 0;
#X connect 20 0 22 0;
#X connect 21 0 20 0;
#X connect 23 0 24 0;
#X connect 24 0 28 0;
#X connect 25 0 26 0;
#X connect 26 0 28 1;
#X connect 27 0 28 0;
#X connect 28 0 20 0;
#X connect 29 0 30 0;
#X connect 30 0 28 2;
#X connect 31 0 32 0;
#X connect 32 0 28 3;
#X connect 33 0 35 0;
#X connect 34 0 33 0;
#X connect 36 0 37 0;
#X connect 37 0 45 0;
#X connect 38 0 39 0;
#X connect 39 0 45 1;
#X connect 40 0 45 0;
#X connect 41 0 42 0;
#X connect 42 0 45 2;
#X connect 43 0 44 0;
#X connect 44 0 45 3;
#X connect 45 0 33 0;
#X connect 46 0 47 0;
#X connect 47 0 45 4;
#X connect 48 0 49 0;
#X connect 49 0 45 5;
#X connect 50 0 51 0;
#X connect 51 0 45 6;
#X connect 52 0 53 0;
#X connect 53 0 45 7;
