#N canvas 496 262 669 435 10;
#N canvas 0 50 450 250 (subpatch) 0;
#X array array 1024 float 2;
#X coords 0 44100 1024 0 200 140 1 0 0;
#X restore 391 123 graph;
#X floatatom 18 130 5 -999 999 0 - - - 0;
#X obj 18 151 t f f f, f 18;
#X obj 273 143 n_p2f;
#X msg 273 119 calc \$1;
#X msg 273 25 1024;
#X obj 273 164 tabwrite array;
#X obj 273 47 t f f, f 11;
#X msg 336 65 \; array resize \$1;
#X obj 273 95 t f f, f 14;
#X obj 295 218 savepanel;
#X obj 295 201 bng 15 250 50 0 empty empty empty 0 -6 0 8 #fcfcfc #000000
#000000;
#X msg 295 236 \; array write \$1;
#N canvas 515 246 708 434 test 0;
#X obj 109 42 tgl 15 0 empty empty empty 17 7 0 10 #fcfcfc #000000
#000000 0 1;
#X floatatom 148 42 5 1 1000 0 - - - 0;
#X obj 109 136 s to_mtof;
#X obj 170 137 s to_p2f;
#X obj 109 116 spigot;
#X obj 170 117 spigot;
#X obj 142 96 == 0;
#X obj 203 81 tgl 15 0 empty empty empty 17 7 0 10 #fcfcfc #000000
#000000 0 1;
#X obj 44 183 r to_mtof;
#X obj 44 221 until;
#X obj 44 240 random 100;
#X obj 44 259 mtof;
#X obj 44 283 r to_mtof;
#X obj 44 321 until;
#X obj 44 340 random 100;
#X obj 44 359 mtof;
#X msg 44 203 1000;
#X msg 44 302 1000;
#X obj 121 182 r to_mtof;
#X obj 121 220 until;
#X obj 121 239 random 100;
#X obj 121 258 mtof;
#X obj 121 282 r to_mtof;
#X obj 121 320 until;
#X obj 121 339 random 100;
#X obj 121 358 mtof;
#X msg 121 202 1000;
#X msg 121 301 1000;
#X obj 198 183 r to_mtof;
#X obj 198 221 until;
#X obj 198 240 random 100;
#X obj 198 259 mtof;
#X obj 198 283 r to_mtof;
#X obj 198 321 until;
#X obj 198 340 random 100;
#X obj 198 359 mtof;
#X msg 198 203 1000;
#X msg 198 302 1000;
#X obj 281 184 r to_mtof;
#X obj 281 222 until;
#X obj 281 241 random 100;
#X obj 281 260 mtof;
#X obj 281 284 r to_mtof;
#X obj 281 322 until;
#X obj 281 341 random 100;
#X obj 281 360 mtof;
#X msg 281 204 1000;
#X msg 281 303 1000;
#X obj 401 219 until;
#X obj 401 238 random 100;
#X msg 401 201 1000;
#X obj 401 182 r to_p2f;
#X obj 401 256 n_p2f;
#X obj 401 319 until;
#X obj 401 338 random 100;
#X msg 401 301 1000;
#X obj 401 282 r to_p2f;
#X obj 401 356 n_p2f;
#X obj 471 219 until;
#X obj 471 238 random 100;
#X msg 471 201 1000;
#X obj 471 182 r to_p2f;
#X obj 471 256 n_p2f;
#X obj 471 319 until;
#X obj 471 338 random 100;
#X msg 471 301 1000;
#X obj 471 282 r to_p2f;
#X obj 471 356 n_p2f;
#X obj 541 219 until;
#X obj 541 238 random 100;
#X msg 541 201 1000;
#X obj 541 182 r to_p2f;
#X obj 541 256 n_p2f;
#X obj 541 319 until;
#X obj 541 338 random 100;
#X msg 541 301 1000;
#X obj 541 282 r to_p2f;
#X obj 541 356 n_p2f;
#X obj 611 219 until;
#X obj 611 238 random 100;
#X msg 611 201 1000;
#X obj 611 182 r to_p2f;
#X obj 611 256 n_p2f;
#X obj 611 319 until;
#X obj 611 338 random 100;
#X msg 611 301 1000;
#X obj 611 282 r to_p2f;
#X obj 611 356 n_p2f;
#X obj 109 62 metro 1;
#X msg 446 58 mtof: 1ms : CPU:57%;
#X text 464 24 Test:;
#X msg 446 82 p2f: 1ms : CPU:32.25%;
#N canvas 0 16 575 550 (subpatch) 0;
#X obj 180 303 t b b, f 7;
#X obj 180 324 cputime;
#X obj 180 100 bng 20 250 50 0 empty empty empty 17 7 0 10 #fcfcfc
#000000 #000000;
#X obj 86 487 outlet;
#X obj 86 446 f;
#X obj 180 77 inlet;
#X obj 101 101 cnv 18 78 18 empty \$0_canvas CPU:1.375% 4 8 0 10 #fce0c4
#404040 0;
#X obj 180 466 s \$0_canvas;
#X msg 180 447 label CPU:\$1%;
#X obj 442 213 /;
#X msg 442 192 100 \$1;
#X obj 380 160 t f f;
#X obj 240 303 t b b, f 7;
#X obj 240 324 cputime;
#X obj 180 368 +;
#X obj 240 350 t b f;
#X obj 180 123 s \$0_get;
#X obj 86 398 r \$0_get;
#X obj 310 303 t b b, f 7;
#X obj 310 324 cputime;
#X obj 380 303 t b b, f 7;
#X obj 380 324 cputime;
#X obj 240 215 delay;
#X obj 310 231 delay;
#X obj 380 247 delay;
#X obj 407 199 / 4;
#X obj 180 388 +;
#X obj 310 370 t b f;
#X obj 180 408 +;
#X obj 380 390 t b f;
#X obj 180 428 *;
#X obj 180 199 metro;
#X obj 442 410 / 4;
#X obj 180 159 loadbang;
#X msg 180 179 1;
#X msg 86 467 set \$1 %;
#X obj 380 114 loadbang;
#X msg 380 137 2000;
#X text 417 139 time in ms;
#X connect 0 0 1 0;
#X connect 0 1 1 1;
#X connect 1 0 14 0;
#X connect 2 0 16 0;
#X connect 4 0 35 0;
#X connect 5 0 2 0;
#X connect 8 0 7 0;
#X connect 9 0 32 0;
#X connect 10 0 9 0;
#X connect 11 0 31 1;
#X connect 11 1 10 0;
#X connect 11 1 25 0;
#X connect 12 0 13 0;
#X connect 12 1 13 1;
#X connect 13 0 15 0;
#X connect 14 0 26 0;
#X connect 15 0 14 0;
#X connect 15 1 14 1;
#X connect 17 0 4 0;
#X connect 18 0 19 0;
#X connect 18 1 19 1;
#X connect 19 0 27 0;
#X connect 20 0 21 0;
#X connect 20 1 21 1;
#X connect 21 0 29 0;
#X connect 22 0 12 0;
#X connect 22 0 23 0;
#X connect 23 0 18 0;
#X connect 23 0 24 0;
#X connect 24 0 20 0;
#X connect 25 0 22 1;
#X connect 25 0 23 1;
#X connect 25 0 24 1;
#X connect 26 0 28 0;
#X connect 27 0 26 0;
#X connect 27 1 26 1;
#X connect 28 0 30 0;
#X connect 29 0 28 0;
#X connect 29 1 28 1;
#X connect 30 0 4 1;
#X connect 30 0 8 0;
#X connect 31 0 0 0;
#X connect 31 0 22 0;
#X connect 32 0 30 1;
#X connect 33 0 34 0;
#X connect 34 0 31 0;
#X connect 35 0 3 0;
#X connect 36 0 37 0;
#X connect 37 0 11 0;
#X coords 0 -1 1 1 100 20 2 100 100;
#X restore 304 80 pd;
#X msg 453 110 mtof: 1ms : CPU:28.5%;
#X msg 453 134 p2f: 1ms : CPU:20.25%;
#X connect 0 0 88 0;
#X connect 1 0 88 1;
#X connect 4 0 2 0;
#X connect 5 0 3 0;
#X connect 6 0 4 1;
#X connect 7 0 6 0;
#X connect 7 0 5 1;
#X connect 8 0 16 0;
#X connect 9 0 10 0;
#X connect 10 0 11 0;
#X connect 12 0 17 0;
#X connect 13 0 14 0;
#X connect 14 0 15 0;
#X connect 16 0 9 0;
#X connect 17 0 13 0;
#X connect 18 0 26 0;
#X connect 19 0 20 0;
#X connect 20 0 21 0;
#X connect 22 0 27 0;
#X connect 23 0 24 0;
#X connect 24 0 25 0;
#X connect 26 0 19 0;
#X connect 27 0 23 0;
#X connect 28 0 36 0;
#X connect 29 0 30 0;
#X connect 30 0 31 0;
#X connect 32 0 37 0;
#X connect 33 0 34 0;
#X connect 34 0 35 0;
#X connect 36 0 29 0;
#X connect 37 0 33 0;
#X connect 38 0 46 0;
#X connect 39 0 40 0;
#X connect 40 0 41 0;
#X connect 42 0 47 0;
#X connect 43 0 44 0;
#X connect 44 0 45 0;
#X connect 46 0 39 0;
#X connect 47 0 43 0;
#X connect 48 0 49 0;
#X connect 49 0 52 0;
#X connect 50 0 48 0;
#X connect 51 0 50 0;
#X connect 53 0 54 0;
#X connect 54 0 57 0;
#X connect 55 0 53 0;
#X connect 56 0 55 0;
#X connect 58 0 59 0;
#X connect 59 0 62 0;
#X connect 60 0 58 0;
#X connect 61 0 60 0;
#X connect 63 0 64 0;
#X connect 64 0 67 0;
#X connect 65 0 63 0;
#X connect 66 0 65 0;
#X connect 68 0 69 0;
#X connect 69 0 72 0;
#X connect 70 0 68 0;
#X connect 71 0 70 0;
#X connect 73 0 74 0;
#X connect 74 0 77 0;
#X connect 75 0 73 0;
#X connect 76 0 75 0;
#X connect 78 0 79 0;
#X connect 79 0 82 0;
#X connect 80 0 78 0;
#X connect 81 0 80 0;
#X connect 83 0 84 0;
#X connect 84 0 87 0;
#X connect 85 0 83 0;
#X connect 86 0 85 0;
#X connect 88 0 4 0;
#X connect 88 0 5 0;
#X restore 265 323 pd test;
#X obj 18 321 print;
#X obj 123 169 n_p2f;
#X obj 70 170 mtof;
#X obj 18 281 pack s s s, f 18;
#X obj 18 250 makefilename %4f;
#X obj 70 232 makefilename %9f;
#X obj 123 214 makefilename %9f;
#X text 168 170 [-100 ... 155];
#X obj 432 360 n_p2f;
#X msg 432 342 calc \$1;
#X msg 18 301 m=[\$1] mtof=[\$2] p2f=[\$3];
#X text 49 67 pitch to frequency.;
#X floatatom 432 289 5 0 0 0 m - - 0;
#X obj 432 324 / 0.25;
#X obj 432 306 + 100;
#X floatatom 566 378 10 0 0 0 - - - 0;
#X obj 566 304 mtof;
#X floatatom 432 378 10 0 0 0 freq - - 0;
#X obj 498 360 n_p2f;
#X floatatom 498 378 10 0 0 0 - - - 0;
#N canvas 0 16 450 300 itt 0;
#X obj 73 106 until;
#X obj 73 79 t f b;
#X msg 113 106 0;
#X obj 73 133 i;
#X obj 104 133 + 1;
#X obj 73 161 outlet;
#X obj 73 46 inlet n;
#X obj 124 65 inlet stop;
#X connect 0 0 3 0;
#X connect 1 0 0 0;
#X connect 1 1 2 0;
#X connect 2 0 3 1;
#X connect 3 0 4 0;
#X connect 3 0 5 0;
#X connect 4 0 3 1;
#X connect 6 0 1 0;
#X connect 7 0 0 1;
#X restore 273 72 pd itt;
#X connect 1 0 2 0;
#X connect 2 0 18 0;
#X connect 2 1 16 0;
#X connect 2 2 15 0;
#X connect 3 0 6 0;
#X connect 4 0 3 0;
#X connect 5 0 7 0;
#X connect 7 0 34 0;
#X connect 7 1 8 0;
#X connect 9 0 4 0;
#X connect 9 1 6 1;
#X connect 10 0 12 0;
#X connect 11 0 10 0;
#X connect 15 0 20 0;
#X connect 16 0 19 0;
#X connect 17 0 24 0;
#X connect 18 0 17 0;
#X connect 19 0 17 1;
#X connect 20 0 17 2;
#X connect 22 0 31 0;
#X connect 23 0 22 0;
#X connect 24 0 14 0;
#X connect 26 0 28 0;
#X connect 26 0 30 0;
#X connect 26 0 32 0;
#X connect 27 0 23 0;
#X connect 28 0 27 0;
#X connect 30 0 29 0;
#X connect 32 0 33 0;
#X connect 34 0 9 0;
