#N canvas 490 102 829 532 10;
#N canvas 0 50 450 250 (subpatch) 0;
#X array src 269338 float 2;
#X coords 0 1 269338 -1 800 100 1 0 0;
#X restore 15 20 graph;
#N canvas 0 50 450 250 (subpatch) 0;
#X array dst 269338 float 2;
#X coords 0 1 269338 0 800 16 1 0 0;
#X restore 15 135 graph;
#X obj 60 405 r \$0-to;
#X obj 60 441 print -n;
#X obj 162 392 bng 15 250 50 0 empty empty open_file 17 7 0 10 -262144
-1 -1;
#X obj 162 412 openpanel;
#X obj 162 449 soundfiler;
#X obj 61 376 s \$0-to;
#X msg 162 430 read -resize \$1 src;
#X obj 42 181 bng 15 250 50 0 empty empty doit -28 7 0 10 -262144 -1
-1;
#X obj 42 261 s \$0-to;
#X obj 69 181 nbx 7 14 -1e+37 1e+37 0 1 empty empty start 8 -8 0 10
-262144 -1 -1 0 256;
#X obj 153 181 nbx 7 14 -1e+37 1e+37 0 1 empty empty length 8 -8 0
10 -262144 -1 -1 0 256;
#X obj 42 205 f, f 5;
#X floatatom 162 469 10 0 0 1 samples - -;
#X obj 61 339 loadbang;
#X obj 541 371 tabplay~ src;
#X obj 541 446 *~ 0;
#X obj 541 463 +~;
#X obj 541 484 dac~;
#X obj 562 426 * 0.01;
#X obj 541 332 bng 15 250 50 0 empty empty play 17 7 0 10 -262144 -1
-1;
#X obj 562 410 nbx 3 14 0 1000 0 1 empty empty level 0 -8 0 10 -262144
-1 -1 16 256;
#X obj 42 225 pack f f, f 19;
#X msg 61 358 set_array src dst;
#X obj 60 423 n_peakdetect;
#X msg 42 243 doit \$1 \$2;
#X obj 243 237 nbx 7 14 0 1e+37 0 1 empty empty level 8 -8 0 10 -262144
-1 -1 100 256;
#X obj 243 253 * 0.01;
#X msg 243 271 level \$1;
#X obj 243 289 s \$0-to;
#X obj 303 467 soundfiler;
#X obj 303 429 loadbang;
#X obj 323 237 nbx 7 14 0 1e+37 0 1 empty empty decay 8 -8 0 10 -262144
-1 -1 34 256;
#X obj 323 289 s \$0-to;
#X msg 323 271 decay \$1;
#X obj 403 237 nbx 7 14 0 1e+37 0 1 empty empty window 8 -8 0 10 -262144
-1 -1 54 256;
#X obj 403 289 s \$0-to;
#X msg 403 271 window \$1;
#X obj 483 237 nbx 7 14 100 500 0 1 empty empty skq 8 -8 0 10 -262144
-1 -1 100 256;
#X obj 483 289 s \$0-to;
#X obj 563 237 nbx 7 14 0 1e+37 0 1 empty empty skt 8 -8 0 10 -262144
-1 -1 6 256;
#X obj 563 289 s \$0-to;
#X msg 483 271 skq \$1;
#X msg 563 271 skt \$1;
#X obj 483 253 * 0.01;
#X obj 563 253 * 0.01;
#X obj 621 446 *~ 0;
#X obj 642 426 * 0.01;
#X obj 642 410 nbx 3 14 0 1000 0 1 empty empty level 0 -8 0 10 -262144
-1 -1 384 256;
#X obj 621 371 tabplay~ dst;
#X obj 643 237 nbx 7 14 0 1e+37 0 1 empty empty skip-w 8 -8 0 10 -262144
-1 -1 44 256;
#X obj 643 289 s \$0-to;
#X msg 643 271 skw \$1;
#X msg 303 448 read -resize ./samples/loop.wav src;
#X connect 2 0 25 0;
#X connect 4 0 5 0;
#X connect 5 0 8 0;
#X connect 6 0 14 0;
#X connect 8 0 6 0;
#X connect 9 0 13 0;
#X connect 11 0 13 1;
#X connect 12 0 23 1;
#X connect 13 0 23 0;
#X connect 15 0 24 0;
#X connect 16 0 17 0;
#X connect 17 0 18 0;
#X connect 18 0 19 0;
#X connect 18 0 19 1;
#X connect 20 0 17 1;
#X connect 21 0 16 0;
#X connect 21 0 50 0;
#X connect 22 0 20 0;
#X connect 23 0 26 0;
#X connect 24 0 7 0;
#X connect 25 0 3 0;
#X connect 26 0 10 0;
#X connect 27 0 28 0;
#X connect 28 0 29 0;
#X connect 29 0 30 0;
#X connect 32 0 54 0;
#X connect 33 0 35 0;
#X connect 35 0 34 0;
#X connect 36 0 38 0;
#X connect 38 0 37 0;
#X connect 39 0 45 0;
#X connect 41 0 46 0;
#X connect 43 0 40 0;
#X connect 44 0 42 0;
#X connect 45 0 43 0;
#X connect 46 0 44 0;
#X connect 47 0 18 1;
#X connect 48 0 47 1;
#X connect 49 0 48 0;
#X connect 50 0 47 0;
#X connect 51 0 53 0;
#X connect 53 0 52 0;
#X connect 54 0 31 0;
