#N canvas 519 170 581 382 10;
#X obj 22 22 bng 15 250 50 0 empty empty empty 17 7 0 10 -262144 -1
-1;
#X msg 27 39 bang;
#X floatatom 33 58 5 0 0 0 - - -;
#X msg 40 76 24;
#X msg 47 95 float 3.14;
#X msg 54 114 2 3 4;
#X msg 68 152 list abc dfg 34;
#X msg 89 208 abc;
#X msg 82 189 symbol a;
#X symbolatom 75 171 10 0 0 0 - - -;
#X msg 61 133 33 abc d efg 123;
#X obj 134 281 vradio 12 1 1 5 empty empty level 0 -8 0 10 -262144
-1 -1 4;
#X text 145 279 _fatal;
#X text 145 291 _error;
#X text 145 303 _normal;
#X text 145 315 _debug;
#X text 145 327 _all;
#X obj 262 68 loadbang;
#X msg 334 121 0 This is fatal level;
#X obj 273 231 list split 1;
#X msg 340 140 1 This is error level;
#X obj 273 294 list trim;
#X obj 273 272 list, f 7;
#X obj 273 252 t b f, f 11;
#X msg 349 159 2 This is normal level;
#X msg 357 178 3 This is debug level;
#X msg 367 197 4 This is all level;
#X obj 262 89 t b b b b b;
#X floatatom 441 275 5 0 0 0 - - -;
#X text 457 327 Arguments: level;
#X obj 242 68 bng 15 250 50 0 empty empty empty 17 7 0 10 -262144 -1
-1;
#X msg 95 227 this is anything;
#X obj 434 258 bng 15 250 50 0 empty empty empty 17 7 0 10 -262144
-1 -1;
#X obj 95 344 n_print;
#X obj 273 315 n_print, f 11;
#X obj 434 294 n_print 0;
#X connect 0 0 33 0;
#X connect 1 0 33 0;
#X connect 2 0 33 0;
#X connect 3 0 33 0;
#X connect 4 0 33 0;
#X connect 5 0 33 0;
#X connect 6 0 33 0;
#X connect 7 0 33 0;
#X connect 8 0 33 0;
#X connect 9 0 33 0;
#X connect 10 0 33 0;
#X connect 11 0 33 1;
#X connect 17 0 27 0;
#X connect 18 0 19 0;
#X connect 19 0 23 0;
#X connect 19 1 22 1;
#X connect 20 0 19 0;
#X connect 21 0 34 0;
#X connect 22 0 21 0;
#X connect 23 0 22 0;
#X connect 23 1 34 1;
#X connect 24 0 19 0;
#X connect 25 0 19 0;
#X connect 26 0 19 0;
#X connect 27 0 26 0;
#X connect 27 1 25 0;
#X connect 27 2 24 0;
#X connect 27 3 20 0;
#X connect 27 4 18 0;
#X connect 28 0 35 0;
#X connect 30 0 27 0;
#X connect 31 0 33 0;
#X connect 32 0 35 0;
