#N canvas 489 377 504 290 10;
#X obj 49 143 bng 15 250 50 0 empty empty empty 17 7 0 10 #fcfcfc #000000
#000000;
#X obj 49 166 t b b b, f 32;
#X obj 238 211 print 1:;
#X obj 49 211 print 3:;
#X obj 143 211 print 2:;
#X obj 364 136 print series:;
#X msg 364 81 10;
#X obj 364 99 until;
#X text 260 10 get random number(no repeat);
#X text 192 233 argument: seed range;
#X obj 49 187 n_random 100 2;
#X obj 143 187 n_random 100 2;
#X obj 238 187 n_random 100 2;
#X obj 364 118 n_random 100 10;
#X msg 88 28 10;
#X text 117 28 set range;
#X text 202 55 set seed;
#X msg 129 55 seed 12345;
#X text 14 116 get number;
#X text 230 85 set various seed;
#X msg 196 92 123;
#X obj 203 115 + 1;
#X obj 241 124 + 1;
#X msg 242 146 seed \$1;
#X msg 151 144 seed \$1;
#X msg 86 140 seed \$1;
#X connect 0 0 1 0;
#X connect 1 0 10 0;
#X connect 1 1 11 0;
#X connect 1 2 12 0;
#X connect 6 0 7 0;
#X connect 7 0 13 0;
#X connect 10 0 3 0;
#X connect 11 0 4 0;
#X connect 12 0 2 0;
#X connect 13 0 5 0;
#X connect 14 0 10 0;
#X connect 14 0 11 0;
#X connect 14 0 12 0;
#X connect 17 0 10 0;
#X connect 17 0 11 0;
#X connect 17 0 12 0;
#X connect 20 0 25 0;
#X connect 20 0 21 0;
#X connect 21 0 24 0;
#X connect 21 0 22 0;
#X connect 22 0 23 0;
#X connect 23 0 12 0;
#X connect 24 0 11 0;
#X connect 25 0 10 0;
