#N canvas 852 138 468 456 10;
#X obj 22 133 osc~;
#X obj 143 117 nbx 5 14 0 99999 0 1 empty empty set\ minimal\ length\ record_in_samples 56 7 0 10 #bbbbbb #000000 #000000 271 256;
#X obj 254 168 nbx 5 14 -999 999 0 1 empty empty treshold 56 7 0 10 #bbbbbb #000000 #000000 0 256;
#X obj 252 35 tgl 15 1 empty empty rise/fall 17 7 0 10 #bbbbbb #000000 #000000 1 1;
#X obj 22 206 +~ 0;
#X obj 22 67 nbx 5 14 0 99999 0 0 empty empty freq 56 7 0 10 #fcfcfc #000000 #000000 0 256;
#N canvas 0 0 450 300 (subpatch) 0;
#X array \$0-a 401 float 2;
#X coords 0 1 401 -1 200 100 1 0 0;
#X restore 193 344 graph;
#X obj 22 47 mtof;
#X obj 22 31 nbx 3 14 0 120 0 1 empty empty pitch 42 7 0 10 #bbbbbb #000000 #000000 64 256;
#X text 227 310 record 1 period wave;
#X msg 22 83 \$1 50;
#X obj 22 103 line~;
#X obj 43 308 nbx 3 14 0 999 0 1 empty empty amp 42 7 0 10 #bbbbbb #000000 #000000 65 256;
#X obj 43 324 * 0.01;
#X obj 22 345 *~ 0;
#X obj 22 368 dac~;
#X obj 54 151 nbx 3 14 0 999 0 1 empty empty amp 42 7 0 10 #bbbbbb #000000 #000000 78 256;
#X obj 54 167 * 0.01;
#X obj 22 167 *~ 0;
#X obj 54 190 nbx 3 14 -999 999 0 1 empty empty dc 42 7 0 10 #bbbbbb #000000 #000000 0 256;
#X obj 54 206 * 0.01;
#X obj 22 252 n_rec1p~ \$0-a;
#X msg 143 133 min_len \$1;
#X obj 30 229 r \$0-to;
#X obj 143 153 s \$0-to;
#X obj 254 224 s \$0-to;
#X msg 254 204 treshold \$1;
#X msg 252 52 mode \$1;
#X obj 252 73 s \$0-to;
#X obj 164 234 bng 18 250 50 0 empty empty rec 0 -9 0 10 #ffffff #ff0400 #000000;
#X obj 254 184 * 0.01;
#X obj 97 273 tgl 18 0 empty empty rec 22 8 0 10 #fcfcfc #ff0400 #000000 0 1;
#X connect 0 0 18 0;
#X connect 1 0 22 0;
#X connect 2 0 30 0;
#X connect 3 0 27 0;
#X connect 4 0 21 0;
#X connect 5 0 10 0;
#X connect 7 0 5 0;
#X connect 8 0 7 0;
#X connect 10 0 11 0;
#X connect 11 0 0 0;
#X connect 12 0 13 0;
#X connect 13 0 14 1;
#X connect 14 0 15 0;
#X connect 14 0 15 1;
#X connect 16 0 17 0;
#X connect 17 0 18 1;
#X connect 18 0 4 0;
#X connect 19 0 20 0;
#X connect 20 0 4 1;
#X connect 21 0 14 0;
#X connect 21 1 31 0;
#X connect 22 0 24 0;
#X connect 23 0 21 0;
#X connect 26 0 25 0;
#X connect 27 0 28 0;
#X connect 29 0 21 0;
#X connect 30 0 26 0;
