#N canvas 133 63 1094 606 10;
#X obj 428 155 s \$0-to;
#N canvas 539 227 282 279 key 0;
#X obj 34 54 key;
#X obj 156 91 keyup;
#X obj 156 112 sel 113;
#X obj 34 79 route 113;
#X obj 156 134 delay 50;
#X msg 156 155 0;
#X obj 34 100 t b b;
#X msg 113 117 stop;
#X obj 34 172 change;
#X obj 34 193 outlet;
#X msg 34 148 1;
#X connect 0 0 3 0;
#X connect 1 0 2 0;
#X connect 2 0 4 0;
#X connect 3 0 6 0;
#X connect 4 0 5 0;
#X connect 5 0 8 0;
#X connect 6 0 10 0;
#X connect 6 1 7 0;
#X connect 7 0 4 0;
#X connect 8 0 9 0;
#X connect 10 0 8 0;
#X coords 0 279 1 278 66 15 0;
#X restore 428 115 pd key q;
#X obj 20 363 r \$0-to;
#X obj 20 387 n_sampler~, f 33;
#X obj 21 500 dac~;
#X msg 428 135 g 0 \$1;
#N canvas 455 216 422 340 (subpatch) 0;
#X obj 242 23 inlet~;
#X obj 242 135 outlet~;
#X obj 302 23 inlet~;
#X obj 302 135 outlet~;
#X obj 139 11 bang~;
#X obj 69 85 snapshot~;
#X obj 100 202 vsl 12 54 0 1 0 0 \$0-s \$0-r empty 0 -9 0 10 #000000 #00ff04 #000000 0 1;
#X obj 69 107 change;
#X obj 69 129 abs;
#X obj 113 202 vsl 12 54 0 1 0 0 \$0-s \$0-r empty 0 -9 0 10 #000000 #00ff04 #000000 0 1;
#X obj 139 85 snapshot~;
#X obj 139 107 change;
#X obj 139 129 abs;
#X connect 0 0 1 0;
#X connect 0 0 5 0;
#X connect 2 0 3 0;
#X connect 2 0 10 0;
#X connect 4 0 5 0;
#X connect 4 0 10 0;
#X connect 5 0 7 0;
#X connect 7 0 8 0;
#X connect 8 0 6 0;
#X connect 10 0 11 0;
#X connect 11 0 12 0;
#X connect 12 0 9 0;
#X coords 0 -1 1 1 25 60 2 100 200;
#X restore 20 428 pd;
#N canvas 455 216 422 340 (subpatch) 0;
#X obj 242 23 inlet~;
#X obj 242 135 outlet~;
#X obj 302 23 inlet~;
#X obj 302 135 outlet~;
#X obj 139 11 bang~;
#X obj 69 85 snapshot~;
#X obj 100 202 vsl 12 54 0 1 0 0 \$0-s \$0-r empty 0 -9 0 10 #000000 #00ff04 #000000 0 1;
#X obj 69 107 change;
#X obj 69 129 abs;
#X obj 113 202 vsl 12 54 0 1 0 0 \$0-s \$0-r empty 0 -9 0 10 #000000 #00ff04 #000000 0 1;
#X obj 139 85 snapshot~;
#X obj 139 107 change;
#X obj 139 129 abs;
#X connect 0 0 1 0;
#X connect 0 0 5 0;
#X connect 2 0 3 0;
#X connect 2 0 10 0;
#X connect 4 0 5 0;
#X connect 4 0 10 0;
#X connect 5 0 7 0;
#X connect 7 0 8 0;
#X connect 8 0 6 0;
#X connect 10 0 11 0;
#X connect 11 0 12 0;
#X connect 12 0 9 0;
#X coords 0 -1 1 1 25 60 2 100 200;
#X restore 59 428 pd;
#N canvas 455 216 422 340 (subpatch) 0;
#X obj 242 23 inlet~;
#X obj 242 135 outlet~;
#X obj 302 23 inlet~;
#X obj 302 135 outlet~;
#X obj 139 11 bang~;
#X obj 69 85 snapshot~;
#X obj 100 202 vsl 12 54 0 1 0 0 \$0-s \$0-r empty 0 -9 0 10 #000000 #00ff04 #000000 0 1;
#X obj 69 107 change;
#X obj 69 129 abs;
#X obj 113 202 vsl 12 54 0 1 0 0 \$0-s \$0-r empty 0 -9 0 10 #000000 #00ff04 #000000 0 1;
#X obj 139 85 snapshot~;
#X obj 139 107 change;
#X obj 139 129 abs;
#X connect 0 0 1 0;
#X connect 0 0 5 0;
#X connect 2 0 3 0;
#X connect 2 0 10 0;
#X connect 4 0 5 0;
#X connect 4 0 10 0;
#X connect 5 0 7 0;
#X connect 7 0 8 0;
#X connect 8 0 6 0;
#X connect 10 0 11 0;
#X connect 11 0 12 0;
#X connect 12 0 9 0;
#X coords 0 -1 1 1 25 60 2 100 200;
#X restore 98 428 pd;
#N canvas 455 216 422 340 (subpatch) 0;
#X obj 242 23 inlet~;
#X obj 242 135 outlet~;
#X obj 302 23 inlet~;
#X obj 302 135 outlet~;
#X obj 139 11 bang~;
#X obj 69 85 snapshot~;
#X obj 100 202 vsl 12 54 0 1 0 0 \$0-s \$0-r empty 0 -9 0 10 #000000 #00ff04 #000000 0 1;
#X obj 69 107 change;
#X obj 69 129 abs;
#X obj 113 202 vsl 12 54 0 1 0 0 \$0-s \$0-r empty 0 -9 0 10 #000000 #00ff04 #000000 0 1;
#X obj 139 85 snapshot~;
#X obj 139 107 change;
#X obj 139 129 abs;
#X connect 0 0 1 0;
#X connect 0 0 5 0;
#X connect 2 0 3 0;
#X connect 2 0 10 0;
#X connect 4 0 5 0;
#X connect 4 0 10 0;
#X connect 5 0 7 0;
#X connect 7 0 8 0;
#X connect 8 0 6 0;
#X connect 10 0 11 0;
#X connect 11 0 12 0;
#X connect 12 0 9 0;
#X coords 0 -1 1 1 25 60 2 100 200;
#X restore 137 428 pd;
#N canvas 455 216 422 340 (subpatch) 0;
#X obj 242 23 inlet~;
#X obj 242 135 outlet~;
#X obj 302 23 inlet~;
#X obj 302 135 outlet~;
#X obj 139 11 bang~;
#X obj 69 85 snapshot~;
#X obj 100 202 vsl 12 54 0 1 0 0 \$0-s \$0-r empty 0 -9 0 10 #000000 #00ff04 #000000 0 1;
#X obj 69 107 change;
#X obj 69 129 abs;
#X obj 113 202 vsl 12 54 0 1 0 0 \$0-s \$0-r empty 0 -9 0 10 #000000 #00ff04 #000000 0 1;
#X obj 139 85 snapshot~;
#X obj 139 107 change;
#X obj 139 129 abs;
#X connect 0 0 1 0;
#X connect 0 0 5 0;
#X connect 2 0 3 0;
#X connect 2 0 10 0;
#X connect 4 0 5 0;
#X connect 4 0 10 0;
#X connect 5 0 7 0;
#X connect 7 0 8 0;
#X connect 8 0 6 0;
#X connect 10 0 11 0;
#X connect 11 0 12 0;
#X connect 12 0 9 0;
#X coords 0 -1 1 1 25 60 2 100 200;
#X restore 176 428 pd;
#X obj 264 483 n_canvas 514 101 empty empty empty 10 10 11 13421772 0 0 517;
#X obj 333 382 nbx 4 14 0 47 0 1 empty empty sel_sampler 0 -8 0 10 #bbbbbb #000000 #000000 0 256;
#X msg 333 400 sel_sampler \$1;
#X obj 333 422 s \$0-to;
#X obj 264 459 r \$0-to-disp;
#N canvas 301 116 757 500 sample 0;
#X obj 204 106 bng 15 250 50 0 empty empty load\ sample 17 7 0 10 #fcfcfc #000000 #000000;
#X obj 204 195 openpanel;
#X obj 204 335 soundfiler;
#X obj 204 296 pack s \$0;
#X obj 231 399 i \$0;
#X obj 204 360 sel 0;
#X obj 231 380 bang;
#X obj 110 242 loadbang;
#N canvas 0 50 450 250 (subpatch) 0;
#X array \$0-sample-1 138427 float 2;
#X coords 0 1 138427 -1 200 60 1 0 0;
#X restore 100 130 graph;
#X obj 231 463 s \$0-to;
#X msg 231 238 set \$1;
#X obj 204 215 t b s;
#X msg 204 259 /m/data/audio/amen_loops/amen\ 1\ cut\ 3_breakcoreyourself.ru.wav;
#X msg 231 419 array 0 \$1-sample-1 44100, f 26;
#X msg 204 316 read -resize \$1 \$2-sample-1;
#X connect 0 0 1 0;
#X connect 1 0 11 0;
#X connect 2 0 5 0;
#X connect 3 0 14 0;
#X connect 4 0 13 0;
#X connect 5 1 6 0;
#X connect 6 0 4 0;
#X connect 7 0 12 0;
#X connect 10 0 12 0;
#X connect 11 0 12 0;
#X connect 11 1 10 0;
#X connect 12 0 3 0;
#X connect 13 0 9 0;
#X connect 14 0 2 0;
#X coords 0 -1 1 1 200 90 1 100 100;
#X restore 21 265 pd sample;
#N canvas 301 116 757 500 sample 0;
#X obj 204 106 bng 15 250 50 0 empty empty load\ sample 17 7 0 10 #fcfcfc #000000 #000000;
#X obj 204 195 openpanel;
#X obj 204 335 soundfiler;
#X obj 204 296 pack s \$0;
#X obj 231 399 i \$0;
#X obj 204 360 sel 0;
#X obj 231 380 bang;
#X obj 110 242 loadbang;
#N canvas 0 50 450 250 (subpatch) 0;
#X array \$0-sample-2 123067 float 2;
#X coords 0 1 123067 -1 200 60 1 0 0;
#X restore 100 130 graph;
#X obj 231 463 s \$0-to;
#X msg 231 238 set \$1;
#X obj 204 215 t b s;
#X msg 204 259 /m/data/audio/amen_loops/amen\ 1\ cut\ 1\ Take\ 2_breakcoreyourself.ru.wav;
#X msg 204 316 read -resize \$1 \$2-sample-2;
#X msg 231 418 array 1 \$1-sample-2 44100, f 26;
#X connect 0 0 1 0;
#X connect 1 0 11 0;
#X connect 2 0 5 0;
#X connect 3 0 13 0;
#X connect 4 0 14 0;
#X connect 5 1 6 0;
#X connect 6 0 4 0;
#X connect 7 0 12 0;
#X connect 10 0 12 0;
#X connect 11 0 12 0;
#X connect 11 1 10 0;
#X connect 12 0 3 0;
#X connect 13 0 2 0;
#X connect 14 0 9 0;
#X coords 0 -1 1 1 200 90 1 100 100;
#X restore 221 265 pd sample;
#N canvas 443 172 473 389 (subpatch) 0;
#X obj 181 100 tgl 12 0 s r background 17 7 0 8 #cccccb #cccccb #000000 0 1;
#X obj 100 100 nbx 2 12 0 100 0 1 empty empty empty 0 -8 0 10 #fcc4c4 #000000 #000000 80 256;
#X obj 127 100 nbx 2 12 0 100 0 1 empty empty empty 0 -8 0 10 #c4fcc4 #000000 #000000 80 256;
#X obj 154 100 nbx 2 12 0 100 0 1 empty empty empty 0 -8 0 10 #c4fcfc #000000 #000000 80 256;
#N canvas 455 216 450 300 pack 0;
#X obj 126 45 inlet;
#X obj 176 45 inlet;
#X obj 226 45 inlet;
#X obj 126 239 outlet;
#X obj 226 115 t b f;
#X obj 226 138 +;
#X obj 126 176 +;
#X obj 226 158 t b f;
#X obj 176 115 << 8;
#X obj 126 115 << 16;
#X obj 126 197 * -1;
#X obj 126 68 * 2.54;
#X obj 176 68 * 2.54;
#X obj 226 68 * 2.54;
#X obj 126 91 + 1;
#X obj 176 91 + 1;
#X obj 226 91 + 1;
#X connect 0 0 11 0;
#X connect 1 0 12 0;
#X connect 2 0 13 0;
#X connect 4 0 5 0;
#X connect 4 1 5 1;
#X connect 5 0 7 0;
#X connect 6 0 10 0;
#X connect 7 0 6 0;
#X connect 7 1 6 1;
#X connect 8 0 5 0;
#X connect 9 0 6 0;
#X connect 10 0 3 0;
#X connect 11 0 14 0;
#X connect 12 0 15 0;
#X connect 13 0 16 0;
#X connect 14 0 9 0;
#X connect 15 0 8 0;
#X connect 16 0 4 0;
#X restore 100 168 pd pack color pd;
#X obj 100 251 s \$0-to;
#X msg 100 232 color_background \$1;
#X msg 216 185 color \$1 \$1 22;
#X connect 1 0 4 0;
#X connect 2 0 4 1;
#X connect 3 0 4 2;
#X connect 4 0 6 0;
#X connect 4 0 7 0;
#X connect 6 0 5 0;
#X connect 7 0 0 0;
#X coords 0 -1 1 1 200 12 2 100 100;
#X restore 589 372 pd;
#X obj 466 421 s \$0-to;
#X obj 466 380 loadbang;
#N canvas 443 172 473 389 (subpatch) 0;
#X obj 181 100 tgl 12 0 s r foreground 17 7 0 8 #578ffb #578ffb #000000 0 1;
#X obj 100 100 nbx 2 12 0 100 0 1 empty empty empty 0 -8 0 10 #fcc4c4 #000000 #000000 34 256;
#X obj 127 100 nbx 2 12 0 100 0 1 empty empty empty 0 -8 0 10 #c4fcc4 #000000 #000000 56 256;
#X obj 154 100 nbx 2 12 0 100 0 1 empty empty empty 0 -8 0 10 #c4fcfc #000000 #000000 99 256;
#N canvas 455 216 450 300 pack 0;
#X obj 126 45 inlet;
#X obj 176 45 inlet;
#X obj 226 45 inlet;
#X obj 126 239 outlet;
#X obj 226 115 t b f;
#X obj 226 138 +;
#X obj 126 176 +;
#X obj 226 158 t b f;
#X obj 176 115 << 8;
#X obj 126 115 << 16;
#X obj 126 197 * -1;
#X obj 126 68 * 2.54;
#X obj 176 68 * 2.54;
#X obj 226 68 * 2.54;
#X obj 126 91 + 1;
#X obj 176 91 + 1;
#X obj 226 91 + 1;
#X connect 0 0 11 0;
#X connect 1 0 12 0;
#X connect 2 0 13 0;
#X connect 4 0 5 0;
#X connect 4 1 5 1;
#X connect 5 0 7 0;
#X connect 6 0 10 0;
#X connect 7 0 6 0;
#X connect 7 1 6 1;
#X connect 8 0 5 0;
#X connect 9 0 6 0;
#X connect 10 0 3 0;
#X connect 11 0 14 0;
#X connect 12 0 15 0;
#X connect 13 0 16 0;
#X connect 14 0 9 0;
#X connect 15 0 8 0;
#X connect 16 0 4 0;
#X restore 100 168 pd pack color pd;
#X obj 100 251 s \$0-to;
#X msg 216 185 color \$1 \$1 22;
#X msg 100 231 color_foreground \$1;
#X connect 1 0 4 0;
#X connect 2 0 4 1;
#X connect 3 0 4 2;
#X connect 4 0 7 0;
#X connect 4 0 6 0;
#X connect 6 0 0 0;
#X connect 7 0 5 0;
#X coords 0 -1 1 1 200 12 2 100 100;
#X restore 589 384 pd;
#N canvas 443 172 473 389 (subpatch) 0;
#X obj 181 100 tgl 12 0 s r se 17 7 0 8 #8c8c8c #8c8c8c #000000 0 1;
#X obj 100 100 nbx 2 12 0 100 0 1 empty empty empty 0 -8 0 10 #fcc4c4 #000000 #000000 55 256;
#X obj 127 100 nbx 2 12 0 100 0 1 empty empty empty 0 -8 0 10 #c4fcc4 #000000 #000000 55 256;
#X obj 154 100 nbx 2 12 0 100 0 1 empty empty empty 0 -8 0 10 #c4fcfc #000000 #000000 55 256;
#N canvas 455 216 450 300 pack 0;
#X obj 126 45 inlet;
#X obj 176 45 inlet;
#X obj 226 45 inlet;
#X obj 126 239 outlet;
#X obj 226 115 t b f;
#X obj 226 138 +;
#X obj 126 176 +;
#X obj 226 158 t b f;
#X obj 176 115 << 8;
#X obj 126 115 << 16;
#X obj 126 197 * -1;
#X obj 126 68 * 2.54;
#X obj 176 68 * 2.54;
#X obj 226 68 * 2.54;
#X obj 126 91 + 1;
#X obj 176 91 + 1;
#X obj 226 91 + 1;
#X connect 0 0 11 0;
#X connect 1 0 12 0;
#X connect 2 0 13 0;
#X connect 4 0 5 0;
#X connect 4 1 5 1;
#X connect 5 0 7 0;
#X connect 6 0 10 0;
#X connect 7 0 6 0;
#X connect 7 1 6 1;
#X connect 8 0 5 0;
#X connect 9 0 6 0;
#X connect 10 0 3 0;
#X connect 11 0 14 0;
#X connect 12 0 15 0;
#X connect 13 0 16 0;
#X connect 14 0 9 0;
#X connect 15 0 8 0;
#X connect 16 0 4 0;
#X restore 100 168 pd pack color pd;
#X obj 100 251 s \$0-to;
#X msg 216 185 color \$1 \$1 22;
#X msg 100 232 color_se \$1;
#X connect 1 0 4 0;
#X connect 2 0 4 1;
#X connect 3 0 4 2;
#X connect 4 0 7 0;
#X connect 4 0 6 0;
#X connect 6 0 0 0;
#X connect 7 0 5 0;
#X coords 0 -1 1 1 200 12 2 100 100;
#X restore 589 396 pd;
#N canvas 443 172 473 389 (subpatch) 0;
#X obj 181 100 tgl 12 0 s r loop 17 7 0 8 #8f5e00 #8f5e00 #000000 0 1;
#X obj 100 100 nbx 2 12 0 100 0 1 empty empty empty 0 -8 0 10 #fcc4c4 #000000 #000000 56 256;
#X obj 127 100 nbx 2 12 0 100 0 1 empty empty empty 0 -8 0 10 #c4fcc4 #000000 #000000 37 256;
#X obj 154 100 nbx 2 12 0 100 0 1 empty empty empty 0 -8 0 10 #c4fcfc #000000 #000000 0 256;
#N canvas 455 216 450 300 pack 0;
#X obj 126 45 inlet;
#X obj 176 45 inlet;
#X obj 226 45 inlet;
#X obj 126 239 outlet;
#X obj 226 115 t b f;
#X obj 226 138 +;
#X obj 126 176 +;
#X obj 226 158 t b f;
#X obj 176 115 << 8;
#X obj 126 115 << 16;
#X obj 126 197 * -1;
#X obj 126 68 * 2.54;
#X obj 176 68 * 2.54;
#X obj 226 68 * 2.54;
#X obj 126 91 + 1;
#X obj 176 91 + 1;
#X obj 226 91 + 1;
#X connect 0 0 11 0;
#X connect 1 0 12 0;
#X connect 2 0 13 0;
#X connect 4 0 5 0;
#X connect 4 1 5 1;
#X connect 5 0 7 0;
#X connect 6 0 10 0;
#X connect 7 0 6 0;
#X connect 7 1 6 1;
#X connect 8 0 5 0;
#X connect 9 0 6 0;
#X connect 10 0 3 0;
#X connect 11 0 14 0;
#X connect 12 0 15 0;
#X connect 13 0 16 0;
#X connect 14 0 9 0;
#X connect 15 0 8 0;
#X connect 16 0 4 0;
#X restore 100 168 pd pack color pd;
#X obj 100 251 s \$0-to;
#X msg 216 185 color \$1 \$1 22;
#X msg 100 232 color_loop \$1;
#X connect 1 0 4 0;
#X connect 2 0 4 1;
#X connect 3 0 4 2;
#X connect 4 0 7 0;
#X connect 4 0 6 0;
#X connect 6 0 0 0;
#X connect 7 0 5 0;
#X coords 0 -1 1 1 200 12 2 100 100;
#X restore 589 408 pd;
#N canvas 443 172 473 389 (subpatch) 0;
#X obj 181 100 tgl 12 0 s r playpos 17 7 0 8 #ff0100 #ff0100 #000000 0 1;
#X obj 100 100 nbx 2 12 0 100 0 1 empty empty empty 0 -8 0 10 #fcc4c4 #000000 #000000 100 256;
#X obj 127 100 nbx 2 12 0 100 0 1 empty empty empty 0 -8 0 10 #c4fcc4 #000000 #000000 0 256;
#X obj 154 100 nbx 2 12 0 100 0 1 empty empty empty 0 -8 0 10 #c4fcfc #000000 #000000 0 256;
#N canvas 455 216 450 300 pack 0;
#X obj 126 45 inlet;
#X obj 176 45 inlet;
#X obj 226 45 inlet;
#X obj 126 239 outlet;
#X obj 226 115 t b f;
#X obj 226 138 +;
#X obj 126 176 +;
#X obj 226 158 t b f;
#X obj 176 115 << 8;
#X obj 126 115 << 16;
#X obj 126 197 * -1;
#X obj 126 68 * 2.54;
#X obj 176 68 * 2.54;
#X obj 226 68 * 2.54;
#X obj 126 91 + 1;
#X obj 176 91 + 1;
#X obj 226 91 + 1;
#X connect 0 0 11 0;
#X connect 1 0 12 0;
#X connect 2 0 13 0;
#X connect 4 0 5 0;
#X connect 4 1 5 1;
#X connect 5 0 7 0;
#X connect 6 0 10 0;
#X connect 7 0 6 0;
#X connect 7 1 6 1;
#X connect 8 0 5 0;
#X connect 9 0 6 0;
#X connect 10 0 3 0;
#X connect 11 0 14 0;
#X connect 12 0 15 0;
#X connect 13 0 16 0;
#X connect 14 0 9 0;
#X connect 15 0 8 0;
#X connect 16 0 4 0;
#X restore 100 168 pd pack color pd;
#X obj 100 251 s \$0-to;
#X msg 216 185 color \$1 \$1 22;
#X msg 100 232 color_playpos \$1;
#X connect 1 0 4 0;
#X connect 2 0 4 1;
#X connect 3 0 4 2;
#X connect 4 0 7 0;
#X connect 4 0 6 0;
#X connect 6 0 0 0;
#X connect 7 0 5 0;
#X coords 0 -1 1 1 200 12 2 100 100;
#X restore 589 420 pd;
#X obj 215 409 s \$0-to-disp;
#X msg 466 401 disp 512 100;
#X obj 938 155 s \$0-to;
#N canvas 321 11 717 711 sampler 0;
#X obj 103 142 nbx 4 14 0 1e+37 0 1 empty empty level 0 -8 0 10 #bbbbbb #000000 #000000 32 256;
#X obj 45 382 s \$0-to;
#X obj 148 142 nbx 4 14 -100 100 0 1 empty empty pan 0 -8 0 10 #bbbbbb #000000 #000000 0 256;
#X obj 115 382 s \$0-to;
#X obj 193 142 nbx 4 14 0 1e+37 0 1 empty empty s1 0 -8 0 10 #bbbbbb #000000 #000000 0 256;
#X obj 175 382 s \$0-to;
#X obj 238 142 nbx 4 14 0 1e+37 0 1 empty empty s2 0 -8 0 10 #bbbbbb #000000 #000000 0 256;
#X obj 235 382 s \$0-to;
#X obj 283 142 nbx 4 14 0 1e+37 0 1 empty empty rnda 0 -8 0 10 #bbbbbb #000000 #000000 30 256;
#X obj 294 361 s \$0-to;
#X obj 363 360 s \$0-to;
#X obj 328 142 nbx 4 14 2 16 0 1 empty empty bit 0 -8 0 10 #bbbbbb #000000 #000000 6 256;
#X obj 435 362 s \$0-to;
#X obj 167 180 nbx 6 14 0 100 0 1 empty empty start 0 -8 0 10 #bbbbbb #000000 #000000 22.08 256;
#X obj 138 449 s \$0-to;
#X obj 229 180 nbx 6 14 0 100 0 1 empty empty end 0 -8 0 10 #bbbbbb #000000 #000000 100 256;
#X obj 208 449 s \$0-to;
#X obj 291 180 nbx 6 14 0 100 0 1 empty empty l-st 0 -8 0 10 #bbbbbb #000000 #000000 63.8498 256;
#X obj 278 449 s \$0-to;
#X obj 353 180 nbx 6 14 0 100 0 1 empty empty l-end 0 -8 0 10 #bbbbbb #000000 #000000 64.1999 256;
#X obj 348 449 s \$0-to;
#X obj 105 180 nbx 6 14 0 100 0 1 empty empty sdel 0 -8 0 10 #bbbbbb #000000 #000000 0.33 256;
#X obj 70 448 s \$0-to;
#X msg 45 363 level 0 \$1;
#X msg 115 363 pan 0 \$1;
#X msg 175 363 s1 0 \$1;
#X msg 235 363 s2 0 \$1;
#X msg 293 342 rnda 0 \$1;
#X msg 362 341 group 0 \$1;
#X msg 435 343 bit 0 \$1;
#X msg 138 430 start 0 \$1;
#X msg 208 430 end 0 \$1;
#X msg 278 430 l-st 0 \$1;
#X msg 348 430 l-end 0 \$1;
#X msg 70 429 sdel 0 \$1;
#X obj 385 226 nbx 4 14 -1e+37 1e+37 0 1 empty empty semi 0 -8 0 10 #bbbbbb #000000 #000000 3 256;
#X obj 316 521 s \$0-to;
#X obj 430 226 nbx 4 14 -100 100 0 1 empty empty fine 0 -8 0 10 #bbbbbb #000000 #000000 0 256;
#X obj 386 521 s \$0-to;
#X obj 415 180 nbx 4 14 0 100 0 1 empty empty xf 0 -8 0 10 #bbbbbb #000000 #000000 100 256;
#X obj 421 449 s \$0-to;
#X msg 421 430 xf 0 \$1;
#X obj 365 254 tgl 17 1 empty empty loop 0 -9 0 10 #bbbbbb #000000 #000000 0 1;
#X obj 496 362 s \$0-to;
#X msg 496 343 loop 0 \$1;
#X obj 105 250 nbx 4 14 0 100 0 1 empty empty att 0 -8 0 10 #bbbbbb #000000 #000000 0 256;
#X obj 69 578 s \$0-to;
#X msg 69 559 att 0 \$1;
#X obj 150 250 nbx 4 14 0 100 0 1 empty empty dec 0 -8 0 10 #bbbbbb #000000 #000000 52 256;
#X obj 129 578 s \$0-to;
#X obj 195 250 nbx 4 14 0 100 0 1 empty empty sus 0 -8 0 10 #bbbbbb #000000 #000000 100 256;
#X obj 189 578 s \$0-to;
#X obj 240 250 nbx 4 14 0 100 0 1 empty empty rel 0 -8 0 10 #bbbbbb #000000 #000000 100 256;
#X obj 249 578 s \$0-to;
#X msg 129 559 dec 0 \$1;
#X msg 189 559 sus 0 \$1;
#X msg 249 559 rel 0 \$1;
#X obj 286 247 tgl 17 1 empty empty eg 0 -9 0 10 #bbbbbb #000000 #000000 1 1;
#X obj 319 578 s \$0-to;
#X msg 319 559 eg 0 \$1;
#X obj 106 214 nbx 4 14 0 30 0 1 empty empty sample 0 -8 0 10 #bbbbbb #000000 #000000 0 256;
#X obj 104 520 s \$0-to;
#X msg 104 501 sample 0 \$1;
#X obj 186 214 nbx 4 14 0 120 0 1 empty empty freq 0 -8 0 10 #bbbbbb #000000 #000000 101 256;
#X obj 184 520 s \$0-to;
#X obj 231 214 nbx 4 14 0 100 0 1 empty empty res 0 -8 0 10 #bbbbbb #000000 #000000 43 256;
#X obj 249 520 s \$0-to;
#X msg 184 501 freq 0 \$1;
#X msg 249 501 res 0 \$1;
#X obj 319 213 vradio 12 1 1 4 empty empty filtype 0 -9 0 10 #bbbbbb #000000 #000000 2;
#X obj 377 579 s \$0-to;
#X msg 376 560 filtype 0 \$1;
#X obj 208 283 nbx 4 14 0 120 0 1 empty empty l-f 0 -8 0 10 #bbbbbb #000000 #000000 64 256;
#X obj 223 661 s \$0-to;
#X obj 253 283 nbx 4 14 -100 100 0 1 empty empty l-g 0 -8 0 10 #bbbbbb #000000 #000000 72 256;
#X obj 283 661 s \$0-to;
#X obj 298 283 nbx 4 14 0 120 0 1 empty empty h-f 0 -8 0 10 #bbbbbb #000000 #000000 105 256;
#X obj 343 661 s \$0-to;
#X obj 343 283 nbx 4 14 -100 100 0 1 empty empty h-g 0 -8 0 10 #bbbbbb #000000 #000000 17 256;
#X obj 403 661 s \$0-to;
#X msg 223 642 l-f 0 \$1;
#X msg 283 642 l-g 0 \$1;
#X msg 343 642 h-f 0 \$1;
#X msg 403 642 h-g 0 \$1;
#X obj 106 283 nbx 4 14 0 100 0 1 empty empty xr 0 -8 0 10 #bbbbbb #000000 #000000 51 256;
#X obj 66 643 s \$0-to;
#X obj 151 283 nbx 4 14 0 100 0 1 empty empty xo 0 -8 0 10 #bbbbbb #000000 #000000 19 256;
#X obj 126 643 s \$0-to;
#X msg 66 624 xr 0 \$1;
#X msg 126 623 xo 0 \$1;
#X obj 66 601 * 0.01;
#X obj 126 601 * 0.01;
#X msg 315 502 semi 0 \$1;
#X msg 386 502 fine 0 \$1;
#X obj 249 480 * 0.01;
#X obj 283 621 * 0.01;
#X obj 403 621 * 0.01;
#X obj 45 344 * 0.01;
#X obj 115 344 * 0.01;
#X obj 175 344 * 0.01;
#X obj 235 344 * 0.01;
#X obj 138 409 * 0.01;
#X obj 208 409 * 0.01;
#X obj 278 409 * 0.01;
#X obj 348 409 * 0.01;
#X obj 70 408 * 0.01;
#X obj 421 409 * 0.01;
#X obj 416 280 tgl 17 1 empty empty mute 0 -9 0 10 #bbbbbb #000000 #000000 0 1;
#X msg 481 643 mute 0 \$1;
#X obj 481 663 s \$0-to;
#X obj 446 280 tgl 17 1 empty empty solo 0 -9 0 10 #bbbbbb #000000 #000000 0 1;
#X obj 561 663 s \$0-to;
#X msg 561 643 solo 0 \$1;
#X text 330 213 _OFF;
#X text 330 225 _LP;
#X text 330 237 _BP;
#X text 329 249 _HP;
#X obj 373 142 nbx 4 14 0 3 0 1 empty empty group 0 -8 0 10 #bbbbbb #000000 #000000 0 256;
#X obj 418 142 nbx 4 14 0 100 0 1 empty empty drive 0 -8 0 10 #bbbbbb #000000 #000000 81 256;
#X obj 507 163 s \$0-to;
#X msg 507 144 drive 0 \$1;
#X obj 507 122 * 0.01;
#X obj 418 115 nbx 4 14 0 7 0 1 empty empty link 0 -8 0 10 #bbbbbb #000000 #000000 7 256;
#X obj 450 83 s \$0-to;
#X msg 450 64 link 0 \$1;
#X connect 0 0 97 0;
#X connect 2 0 98 0;
#X connect 4 0 99 0;
#X connect 6 0 100 0;
#X connect 8 0 27 0;
#X connect 11 0 29 0;
#X connect 13 0 101 0;
#X connect 15 0 102 0;
#X connect 17 0 103 0;
#X connect 19 0 104 0;
#X connect 21 0 105 0;
#X connect 23 0 1 0;
#X connect 24 0 3 0;
#X connect 25 0 5 0;
#X connect 26 0 7 0;
#X connect 27 0 9 0;
#X connect 28 0 10 0;
#X connect 29 0 12 0;
#X connect 30 0 14 0;
#X connect 31 0 16 0;
#X connect 32 0 18 0;
#X connect 33 0 20 0;
#X connect 34 0 22 0;
#X connect 35 0 92 0;
#X connect 37 0 93 0;
#X connect 39 0 106 0;
#X connect 41 0 40 0;
#X connect 42 0 44 0;
#X connect 44 0 43 0;
#X connect 45 0 47 0;
#X connect 47 0 46 0;
#X connect 48 0 54 0;
#X connect 50 0 55 0;
#X connect 52 0 56 0;
#X connect 54 0 49 0;
#X connect 55 0 51 0;
#X connect 56 0 53 0;
#X connect 57 0 59 0;
#X connect 59 0 58 0;
#X connect 60 0 62 0;
#X connect 62 0 61 0;
#X connect 63 0 67 0;
#X connect 65 0 94 0;
#X connect 67 0 64 0;
#X connect 68 0 66 0;
#X connect 69 0 71 0;
#X connect 71 0 70 0;
#X connect 72 0 80 0;
#X connect 74 0 95 0;
#X connect 76 0 82 0;
#X connect 78 0 96 0;
#X connect 80 0 73 0;
#X connect 81 0 75 0;
#X connect 82 0 77 0;
#X connect 83 0 79 0;
#X connect 84 0 90 0;
#X connect 86 0 91 0;
#X connect 88 0 85 0;
#X connect 89 0 87 0;
#X connect 90 0 88 0;
#X connect 91 0 89 0;
#X connect 92 0 36 0;
#X connect 93 0 38 0;
#X connect 94 0 68 0;
#X connect 95 0 81 0;
#X connect 96 0 83 0;
#X connect 97 0 23 0;
#X connect 98 0 24 0;
#X connect 99 0 25 0;
#X connect 100 0 26 0;
#X connect 101 0 30 0;
#X connect 102 0 31 0;
#X connect 103 0 32 0;
#X connect 104 0 33 0;
#X connect 105 0 34 0;
#X connect 106 0 41 0;
#X connect 107 0 108 0;
#X connect 108 0 109 0;
#X connect 110 0 112 0;
#X connect 112 0 111 0;
#X connect 117 0 28 0;
#X connect 118 0 121 0;
#X connect 120 0 119 0;
#X connect 121 0 120 0;
#X connect 122 0 124 0;
#X connect 124 0 123 0;
#X coords 0 -1 1 1 380 200 1 100 100;
#X restore 28 38 pd sampler 1;
#N canvas 321 11 717 711 sampler 0;
#X obj 103 142 nbx 4 14 0 1e+37 0 1 empty empty level 0 -8 0 10 #bbbbbb #000000 #000000 83 256;
#X obj 45 382 s \$0-to;
#X obj 148 142 nbx 4 14 -100 100 0 1 empty empty pan 0 -8 0 10 #bbbbbb #000000 #000000 0 256;
#X obj 115 382 s \$0-to;
#X obj 193 142 nbx 4 14 0 1e+37 0 1 empty empty s1 0 -8 0 10 #bbbbbb #000000 #000000 0 256;
#X obj 175 382 s \$0-to;
#X obj 238 142 nbx 4 14 0 1e+37 0 1 empty empty s2 0 -8 0 10 #bbbbbb #000000 #000000 0 256;
#X obj 235 382 s \$0-to;
#X obj 283 142 nbx 4 14 0 1e+37 0 1 empty empty rnda 0 -8 0 10 #bbbbbb #000000 #000000 19 256;
#X obj 294 361 s \$0-to;
#X obj 363 360 s \$0-to;
#X obj 328 142 nbx 4 14 2 16 0 1 empty empty bit 0 -8 0 10 #bbbbbb #000000 #000000 16 256;
#X obj 435 362 s \$0-to;
#X obj 167 180 nbx 6 14 0 100 0 1 empty empty start 0 -8 0 10 #bbbbbb #000000 #000000 12 256;
#X obj 138 449 s \$0-to;
#X obj 229 180 nbx 6 14 0 100 0 1 empty empty end 0 -8 0 10 #bbbbbb #000000 #000000 100 256;
#X obj 208 449 s \$0-to;
#X obj 291 180 nbx 6 14 0 100 0 1 empty empty l-st 0 -8 0 10 #bbbbbb #000000 #000000 63.8498 256;
#X obj 278 449 s \$0-to;
#X obj 353 180 nbx 6 14 0 100 0 1 empty empty l-end 0 -8 0 10 #bbbbbb #000000 #000000 64.1999 256;
#X obj 348 449 s \$0-to;
#X obj 105 180 nbx 6 14 0 100 0 1 empty empty sdel 0 -8 0 10 #bbbbbb #000000 #000000 0.33 256;
#X obj 70 448 s \$0-to;
#X msg 45 363 level 1 \$1;
#X msg 115 363 pan 1 \$1;
#X msg 175 363 s1 1 \$1;
#X msg 235 363 s2 1 \$1;
#X msg 293 342 rnda 1 \$1;
#X msg 362 341 group 1 \$1;
#X msg 435 343 bit 1 \$1;
#X msg 138 430 start 1 \$1;
#X msg 208 430 end 1 \$1;
#X msg 278 430 l-st 1 \$1;
#X msg 348 430 l-end 1 \$1;
#X msg 70 429 sdel 1 \$1;
#X obj 385 226 nbx 4 14 -1e+37 1e+37 0 1 empty empty semi 0 -8 0 10 #bbbbbb #000000 #000000 5 256;
#X obj 316 521 s \$0-to;
#X obj 430 226 nbx 4 14 -100 100 0 1 empty empty fine 0 -8 0 10 #bbbbbb #000000 #000000 0 256;
#X obj 386 521 s \$0-to;
#X obj 415 180 nbx 4 14 0 100 0 1 empty empty xf 0 -8 0 10 #bbbbbb #000000 #000000 100 256;
#X obj 421 449 s \$0-to;
#X msg 421 430 xf 1 \$1;
#X obj 362 255 tgl 17 1 empty empty loop 0 -9 0 10 #bbbbbb #000000 #000000 0 1;
#X obj 496 362 s \$0-to;
#X msg 496 343 loop 1 \$1;
#X obj 105 250 nbx 4 14 0 100 0 1 empty empty att 0 -8 0 10 #bbbbbb #000000 #000000 0 256;
#X obj 69 578 s \$0-to;
#X msg 69 559 att 1 \$1;
#X obj 150 250 nbx 4 14 0 100 0 1 empty empty dec 0 -8 0 10 #bbbbbb #000000 #000000 52 256;
#X obj 129 578 s \$0-to;
#X obj 195 250 nbx 4 14 0 100 0 1 empty empty sus 0 -8 0 10 #bbbbbb #000000 #000000 100 256;
#X obj 189 578 s \$0-to;
#X obj 240 250 nbx 4 14 0 100 0 1 empty empty rel 0 -8 0 10 #bbbbbb #000000 #000000 100 256;
#X obj 249 578 s \$0-to;
#X msg 129 559 dec 1 \$1;
#X msg 189 559 sus 1 \$1;
#X msg 249 559 rel 1 \$1;
#X obj 286 247 tgl 17 1 empty empty eg 0 -9 0 10 #bbbbbb #000000 #000000 1 1;
#X obj 319 578 s \$0-to;
#X msg 319 559 eg 1 \$1;
#X obj 106 214 nbx 4 14 0 30 0 1 empty empty sample 0 -8 0 10 #bbbbbb #000000 #000000 1 256;
#X obj 104 520 s \$0-to;
#X msg 104 501 sample 1 \$1;
#X obj 186 214 nbx 4 14 0 120 0 1 empty empty freq 0 -8 0 10 #bbbbbb #000000 #000000 105 256;
#X obj 184 520 s \$0-to;
#X obj 231 214 nbx 4 14 0 100 0 1 empty empty res 0 -8 0 10 #bbbbbb #000000 #000000 54 256;
#X obj 249 520 s \$0-to;
#X msg 184 501 freq 1 \$1;
#X msg 249 501 res 1 \$1;
#X obj 319 213 vradio 12 1 1 4 empty empty filtype 0 -9 0 10 #bbbbbb #000000 #000000 2;
#X obj 377 579 s \$0-to;
#X msg 376 560 filtype 1 \$1;
#X obj 208 283 nbx 4 14 0 120 0 1 empty empty l-f 0 -8 0 10 #bbbbbb #000000 #000000 50 256;
#X obj 223 661 s \$0-to;
#X obj 253 283 nbx 4 14 -100 100 0 1 empty empty l-g 0 -8 0 10 #bbbbbb #000000 #000000 61 256;
#X obj 283 661 s \$0-to;
#X obj 298 283 nbx 4 14 0 120 0 1 empty empty h-f 0 -8 0 10 #bbbbbb #000000 #000000 105 256;
#X obj 343 661 s \$0-to;
#X obj 343 283 nbx 4 14 -100 100 0 1 empty empty h-g 0 -8 0 10 #bbbbbb #000000 #000000 22 256;
#X obj 403 661 s \$0-to;
#X msg 223 642 l-f 1 \$1;
#X msg 283 642 l-g 1 \$1;
#X msg 343 642 h-f 1 \$1;
#X msg 403 642 h-g 1 \$1;
#X obj 106 283 nbx 4 14 0 100 0 1 empty empty xr 0 -8 0 10 #bbbbbb #000000 #000000 100 256;
#X obj 66 643 s \$0-to;
#X obj 151 283 nbx 4 14 0 100 0 1 empty empty xo 0 -8 0 10 #bbbbbb #000000 #000000 0 256;
#X obj 126 643 s \$0-to;
#X msg 66 624 xr 1 \$1;
#X msg 126 623 xo 1 \$1;
#X obj 66 601 * 0.01;
#X obj 126 601 * 0.01;
#X msg 315 502 semi 1 \$1;
#X msg 386 502 fine 1 \$1;
#X obj 249 480 * 0.01;
#X obj 283 621 * 0.01;
#X obj 403 621 * 0.01;
#X obj 45 344 * 0.01;
#X obj 115 344 * 0.01;
#X obj 175 344 * 0.01;
#X obj 235 344 * 0.01;
#X obj 138 409 * 0.01;
#X obj 208 409 * 0.01;
#X obj 278 409 * 0.01;
#X obj 348 409 * 0.01;
#X obj 70 408 * 0.01;
#X obj 421 409 * 0.01;
#X obj 416 280 tgl 17 1 empty empty mute 0 -9 0 10 #bbbbbb #000000 #000000 0 1;
#X msg 481 643 mute 1 \$1;
#X obj 481 663 s \$0-to;
#X obj 446 280 tgl 17 1 empty empty solo 0 -9 0 10 #bbbbbb #000000 #000000 0 1;
#X obj 561 663 s \$0-to;
#X msg 561 643 solo 1 \$1;
#X text 330 213 _OFF;
#X text 330 225 _LP;
#X text 330 237 _BP;
#X text 329 249 _HP;
#X obj 373 142 nbx 4 14 0 3 0 1 empty empty group 0 -8 0 10 #bbbbbb #000000 #000000 0 256;
#X obj 418 142 nbx 4 14 0 100 0 1 empty empty drive 0 -8 0 10 #bbbbbb #000000 #000000 18 256;
#X obj 507 163 s \$0-to;
#X obj 507 122 * 0.01;
#X msg 507 144 drive 1 \$1;
#X obj 418 115 nbx 4 14 0 7 0 1 empty empty link 0 -8 0 10 #bbbbbb #000000 #000000 7 256;
#X obj 450 83 s \$0-to;
#X msg 450 64 link 1 \$1;
#X connect 0 0 97 0;
#X connect 2 0 98 0;
#X connect 4 0 99 0;
#X connect 6 0 100 0;
#X connect 8 0 27 0;
#X connect 11 0 29 0;
#X connect 13 0 101 0;
#X connect 15 0 102 0;
#X connect 17 0 103 0;
#X connect 19 0 104 0;
#X connect 21 0 105 0;
#X connect 23 0 1 0;
#X connect 24 0 3 0;
#X connect 25 0 5 0;
#X connect 26 0 7 0;
#X connect 27 0 9 0;
#X connect 28 0 10 0;
#X connect 29 0 12 0;
#X connect 30 0 14 0;
#X connect 31 0 16 0;
#X connect 32 0 18 0;
#X connect 33 0 20 0;
#X connect 34 0 22 0;
#X connect 35 0 92 0;
#X connect 37 0 93 0;
#X connect 39 0 106 0;
#X connect 41 0 40 0;
#X connect 42 0 44 0;
#X connect 44 0 43 0;
#X connect 45 0 47 0;
#X connect 47 0 46 0;
#X connect 48 0 54 0;
#X connect 50 0 55 0;
#X connect 52 0 56 0;
#X connect 54 0 49 0;
#X connect 55 0 51 0;
#X connect 56 0 53 0;
#X connect 57 0 59 0;
#X connect 59 0 58 0;
#X connect 60 0 62 0;
#X connect 62 0 61 0;
#X connect 63 0 67 0;
#X connect 65 0 94 0;
#X connect 67 0 64 0;
#X connect 68 0 66 0;
#X connect 69 0 71 0;
#X connect 71 0 70 0;
#X connect 72 0 80 0;
#X connect 74 0 95 0;
#X connect 76 0 82 0;
#X connect 78 0 96 0;
#X connect 80 0 73 0;
#X connect 81 0 75 0;
#X connect 82 0 77 0;
#X connect 83 0 79 0;
#X connect 84 0 90 0;
#X connect 86 0 91 0;
#X connect 88 0 85 0;
#X connect 89 0 87 0;
#X connect 90 0 88 0;
#X connect 91 0 89 0;
#X connect 92 0 36 0;
#X connect 93 0 38 0;
#X connect 94 0 68 0;
#X connect 95 0 81 0;
#X connect 96 0 83 0;
#X connect 97 0 23 0;
#X connect 98 0 24 0;
#X connect 99 0 25 0;
#X connect 100 0 26 0;
#X connect 101 0 30 0;
#X connect 102 0 31 0;
#X connect 103 0 32 0;
#X connect 104 0 33 0;
#X connect 105 0 34 0;
#X connect 106 0 41 0;
#X connect 107 0 108 0;
#X connect 108 0 109 0;
#X connect 110 0 112 0;
#X connect 112 0 111 0;
#X connect 117 0 28 0;
#X connect 118 0 120 0;
#X connect 120 0 121 0;
#X connect 121 0 119 0;
#X connect 122 0 124 0;
#X connect 124 0 123 0;
#X coords 0 -1 1 1 380 200 1 100 100;
#X restore 538 38 pd sampler 2;
#X obj 482 132 bng 17 250 50 0 empty empty empty 0 -9 0 10 #fcfcfc #000000 #000000;
#X obj 997 132 bng 17 250 50 0 empty empty empty 0 -9 0 10 #fcfcfc #000000 #000000;
#N canvas 539 227 282 279 key 0;
#X obj 34 54 key;
#X obj 156 91 keyup;
#X obj 156 134 delay 50;
#X msg 156 155 0;
#X obj 34 100 t b b;
#X msg 113 117 stop;
#X obj 34 172 change;
#X obj 34 193 outlet;
#X msg 34 148 1;
#X obj 34 79 route 119;
#X obj 156 112 sel 119;
#X connect 0 0 9 0;
#X connect 1 0 10 0;
#X connect 2 0 3 0;
#X connect 3 0 6 0;
#X connect 4 0 8 0;
#X connect 4 1 5 0;
#X connect 5 0 2 0;
#X connect 6 0 7 0;
#X connect 8 0 6 0;
#X connect 9 0 4 0;
#X connect 10 0 2 0;
#X coords 0 279 1 278 66 15 0;
#X restore 938 115 pd key w;
#X msg 938 135 g 1 \$1;
#X obj 425 197 s \$0-to;
#X msg 425 175 sel_sampler 0;
#X obj 940 200 s \$0-to;
#X msg 940 178 sel_sampler 1;
#X connect 1 0 5 0;
#X connect 1 0 30 0;
#X connect 2 0 3 0;
#X connect 3 0 6 0;
#X connect 3 1 6 1;
#X connect 3 2 7 0;
#X connect 3 3 7 1;
#X connect 3 4 8 0;
#X connect 3 5 8 1;
#X connect 3 6 9 0;
#X connect 3 7 9 1;
#X connect 3 8 10 0;
#X connect 3 9 10 1;
#X connect 3 10 25 0;
#X connect 5 0 0 0;
#X connect 6 0 4 0;
#X connect 6 1 4 1;
#X connect 12 0 13 0;
#X connect 13 0 14 0;
#X connect 15 0 11 0;
#X connect 20 0 26 0;
#X connect 26 0 19 0;
#X connect 30 0 35 0;
#X connect 31 0 37 0;
#X connect 32 0 33 0;
#X connect 32 0 31 0;
#X connect 33 0 27 0;
#X connect 35 0 34 0;
#X connect 37 0 36 0;
