#N canvas 467 45 747 708 10;
#X obj 72 528 tgl 15 1 empty empty empty 0 -6 0 8 -262144 -1 -1 1 1
;
#X msg 88 563 set 4096 1 1;
#X msg 88 581 set 8192 1 1;
#X msg 88 619 set 4096 1 0.5;
#X msg 88 638 set 4096 1 2;
#X msg 88 600 set 32 2 1;
#X obj 257 15 tgl 15 1 empty empty on 17 7 0 10 -262144 -1 -1 1 1;
#X msg 257 32 on \$1;
#X obj 257 50 s \$0-to;
#X obj 31 223 r \$0-to;
#X obj 327 15 tgl 15 1 empty empty separate 17 7 0 10 -262144 -1 -1
1 1;
#X obj 327 50 s \$0-to;
#X msg 327 32 separate \$1;
#X obj 417 15 tgl 15 1 empty empty grid 17 7 0 10 -262144 -1 -1 1 1
;
#X obj 417 50 s \$0-to;
#X msg 417 32 grid \$1;
#X obj 257 147 s \$0-to;
#X msg 257 129 sync \$1;
#X obj 327 147 s \$0-to;
#X msg 327 129 sync_in \$1;
#X obj 327 82 vradio 15 1 1 3 empty empty sync_in 0 -8 0 10 -262144
-1 -1 0;
#X obj 407 111 tgl 15 1 empty empty sync_dc 17 7 0 10 -262144 -1 -1
1 1;
#X obj 407 146 s \$0-to;
#X msg 407 128 sync_dc \$1;
#X obj 582 145 s \$0-to;
#X msg 582 127 treshold \$1;
#X obj 582 111 nbx 5 14 -1e+37 1e+37 0 1 empty empty treshold 0 -8
0 10 -262144 -1 -1 0 256;
#X obj 257 232 s \$0-to;
#X obj 257 198 nbx 5 14 1 1e+37 0 1 empty empty spp 0 -8 0 10 -262144
-1 -1 14 256;
#X obj 488 232 s \$0-to;
#X msg 488 214 size \$1 \$2;
#X obj 488 180 nbx 5 14 0 1e+37 0 1 empty empty width 0 -8 0 10 -262144
-1 -1 220 256;
#X obj 557 180 nbx 5 14 0 1e+37 0 1 empty empty height 0 -8 0 10 -262144
-1 -1 228 256;
#X obj 258 412 s \$0-to;
#X obj 258 289 nbx 7 14 -1e+37 1e+37 0 1 empty empty frame 6 -8 0 10
-262144 -1 -1 -65793 256;
#X obj 350 308 nbx 7 14 -1e+37 1e+37 0 1 empty empty background 6 -8
0 10 -262144 -1 -1 -69377 256;
#N canvas 0 50 450 300 pack 0;
#X obj 87 116 inlet;
#X obj 87 251 outlet;
#X obj 140 116 inlet;
#X obj 140 137 t b f;
#X obj 220 116 inlet;
#X obj 220 137 t b f;
#X obj 300 116 inlet;
#X obj 300 137 t b f;
#X obj 87 226 pack f f f f f, f 54;
#X obj 381 116 inlet;
#X obj 381 137 t b f;
#X connect 0 0 8 0;
#X connect 2 0 3 0;
#X connect 3 0 8 0;
#X connect 3 1 8 1;
#X connect 4 0 5 0;
#X connect 5 0 8 0;
#X connect 5 1 8 2;
#X connect 6 0 7 0;
#X connect 7 0 8 0;
#X connect 7 1 8 3;
#X connect 8 0 1 0;
#X connect 9 0 10 0;
#X connect 10 0 8 0;
#X connect 10 1 8 4;
#X restore 258 376 pd pack;
#X f 62;
#N canvas 0 50 450 300 pack 0;
#X obj 87 116 inlet;
#X obj 87 251 outlet;
#X obj 141 116 inlet;
#X obj 141 137 t b f;
#X obj 87 226 pack f f, f 14;
#X connect 0 0 4 0;
#X connect 2 0 3 0;
#X connect 3 0 4 0;
#X connect 3 1 4 1;
#X connect 4 0 1 0;
#X restore 488 196 pd pack;
#X f 12;
#X obj 304 492 s \$0-to;
#X obj 304 456 tgl 15 1 empty empty on 17 7 0 10 -262144 -1 -1 1 1
;
#X obj 304 526 nbx 5 14 -1e+37 1e+37 0 1 empty empty amp 0 -8 0 10
-262144 -1 -1 1 256;
#X obj 304 623 nbx 7 14 -1e+37 1e+37 0 1 empty empty col 6 -8 0 10
-262144 -1 -1 -9.69958e+06 256;
#X obj 24 287 n_canvas 221 229 empty empty empty 10 10 11 16572608
0 0 710;
#X obj 487 145 s \$0-to;
#X obj 487 111 nbx 5 14 0 1e+37 0 1 empty empty sync_dc_hp 0 -8 0 10
-262144 -1 -1 10 256;
#X msg 487 127 sync_dc_hp \$1;
#X obj 336 231 s \$0-to;
#X obj 336 197 nbx 5 14 0 1e+37 0 1 empty empty fps 0 -8 0 10 -262144
-1 -1 25 256;
#X msg 336 213 fps \$1;
#X obj 488 50 s \$0-to;
#X obj 488 17 nbx 5 14 0 16 0 1 empty empty grid_ver 0 -8 0 10 -262144
-1 -1 3 256;
#X msg 488 32 grid_ver \$1;
#X obj 24 245 n_scope~ 3, f 23;
#X obj 257 82 vradio 15 1 1 3 empty empty sync 0 -8 0 10 -262144 -1
-1 1;
#X text 271 83 _off;
#X text 271 98 _up;
#X text 271 113 _down;
#X obj 72 670 switch~ 64 1 1;
#X msg 257 214 spp \$1;
#N canvas 0 50 460 504 (subpatch) 0;
#X obj 42 456 outlet~;
#X obj 206 85 vradio 15 1 1 7 empty empty empty 0 -8 0 10 -262144 -1
-1 4;
#X text 220 86 _off;
#X text 220 116 _sin;
#X text 220 131 _tri;
#X text 220 146 _saw;
#X text 220 101 _ph;
#X obj 43 346 *~ 0;
#X obj 42 194 phasor~;
#X obj 64 322 == 1;
#X obj 113 384 *~ 0;
#X obj 134 363 == 2;
#X obj 114 302 cos~;
#X obj 182 294 -~ 0.5;
#X obj 182 315 abs~;
#X obj 182 336 *~ 4;
#X obj 182 357 -~ 1;
#X obj 183 403 *~ 0;
#X obj 204 379 == 3;
#X obj 246 292 *~ 2;
#X obj 246 313 -~ 1;
#X obj 245 404 *~ 0;
#X obj 266 383 == 4;
#X obj 346 285 wrap~;
#X obj 346 266 +~ 0.5;
#X obj 334 306 -~;
#X obj 334 410 *~ 0;
#X obj 355 391 == 5;
#X obj 333 344 +~;
#X obj 206 209 nbx 3 14 0 100 0 1 empty empty pw 40 8 0 10 -262144
-1 -1 52 256;
#X obj 379 241 * 0.01;
#X text 220 176 _noise;
#X text 220 161 _pulse;
#X obj 206 43 nbx 4 14 -9999 9999 0 1 empty empty m 50 8 0 10 -262144
-1 -1 36 256;
#X obj 206 62 nbx 4 14 0 999999 0 1 empty empty f 50 8 0 10 -262144
-1 -1 65.4064 256;
#X obj 109 31 mtof;
#X obj 322 30 ftom;
#X msg 109 57 set \$1;
#X msg 322 58 set \$1;
#X obj 396 412 *~ 0;
#X obj 415 393 == 6;
#X obj 397 339 noise~;
#X connect 1 0 9 0;
#X connect 1 0 11 0;
#X connect 1 0 18 0;
#X connect 1 0 22 0;
#X connect 1 0 27 0;
#X connect 1 0 40 0;
#X connect 7 0 0 0;
#X connect 8 0 7 0;
#X connect 8 0 12 0;
#X connect 8 0 13 0;
#X connect 8 0 19 0;
#X connect 8 0 24 0;
#X connect 8 0 25 0;
#X connect 9 0 7 1;
#X connect 10 0 0 0;
#X connect 11 0 10 1;
#X connect 12 0 10 0;
#X connect 13 0 14 0;
#X connect 14 0 15 0;
#X connect 15 0 16 0;
#X connect 16 0 17 0;
#X connect 17 0 0 0;
#X connect 18 0 17 1;
#X connect 19 0 20 0;
#X connect 20 0 21 0;
#X connect 21 0 0 0;
#X connect 22 0 21 1;
#X connect 23 0 25 1;
#X connect 24 0 23 0;
#X connect 25 0 28 0;
#X connect 25 0 28 1;
#X connect 26 0 0 0;
#X connect 27 0 26 1;
#X connect 28 0 26 0;
#X connect 29 0 30 0;
#X connect 30 0 24 1;
#X connect 33 0 35 0;
#X connect 34 0 8 0;
#X connect 34 0 36 0;
#X connect 35 0 8 0;
#X connect 35 0 37 0;
#X connect 36 0 38 0;
#X connect 37 0 34 0;
#X connect 38 0 33 0;
#X connect 39 0 0 0;
#X connect 40 0 39 1;
#X connect 41 0 39 0;
#X coords 0 -1 1 1 65 200 2 200 40;
#X restore 25 7 pd;
#N canvas 0 50 460 504 (subpatch) 0;
#X obj 42 456 outlet~;
#X obj 206 85 vradio 15 1 1 7 empty empty empty 0 -8 0 10 -262144 -1
-1 3;
#X text 220 86 _off;
#X text 220 116 _sin;
#X text 220 131 _tri;
#X text 220 146 _saw;
#X text 220 101 _ph;
#X obj 43 346 *~ 0;
#X obj 42 194 phasor~;
#X obj 64 322 == 1;
#X obj 113 384 *~ 0;
#X obj 134 363 == 2;
#X obj 114 302 cos~;
#X obj 182 294 -~ 0.5;
#X obj 182 315 abs~;
#X obj 182 336 *~ 4;
#X obj 182 357 -~ 1;
#X obj 183 403 *~ 0;
#X obj 204 379 == 3;
#X obj 246 292 *~ 2;
#X obj 246 313 -~ 1;
#X obj 245 404 *~ 0;
#X obj 266 383 == 4;
#X obj 346 285 wrap~;
#X obj 346 266 +~ 0.5;
#X obj 334 306 -~;
#X obj 334 410 *~ 0;
#X obj 355 391 == 5;
#X obj 333 344 +~;
#X obj 206 209 nbx 3 14 0 100 0 1 empty empty pw 40 8 0 10 -262144
-1 -1 48 256;
#X obj 379 241 * 0.01;
#X text 220 176 _noise;
#X text 220 161 _pulse;
#X obj 206 43 nbx 4 14 -9999 9999 0 1 empty empty m 50 8 0 10 -262144
-1 -1 26.16 256;
#X obj 206 62 nbx 4 14 0 999999 0 1 empty empty f 50 8 0 10 -262144
-1 -1 37.0489 256;
#X obj 109 31 mtof;
#X obj 322 30 ftom;
#X msg 109 57 set \$1;
#X msg 322 58 set \$1;
#X obj 396 412 *~ 0;
#X obj 415 393 == 6;
#X obj 397 339 noise~;
#X connect 1 0 9 0;
#X connect 1 0 11 0;
#X connect 1 0 18 0;
#X connect 1 0 22 0;
#X connect 1 0 27 0;
#X connect 1 0 40 0;
#X connect 7 0 0 0;
#X connect 8 0 7 0;
#X connect 8 0 12 0;
#X connect 8 0 13 0;
#X connect 8 0 19 0;
#X connect 8 0 24 0;
#X connect 8 0 25 0;
#X connect 9 0 7 1;
#X connect 10 0 0 0;
#X connect 11 0 10 1;
#X connect 12 0 10 0;
#X connect 13 0 14 0;
#X connect 14 0 15 0;
#X connect 15 0 16 0;
#X connect 16 0 17 0;
#X connect 17 0 0 0;
#X connect 18 0 17 1;
#X connect 19 0 20 0;
#X connect 20 0 21 0;
#X connect 21 0 0 0;
#X connect 22 0 21 1;
#X connect 23 0 25 1;
#X connect 24 0 23 0;
#X connect 25 0 28 0;
#X connect 25 0 28 1;
#X connect 26 0 0 0;
#X connect 27 0 26 1;
#X connect 28 0 26 0;
#X connect 29 0 30 0;
#X connect 30 0 24 1;
#X connect 33 0 35 0;
#X connect 34 0 8 0;
#X connect 34 0 36 0;
#X connect 35 0 8 0;
#X connect 35 0 37 0;
#X connect 36 0 38 0;
#X connect 37 0 34 0;
#X connect 38 0 33 0;
#X connect 39 0 0 0;
#X connect 40 0 39 1;
#X connect 41 0 39 0;
#X coords 0 -1 1 1 65 200 2 200 40;
#X restore 92 7 pd;
#N canvas 0 50 460 504 (subpatch) 0;
#X obj 42 456 outlet~;
#X obj 206 85 vradio 15 1 1 7 empty empty empty 0 -8 0 10 -262144 -1
-1 6;
#X text 220 86 _off;
#X text 220 116 _sin;
#X text 220 131 _tri;
#X text 220 146 _saw;
#X text 220 101 _ph;
#X obj 43 346 *~ 0;
#X obj 42 194 phasor~;
#X obj 64 322 == 1;
#X obj 113 384 *~ 0;
#X obj 134 363 == 2;
#X obj 114 302 cos~;
#X obj 182 294 -~ 0.5;
#X obj 182 315 abs~;
#X obj 182 336 *~ 4;
#X obj 182 357 -~ 1;
#X obj 183 403 *~ 0;
#X obj 204 379 == 3;
#X obj 246 292 *~ 2;
#X obj 246 313 -~ 1;
#X obj 245 404 *~ 0;
#X obj 266 383 == 4;
#X obj 346 285 wrap~;
#X obj 346 266 +~ 0.5;
#X obj 334 306 -~;
#X obj 334 410 *~ 0;
#X obj 355 391 == 5;
#X obj 333 344 +~;
#X obj 206 209 nbx 3 14 0 100 0 1 empty empty pw 40 8 0 10 -262144
-1 -1 62 256;
#X obj 379 241 * 0.01;
#X text 220 176 _noise;
#X text 220 161 _pulse;
#X obj 206 43 nbx 4 14 -9999 9999 0 1 empty empty m 50 8 0 10 -262144
-1 -1 2.9 256;
#X obj 206 62 nbx 4 14 0 999999 0 1 empty empty f 50 8 0 10 -262144
-1 -1 9.66672 256;
#X obj 109 31 mtof;
#X obj 322 30 ftom;
#X msg 109 57 set \$1;
#X msg 322 58 set \$1;
#X obj 396 412 *~ 0;
#X obj 415 393 == 6;
#X obj 397 339 noise~;
#X connect 1 0 9 0;
#X connect 1 0 11 0;
#X connect 1 0 18 0;
#X connect 1 0 22 0;
#X connect 1 0 27 0;
#X connect 1 0 40 0;
#X connect 7 0 0 0;
#X connect 8 0 7 0;
#X connect 8 0 12 0;
#X connect 8 0 13 0;
#X connect 8 0 19 0;
#X connect 8 0 24 0;
#X connect 8 0 25 0;
#X connect 9 0 7 1;
#X connect 10 0 0 0;
#X connect 11 0 10 1;
#X connect 12 0 10 0;
#X connect 13 0 14 0;
#X connect 14 0 15 0;
#X connect 15 0 16 0;
#X connect 16 0 17 0;
#X connect 17 0 0 0;
#X connect 18 0 17 1;
#X connect 19 0 20 0;
#X connect 20 0 21 0;
#X connect 21 0 0 0;
#X connect 22 0 21 1;
#X connect 23 0 25 1;
#X connect 24 0 23 0;
#X connect 25 0 28 0;
#X connect 25 0 28 1;
#X connect 26 0 0 0;
#X connect 27 0 26 1;
#X connect 28 0 26 0;
#X connect 29 0 30 0;
#X connect 30 0 24 1;
#X connect 33 0 35 0;
#X connect 34 0 8 0;
#X connect 34 0 36 0;
#X connect 35 0 8 0;
#X connect 35 0 37 0;
#X connect 36 0 38 0;
#X connect 37 0 34 0;
#X connect 38 0 33 0;
#X connect 39 0 0 0;
#X connect 40 0 39 1;
#X connect 41 0 39 0;
#X coords 0 -1 1 1 65 200 2 200 40;
#X restore 159 7 pd;
#X msg 88 545 set 64 1 1;
#X text 341 83 _0;
#X text 341 98 _1;
#X text 341 113 _2;
#X obj 534 342 nbx 7 14 -1e+37 1e+37 0 1 empty empty grid 6 -8 0 10
-262144 -1 -1 -468737 256;
#X obj 627 360 nbx 7 14 -1e+37 1e+37 0 1 empty empty separator 6 -8
0 10 -262144 -1 -1 -70913 256;
#X obj 442 328 nbx 7 14 -1e+37 1e+37 0 1 empty empty recpos 6 -8 0
10 -262144 -1 -1 -1.38284e+07 256;
#X msg 258 394 color \$1 \$2 \$3 \$4 \$5;
#X obj 416 231 s \$0-to;
#X msg 416 213 recpos \$1;
#X obj 416 196 tgl 15 1 empty empty rec_pos 17 7 0 10 -262144 -1 -1
0 1;
#N canvas 19 80 450 300 rgb2pd 0;
#X obj 173 123 t b f;
#X obj 173 143 +, f 5;
#X obj 101 182 +;
#X obj 173 163 t b f;
#X obj 137 123 << 8;
#X obj 101 123 << 16;
#X obj 101 201 * -1;
#X obj 101 220 outlet pd;
#X obj 101 101 nbx 3 14 1 255 0 1 empty empty empty 0 -8 0 10 -261234
-1 -1 1 256;
#X obj 137 101 nbx 3 14 1 255 0 1 empty empty empty 0 -8 0 10 -204786
-1 -1 1 256;
#X obj 173 101 nbx 3 14 1 255 0 1 empty empty empty 0 -8 0 10 -204800
-1 -1 1 256;
#X connect 0 0 1 0;
#X connect 0 1 1 1;
#X connect 1 0 3 0;
#X connect 2 0 6 0;
#X connect 3 0 2 0;
#X connect 3 1 2 1;
#X connect 4 0 1 0;
#X connect 5 0 2 0;
#X connect 6 0 7 0;
#X connect 8 0 5 0;
#X connect 9 0 4 0;
#X connect 10 0 0 0;
#X coords 0 -1 1 1 110 16 1 100 100;
#X restore 258 257 pd rgb2pd;
#N canvas 19 80 450 300 rgb2pd 0;
#X obj 173 123 t b f;
#X obj 173 143 +, f 5;
#X obj 101 182 +;
#X obj 173 163 t b f;
#X obj 137 123 << 8;
#X obj 101 123 << 16;
#X obj 101 201 * -1;
#X obj 101 220 outlet pd;
#X obj 101 101 nbx 3 14 1 255 0 1 empty empty empty 0 -8 0 10 -261234
-1 -1 1 256;
#X obj 137 101 nbx 3 14 1 255 0 1 empty empty empty 0 -8 0 10 -204786
-1 -1 15 256;
#X obj 173 101 nbx 3 14 1 255 0 1 empty empty empty 0 -8 0 10 -204800
-1 -1 1 256;
#X connect 0 0 1 0;
#X connect 0 1 1 1;
#X connect 1 0 3 0;
#X connect 2 0 6 0;
#X connect 3 0 2 0;
#X connect 3 1 2 1;
#X connect 4 0 1 0;
#X connect 5 0 2 0;
#X connect 6 0 7 0;
#X connect 8 0 5 0;
#X connect 9 0 4 0;
#X connect 10 0 0 0;
#X coords 0 -1 1 1 110 16 1 100 100;
#X restore 350 275 pd rgb2pd;
#N canvas 19 80 450 300 rgb2pd 0;
#X obj 173 123 t b f;
#X obj 173 143 +, f 5;
#X obj 101 182 +;
#X obj 173 163 t b f;
#X obj 137 123 << 8;
#X obj 101 123 << 16;
#X obj 101 201 * -1;
#X obj 101 220 outlet pd;
#X obj 101 101 nbx 3 14 1 255 0 1 empty empty empty 0 -8 0 10 -261234
-1 -1 211 256;
#X obj 137 101 nbx 3 14 1 255 0 1 empty empty empty 0 -8 0 10 -204786
-1 -1 1 256;
#X obj 173 101 nbx 3 14 1 255 0 1 empty empty empty 0 -8 0 10 -204800
-1 -1 1 256;
#X connect 0 0 1 0;
#X connect 0 1 1 1;
#X connect 1 0 3 0;
#X connect 2 0 6 0;
#X connect 3 0 2 0;
#X connect 3 1 2 1;
#X connect 4 0 1 0;
#X connect 5 0 2 0;
#X connect 6 0 7 0;
#X connect 8 0 5 0;
#X connect 9 0 4 0;
#X connect 10 0 0 0;
#X coords 0 -1 1 1 110 16 1 100 100;
#X restore 442 293 pd rgb2pd;
#N canvas 19 80 450 300 rgb2pd 0;
#X obj 173 123 t b f;
#X obj 173 143 +, f 5;
#X obj 101 182 +;
#X obj 173 163 t b f;
#X obj 137 123 << 8;
#X obj 101 123 << 16;
#X obj 101 201 * -1;
#X obj 101 220 outlet pd;
#X obj 101 101 nbx 3 14 1 255 0 1 empty empty empty 0 -8 0 10 -261234
-1 -1 7 256;
#X obj 137 101 nbx 3 14 1 255 0 1 empty empty empty 0 -8 0 10 -204786
-1 -1 39 256;
#X obj 173 101 nbx 3 14 1 255 0 1 empty empty empty 0 -8 0 10 -204800
-1 -1 1 256;
#X connect 0 0 1 0;
#X connect 0 1 1 1;
#X connect 1 0 3 0;
#X connect 2 0 6 0;
#X connect 3 0 2 0;
#X connect 3 1 2 1;
#X connect 4 0 1 0;
#X connect 5 0 2 0;
#X connect 6 0 7 0;
#X connect 8 0 5 0;
#X connect 9 0 4 0;
#X connect 10 0 0 0;
#X coords 0 -1 1 1 110 16 1 100 100;
#X restore 534 311 pd rgb2pd;
#N canvas 19 80 450 300 rgb2pd 0;
#X obj 173 123 t b f;
#X obj 173 143 +, f 5;
#X obj 101 182 +;
#X obj 173 163 t b f;
#X obj 137 123 << 8;
#X obj 101 123 << 16;
#X obj 101 201 * -1;
#X obj 101 220 outlet pd;
#X obj 101 101 nbx 3 14 1 255 0 1 empty empty empty 0 -8 0 10 -261234
-1 -1 1 256;
#X obj 137 101 nbx 3 14 1 255 0 1 empty empty empty 0 -8 0 10 -204786
-1 -1 21 256;
#X obj 173 101 nbx 3 14 1 255 0 1 empty empty empty 0 -8 0 10 -204800
-1 -1 1 256;
#X connect 0 0 1 0;
#X connect 0 1 1 1;
#X connect 1 0 3 0;
#X connect 2 0 6 0;
#X connect 3 0 2 0;
#X connect 3 1 2 1;
#X connect 4 0 1 0;
#X connect 5 0 2 0;
#X connect 6 0 7 0;
#X connect 8 0 5 0;
#X connect 9 0 4 0;
#X connect 10 0 0 0;
#X coords 0 -1 1 1 110 16 1 100 100;
#X restore 627 329 pd rgb2pd;
#N canvas 19 80 450 300 rgb2pd 0;
#X obj 173 123 t b f;
#X obj 173 143 +, f 5;
#X obj 101 182 +;
#X obj 173 163 t b f;
#X obj 137 123 << 8;
#X obj 101 123 << 16;
#X obj 101 201 * -1;
#X obj 101 220 outlet pd;
#X obj 101 101 nbx 3 14 1 255 0 1 empty empty empty 0 -8 0 10 -261234
-1 -1 148 256;
#X obj 137 101 nbx 3 14 1 255 0 1 empty empty empty 0 -8 0 10 -204786
-1 -1 1 256;
#X obj 173 101 nbx 3 14 1 255 0 1 empty empty empty 0 -8 0 10 -204800
-1 -1 1 256;
#X connect 0 0 1 0;
#X connect 0 1 1 1;
#X connect 1 0 3 0;
#X connect 2 0 6 0;
#X connect 3 0 2 0;
#X connect 3 1 2 1;
#X connect 4 0 1 0;
#X connect 5 0 2 0;
#X connect 6 0 7 0;
#X connect 8 0 5 0;
#X connect 9 0 4 0;
#X connect 10 0 0 0;
#X coords 0 -1 1 1 110 16 1 100 100;
#X restore 304 592 pd rgb2pd;
#N canvas 71 237 453 464 example 0;
#N canvas 0 50 460 504 (subpatch) 0;
#X obj 42 456 outlet~;
#X obj 206 85 vradio 15 1 1 7 empty empty empty 0 -8 0 10 -262144 -1
-1 3;
#X text 220 86 _off;
#X text 220 116 _sin;
#X text 220 131 _tri;
#X text 220 146 _saw;
#X text 220 101 _ph;
#X obj 43 346 *~ 0;
#X obj 42 194 phasor~;
#X obj 64 322 == 1;
#X obj 113 384 *~ 0;
#X obj 134 363 == 2;
#X obj 114 302 cos~;
#X obj 182 294 -~ 0.5;
#X obj 182 315 abs~;
#X obj 182 336 *~ 4;
#X obj 182 357 -~ 1;
#X obj 183 403 *~ 0;
#X obj 204 379 == 3;
#X obj 246 292 *~ 2;
#X obj 246 313 -~ 1;
#X obj 245 404 *~ 0;
#X obj 266 383 == 4;
#X obj 346 285 wrap~;
#X obj 346 266 +~ 0.5;
#X obj 334 306 -~;
#X obj 334 410 *~ 0;
#X obj 355 391 == 5;
#X obj 333 344 +~;
#X obj 206 209 nbx 3 14 0 100 0 1 empty empty pw 40 8 0 10 -262144
-1 -1 52 256;
#X obj 379 241 * 0.01;
#X text 220 176 _noise;
#X text 220 161 _pulse;
#X obj 206 43 nbx 4 14 -9999 9999 0 1 empty empty m 50 8 0 10 -262144
-1 -1 86 256;
#X obj 206 62 nbx 4 14 0 999999 0 1 empty empty f 50 8 0 10 -262144
-1 -1 1174.66 256;
#X obj 109 31 mtof;
#X obj 322 30 ftom;
#X msg 109 57 set \$1;
#X msg 322 58 set \$1;
#X obj 396 412 *~ 0;
#X obj 415 393 == 6;
#X obj 397 339 noise~;
#X connect 1 0 9 0;
#X connect 1 0 11 0;
#X connect 1 0 18 0;
#X connect 1 0 22 0;
#X connect 1 0 27 0;
#X connect 1 0 40 0;
#X connect 7 0 0 0;
#X connect 8 0 7 0;
#X connect 8 0 12 0;
#X connect 8 0 13 0;
#X connect 8 0 19 0;
#X connect 8 0 24 0;
#X connect 8 0 25 0;
#X connect 9 0 7 1;
#X connect 10 0 0 0;
#X connect 11 0 10 1;
#X connect 12 0 10 0;
#X connect 13 0 14 0;
#X connect 14 0 15 0;
#X connect 15 0 16 0;
#X connect 16 0 17 0;
#X connect 17 0 0 0;
#X connect 18 0 17 1;
#X connect 19 0 20 0;
#X connect 20 0 21 0;
#X connect 21 0 0 0;
#X connect 22 0 21 1;
#X connect 23 0 25 1;
#X connect 24 0 23 0;
#X connect 25 0 28 0;
#X connect 25 0 28 1;
#X connect 26 0 0 0;
#X connect 27 0 26 1;
#X connect 28 0 26 0;
#X connect 29 0 30 0;
#X connect 30 0 24 1;
#X connect 33 0 35 0;
#X connect 34 0 8 0;
#X connect 34 0 36 0;
#X connect 35 0 8 0;
#X connect 35 0 37 0;
#X connect 36 0 38 0;
#X connect 37 0 34 0;
#X connect 38 0 33 0;
#X connect 39 0 0 0;
#X connect 40 0 39 1;
#X connect 41 0 39 0;
#X coords 0 -1 1 1 65 200 2 200 40;
#X restore 49 25 pd;
#X obj 48 235 n_scope~;
#X obj 48 264 n_canvas 101 101 empty empty empty 10 10 11 16579836
0 0 150;
#X msg 142 219 on 0;
#X msg 190 219 on 1;
#X msg 246 197 size 100 100 \, on 1 \, sync 1 \, in 0 1 1 13, f 14
;
#X connect 0 0 1 0;
#X connect 1 0 2 0;
#X connect 3 0 1 0;
#X connect 4 0 1 0;
#X connect 5 0 1 0;
#X restore 583 233 pd example default;
#X msg 304 474 in_on 0 \$1;
#X obj 444 492 s \$0-to;
#X obj 444 456 tgl 15 1 empty empty on 17 7 0 10 -262144 -1 -1 1 1
;
#X obj 574 492 s \$0-to;
#X obj 574 456 tgl 15 1 empty empty on 17 7 0 10 -262144 -1 -1 1 1
;
#X msg 444 474 in_on 1 \$1;
#X msg 574 474 in_on 2 \$1;
#X obj 304 562 s \$0-to;
#X msg 304 544 in_amp 0 \$1;
#X obj 444 526 nbx 5 14 -1e+37 1e+37 0 1 empty empty amp 0 -8 0 10
-262144 -1 -1 1 256;
#X obj 444 562 s \$0-to;
#X obj 574 526 nbx 5 14 -1e+37 1e+37 0 1 empty empty amp 0 -8 0 10
-262144 -1 -1 1 256;
#X obj 574 562 s \$0-to;
#X msg 444 544 in_amp 1 \$1;
#X msg 574 544 in_amp 2 \$1;
#X obj 304 662 s \$0-to;
#X msg 304 644 in_color 0 \$1;
#X obj 444 623 nbx 7 14 -1e+37 1e+37 0 1 empty empty col 6 -8 0 10
-262144 -1 -1 -3.58477e+06 256;
#N canvas 19 80 450 300 rgb2pd 0;
#X obj 173 123 t b f;
#X obj 173 143 +, f 5;
#X obj 101 182 +;
#X obj 173 163 t b f;
#X obj 137 123 << 8;
#X obj 101 123 << 16;
#X obj 101 201 * -1;
#X obj 101 220 outlet pd;
#X obj 101 101 nbx 3 14 1 255 0 1 empty empty empty 0 -8 0 10 -261234
-1 -1 54 256;
#X obj 137 101 nbx 3 14 1 255 0 1 empty empty empty 0 -8 0 10 -204786
-1 -1 179 256;
#X obj 173 101 nbx 3 14 1 255 0 1 empty empty empty 0 -8 0 10 -204800
-1 -1 1 256;
#X connect 0 0 1 0;
#X connect 0 1 1 1;
#X connect 1 0 3 0;
#X connect 2 0 6 0;
#X connect 3 0 2 0;
#X connect 3 1 2 1;
#X connect 4 0 1 0;
#X connect 5 0 2 0;
#X connect 6 0 7 0;
#X connect 8 0 5 0;
#X connect 9 0 4 0;
#X connect 10 0 0 0;
#X coords 0 -1 1 1 110 16 1 100 100;
#X restore 444 592 pd rgb2pd;
#X obj 444 662 s \$0-to;
#X obj 574 623 nbx 7 14 -1e+37 1e+37 0 1 empty empty col 6 -8 0 10
-262144 -1 -1 -1.78879e+06 256;
#N canvas 19 80 450 300 rgb2pd 0;
#X obj 173 123 t b f;
#X obj 173 143 +, f 5;
#X obj 101 182 +;
#X obj 173 163 t b f;
#X obj 137 123 << 8;
#X obj 101 123 << 16;
#X obj 101 201 * -1;
#X obj 101 220 outlet pd;
#X obj 101 101 nbx 3 14 1 255 0 1 empty empty empty 0 -8 0 10 -261234
-1 -1 27 256;
#X obj 137 101 nbx 3 14 1 255 0 1 empty empty empty 0 -8 0 10 -204786
-1 -1 75 256;
#X obj 173 101 nbx 3 14 1 255 0 1 empty empty empty 0 -8 0 10 -204800
-1 -1 119 256;
#X connect 0 0 1 0;
#X connect 0 1 1 1;
#X connect 1 0 3 0;
#X connect 2 0 6 0;
#X connect 3 0 2 0;
#X connect 3 1 2 1;
#X connect 4 0 1 0;
#X connect 5 0 2 0;
#X connect 6 0 7 0;
#X connect 8 0 5 0;
#X connect 9 0 4 0;
#X connect 10 0 0 0;
#X coords 0 -1 1 1 110 16 1 100 100;
#X restore 574 592 pd rgb2pd;
#X obj 574 662 s \$0-to;
#X msg 444 644 in_color 1 \$1;
#X msg 574 644 in_color 2 \$1;
#X connect 0 0 57 0;
#X connect 1 0 57 0;
#X connect 2 0 57 0;
#X connect 3 0 57 0;
#X connect 4 0 57 0;
#X connect 5 0 57 0;
#X connect 6 0 7 0;
#X connect 7 0 8 0;
#X connect 9 0 52 0;
#X connect 10 0 12 0;
#X connect 12 0 11 0;
#X connect 13 0 15 0;
#X connect 15 0 14 0;
#X connect 17 0 16 0;
#X connect 19 0 18 0;
#X connect 20 0 19 0;
#X connect 21 0 23 0;
#X connect 23 0 22 0;
#X connect 25 0 24 0;
#X connect 26 0 25 0;
#X connect 28 0 58 0;
#X connect 30 0 29 0;
#X connect 31 0 37 0;
#X connect 32 0 37 1;
#X connect 34 0 36 0;
#X connect 35 0 36 1;
#X connect 36 0 69 0;
#X connect 37 0 30 0;
#X connect 39 0 80 0;
#X connect 40 0 88 0;
#X connect 41 0 96 0;
#X connect 44 0 45 0;
#X connect 45 0 43 0;
#X connect 47 0 48 0;
#X connect 48 0 46 0;
#X connect 50 0 51 0;
#X connect 51 0 49 0;
#X connect 52 0 42 0;
#X connect 53 0 17 0;
#X connect 58 0 27 0;
#X connect 59 0 52 0;
#X connect 60 0 52 1;
#X connect 61 0 52 2;
#X connect 62 0 57 0;
#X connect 66 0 36 3;
#X connect 67 0 36 4;
#X connect 68 0 36 2;
#X connect 69 0 33 0;
#X connect 71 0 70 0;
#X connect 72 0 71 0;
#X connect 73 0 34 0;
#X connect 74 0 35 0;
#X connect 75 0 68 0;
#X connect 76 0 66 0;
#X connect 77 0 67 0;
#X connect 78 0 41 0;
#X connect 80 0 38 0;
#X connect 82 0 85 0;
#X connect 84 0 86 0;
#X connect 85 0 81 0;
#X connect 86 0 83 0;
#X connect 88 0 87 0;
#X connect 89 0 93 0;
#X connect 91 0 94 0;
#X connect 93 0 90 0;
#X connect 94 0 92 0;
#X connect 96 0 95 0;
#X connect 97 0 103 0;
#X connect 98 0 97 0;
#X connect 100 0 104 0;
#X connect 101 0 100 0;
#X connect 103 0 99 0;
#X connect 104 0 102 0;
