#N canvas 252 55 1027 603 10;
#X obj 407 320 n_canvas 100 100 empty empty empty 10 10 11 16579836 0 0 1;
#X obj 247 271 n_seq_drum;
#X obj 21 66 s \$0-to;
#X obj 247 247 r \$0-to;
#X obj 407 495 s \$0-to;
#X obj 247 472 route 0 1 2 3 4 5 6 7;
#X obj 267 442 print;
#X obj 148 27 nbx 5 15 1 256 0 1 empty empty column 0 -9 0 10 #ffc7c6 #000000 #000000 40 256;
#X msg 148 47 column \$1;
#X obj 148 69 s \$0-to;
#X obj 218 27 nbx 5 15 1 32 0 1 empty empty row 0 -9 0 10 #ffc7c6 #000000 #000000 7 256;
#X obj 218 69 s \$0-to;
#X msg 218 47 row \$1;
#X obj 652 43 nbx 5 15 4 256 0 1 empty empty size 0 -9 0 10 #ffc7c6 #000000 #000000 37 256;
#X obj 652 85 s \$0-to;
#X msg 652 63 size \$1;
#X obj 371 13 bng 17 250 50 0 empty empty empty 0 -9 0 10 #fcfcfc #000000 #000000;
#X obj 371 35 i \$0;
#X msg 371 57 mem \$1-mem;
#X obj 246 226 table \$0-mem;
#X obj 371 78 s \$0-to;
#X msg 407 472 disp \$2 \$3 \$4 \$5;
#X msg 21 44 init;
#X obj 289 173 s \$0-to;
#X obj 514 39 nbx 5 15 1 32 0 1 empty empty tracks 0 -9 0 10 #ffc7c6 #000000 #000000 1 256;
#X obj 514 81 s \$0-to;
#X msg 289 151 track_ofs \$1;
#N canvas 443 172 473 389 (subpatch) 0;
#N canvas 455 216 450 300 pack 0;
#X obj 126 45 inlet;
#X obj 176 45 inlet;
#X obj 226 45 inlet;
#X obj 126 239 outlet;
#X obj 226 115 t b f;
#X obj 226 138 +;
#X obj 126 176 +;
#X obj 226 158 t b f;
#X obj 176 115 << 8;
#X obj 126 115 << 16;
#X obj 126 197 * -1;
#X obj 126 68 * 2.54;
#X obj 176 68 * 2.54;
#X obj 226 68 * 2.54;
#X obj 126 91 + 1;
#X obj 176 91 + 1;
#X obj 226 91 + 1;
#X connect 0 0 11 0;
#X connect 1 0 12 0;
#X connect 2 0 13 0;
#X connect 4 0 5 0;
#X connect 4 1 5 1;
#X connect 5 0 7 0;
#X connect 6 0 10 0;
#X connect 7 0 6 0;
#X connect 7 1 6 1;
#X connect 8 0 5 0;
#X connect 9 0 6 0;
#X connect 10 0 3 0;
#X connect 11 0 14 0;
#X connect 12 0 15 0;
#X connect 13 0 16 0;
#X connect 14 0 9 0;
#X connect 15 0 8 0;
#X connect 16 0 4 0;
#X restore 74 179 pd pack color pd;
#X msg 74 237 color_back \$1;
#X msg 171 217 color \$1 \$1 22;
#X msg 278 27 set \$1;
#X msg 278 54 13;
#X floatatom 100 100 3 0 100 0 - - - 0;
#X floatatom 120 100 3 0 100 0 - - - 0;
#X floatatom 140 100 3 0 100 0 - - - 0;
#X msg 328 27 set \$1;
#X msg 328 54 50;
#X msg 378 27 set \$1;
#X msg 378 54 100;
#X obj 163 13 loadbang;
#X obj 160 100 bng 16 250 50 0 empty empty back 19 8 0 10 #2280fe #2280fe #000000;
#X obj 74 257 s \$0-to-color;
#X connect 0 0 1 0;
#X connect 0 0 2 0;
#X connect 1 0 14 0;
#X connect 2 0 13 0;
#X connect 3 0 4 0;
#X connect 4 0 5 0;
#X connect 5 0 3 0;
#X connect 5 0 0 0;
#X connect 6 0 8 0;
#X connect 6 0 0 1;
#X connect 7 0 10 0;
#X connect 7 0 0 2;
#X connect 8 0 9 0;
#X connect 9 0 6 0;
#X connect 10 0 11 0;
#X connect 11 0 7 0;
#X connect 12 0 9 0;
#X connect 12 0 11 0;
#X connect 12 0 4 0;
#X coords 0 -1 1 1 140 16 2 100 100;
#X restore 47 268 pd;
#N canvas 443 172 473 389 (subpatch) 0;
#N canvas 455 216 450 300 pack 0;
#X obj 126 45 inlet;
#X obj 176 45 inlet;
#X obj 226 45 inlet;
#X obj 126 239 outlet;
#X obj 226 115 t b f;
#X obj 226 138 +;
#X obj 126 176 +;
#X obj 226 158 t b f;
#X obj 176 115 << 8;
#X obj 126 115 << 16;
#X obj 126 197 * -1;
#X obj 126 68 * 2.54;
#X obj 176 68 * 2.54;
#X obj 226 68 * 2.54;
#X obj 126 91 + 1;
#X obj 176 91 + 1;
#X obj 226 91 + 1;
#X connect 0 0 11 0;
#X connect 1 0 12 0;
#X connect 2 0 13 0;
#X connect 4 0 5 0;
#X connect 4 1 5 1;
#X connect 5 0 7 0;
#X connect 6 0 10 0;
#X connect 7 0 6 0;
#X connect 7 1 6 1;
#X connect 8 0 5 0;
#X connect 9 0 6 0;
#X connect 10 0 3 0;
#X connect 11 0 14 0;
#X connect 12 0 15 0;
#X connect 13 0 16 0;
#X connect 14 0 9 0;
#X connect 15 0 8 0;
#X connect 16 0 4 0;
#X restore 74 179 pd pack color pd;
#X msg 171 217 color \$1 \$1 22;
#X msg 278 27 set \$1;
#X msg 278 54 3;
#X floatatom 100 100 3 0 100 0 - - - 0;
#X floatatom 120 100 3 0 100 0 - - - 0;
#X floatatom 140 100 3 0 100 0 - - - 0;
#X msg 328 27 set \$1;
#X msg 328 54 79;
#X msg 378 27 set \$1;
#X msg 378 54 42;
#X obj 163 13 loadbang;
#X obj 160 100 bng 16 250 50 0 empty empty frame 19 8 0 10 #08c96a #08c96a #000000;
#X msg 74 237 color_frame \$1;
#X obj 74 257 s \$0-to-color;
#X connect 0 0 13 0;
#X connect 0 0 1 0;
#X connect 1 0 12 0;
#X connect 2 0 3 0;
#X connect 3 0 4 0;
#X connect 4 0 2 0;
#X connect 4 0 0 0;
#X connect 5 0 7 0;
#X connect 5 0 0 1;
#X connect 6 0 9 0;
#X connect 6 0 0 2;
#X connect 7 0 8 0;
#X connect 8 0 5 0;
#X connect 9 0 10 0;
#X connect 10 0 6 0;
#X connect 11 0 8 0;
#X connect 11 0 10 0;
#X connect 11 0 3 0;
#X connect 13 0 14 0;
#X coords 0 -1 1 1 140 16 2 100 100;
#X restore 47 252 pd;
#N canvas 443 172 473 389 (subpatch) 0;
#N canvas 455 216 450 300 pack 0;
#X obj 126 45 inlet;
#X obj 176 45 inlet;
#X obj 226 45 inlet;
#X obj 126 239 outlet;
#X obj 226 115 t b f;
#X obj 226 138 +;
#X obj 126 176 +;
#X obj 226 158 t b f;
#X obj 176 115 << 8;
#X obj 126 115 << 16;
#X obj 126 197 * -1;
#X obj 126 68 * 2.54;
#X obj 176 68 * 2.54;
#X obj 226 68 * 2.54;
#X obj 126 91 + 1;
#X obj 176 91 + 1;
#X obj 226 91 + 1;
#X connect 0 0 11 0;
#X connect 1 0 12 0;
#X connect 2 0 13 0;
#X connect 4 0 5 0;
#X connect 4 1 5 1;
#X connect 5 0 7 0;
#X connect 6 0 10 0;
#X connect 7 0 6 0;
#X connect 7 1 6 1;
#X connect 8 0 5 0;
#X connect 9 0 6 0;
#X connect 10 0 3 0;
#X connect 11 0 14 0;
#X connect 12 0 15 0;
#X connect 13 0 16 0;
#X connect 14 0 9 0;
#X connect 15 0 8 0;
#X connect 16 0 4 0;
#X restore 74 179 pd pack color pd;
#X msg 171 217 color \$1 \$1 22;
#X msg 278 27 set \$1;
#X msg 278 54 3;
#X floatatom 100 100 3 0 100 0 - - - 0;
#X floatatom 120 100 3 0 100 0 - - - 0;
#X floatatom 140 100 3 0 100 0 - - - 0;
#X msg 328 27 set \$1;
#X msg 328 54 21;
#X msg 378 27 set \$1;
#X msg 378 54 99;
#X obj 163 13 loadbang;
#X obj 160 100 bng 16 250 50 0 empty empty major 19 8 0 10 #0836fb #0836fb #000000;
#X msg 73 236 color_major \$1;
#X obj 74 257 s \$0-to-color;
#X connect 0 0 13 0;
#X connect 0 0 1 0;
#X connect 1 0 12 0;
#X connect 2 0 3 0;
#X connect 3 0 4 0;
#X connect 4 0 2 0;
#X connect 4 0 0 0;
#X connect 5 0 7 0;
#X connect 5 0 0 1;
#X connect 6 0 9 0;
#X connect 6 0 0 2;
#X connect 7 0 8 0;
#X connect 8 0 5 0;
#X connect 9 0 10 0;
#X connect 10 0 6 0;
#X connect 11 0 8 0;
#X connect 11 0 10 0;
#X connect 11 0 3 0;
#X connect 13 0 14 0;
#X coords 0 -1 1 1 140 16 2 100 100;
#X restore 47 284 pd;
#N canvas 443 172 473 389 (subpatch) 0;
#N canvas 455 216 450 300 pack 0;
#X obj 126 45 inlet;
#X obj 176 45 inlet;
#X obj 226 45 inlet;
#X obj 126 239 outlet;
#X obj 226 115 t b f;
#X obj 226 138 +;
#X obj 126 176 +;
#X obj 226 158 t b f;
#X obj 176 115 << 8;
#X obj 126 115 << 16;
#X obj 126 197 * -1;
#X obj 126 68 * 2.54;
#X obj 176 68 * 2.54;
#X obj 226 68 * 2.54;
#X obj 126 91 + 1;
#X obj 176 91 + 1;
#X obj 226 91 + 1;
#X connect 0 0 11 0;
#X connect 1 0 12 0;
#X connect 2 0 13 0;
#X connect 4 0 5 0;
#X connect 4 1 5 1;
#X connect 5 0 7 0;
#X connect 6 0 10 0;
#X connect 7 0 6 0;
#X connect 7 1 6 1;
#X connect 8 0 5 0;
#X connect 9 0 6 0;
#X connect 10 0 3 0;
#X connect 11 0 14 0;
#X connect 12 0 15 0;
#X connect 13 0 16 0;
#X connect 14 0 9 0;
#X connect 15 0 8 0;
#X connect 16 0 4 0;
#X restore 74 179 pd pack color pd;
#X msg 171 217 color \$1 \$1 22;
#X msg 278 27 set \$1;
#X msg 278 54 0;
#X floatatom 100 100 3 0 100 0 - - - 0;
#X floatatom 120 100 3 0 100 0 - - - 0;
#X floatatom 140 100 3 0 100 0 - - - 0;
#X msg 328 27 set \$1;
#X msg 328 54 100;
#X msg 378 27 set \$1;
#X msg 378 54 20;
#X obj 163 13 loadbang;
#X obj 160 100 bng 16 250 50 0 empty empty minor 19 8 0 10 #01ff32 #01ff32 #000000;
#X msg 73 236 color_minor \$1;
#X obj 74 257 s \$0-to-color;
#X connect 0 0 13 0;
#X connect 0 0 1 0;
#X connect 1 0 12 0;
#X connect 2 0 3 0;
#X connect 3 0 4 0;
#X connect 4 0 2 0;
#X connect 4 0 0 0;
#X connect 5 0 7 0;
#X connect 5 0 0 1;
#X connect 6 0 9 0;
#X connect 6 0 0 2;
#X connect 7 0 8 0;
#X connect 8 0 5 0;
#X connect 9 0 10 0;
#X connect 10 0 6 0;
#X connect 11 0 8 0;
#X connect 11 0 10 0;
#X connect 11 0 3 0;
#X connect 13 0 14 0;
#X coords 0 -1 1 1 140 16 2 100 100;
#X restore 47 300 pd;
#N canvas 443 172 473 389 (subpatch) 0;
#N canvas 455 216 450 300 pack 0;
#X obj 126 45 inlet;
#X obj 176 45 inlet;
#X obj 226 45 inlet;
#X obj 126 239 outlet;
#X obj 226 115 t b f;
#X obj 226 138 +;
#X obj 126 176 +;
#X obj 226 158 t b f;
#X obj 176 115 << 8;
#X obj 126 115 << 16;
#X obj 126 197 * -1;
#X obj 126 68 * 2.54;
#X obj 176 68 * 2.54;
#X obj 226 68 * 2.54;
#X obj 126 91 + 1;
#X obj 176 91 + 1;
#X obj 226 91 + 1;
#X connect 0 0 11 0;
#X connect 1 0 12 0;
#X connect 2 0 13 0;
#X connect 4 0 5 0;
#X connect 4 1 5 1;
#X connect 5 0 7 0;
#X connect 6 0 10 0;
#X connect 7 0 6 0;
#X connect 7 1 6 1;
#X connect 8 0 5 0;
#X connect 9 0 6 0;
#X connect 10 0 3 0;
#X connect 11 0 14 0;
#X connect 12 0 15 0;
#X connect 13 0 16 0;
#X connect 14 0 9 0;
#X connect 15 0 8 0;
#X connect 16 0 4 0;
#X restore 74 179 pd pack color pd;
#X msg 171 217 color \$1 \$1 22;
#X msg 278 27 set \$1;
#X msg 278 54 0;
#X floatatom 100 100 3 0 100 0 - - - 0;
#X floatatom 120 100 3 0 100 0 - - - 0;
#X floatatom 140 100 3 0 100 0 - - - 0;
#X msg 328 27 set \$1;
#X msg 328 54 100;
#X msg 378 27 set \$1;
#X msg 378 54 20;
#X obj 163 13 loadbang;
#X obj 160 100 bng 16 250 50 0 empty empty note 19 8 0 10 #01ff32 #01ff32 #000000;
#X msg 73 236 color_note \$1;
#X obj 74 257 s \$0-to-color;
#X connect 0 0 13 0;
#X connect 0 0 1 0;
#X connect 1 0 12 0;
#X connect 2 0 3 0;
#X connect 3 0 4 0;
#X connect 4 0 2 0;
#X connect 4 0 0 0;
#X connect 5 0 7 0;
#X connect 5 0 0 1;
#X connect 6 0 9 0;
#X connect 6 0 0 2;
#X connect 7 0 8 0;
#X connect 8 0 5 0;
#X connect 9 0 10 0;
#X connect 10 0 6 0;
#X connect 11 0 8 0;
#X connect 11 0 10 0;
#X connect 11 0 3 0;
#X connect 13 0 14 0;
#X coords 0 -1 1 1 140 16 2 100 100;
#X restore 47 316 pd;
#N canvas 443 172 473 389 (subpatch) 0;
#N canvas 455 216 450 300 pack 0;
#X obj 126 45 inlet;
#X obj 176 45 inlet;
#X obj 226 45 inlet;
#X obj 126 239 outlet;
#X obj 226 115 t b f;
#X obj 226 138 +;
#X obj 126 176 +;
#X obj 226 158 t b f;
#X obj 176 115 << 8;
#X obj 126 115 << 16;
#X obj 126 197 * -1;
#X obj 126 68 * 2.54;
#X obj 176 68 * 2.54;
#X obj 226 68 * 2.54;
#X obj 126 91 + 1;
#X obj 176 91 + 1;
#X obj 226 91 + 1;
#X connect 0 0 11 0;
#X connect 1 0 12 0;
#X connect 2 0 13 0;
#X connect 4 0 5 0;
#X connect 4 1 5 1;
#X connect 5 0 7 0;
#X connect 6 0 10 0;
#X connect 7 0 6 0;
#X connect 7 1 6 1;
#X connect 8 0 5 0;
#X connect 9 0 6 0;
#X connect 10 0 3 0;
#X connect 11 0 14 0;
#X connect 12 0 15 0;
#X connect 13 0 16 0;
#X connect 14 0 9 0;
#X connect 15 0 8 0;
#X connect 16 0 4 0;
#X restore 74 179 pd pack color pd;
#X msg 171 217 color \$1 \$1 22;
#X msg 278 27 set \$1;
#X msg 278 54 0;
#X floatatom 100 100 3 0 100 0 - - - 0;
#X floatatom 120 100 3 0 100 0 - - - 0;
#X floatatom 140 100 3 0 100 0 - - - 0;
#X msg 328 27 set \$1;
#X msg 328 54 100;
#X msg 378 27 set \$1;
#X msg 378 54 20;
#X obj 163 13 loadbang;
#X obj 160 100 bng 16 250 50 0 empty empty acc 19 8 0 10 #01ff32 #01ff32 #000000;
#X msg 73 236 color_acc \$1;
#X obj 74 257 s \$0-to-color;
#X connect 0 0 13 0;
#X connect 0 0 1 0;
#X connect 1 0 12 0;
#X connect 2 0 3 0;
#X connect 3 0 4 0;
#X connect 4 0 2 0;
#X connect 4 0 0 0;
#X connect 5 0 7 0;
#X connect 5 0 0 1;
#X connect 6 0 9 0;
#X connect 6 0 0 2;
#X connect 7 0 8 0;
#X connect 8 0 5 0;
#X connect 9 0 10 0;
#X connect 10 0 6 0;
#X connect 11 0 8 0;
#X connect 11 0 10 0;
#X connect 11 0 3 0;
#X connect 13 0 14 0;
#X coords 0 -1 1 1 140 16 2 100 100;
#X restore 47 332 pd;
#N canvas 443 172 473 389 (subpatch) 0;
#N canvas 455 216 450 300 pack 0;
#X obj 126 45 inlet;
#X obj 176 45 inlet;
#X obj 226 45 inlet;
#X obj 126 239 outlet;
#X obj 226 115 t b f;
#X obj 226 138 +;
#X obj 126 176 +;
#X obj 226 158 t b f;
#X obj 176 115 << 8;
#X obj 126 115 << 16;
#X obj 126 197 * -1;
#X obj 126 68 * 2.54;
#X obj 176 68 * 2.54;
#X obj 226 68 * 2.54;
#X obj 126 91 + 1;
#X obj 176 91 + 1;
#X obj 226 91 + 1;
#X connect 0 0 11 0;
#X connect 1 0 12 0;
#X connect 2 0 13 0;
#X connect 4 0 5 0;
#X connect 4 1 5 1;
#X connect 5 0 7 0;
#X connect 6 0 10 0;
#X connect 7 0 6 0;
#X connect 7 1 6 1;
#X connect 8 0 5 0;
#X connect 9 0 6 0;
#X connect 10 0 3 0;
#X connect 11 0 14 0;
#X connect 12 0 15 0;
#X connect 13 0 16 0;
#X connect 14 0 9 0;
#X connect 15 0 8 0;
#X connect 16 0 4 0;
#X restore 74 179 pd pack color pd;
#X msg 171 217 color \$1 \$1 22;
#X msg 278 27 set \$1;
#X msg 278 54 0;
#X floatatom 100 100 3 0 100 0 - - - 0;
#X floatatom 120 100 3 0 100 0 - - - 0;
#X floatatom 140 100 3 0 100 0 - - - 0;
#X msg 328 27 set \$1;
#X msg 328 54 100;
#X msg 378 27 set \$1;
#X msg 378 54 20;
#X obj 163 13 loadbang;
#X obj 160 100 bng 16 250 50 0 empty empty flam 19 8 0 10 #01ff32 #01ff32 #000000;
#X msg 73 236 color_flam \$1;
#X obj 74 257 s \$0-to-color;
#X connect 0 0 13 0;
#X connect 0 0 1 0;
#X connect 1 0 12 0;
#X connect 2 0 3 0;
#X connect 3 0 4 0;
#X connect 4 0 2 0;
#X connect 4 0 0 0;
#X connect 5 0 7 0;
#X connect 5 0 0 1;
#X connect 6 0 9 0;
#X connect 6 0 0 2;
#X connect 7 0 8 0;
#X connect 8 0 5 0;
#X connect 9 0 10 0;
#X connect 10 0 6 0;
#X connect 11 0 8 0;
#X connect 11 0 10 0;
#X connect 11 0 3 0;
#X connect 13 0 14 0;
#X coords 0 -1 1 1 140 16 2 100 100;
#X restore 47 348 pd;
#X obj 117 184 s \$0-to;
#X msg 117 162 patt \$1;
#X obj 32 159 s \$0-to;
#X msg 32 137 pos \$1;
#X msg 514 59 tracks \$1;
#X obj 699 173 s \$0-to;
#X msg 699 151 major \$1;
#X obj 769 173 s \$0-to;
#X msg 769 151 minor \$1;
#X obj 722 43 nbx 5 15 1 256 0 1 empty empty mod_height 0 -9 0 10 #ffc7c6 #000000 #000000 37 256;
#X obj 722 85 s \$0-to;
#X obj 583 40 nbx 5 15 0 8 0 1 empty empty mods 0 -9 0 10 #ffc7c6 #000000 #000000 8 256;
#X obj 583 82 s \$0-to;
#X msg 583 60 mods \$1;
#X msg 722 63 mod_height \$1;
#X obj 822 43 nbx 5 15 1 256 0 1 empty empty mod_width 0 -9 0 10 #ffc7c6 #000000 #000000 37 256;
#X obj 822 85 s \$0-to;
#X msg 822 63 mod_width \$1;
#X obj 308 249 r \$0-to-color;
#X floatatom 275 314 5 0 0 1 sel_track - - 0;
#N canvas 443 172 473 389 (subpatch) 0;
#N canvas 455 216 450 300 pack 0;
#X obj 126 45 inlet;
#X obj 176 45 inlet;
#X obj 226 45 inlet;
#X obj 126 239 outlet;
#X obj 226 115 t b f;
#X obj 226 138 +;
#X obj 126 176 +;
#X obj 226 158 t b f;
#X obj 176 115 << 8;
#X obj 126 115 << 16;
#X obj 126 197 * -1;
#X obj 126 68 * 2.54;
#X obj 176 68 * 2.54;
#X obj 226 68 * 2.54;
#X obj 126 91 + 1;
#X obj 176 91 + 1;
#X obj 226 91 + 1;
#X connect 0 0 11 0;
#X connect 1 0 12 0;
#X connect 2 0 13 0;
#X connect 4 0 5 0;
#X connect 4 1 5 1;
#X connect 5 0 7 0;
#X connect 6 0 10 0;
#X connect 7 0 6 0;
#X connect 7 1 6 1;
#X connect 8 0 5 0;
#X connect 9 0 6 0;
#X connect 10 0 3 0;
#X connect 11 0 14 0;
#X connect 12 0 15 0;
#X connect 13 0 16 0;
#X connect 14 0 9 0;
#X connect 15 0 8 0;
#X connect 16 0 4 0;
#X restore 74 179 pd pack color pd;
#X msg 171 217 color \$1 \$1 22;
#X msg 278 27 set \$1;
#X msg 278 54 0;
#X floatatom 100 100 3 0 100 0 - - - 0;
#X floatatom 120 100 3 0 100 0 - - - 0;
#X floatatom 140 100 3 0 100 0 - - - 0;
#X msg 328 27 set \$1;
#X msg 328 54 41;
#X msg 378 27 set \$1;
#X msg 378 54 74;
#X obj 163 13 loadbang;
#X obj 160 100 bng 16 250 50 0 empty empty m0 19 8 0 10 #0169bb #0169bb #000000;
#X obj 74 257 s \$0-to-color;
#X msg 73 236 color_mod 0 \$1;
#X connect 0 0 14 0;
#X connect 0 0 1 0;
#X connect 1 0 12 0;
#X connect 2 0 3 0;
#X connect 3 0 4 0;
#X connect 4 0 2 0;
#X connect 4 0 0 0;
#X connect 5 0 7 0;
#X connect 5 0 0 1;
#X connect 6 0 9 0;
#X connect 6 0 0 2;
#X connect 7 0 8 0;
#X connect 8 0 5 0;
#X connect 9 0 10 0;
#X connect 10 0 6 0;
#X connect 11 0 8 0;
#X connect 11 0 10 0;
#X connect 11 0 3 0;
#X connect 14 0 13 0;
#X coords 0 -1 1 1 140 16 2 100 100;
#X restore 46 368 pd;
#N canvas 443 172 473 389 (subpatch) 0;
#N canvas 455 216 450 300 pack 0;
#X obj 126 45 inlet;
#X obj 176 45 inlet;
#X obj 226 45 inlet;
#X obj 126 239 outlet;
#X obj 226 115 t b f;
#X obj 226 138 +;
#X obj 126 176 +;
#X obj 226 158 t b f;
#X obj 176 115 << 8;
#X obj 126 115 << 16;
#X obj 126 197 * -1;
#X obj 126 68 * 2.54;
#X obj 176 68 * 2.54;
#X obj 226 68 * 2.54;
#X obj 126 91 + 1;
#X obj 176 91 + 1;
#X obj 226 91 + 1;
#X connect 0 0 11 0;
#X connect 1 0 12 0;
#X connect 2 0 13 0;
#X connect 4 0 5 0;
#X connect 4 1 5 1;
#X connect 5 0 7 0;
#X connect 6 0 10 0;
#X connect 7 0 6 0;
#X connect 7 1 6 1;
#X connect 8 0 5 0;
#X connect 9 0 6 0;
#X connect 10 0 3 0;
#X connect 11 0 14 0;
#X connect 12 0 15 0;
#X connect 13 0 16 0;
#X connect 14 0 9 0;
#X connect 15 0 8 0;
#X connect 16 0 4 0;
#X restore 74 179 pd pack color pd;
#X msg 171 217 color \$1 \$1 22;
#X msg 278 27 set \$1;
#X msg 278 54 0;
#X floatatom 100 100 3 0 100 0 - - - 0;
#X floatatom 120 100 3 0 100 0 - - - 0;
#X floatatom 140 100 3 0 100 0 - - - 0;
#X msg 328 27 set \$1;
#X msg 328 54 41;
#X msg 378 27 set \$1;
#X msg 378 54 18;
#X obj 163 13 loadbang;
#X obj 160 100 bng 16 250 50 0 empty empty m1 19 8 0 10 #01692d #01692d #000000;
#X obj 74 257 s \$0-to-color;
#X msg 73 236 color_mod 1 \$1;
#X connect 0 0 14 0;
#X connect 0 0 1 0;
#X connect 1 0 12 0;
#X connect 2 0 3 0;
#X connect 3 0 4 0;
#X connect 4 0 2 0;
#X connect 4 0 0 0;
#X connect 5 0 7 0;
#X connect 5 0 0 1;
#X connect 6 0 9 0;
#X connect 6 0 0 2;
#X connect 7 0 8 0;
#X connect 8 0 5 0;
#X connect 9 0 10 0;
#X connect 10 0 6 0;
#X connect 11 0 8 0;
#X connect 11 0 10 0;
#X connect 11 0 3 0;
#X connect 14 0 13 0;
#X coords 0 -1 1 1 140 16 2 100 100;
#X restore 46 384 pd;
#N canvas 443 172 473 389 (subpatch) 0;
#N canvas 455 216 450 300 pack 0;
#X obj 126 45 inlet;
#X obj 176 45 inlet;
#X obj 226 45 inlet;
#X obj 126 239 outlet;
#X obj 226 115 t b f;
#X obj 226 138 +;
#X obj 126 176 +;
#X obj 226 158 t b f;
#X obj 176 115 << 8;
#X obj 126 115 << 16;
#X obj 126 197 * -1;
#X obj 126 68 * 2.54;
#X obj 176 68 * 2.54;
#X obj 226 68 * 2.54;
#X obj 126 91 + 1;
#X obj 176 91 + 1;
#X obj 226 91 + 1;
#X connect 0 0 11 0;
#X connect 1 0 12 0;
#X connect 2 0 13 0;
#X connect 4 0 5 0;
#X connect 4 1 5 1;
#X connect 5 0 7 0;
#X connect 6 0 10 0;
#X connect 7 0 6 0;
#X connect 7 1 6 1;
#X connect 8 0 5 0;
#X connect 9 0 6 0;
#X connect 10 0 3 0;
#X connect 11 0 14 0;
#X connect 12 0 15 0;
#X connect 13 0 16 0;
#X connect 14 0 9 0;
#X connect 15 0 8 0;
#X connect 16 0 4 0;
#X restore 74 179 pd pack color pd;
#X msg 171 217 color \$1 \$1 22;
#X msg 278 27 set \$1;
#X msg 278 54 87;
#X floatatom 100 100 3 0 100 0 - - - 0;
#X floatatom 120 100 3 0 100 0 - - - 0;
#X floatatom 140 100 3 0 100 0 - - - 0;
#X msg 328 27 set \$1;
#X msg 328 54 62;
#X msg 378 27 set \$1;
#X msg 378 54 8;
#X obj 163 13 loadbang;
#X obj 160 100 bng 16 250 50 0 empty empty m2 19 8 0 10 #dd9e14 #dd9e14 #000000;
#X obj 74 257 s \$0-to-color;
#X msg 73 236 color_mod 2 \$1;
#X connect 0 0 14 0;
#X connect 0 0 1 0;
#X connect 1 0 12 0;
#X connect 2 0 3 0;
#X connect 3 0 4 0;
#X connect 4 0 2 0;
#X connect 4 0 0 0;
#X connect 5 0 7 0;
#X connect 5 0 0 1;
#X connect 6 0 9 0;
#X connect 6 0 0 2;
#X connect 7 0 8 0;
#X connect 8 0 5 0;
#X connect 9 0 10 0;
#X connect 10 0 6 0;
#X connect 11 0 8 0;
#X connect 11 0 10 0;
#X connect 11 0 3 0;
#X connect 14 0 13 0;
#X coords 0 -1 1 1 140 16 2 100 100;
#X restore 46 400 pd;
#N canvas 443 172 473 389 (subpatch) 0;
#N canvas 455 216 450 300 pack 0;
#X obj 126 45 inlet;
#X obj 176 45 inlet;
#X obj 226 45 inlet;
#X obj 126 239 outlet;
#X obj 226 115 t b f;
#X obj 226 138 +;
#X obj 126 176 +;
#X obj 226 158 t b f;
#X obj 176 115 << 8;
#X obj 126 115 << 16;
#X obj 126 197 * -1;
#X obj 126 68 * 2.54;
#X obj 176 68 * 2.54;
#X obj 226 68 * 2.54;
#X obj 126 91 + 1;
#X obj 176 91 + 1;
#X obj 226 91 + 1;
#X connect 0 0 11 0;
#X connect 1 0 12 0;
#X connect 2 0 13 0;
#X connect 4 0 5 0;
#X connect 4 1 5 1;
#X connect 5 0 7 0;
#X connect 6 0 10 0;
#X connect 7 0 6 0;
#X connect 7 1 6 1;
#X connect 8 0 5 0;
#X connect 9 0 6 0;
#X connect 10 0 3 0;
#X connect 11 0 14 0;
#X connect 12 0 15 0;
#X connect 13 0 16 0;
#X connect 14 0 9 0;
#X connect 15 0 8 0;
#X connect 16 0 4 0;
#X restore 74 179 pd pack color pd;
#X msg 171 217 color \$1 \$1 22;
#X msg 278 27 set \$1;
#X msg 278 54 55;
#X floatatom 100 100 3 0 100 0 - - - 0;
#X floatatom 120 100 3 0 100 0 - - - 0;
#X floatatom 140 100 3 0 100 0 - - - 0;
#X msg 328 27 set \$1;
#X msg 328 54 6;
#X msg 378 27 set \$1;
#X msg 378 54 20;
#X obj 163 13 loadbang;
#X obj 160 100 bng 16 250 50 0 empty empty m3 19 8 0 10 #8c1033 #8c1033 #000000;
#X obj 74 257 s \$0-to-color;
#X msg 73 236 color_mod 3 \$1;
#X connect 0 0 14 0;
#X connect 0 0 1 0;
#X connect 1 0 12 0;
#X connect 2 0 3 0;
#X connect 3 0 4 0;
#X connect 4 0 2 0;
#X connect 4 0 0 0;
#X connect 5 0 7 0;
#X connect 5 0 0 1;
#X connect 6 0 9 0;
#X connect 6 0 0 2;
#X connect 7 0 8 0;
#X connect 8 0 5 0;
#X connect 9 0 10 0;
#X connect 10 0 6 0;
#X connect 11 0 8 0;
#X connect 11 0 10 0;
#X connect 11 0 3 0;
#X connect 14 0 13 0;
#X coords 0 -1 1 1 140 16 2 100 100;
#X restore 46 416 pd;
#X obj 117 109 bng 17 250 50 0 empty empty for\ redraw 0 -9 0 10 #fcfcfc #000000 #000000;
#N canvas 459 152 441 429 (subpatch) 0;
#X obj 200 200 tgl 14 0 \$0-s \$0-r empty 0 -9 0 10 #0169bb #431714 #000000 0 1;
#X obj 200 5 r \$0-to-color;
#X obj 200 25 route color_mod;
#X obj 200 65 unpack;
#X msg 200 45 \$2 \$1;
#X obj 233 86 == 0;
#X obj 200 106 spigot;
#X text 269 86 <-;
#X obj 200 277 s \$0-sel-mod;
#X obj 200 219 bang;
#X msg 200 241 0;
#X obj 314 156 r \$0-sel-mod;
#X text 230 238 <-;
#X text 350 182 <-;
#X obj 314 182 sel 0;
#X msg 311 208 set 1;
#X msg 356 207 set 0;
#X obj 231 131 r \$0-to-sw;
#X obj 200 150 pack f f 22;
#X msg 200 170 color \$1 \$2 22;
#X connect 0 0 9 0;
#X connect 1 0 2 0;
#X connect 2 0 4 0;
#X connect 3 0 6 0;
#X connect 3 1 5 0;
#X connect 4 0 3 0;
#X connect 5 0 6 1;
#X connect 6 0 18 0;
#X connect 9 0 10 0;
#X connect 10 0 8 0;
#X connect 11 0 14 0;
#X connect 14 0 15 0;
#X connect 14 1 16 0;
#X connect 15 0 0 0;
#X connect 16 0 0 0;
#X connect 17 0 18 1;
#X connect 18 0 19 0;
#X connect 19 0 0 0;
#X coords 0 -1 1 1 14 14 2 200 200;
#X restore 385 392 pd;
#N canvas 443 172 473 389 (subpatch) 0;
#N canvas 455 216 450 300 pack 0;
#X obj 126 45 inlet;
#X obj 176 45 inlet;
#X obj 226 45 inlet;
#X obj 126 239 outlet;
#X obj 226 115 t b f;
#X obj 226 138 +;
#X obj 126 176 +;
#X obj 226 158 t b f;
#X obj 176 115 << 8;
#X obj 126 115 << 16;
#X obj 126 197 * -1;
#X obj 126 68 * 2.54;
#X obj 176 68 * 2.54;
#X obj 226 68 * 2.54;
#X obj 126 91 + 1;
#X obj 176 91 + 1;
#X obj 226 91 + 1;
#X connect 0 0 11 0;
#X connect 1 0 12 0;
#X connect 2 0 13 0;
#X connect 4 0 5 0;
#X connect 4 1 5 1;
#X connect 5 0 7 0;
#X connect 6 0 10 0;
#X connect 7 0 6 0;
#X connect 7 1 6 1;
#X connect 8 0 5 0;
#X connect 9 0 6 0;
#X connect 10 0 3 0;
#X connect 11 0 14 0;
#X connect 12 0 15 0;
#X connect 13 0 16 0;
#X connect 14 0 9 0;
#X connect 15 0 8 0;
#X connect 16 0 4 0;
#X restore 74 179 pd pack color pd;
#X msg 171 217 color \$1 \$1 22;
#X msg 278 27 set \$1;
#X msg 278 54 26;
#X floatatom 100 100 3 0 100 0 - - - 0;
#X floatatom 120 100 3 0 100 0 - - - 0;
#X floatatom 140 100 3 0 100 0 - - - 0;
#X msg 328 27 set \$1;
#X msg 328 54 9;
#X msg 378 27 set \$1;
#X msg 378 54 8;
#X obj 163 13 loadbang;
#X obj 160 100 bng 16 250 50 0 empty empty sw 19 8 0 10 #431714 #431714 #000000;
#X obj 74 257 s \$0-to-sw;
#X connect 0 0 1 0;
#X connect 0 0 13 0;
#X connect 1 0 12 0;
#X connect 2 0 3 0;
#X connect 3 0 4 0;
#X connect 4 0 2 0;
#X connect 4 0 0 0;
#X connect 5 0 7 0;
#X connect 5 0 0 1;
#X connect 6 0 9 0;
#X connect 6 0 0 2;
#X connect 7 0 8 0;
#X connect 8 0 5 0;
#X connect 9 0 10 0;
#X connect 10 0 6 0;
#X connect 11 0 8 0;
#X connect 11 0 10 0;
#X connect 11 0 3 0;
#X coords 0 -1 1 1 140 16 2 100 100;
#X restore 46 437 pd;
#N canvas 459 152 441 429 (subpatch) 0;
#X obj 200 200 tgl 14 0 \$0-s \$0-r empty 0 -9 0 10 #01692d #431714 #000000 0 1;
#X obj 200 5 r \$0-to-color;
#X obj 200 25 route color_mod;
#X obj 200 65 unpack;
#X msg 200 45 \$2 \$1;
#X obj 200 106 spigot;
#X text 269 86 <-;
#X obj 200 277 s \$0-sel-mod;
#X obj 200 219 bang;
#X obj 314 156 r \$0-sel-mod;
#X text 230 238 <-;
#X text 350 182 <-;
#X msg 311 208 set 1;
#X msg 356 207 set 0;
#X obj 231 131 r \$0-to-sw;
#X obj 200 150 pack f f 22;
#X obj 233 86 == 1;
#X msg 199 240 1;
#X obj 314 182 sel 1;
#X msg 200 170 color \$1 \$2 22;
#X connect 0 0 8 0;
#X connect 1 0 2 0;
#X connect 2 0 4 0;
#X connect 3 0 5 0;
#X connect 3 1 16 0;
#X connect 4 0 3 0;
#X connect 5 0 15 0;
#X connect 8 0 17 0;
#X connect 9 0 18 0;
#X connect 12 0 0 0;
#X connect 13 0 0 0;
#X connect 14 0 15 1;
#X connect 15 0 19 0;
#X connect 16 0 5 1;
#X connect 17 0 7 0;
#X connect 18 0 12 0;
#X connect 18 1 13 0;
#X connect 19 0 0 0;
#X coords 0 -1 1 1 14 14 2 200 200;
#X restore 385 408 pd;
#X obj 154 574 s \$0-sel-mod;
#X obj 154 533 loadbang;
#N canvas 459 152 441 429 (subpatch) 0;
#X obj 200 200 tgl 14 0 \$0-s \$0-r empty 0 -9 0 10 #dd9e14 #431714 #000000 0 1;
#X obj 200 5 r \$0-to-color;
#X obj 200 25 route color_mod;
#X obj 200 65 unpack;
#X msg 200 45 \$2 \$1;
#X obj 200 106 spigot;
#X text 269 86 <-;
#X obj 200 277 s \$0-sel-mod;
#X obj 200 219 bang;
#X obj 314 156 r \$0-sel-mod;
#X text 230 238 <-;
#X text 350 182 <-;
#X msg 311 208 set 1;
#X msg 356 207 set 0;
#X obj 231 131 r \$0-to-sw;
#X obj 200 150 pack f f 22;
#X msg 200 170 color \$1 \$2 22;
#X obj 233 86 == 2;
#X msg 200 241 2;
#X obj 314 182 sel 2;
#X connect 0 0 8 0;
#X connect 1 0 2 0;
#X connect 2 0 4 0;
#X connect 3 0 5 0;
#X connect 3 1 17 0;
#X connect 4 0 3 0;
#X connect 5 0 15 0;
#X connect 8 0 18 0;
#X connect 9 0 19 0;
#X connect 12 0 0 0;
#X connect 13 0 0 0;
#X connect 14 0 15 1;
#X connect 15 0 16 0;
#X connect 16 0 0 0;
#X connect 17 0 5 1;
#X connect 18 0 7 0;
#X connect 19 0 12 0;
#X connect 19 1 13 0;
#X coords 0 -1 1 1 14 14 2 200 200;
#X restore 385 424 pd;
#N canvas 459 152 441 429 (subpatch) 0;
#X obj 200 200 tgl 14 0 \$0-s \$0-r empty 0 -9 0 10 #8c1033 #431714 #000000 0 1;
#X obj 200 5 r \$0-to-color;
#X obj 200 25 route color_mod;
#X obj 200 65 unpack;
#X msg 200 45 \$2 \$1;
#X obj 200 106 spigot;
#X text 269 86 <-;
#X obj 200 277 s \$0-sel-mod;
#X obj 200 219 bang;
#X obj 314 156 r \$0-sel-mod;
#X text 230 238 <-;
#X text 350 182 <-;
#X msg 311 208 set 1;
#X msg 356 207 set 0;
#X obj 231 131 r \$0-to-sw;
#X obj 200 150 pack f f 22;
#X msg 200 170 color \$1 \$2 22;
#X obj 233 86 == 3;
#X msg 199 240 3;
#X obj 314 182 sel 3;
#X connect 0 0 8 0;
#X connect 1 0 2 0;
#X connect 2 0 4 0;
#X connect 3 0 5 0;
#X connect 3 1 17 0;
#X connect 4 0 3 0;
#X connect 5 0 15 0;
#X connect 8 0 18 0;
#X connect 9 0 19 0;
#X connect 12 0 0 0;
#X connect 13 0 0 0;
#X connect 14 0 15 1;
#X connect 15 0 16 0;
#X connect 16 0 0 0;
#X connect 17 0 5 1;
#X connect 18 0 7 0;
#X connect 19 0 12 0;
#X connect 19 1 13 0;
#X coords 0 -1 1 1 14 14 2 200 200;
#X restore 385 440 pd;
#X obj 400 110 r \$0-sel-mod;
#X floatatom 400 132 5 0 0 1 sel_mod - - 0;
#X msg 400 153 sel_mod \$1;
#X obj 400 176 s \$0-to;
#X msg 154 553 1;
#X obj 63 534 loadbang;
#X msg 63 554 1;
#X obj 63 575 s \$0-sel-track;
#N canvas 196 159 441 429 (subpatch) 0;
#X obj 200 200 tgl 14 0 \$0-s \$0-r empty 0 -9 0 10 #459993 #431714 #000000 0 1;
#X obj 200 219 bang;
#X msg 200 241 0;
#X text 230 238 <-;
#X text 350 182 <-;
#X obj 314 182 sel 0;
#X msg 311 208 set 1;
#X msg 356 207 set 0;
#X obj 231 131 r \$0-to-sw;
#X obj 200 150 pack f f 22;
#X msg 200 170 color \$1 \$2 22;
#X obj 314 156 r \$0-sel-track;
#X obj 200 276 s \$0-sel-track;
#X obj 200 109 r \$0-color-sel-track;
#X connect 0 0 1 0;
#X connect 1 0 2 0;
#X connect 2 0 12 0;
#X connect 5 0 6 0;
#X connect 5 1 7 0;
#X connect 6 0 0 0;
#X connect 7 0 0 0;
#X connect 8 0 9 1;
#X connect 9 0 10 0;
#X connect 10 0 0 0;
#X connect 11 0 5 0;
#X connect 13 0 9 0;
#X coords 0 -1 1 1 14 14 2 200 200;
#X restore 385 324 pd;
#N canvas 443 172 473 389 (subpatch) 0;
#N canvas 455 216 450 300 pack 0;
#X obj 126 45 inlet;
#X obj 176 45 inlet;
#X obj 226 45 inlet;
#X obj 126 239 outlet;
#X obj 226 115 t b f;
#X obj 226 138 +;
#X obj 126 176 +;
#X obj 226 158 t b f;
#X obj 176 115 << 8;
#X obj 126 115 << 16;
#X obj 126 197 * -1;
#X obj 126 68 * 2.54;
#X obj 176 68 * 2.54;
#X obj 226 68 * 2.54;
#X obj 126 91 + 1;
#X obj 176 91 + 1;
#X obj 226 91 + 1;
#X connect 0 0 11 0;
#X connect 1 0 12 0;
#X connect 2 0 13 0;
#X connect 4 0 5 0;
#X connect 4 1 5 1;
#X connect 5 0 7 0;
#X connect 6 0 10 0;
#X connect 7 0 6 0;
#X connect 7 1 6 1;
#X connect 8 0 5 0;
#X connect 9 0 6 0;
#X connect 10 0 3 0;
#X connect 11 0 14 0;
#X connect 12 0 15 0;
#X connect 13 0 16 0;
#X connect 14 0 9 0;
#X connect 15 0 8 0;
#X connect 16 0 4 0;
#X restore 74 179 pd pack color pd;
#X msg 171 217 color \$1 \$1 22;
#X msg 278 27 set \$1;
#X msg 278 54 27;
#X floatatom 100 100 3 0 100 0 - - - 0;
#X floatatom 120 100 3 0 100 0 - - - 0;
#X floatatom 140 100 3 0 100 0 - - - 0;
#X msg 328 27 set \$1;
#X msg 328 54 60;
#X msg 378 27 set \$1;
#X msg 378 54 58;
#X obj 163 13 loadbang;
#X obj 160 100 bng 16 250 50 0 empty empty sel\ tr. 19 8 0 10 #459993 #459993 #000000;
#X obj 74 257 s \$0-color-sel-track;
#X connect 0 0 1 0;
#X connect 0 0 13 0;
#X connect 1 0 12 0;
#X connect 2 0 3 0;
#X connect 3 0 4 0;
#X connect 4 0 2 0;
#X connect 4 0 0 0;
#X connect 5 0 7 0;
#X connect 5 0 0 1;
#X connect 6 0 9 0;
#X connect 6 0 0 2;
#X connect 7 0 8 0;
#X connect 8 0 5 0;
#X connect 9 0 10 0;
#X connect 10 0 6 0;
#X connect 11 0 8 0;
#X connect 11 0 10 0;
#X connect 11 0 3 0;
#X coords 0 -1 1 1 140 16 2 100 100;
#X restore 46 453 pd;
#N canvas 459 152 441 429 (subpatch) 0;
#X obj 200 200 tgl 14 0 \$0-s \$0-r empty 0 -9 0 10 #459993 #431714 #000000 0 1;
#X obj 200 219 bang;
#X text 230 238 <-;
#X text 350 182 <-;
#X msg 311 208 set 1;
#X msg 356 207 set 0;
#X obj 231 131 r \$0-to-sw;
#X obj 200 150 pack f f 22;
#X msg 200 170 color \$1 \$2 22;
#X obj 314 156 r \$0-sel-track;
#X obj 200 276 s \$0-sel-track;
#X obj 200 109 r \$0-color-sel-track;
#X msg 200 241 1;
#X obj 314 182 sel 1;
#X connect 0 0 1 0;
#X connect 1 0 12 0;
#X connect 4 0 0 0;
#X connect 5 0 0 0;
#X connect 6 0 7 1;
#X connect 7 0 8 0;
#X connect 8 0 0 0;
#X connect 9 0 13 0;
#X connect 11 0 7 0;
#X connect 12 0 10 0;
#X connect 13 0 4 0;
#X connect 13 1 5 0;
#X coords 0 -1 1 1 14 14 2 200 200;
#X restore 385 340 pd;
#N canvas 459 152 441 429 (subpatch) 0;
#X obj 200 200 tgl 14 0 \$0-s \$0-r empty 0 -9 0 10 #459993 #431714 #000000 0 1;
#X obj 200 219 bang;
#X text 230 238 <-;
#X text 350 182 <-;
#X msg 311 208 set 1;
#X msg 356 207 set 0;
#X obj 231 131 r \$0-to-sw;
#X obj 200 150 pack f f 22;
#X msg 200 170 color \$1 \$2 22;
#X obj 314 156 r \$0-sel-track;
#X obj 200 276 s \$0-sel-track;
#X obj 200 109 r \$0-color-sel-track;
#X msg 200 241 2;
#X obj 314 182 sel 2;
#X connect 0 0 1 0;
#X connect 1 0 12 0;
#X connect 4 0 0 0;
#X connect 5 0 0 0;
#X connect 6 0 7 1;
#X connect 7 0 8 0;
#X connect 8 0 0 0;
#X connect 9 0 13 0;
#X connect 11 0 7 0;
#X connect 12 0 10 0;
#X connect 13 0 4 0;
#X connect 13 1 5 0;
#X coords 0 -1 1 1 14 14 2 200 200;
#X restore 385 356 pd;
#N canvas 459 152 441 429 (subpatch) 0;
#X obj 200 200 tgl 14 0 \$0-s \$0-r empty 0 -9 0 10 #459993 #431714 #000000 0 1;
#X obj 200 219 bang;
#X text 230 238 <-;
#X text 350 182 <-;
#X msg 311 208 set 1;
#X msg 356 207 set 0;
#X obj 231 131 r \$0-to-sw;
#X obj 200 150 pack f f 22;
#X msg 200 170 color \$1 \$2 22;
#X obj 314 156 r \$0-sel-track;
#X obj 200 276 s \$0-sel-track;
#X obj 200 109 r \$0-color-sel-track;
#X msg 200 241 3;
#X obj 314 182 sel 3;
#X connect 0 0 1 0;
#X connect 1 0 12 0;
#X connect 4 0 0 0;
#X connect 5 0 0 0;
#X connect 6 0 7 1;
#X connect 7 0 8 0;
#X connect 8 0 0 0;
#X connect 9 0 13 0;
#X connect 11 0 7 0;
#X connect 12 0 10 0;
#X connect 13 0 4 0;
#X connect 13 1 5 0;
#X coords 0 -1 1 1 14 14 2 200 200;
#X restore 385 372 pd;
#X obj 275 338 s \$0-sel-track;
#X obj 530 110 r \$0-sel-track;
#X floatatom 530 132 5 0 0 1 sel_track - - 0;
#X obj 530 176 s \$0-to;
#X msg 530 153 sel_track \$1;
#X obj 76 66 s \$0-to;
#X msg 76 44 redraw;
#X floatatom 289 129 5 0 0 1 track_ofs - - 0;
#X floatatom 32 117 5 0 0 1 pos - - 0;
#X floatatom 117 132 5 0 0 1 patt - - 0;
#X floatatom 699 128 5 0 0 2 major - - 0;
#X floatatom 769 128 5 0 0 2 minor - - 0;
#X connect 0 0 21 0;
#X connect 1 0 5 0;
#X connect 1 1 53 0;
#X connect 1 2 0 0;
#X connect 3 0 1 0;
#X connect 7 0 8 0;
#X connect 8 0 9 0;
#X connect 10 0 12 0;
#X connect 12 0 11 0;
#X connect 13 0 15 0;
#X connect 15 0 14 0;
#X connect 16 0 17 0;
#X connect 17 0 18 0;
#X connect 18 0 20 0;
#X connect 21 0 4 0;
#X connect 22 0 2 0;
#X connect 24 0 38 0;
#X connect 26 0 23 0;
#X connect 35 0 34 0;
#X connect 37 0 36 0;
#X connect 38 0 25 0;
#X connect 40 0 39 0;
#X connect 42 0 41 0;
#X connect 43 0 48 0;
#X connect 45 0 47 0;
#X connect 47 0 46 0;
#X connect 48 0 44 0;
#X connect 49 0 51 0;
#X connect 51 0 50 0;
#X connect 52 0 1 0;
#X connect 53 0 79 0;
#X connect 58 0 88 0;
#X connect 63 0 70 0;
#X connect 66 0 67 0;
#X connect 67 0 68 0;
#X connect 68 0 69 0;
#X connect 70 0 62 0;
#X connect 71 0 72 0;
#X connect 72 0 73 0;
#X connect 80 0 81 0;
#X connect 81 0 83 0;
#X connect 83 0 82 0;
#X connect 85 0 84 0;
#X connect 86 0 26 0;
#X connect 87 0 37 0;
#X connect 88 0 35 0;
#X connect 89 0 40 0;
#X connect 90 0 42 0;
