#N canvas 243 45 1071 708 10;
#X obj 34 497 n_canvas 513 160 empty empty empty 10 10 11 16579836
0 0 596;
#X obj 33 36 tgl 15 1 empty empty on 17 7 0 10 -262144 -1 -1 1 1;
#X msg 33 53 on \$1;
#X obj 33 71 s \$0-to;
#X obj 222 224 s \$0-to;
#X obj 307 253 s \$0-to;
#X msg 307 235 size \$1 \$2;
#X obj 307 201 nbx 5 14 0 1e+37 0 1 empty empty width 0 -8 0 10 -262144
-1 -1 512 256;
#X obj 376 201 nbx 5 14 0 1e+37 0 1 empty empty height 0 -8 0 10 -262144
-1 -1 159 256;
#X obj 518 148 s \$0-to;
#X obj 518 53 nbx 7 14 -1e+37 1e+37 0 1 empty empty frame 6 -8 0 10
-262144 -1 -1 -1.97379e+06 256;
#X obj 591 72 nbx 7 14 -1e+37 1e+37 0 1 empty empty background 6 -8
0 10 -262144 -1 -1 -1.97379e+06 256;
#N canvas 0 50 534 296 pack 0;
#X obj 87 116 inlet;
#X obj 87 251 outlet;
#X obj 140 116 inlet;
#X obj 140 137 t b f;
#X obj 220 116 inlet;
#X obj 220 137 t b f;
#X obj 300 116 inlet;
#X obj 300 137 t b f;
#X obj 381 116 inlet;
#X obj 381 137 t b f;
#X obj 87 226 pack f f f f f, f 54;
#X connect 0 0 10 0;
#X connect 2 0 3 0;
#X connect 3 0 10 0;
#X connect 3 1 10 1;
#X connect 4 0 5 0;
#X connect 5 0 10 0;
#X connect 5 1 10 2;
#X connect 6 0 7 0;
#X connect 7 0 10 0;
#X connect 7 1 10 3;
#X connect 8 0 9 0;
#X connect 9 0 10 0;
#X connect 9 1 10 4;
#X connect 10 0 1 0;
#X restore 518 112 pd pack;
#X f 29;
#N canvas 0 50 450 300 pack 0;
#X obj 87 116 inlet;
#X obj 87 251 outlet;
#X obj 141 116 inlet;
#X obj 141 137 t b f;
#X obj 87 226 pack f f, f 14;
#X connect 0 0 4 0;
#X connect 2 0 3 0;
#X connect 3 0 4 0;
#X connect 3 1 4 1;
#X connect 4 0 1 0;
#X restore 307 217 pd pack;
#X f 12;
#X obj 250 362 s \$0-to;
#X obj 250 324 tgl 15 1 empty empty on 17 7 0 10 -262144 -1 -1 1 1
;
#X obj 195 289 s \$0-to;
#X obj 195 255 nbx 5 14 0 1e+37 0 1 empty empty fps 0 -8 0 10 -262144
-1 -1 8 256;
#X msg 195 271 fps \$1;
#X obj 744 106 nbx 7 14 -1e+37 1e+37 0 1 empty empty vic 6 -8 0 10
-262144 -1 -1 -1.18427e+07 256;
#X obj 665 92 nbx 7 14 -1e+37 1e+37 0 1 empty empty grid 6 -8 0 10
-262144 -1 -1 -3.28965e+06 256;
#X obj 698 360 s \$0-to;
#X obj 698 325 tgl 15 1 empty empty vic 17 7 0 10 -262144 -1 -1 1 1
;
#N canvas 19 80 450 300 rgb2pd 0;
#X obj 173 123 t b f;
#X obj 173 143 +, f 5;
#X obj 101 182 +;
#X obj 173 163 t b f;
#X obj 137 123 << 8;
#X obj 101 123 << 16;
#X obj 101 201 * -1;
#X obj 101 220 outlet pd;
#X obj 101 101 nbx 3 14 1 255 0 1 empty empty empty 0 -8 0 10 -261234
-1 -1 30 256;
#X obj 137 101 nbx 3 14 1 255 0 1 empty empty empty 0 -8 0 10 -204786
-1 -1 30 256;
#X obj 173 101 nbx 3 14 1 255 0 1 empty empty empty 0 -8 0 10 -204800
-1 -1 30 256;
#X connect 0 0 1 0;
#X connect 0 1 1 1;
#X connect 1 0 3 0;
#X connect 2 0 6 0;
#X connect 3 0 2 0;
#X connect 3 1 2 1;
#X connect 4 0 1 0;
#X connect 5 0 2 0;
#X connect 6 0 7 0;
#X connect 8 0 5 0;
#X connect 9 0 4 0;
#X connect 10 0 0 0;
#X coords 0 -1 1 1 110 16 1 100 100;
#X restore 518 21 pd rgb2pd;
#N canvas 19 80 450 300 rgb2pd 0;
#X obj 173 123 t b f;
#X obj 173 143 +, f 5;
#X obj 101 182 +;
#X obj 173 163 t b f;
#X obj 137 123 << 8;
#X obj 101 123 << 16;
#X obj 101 201 * -1;
#X obj 101 220 outlet pd;
#X obj 101 101 nbx 3 14 1 255 0 1 empty empty empty 0 -8 0 10 -261234
-1 -1 30 256;
#X obj 137 101 nbx 3 14 1 255 0 1 empty empty empty 0 -8 0 10 -204786
-1 -1 30 256;
#X obj 173 101 nbx 3 14 1 255 0 1 empty empty empty 0 -8 0 10 -204800
-1 -1 30 256;
#X connect 0 0 1 0;
#X connect 0 1 1 1;
#X connect 1 0 3 0;
#X connect 2 0 6 0;
#X connect 3 0 2 0;
#X connect 3 1 2 1;
#X connect 4 0 1 0;
#X connect 5 0 2 0;
#X connect 6 0 7 0;
#X connect 8 0 5 0;
#X connect 9 0 4 0;
#X connect 10 0 0 0;
#X coords 0 -1 1 1 110 16 1 100 100;
#X restore 591 39 pd rgb2pd;
#N canvas 19 80 450 300 rgb2pd 0;
#X obj 173 123 t b f;
#X obj 173 143 +, f 5;
#X obj 101 182 +;
#X obj 173 163 t b f;
#X obj 137 123 << 8;
#X obj 101 123 << 16;
#X obj 101 201 * -1;
#X obj 101 220 outlet pd;
#X obj 101 101 nbx 3 14 1 255 0 1 empty empty empty 0 -8 0 10 -261234
-1 -1 50 256;
#X obj 137 101 nbx 3 14 1 255 0 1 empty empty empty 0 -8 0 10 -204786
-1 -1 50 256;
#X obj 173 101 nbx 3 14 1 255 0 1 empty empty empty 0 -8 0 10 -204800
-1 -1 50 256;
#X connect 0 0 1 0;
#X connect 0 1 1 1;
#X connect 1 0 3 0;
#X connect 2 0 6 0;
#X connect 3 0 2 0;
#X connect 3 1 2 1;
#X connect 4 0 1 0;
#X connect 5 0 2 0;
#X connect 6 0 7 0;
#X connect 8 0 5 0;
#X connect 9 0 4 0;
#X connect 10 0 0 0;
#X coords 0 -1 1 1 110 16 1 100 100;
#X restore 665 57 pd rgb2pd;
#N canvas 19 80 450 300 rgb2pd 0;
#X obj 173 123 t b f;
#X obj 173 143 +, f 5;
#X obj 101 182 +;
#X obj 173 163 t b f;
#X obj 137 123 << 8;
#X obj 101 123 << 16;
#X obj 101 201 * -1;
#X obj 101 220 outlet pd;
#X obj 101 101 nbx 3 14 1 255 0 1 empty empty empty 0 -8 0 10 -261234
-1 -1 180 256;
#X obj 137 101 nbx 3 14 1 255 0 1 empty empty empty 0 -8 0 10 -204786
-1 -1 180 256;
#X obj 173 101 nbx 3 14 1 255 0 1 empty empty empty 0 -8 0 10 -204800
-1 -1 180 256;
#X connect 0 0 1 0;
#X connect 0 1 1 1;
#X connect 1 0 3 0;
#X connect 2 0 6 0;
#X connect 3 0 2 0;
#X connect 3 1 2 1;
#X connect 4 0 1 0;
#X connect 5 0 2 0;
#X connect 6 0 7 0;
#X connect 8 0 5 0;
#X connect 9 0 4 0;
#X connect 10 0 0 0;
#X coords 0 -1 1 1 110 16 1 100 100;
#X restore 744 75 pd rgb2pd;
#X obj 44 337 r \$0-to;
#X obj 299 83 s \$0-to;
#X obj 299 31 nbx 5 14 -100 100 0 1 empty empty min 0 -8 0 10 -262144
-1 -1 -66 256;
#X obj 368 31 nbx 5 14 -100 100 0 1 empty empty max 0 -8 0 10 -262144
-1 -1 4 256;
#N canvas 0 50 450 300 pack 0;
#X obj 87 116 inlet;
#X obj 87 251 outlet;
#X obj 141 116 inlet;
#X obj 141 137 t b f;
#X obj 87 226 pack f f, f 14;
#X connect 0 0 4 0;
#X connect 2 0 3 0;
#X connect 3 0 4 0;
#X connect 3 1 4 1;
#X connect 4 0 1 0;
#X restore 299 47 pd pack;
#X f 12;
#X msg 222 206 grid \$1;
#X obj 127 78 s \$0-to;
#X obj 127 41 nbx 5 14 -10 50 0 1 empty empty env 0 -8 0 10 -262144
-1 -1 8 256;
#X obj 34 357 n_spectr~ 2;
#X msg 698 342 vic \$1;
#X obj 439 174 s \$0-to;
#X obj 439 61 vradio 15 1 1 5 empty empty grid 0 -8 0 10 -262144 -1
-1 0;
#X text 453 62 _1024;
#X text 453 77 _2048;
#X text 453 92 _4096;
#X text 453 107 _8192;
#X text 453 122 _16384;
#N canvas 0 50 450 300 (subpatch) 0;
#X obj 149 113 inlet;
#X msg 149 155 2 \$1;
#X obj 149 176 pow;
#X obj 149 197 outlet;
#X obj 149 134 + 10;
#X connect 0 0 4 0;
#X connect 1 0 2 0;
#X connect 2 0 3 0;
#X connect 4 0 1 0;
#X restore 439 138 pd;
#X msg 439 156 bs \$1;
#X obj 563 425 s \$0-to;
#X obj 563 373 nbx 5 14 0 1e+37 0 1 empty empty x 6 -8 0 10 -262144
-1 -1 95 256;
#X obj 632 373 nbx 5 14 0 1e+37 0 1 empty empty y 6 -8 0 10 -262144
-1 -1 55 256;
#N canvas 0 50 450 300 pack 0;
#X obj 87 116 inlet;
#X obj 87 251 outlet;
#X obj 141 116 inlet;
#X obj 141 137 t b f;
#X obj 87 226 pack f f, f 14;
#X connect 0 0 4 0;
#X connect 2 0 3 0;
#X connect 3 0 4 0;
#X connect 3 1 4 1;
#X connect 4 0 1 0;
#X restore 563 389 pd pack;
#X f 12;
#X msg 563 407 vic_coords \$1 \$2;
#X msg 299 65 minmax_log \$1 \$2;
#X obj 222 189 tgl 15 1 empty empty grid 17 7 0 10 -262144 -1 -1 1
1;
#X obj 209 72 s \$0-to;
#X obj 209 37 tgl 15 1 empty empty grid_hor 17 7 0 10 -262144 -1 -1
1 1;
#X msg 209 54 grid_hor \$1;
#X obj 211 150 s \$0-to;
#X obj 211 113 tgl 15 1 empty empty grid_ver 17 7 0 10 -262144 -1 -1
1 1;
#X msg 211 132 grid_ver \$1;
#X obj 821 124 nbx 7 14 -1e+37 1e+37 0 1 empty empty text 6 -8 0 10
-262144 -1 -1 -65793 256;
#N canvas 19 80 450 300 rgb2pd 0;
#X obj 173 123 t b f;
#X obj 173 143 +, f 5;
#X obj 101 182 +;
#X obj 173 163 t b f;
#X obj 137 123 << 8;
#X obj 101 123 << 16;
#X obj 101 201 * -1;
#X obj 101 220 outlet pd;
#X obj 101 101 nbx 3 14 1 255 0 1 empty empty empty 0 -8 0 10 -261234
-1 -1 1 256;
#X obj 137 101 nbx 3 14 1 255 0 1 empty empty empty 0 -8 0 10 -204786
-1 -1 1 256;
#X obj 173 101 nbx 3 14 1 255 0 1 empty empty empty 0 -8 0 10 -204800
-1 -1 1 256;
#X connect 0 0 1 0;
#X connect 0 1 1 1;
#X connect 1 0 3 0;
#X connect 2 0 6 0;
#X connect 3 0 2 0;
#X connect 3 1 2 1;
#X connect 4 0 1 0;
#X connect 5 0 2 0;
#X connect 6 0 7 0;
#X connect 8 0 5 0;
#X connect 9 0 4 0;
#X connect 10 0 0 0;
#X coords 0 -1 1 1 110 16 1 100 100;
#X restore 821 93 pd rgb2pd;
#X obj 518 242 s \$0-to;
#N canvas 0 50 534 296 pack 0;
#X obj 87 116 inlet;
#X obj 87 251 outlet;
#X obj 140 116 inlet;
#X obj 140 137 t b f;
#X obj 220 116 inlet;
#X obj 220 137 t b f;
#X obj 300 116 inlet;
#X obj 300 137 t b f;
#X obj 381 116 inlet;
#X obj 381 137 t b f;
#X obj 431 116 inlet;
#X obj 431 137 t b f;
#X obj 87 228 pack f f f f f f, f 54;
#X connect 0 0 12 0;
#X connect 2 0 3 0;
#X connect 3 0 12 0;
#X connect 3 1 12 1;
#X connect 4 0 5 0;
#X connect 5 0 12 0;
#X connect 5 1 12 2;
#X connect 6 0 7 0;
#X connect 7 0 12 0;
#X connect 7 1 12 3;
#X connect 8 0 9 0;
#X connect 9 0 12 0;
#X connect 9 1 12 4;
#X connect 10 0 11 0;
#X connect 11 0 12 0;
#X connect 11 1 12 5;
#X connect 12 0 1 0;
#X restore 518 206 pd pack;
#X f 38;
#X obj 299 165 s \$0-to;
#X obj 299 113 nbx 5 14 -100 100 0 1 empty empty min 0 -8 0 10 -262144
-1 -1 -0.76 256;
#X obj 368 113 nbx 5 14 -100 100 0 1 empty empty max 0 -8 0 10 -262144
-1 -1 1.26 256;
#N canvas 0 50 450 300 pack 0;
#X obj 87 116 inlet;
#X obj 87 251 outlet;
#X obj 141 116 inlet;
#X obj 141 137 t b f;
#X obj 87 226 pack f f, f 14;
#X connect 0 0 4 0;
#X connect 2 0 3 0;
#X connect 3 0 4 0;
#X connect 3 1 4 1;
#X connect 4 0 1 0;
#X restore 299 129 pd pack;
#X f 12;
#X msg 299 147 minmax_lin \$1 \$2;
#N canvas 0 50 460 504 (subpatch) 0;
#X obj 42 456 outlet~;
#X obj 206 85 vradio 15 1 1 7 empty empty empty 0 -8 0 10 -262144 -1
-1 4;
#X text 220 86 _off;
#X text 220 116 _sin;
#X text 220 131 _tri;
#X text 220 146 _saw;
#X text 220 101 _ph;
#X obj 43 346 *~ 0;
#X obj 42 194 phasor~;
#X obj 64 322 == 1;
#X obj 113 384 *~ 0;
#X obj 134 363 == 2;
#X obj 114 302 cos~;
#X obj 182 294 -~ 0.5;
#X obj 182 315 abs~;
#X obj 182 336 *~ 4;
#X obj 182 357 -~ 1;
#X obj 183 403 *~ 0;
#X obj 204 379 == 3;
#X obj 246 292 *~ 2;
#X obj 246 313 -~ 1;
#X obj 245 404 *~ 0;
#X obj 266 383 == 4;
#X obj 346 285 wrap~;
#X obj 346 266 +~ 0.5;
#X obj 334 306 -~;
#X obj 334 410 *~ 0;
#X obj 355 391 == 5;
#X obj 333 344 +~;
#X obj 206 209 nbx 3 14 0 100 0 1 empty empty pw 40 8 0 10 -262144
-1 -1 50 256;
#X obj 379 241 * 0.01;
#X text 220 176 _noise;
#X text 220 161 _pulse;
#X obj 206 43 nbx 4 14 -9999 9999 0 1 empty empty m 50 8 0 10 -262144
-1 -1 80 256;
#X obj 206 62 nbx 4 14 0 999999 0 1 empty empty f 50 8 0 10 -262144
-1 -1 830.609 256;
#X obj 109 31 mtof;
#X obj 322 30 ftom;
#X msg 109 57 set \$1;
#X msg 322 58 set \$1;
#X obj 396 412 *~ 0;
#X obj 415 393 == 6;
#X obj 397 339 noise~;
#X connect 1 0 9 0;
#X connect 1 0 11 0;
#X connect 1 0 18 0;
#X connect 1 0 22 0;
#X connect 1 0 27 0;
#X connect 1 0 40 0;
#X connect 7 0 0 0;
#X connect 8 0 7 0;
#X connect 8 0 12 0;
#X connect 8 0 13 0;
#X connect 8 0 19 0;
#X connect 8 0 24 0;
#X connect 8 0 25 0;
#X connect 9 0 7 1;
#X connect 10 0 0 0;
#X connect 11 0 10 1;
#X connect 12 0 10 0;
#X connect 13 0 14 0;
#X connect 14 0 15 0;
#X connect 15 0 16 0;
#X connect 16 0 17 0;
#X connect 17 0 0 0;
#X connect 18 0 17 1;
#X connect 19 0 20 0;
#X connect 20 0 21 0;
#X connect 21 0 0 0;
#X connect 22 0 21 1;
#X connect 23 0 25 1;
#X connect 24 0 23 0;
#X connect 25 0 28 0;
#X connect 25 0 28 1;
#X connect 26 0 0 0;
#X connect 27 0 26 1;
#X connect 28 0 26 0;
#X connect 29 0 30 0;
#X connect 30 0 24 1;
#X connect 33 0 35 0;
#X connect 34 0 8 0;
#X connect 34 0 36 0;
#X connect 35 0 8 0;
#X connect 35 0 37 0;
#X connect 36 0 38 0;
#X connect 37 0 34 0;
#X connect 38 0 33 0;
#X connect 39 0 0 0;
#X connect 40 0 39 1;
#X connect 41 0 39 0;
#X coords 0 -1 1 1 65 200 2 200 40;
#X restore 33 126 pd;
#N canvas 0 50 460 504 (subpatch) 0;
#X obj 42 456 outlet~;
#X obj 206 85 vradio 15 1 1 7 empty empty empty 0 -8 0 10 -262144 -1
-1 4;
#X text 220 86 _off;
#X text 220 116 _sin;
#X text 220 131 _tri;
#X text 220 146 _saw;
#X text 220 101 _ph;
#X obj 43 346 *~ 0;
#X obj 42 194 phasor~;
#X obj 64 322 == 1;
#X obj 113 384 *~ 0;
#X obj 134 363 == 2;
#X obj 114 302 cos~;
#X obj 182 294 -~ 0.5;
#X obj 182 315 abs~;
#X obj 182 336 *~ 4;
#X obj 182 357 -~ 1;
#X obj 183 403 *~ 0;
#X obj 204 379 == 3;
#X obj 246 292 *~ 2;
#X obj 246 313 -~ 1;
#X obj 245 404 *~ 0;
#X obj 266 383 == 4;
#X obj 346 285 wrap~;
#X obj 346 266 +~ 0.5;
#X obj 334 306 -~;
#X obj 334 410 *~ 0;
#X obj 355 391 == 5;
#X obj 333 344 +~;
#X obj 206 209 nbx 3 14 0 100 0 1 empty empty pw 40 8 0 10 -262144
-1 -1 50 256;
#X obj 379 241 * 0.01;
#X text 220 176 _noise;
#X text 220 161 _pulse;
#X obj 206 43 nbx 4 14 -9999 9999 0 1 empty empty m 50 8 0 10 -262144
-1 -1 96 256;
#X obj 206 62 nbx 4 14 0 999999 0 1 empty empty f 50 8 0 10 -262144
-1 -1 2093 256;
#X obj 109 31 mtof;
#X obj 322 30 ftom;
#X msg 109 57 set \$1;
#X msg 322 58 set \$1;
#X obj 396 412 *~ 0;
#X obj 415 393 == 6;
#X obj 397 339 noise~;
#X connect 1 0 9 0;
#X connect 1 0 11 0;
#X connect 1 0 18 0;
#X connect 1 0 22 0;
#X connect 1 0 27 0;
#X connect 1 0 40 0;
#X connect 7 0 0 0;
#X connect 8 0 7 0;
#X connect 8 0 12 0;
#X connect 8 0 13 0;
#X connect 8 0 19 0;
#X connect 8 0 24 0;
#X connect 8 0 25 0;
#X connect 9 0 7 1;
#X connect 10 0 0 0;
#X connect 11 0 10 1;
#X connect 12 0 10 0;
#X connect 13 0 14 0;
#X connect 14 0 15 0;
#X connect 15 0 16 0;
#X connect 16 0 17 0;
#X connect 17 0 0 0;
#X connect 18 0 17 1;
#X connect 19 0 20 0;
#X connect 20 0 21 0;
#X connect 21 0 0 0;
#X connect 22 0 21 1;
#X connect 23 0 25 1;
#X connect 24 0 23 0;
#X connect 25 0 28 0;
#X connect 25 0 28 1;
#X connect 26 0 0 0;
#X connect 27 0 26 1;
#X connect 28 0 26 0;
#X connect 29 0 30 0;
#X connect 30 0 24 1;
#X connect 33 0 35 0;
#X connect 34 0 8 0;
#X connect 34 0 36 0;
#X connect 35 0 8 0;
#X connect 35 0 37 0;
#X connect 36 0 38 0;
#X connect 37 0 34 0;
#X connect 38 0 33 0;
#X connect 39 0 0 0;
#X connect 40 0 39 1;
#X connect 41 0 39 0;
#X coords 0 -1 1 1 65 200 2 200 40;
#X restore 98 126 pd;
#X msg 821 411 window \$1 \$2;
#X obj 821 430 s \$0-to;
#X msg 821 169 0 0;
#X text 861 169 none.;
#X msg 839 188 1 1;
#X text 879 188 bartlett;
#X msg 859 208 2 1;
#X text 899 208 blackman;
#X text 915 230 connes;
#X msg 875 230 3 1;
#X msg 897 270 4 \$1;
#X text 937 270 gaussian;
#X floatatom 897 250 5 0 0 0 - - -;
#X text 952 292 hanning;
#X text 968 314 hamming;
#X msg 912 292 5 1;
#X msg 928 314 6 1;
#X text 982 336 lanczos;
#X text 998 358 sin;
#X msg 942 336 7 1;
#X msg 958 358 8 1;
#X msg 964 383 9 1;
#X text 1004 383 welch;
#X msg 127 60 env \$1;
#X msg 518 130 color \$1 \$2 \$3 \$4 \$5;
#X obj 490 288 route 0;
#X obj 529 306 list split 1;
#X obj 563 324 list split 2;
#X obj 563 342 unpack f f, f 12;
#X obj 34 687 s \$0-from;
#X obj 490 270 r \$0-from;
#X obj 97 406 nbx 5 14 -1e+37 1e+37 0 0 empty empty freq 6 -8 0 10
-262144 -1 -1 4091.31 256;
#X obj 154 406 nbx 5 14 -1e+37 1e+37 0 0 empty empty rms 6 -8 0 10
-262144 -1 -1 0.654088 256;
#X obj 97 375 unpack f f;
#X obj 97 422 ftom;
#X obj 97 476 nbx 5 14 -1e+37 1e+37 0 0 empty empty m 6 -8 0 10 -262144
-1 -1 107.604 256;
#X obj 154 476 nbx 5 14 -1e+37 1e+37 0 0 empty empty db 6 -8 0 10 -262144
-1 -1 -3.68728 256;
#X obj 154 422 rmstodb;
#X obj 154 443 - 100;
#X msg 518 224 text \$1 \$2 \$3 \$4 \$5 \$6;
#X obj 533 182 nbx 5 14 4 100 0 1 empty empty fs 0 -8 0 10 -262144
-1 -1 10 256;
#X obj 589 182 nbx 5 14 -100 100 0 1 empty empty hor_dx 0 -8 0 10 -262144
-1 -1 4 256;
#X obj 645 182 nbx 5 14 -100 100 0 1 empty empty hor_dy 0 -8 0 10 -262144
-1 -1 6 256;
#X obj 701 182 nbx 5 14 -100 100 0 1 empty empty ver_dx 0 -8 0 10 -262144
-1 -1 -2 256;
#X obj 757 182 nbx 5 14 -100 100 0 1 empty empty ver_dy 0 -8 0 10 -262144
-1 -1 10 256;
#X obj 489 186 tgl 15 1 empty empty view 17 7 0 10 -262144 -1 -1 1
1;
#X obj 342 341 nbx 7 14 -1e+37 1e+37 0 1 empty empty col 6 -8 0 10
-262144 -1 -1 -1.67119e+07 256;
#N canvas 19 80 450 300 rgb2pd 0;
#X obj 173 123 t b f;
#X obj 173 143 +, f 5;
#X obj 101 182 +;
#X obj 173 163 t b f;
#X obj 137 123 << 8;
#X obj 101 123 << 16;
#X obj 101 201 * -1;
#X obj 101 220 outlet pd;
#X obj 101 101 nbx 3 14 1 255 0 1 empty empty empty 0 -8 0 10 -261234
-1 -1 255 256;
#X obj 137 101 nbx 3 14 1 255 0 1 empty empty empty 0 -8 0 10 -204786
-1 -1 1 256;
#X obj 173 101 nbx 3 14 1 255 0 1 empty empty empty 0 -8 0 10 -204800
-1 -1 1 256;
#X connect 0 0 1 0;
#X connect 0 1 1 1;
#X connect 1 0 3 0;
#X connect 2 0 6 0;
#X connect 3 0 2 0;
#X connect 3 1 2 1;
#X connect 4 0 1 0;
#X connect 5 0 2 0;
#X connect 6 0 7 0;
#X connect 8 0 5 0;
#X connect 9 0 4 0;
#X connect 10 0 0 0;
#X coords 0 -1 1 1 110 16 1 100 100;
#X restore 342 310 pd rgb2pd;
#X msg 250 344 in_on 0 \$1;
#X obj 342 377 s \$0-to;
#X msg 342 359 in_color 0 \$1;
#X obj 250 452 s \$0-to;
#X obj 250 414 tgl 15 1 empty empty on 17 7 0 10 -262144 -1 -1 1 1
;
#X obj 342 431 nbx 7 14 -1e+37 1e+37 0 1 empty empty col 6 -8 0 10
-262144 -1 -1 -239873 256;
#N canvas 19 80 450 300 rgb2pd 0;
#X obj 173 123 t b f;
#X obj 173 143 +, f 5;
#X obj 101 182 +;
#X obj 173 163 t b f;
#X obj 137 123 << 8;
#X obj 101 123 << 16;
#X obj 101 201 * -1;
#X obj 101 220 outlet pd;
#X obj 101 101 nbx 3 14 1 255 0 1 empty empty empty 0 -8 0 10 -261234
-1 -1 3 256;
#X obj 137 101 nbx 3 14 1 255 0 1 empty empty empty 0 -8 0 10 -204786
-1 -1 169 256;
#X obj 173 101 nbx 3 14 1 255 0 1 empty empty empty 0 -8 0 10 -204800
-1 -1 1 256;
#X connect 0 0 1 0;
#X connect 0 1 1 1;
#X connect 1 0 3 0;
#X connect 2 0 6 0;
#X connect 3 0 2 0;
#X connect 3 1 2 1;
#X connect 4 0 1 0;
#X connect 5 0 2 0;
#X connect 6 0 7 0;
#X connect 8 0 5 0;
#X connect 9 0 4 0;
#X connect 10 0 0 0;
#X coords 0 -1 1 1 110 16 1 100 100;
#X restore 342 400 pd rgb2pd;
#X obj 342 467 s \$0-to;
#X msg 250 434 in_on 1 \$1;
#X msg 342 449 in_color 1 \$1;
#X connect 0 0 99 0;
#X connect 1 0 2 0;
#X connect 2 0 3 0;
#X connect 6 0 5 0;
#X connect 7 0 13 0;
#X connect 8 0 13 1;
#X connect 10 0 12 0;
#X connect 11 0 12 1;
#X connect 12 0 94 0;
#X connect 13 0 6 0;
#X connect 15 0 118 0;
#X connect 17 0 18 0;
#X connect 18 0 16 0;
#X connect 19 0 12 3;
#X connect 20 0 12 2;
#X connect 22 0 36 0;
#X connect 23 0 10 0;
#X connect 24 0 11 0;
#X connect 25 0 20 0;
#X connect 26 0 19 0;
#X connect 27 0 35 0;
#X connect 29 0 31 0;
#X connect 30 0 31 1;
#X connect 31 0 51 0;
#X connect 32 0 4 0;
#X connect 34 0 93 0;
#X connect 35 0 0 0;
#X connect 35 1 103 0;
#X connect 36 0 21 0;
#X connect 38 0 44 0;
#X connect 44 0 45 0;
#X connect 45 0 37 0;
#X connect 47 0 49 0;
#X connect 48 0 49 1;
#X connect 49 0 50 0;
#X connect 50 0 46 0;
#X connect 51 0 28 0;
#X connect 52 0 32 0;
#X connect 54 0 55 0;
#X connect 55 0 53 0;
#X connect 57 0 58 0;
#X connect 58 0 56 0;
#X connect 59 0 12 4;
#X connect 60 0 59 0;
#X connect 62 0 109 0;
#X connect 64 0 66 0;
#X connect 65 0 66 1;
#X connect 66 0 67 0;
#X connect 67 0 63 0;
#X connect 68 0 35 0;
#X connect 69 0 35 1;
#X connect 70 0 71 0;
#X connect 72 0 70 0;
#X connect 74 0 70 0;
#X connect 76 0 70 0;
#X connect 79 0 70 0;
#X connect 80 0 70 0;
#X connect 82 0 80 0;
#X connect 85 0 70 0;
#X connect 86 0 70 0;
#X connect 89 0 70 0;
#X connect 90 0 70 0;
#X connect 91 0 70 0;
#X connect 93 0 33 0;
#X connect 94 0 9 0;
#X connect 95 1 96 0;
#X connect 96 1 97 0;
#X connect 97 0 98 0;
#X connect 98 0 47 0;
#X connect 98 1 48 0;
#X connect 100 0 95 0;
#X connect 101 0 104 0;
#X connect 102 0 107 0;
#X connect 103 0 101 0;
#X connect 103 1 102 0;
#X connect 104 0 105 0;
#X connect 107 0 108 0;
#X connect 108 0 106 0;
#X connect 109 0 61 0;
#X connect 110 0 62 1;
#X connect 111 0 62 2;
#X connect 112 0 62 3;
#X connect 113 0 62 4;
#X connect 114 0 62 5;
#X connect 115 0 62 0;
#X connect 116 0 120 0;
#X connect 117 0 116 0;
#X connect 118 0 14 0;
#X connect 120 0 119 0;
#X connect 122 0 126 0;
#X connect 123 0 127 0;
#X connect 124 0 123 0;
#X connect 126 0 121 0;
#X connect 127 0 125 0;
